<?xml version="1.0" encoding="UTF-8" standalone="no"?>
<!DOCTYPE svg PUBLIC "-//W3C//DTD SVG 1.1//EN"
 "http://www.w3.org/Graphics/SVG/1.1/DTD/svg11.dtd">
<!-- Generated by graphviz version 2.50.0 (0)
 -->
<!-- Title: ocdfg Pages: 1 -->
<svg width="1905pt" height="278pt"
 viewBox="0.00 0.00 1904.58 278.00" xmlns="http://www.w3.org/2000/svg" xmlns:xlink="http://www.w3.org/1999/xlink">
<g id="graph0" class="graph" transform="scale(1 1) rotate(0) translate(4 274)">
<title>ocdfg</title>
<!-- 8eb2d7e7&#45;edab&#45;4c4c&#45;93a4&#45;abada217a900 -->
<g id="node1" class="node">
<title>8eb2d7e7&#45;edab&#45;4c4c&#45;93a4&#45;abada217a900</title>
<polygon fill="#dadaff" stroke="black" points="637.58,-38 434.58,-38 434.58,0 637.58,0 637.58,-38"/>
<text text-anchor="middle" x="536.08" y="-22.8" font-family="Times,serif" font-size="14.00">Created Production Order</text>
<text text-anchor="middle" x="536.08" y="-7.8" font-family="Times,serif" font-size="14.00">E=50</text>
</g>
<!-- 44e987a6&#45;d9c9&#45;43e5&#45;b5e9&#45;14f989b984d9 -->
<g id="node8" class="node">
<title>44e987a6&#45;d9c9&#45;43e5&#45;b5e9&#45;14f989b984d9</title>
<polygon fill="#aaaaff" stroke="black" points="1093.58,-38 836.58,-38 836.58,0 1093.58,0 1093.58,-38"/>
<text text-anchor="middle" x="965.08" y="-22.8" font-family="Times,serif" font-size="14.00">Goods Issue for Production Order</text>
<text text-anchor="middle" x="965.08" y="-7.8" font-family="Times,serif" font-size="14.00">E=95</text>
</g>
<!-- 8eb2d7e7&#45;edab&#45;4c4c&#45;93a4&#45;abada217a900&#45;&gt;44e987a6&#45;d9c9&#45;43e5&#45;b5e9&#45;14f989b984d9 -->
<g id="edge5" class="edge">
<title>8eb2d7e7&#45;edab&#45;4c4c&#45;93a4&#45;abada217a900&#45;&gt;44e987a6&#45;d9c9&#45;43e5&#45;b5e9&#45;14f989b984d9</title>
<path fill="none" stroke="#f491f3" stroke-width="2.6" d="M637.73,-19C694.02,-19 764.99,-19 826.37,-19"/>
<polygon fill="#f491f3" stroke="#f491f3" stroke-width="2.6" points="826.52,-22.5 836.52,-19 826.52,-15.5 826.52,-22.5"/>
<text text-anchor="middle" x="750.58" y="-21.6" font-family="Times,serif" font-size="8.00" fill="#f491f3">DOCTYPE_PRODORD EC=50</text>
</g>
<!-- cf374641&#45;2e63&#45;4d15&#45;ab52&#45;c905fa455cd8 -->
<g id="node2" class="node">
<title>cf374641&#45;2e63&#45;4d15&#45;ab52&#45;c905fa455cd8</title>
<polygon fill="#9b9bff" stroke="black" points="666.58,-140 405.58,-140 405.58,-102 666.58,-102 666.58,-140"/>
<text text-anchor="middle" x="536.08" y="-124.8" font-family="Times,serif" font-size="14.00">Released Purchase Requisition (1)</text>
<text text-anchor="middle" x="536.08" y="-109.8" font-family="Times,serif" font-size="14.00">E=110</text>
</g>
<!-- 71903ea9&#45;614f&#45;441c&#45;a9be&#45;3db99a01f709 -->
<g id="node3" class="node">
<title>71903ea9&#45;614f&#45;441c&#45;a9be&#45;3db99a01f709</title>
<polygon fill="#a4a4ff" stroke="black" points="1095.58,-166 834.58,-166 834.58,-128 1095.58,-128 1095.58,-166"/>
<text text-anchor="middle" x="965.08" y="-150.8" font-family="Times,serif" font-size="14.00">Released Purchase Requisition (2)</text>
<text text-anchor="middle" x="965.08" y="-135.8" font-family="Times,serif" font-size="14.00">E=101</text>
</g>
<!-- cf374641&#45;2e63&#45;4d15&#45;ab52&#45;c905fa455cd8&#45;&gt;71903ea9&#45;614f&#45;441c&#45;a9be&#45;3db99a01f709 -->
<g id="edge1" class="edge">
<title>cf374641&#45;2e63&#45;4d15&#45;ab52&#45;c905fa455cd8&#45;&gt;71903ea9&#45;614f&#45;441c&#45;a9be&#45;3db99a01f709</title>
<path fill="none" stroke="#17069d" stroke-width="2.46" d="M666.64,-128.89C716.45,-131.92 773.51,-135.4 824.25,-138.49"/>
<polygon fill="#17069d" stroke="#17069d" stroke-width="2.46" points="824.11,-141.98 834.31,-139.1 824.54,-135 824.11,-141.98"/>
<text text-anchor="middle" x="750.58" y="-140.6" font-family="Times,serif" font-size="8.00" fill="#17069d">DOCTYPE_PURCHREQ EC=101</text>
</g>
<!-- ec59d215&#45;3daf&#45;46e3&#45;b6b7&#45;5301a759a749 -->
<g id="node14" class="node">
<title>ec59d215&#45;3daf&#45;46e3&#45;b6b7&#45;5301a759a749</title>
<polygon fill="none" stroke="transparent" points="1532.08,-139 1351.08,-139 1351.08,-103 1532.08,-103 1532.08,-139"/>
<polyline fill="none" stroke="black" points="1351.08,-103 1532.08,-103 "/>
<text text-anchor="middle" x="1441.58" y="-117.3" font-family="Times,serif" font-size="14.00" fill="#17069d">DOCTYPE_PURCHREQ</text>
</g>
<!-- cf374641&#45;2e63&#45;4d15&#45;ab52&#45;c905fa455cd8&#45;&gt;ec59d215&#45;3daf&#45;46e3&#45;b6b7&#45;5301a759a749 -->
<g id="edge13" class="edge">
<title>cf374641&#45;2e63&#45;4d15&#45;ab52&#45;c905fa455cd8&#45;&gt;ec59d215&#45;3daf&#45;46e3&#45;b6b7&#45;5301a759a749</title>
<path fill="none" stroke="#17069d" d="M666.65,-115.17C718.81,-113.09 779.54,-111.02 834.58,-110 950.56,-107.86 979.59,-108.15 1095.58,-110 1178.08,-111.31 1271.63,-114.4 1340.48,-116.97"/>
<polygon fill="#17069d" stroke="#17069d" points="1340.76,-120.48 1350.88,-117.36 1341.02,-113.48 1340.76,-120.48"/>
<text text-anchor="middle" x="965.08" y="-112.6" font-family="Times,serif" font-size="8.00" fill="#17069d">DOCTYPE_PURCHREQ EC=9</text>
</g>
<!-- 71903ea9&#45;614f&#45;441c&#45;a9be&#45;3db99a01f709&#45;&gt;ec59d215&#45;3daf&#45;46e3&#45;b6b7&#45;5301a759a749 -->
<g id="edge12" class="edge">
<title>71903ea9&#45;614f&#45;441c&#45;a9be&#45;3db99a01f709&#45;&gt;ec59d215&#45;3daf&#45;46e3&#45;b6b7&#45;5301a759a749</title>
<path fill="none" stroke="#17069d" stroke-width="2.46" d="M1095.74,-139.9C1172.89,-135.67 1269.3,-130.39 1340.55,-126.48"/>
<polygon fill="#17069d" stroke="#17069d" stroke-width="2.46" points="1341.08,-129.96 1350.88,-125.92 1340.7,-122.97 1341.08,-129.96"/>
<text text-anchor="middle" x="1213.58" y="-141.6" font-family="Times,serif" font-size="8.00" fill="#17069d">DOCTYPE_PURCHREQ EC=101</text>
</g>
<!-- db3c085b&#45;c840&#45;4520&#45;8a34&#45;90c5f85b5ade -->
<g id="node4" class="node">
<title>db3c085b&#45;c840&#45;4520&#45;8a34&#45;90c5f85b5ade</title>
<polygon fill="#9b9bff" stroke="black" points="631.58,-252 440.58,-252 440.58,-214 631.58,-214 631.58,-252"/>
<text text-anchor="middle" x="536.08" y="-236.8" font-family="Times,serif" font-size="14.00">Created Purchase Order</text>
<text text-anchor="middle" x="536.08" y="-221.8" font-family="Times,serif" font-size="14.00">E=110</text>
</g>
<!-- 64cb5e18&#45;14a5&#45;40b5&#45;86c4&#45;7dd603a37279 -->
<g id="node5" class="node">
<title>64cb5e18&#45;14a5&#45;40b5&#45;86c4&#45;7dd603a37279</title>
<polygon fill="#ffffff" stroke="black" points="1313.58,-270 1113.58,-270 1113.58,-232 1313.58,-232 1313.58,-270"/>
<text text-anchor="middle" x="1213.58" y="-254.8" font-family="Times,serif" font-size="14.00"> Rejected Purchase Order</text>
<text text-anchor="middle" x="1213.58" y="-239.8" font-family="Times,serif" font-size="14.00">E=15</text>
</g>
<!-- db3c085b&#45;c840&#45;4520&#45;8a34&#45;90c5f85b5ade&#45;&gt;64cb5e18&#45;14a5&#45;40b5&#45;86c4&#45;7dd603a37279 -->
<g id="edge2" class="edge">
<title>db3c085b&#45;c840&#45;4520&#45;8a34&#45;90c5f85b5ade&#45;&gt;64cb5e18&#45;14a5&#45;40b5&#45;86c4&#45;7dd603a37279</title>
<path fill="none" stroke="#11646f" d="M631.72,-235.52C755.66,-238.82 972.53,-244.6 1103.32,-248.09"/>
<polygon fill="#11646f" stroke="#11646f" points="1103.28,-251.59 1113.37,-248.36 1103.47,-244.59 1103.28,-251.59"/>
<text text-anchor="middle" x="750.58" y="-242.6" font-family="Times,serif" font-size="8.00" fill="#11646f">DOCTYPE_PURCHORD EC=15</text>
</g>
<!-- 14e10297&#45;bf75&#45;4794&#45;9b0b&#45;22a8fbde6d75 -->
<g id="node6" class="node">
<title>14e10297&#45;bf75&#45;4794&#45;9b0b&#45;22a8fbde6d75</title>
<polygon fill="#aaaaff" stroke="black" points="1076.08,-222 854.08,-222 854.08,-184 1076.08,-184 1076.08,-222"/>
<text text-anchor="middle" x="965.08" y="-206.8" font-family="Times,serif" font-size="14.00">Released Purchase Order (1)</text>
<text text-anchor="middle" x="965.08" y="-191.8" font-family="Times,serif" font-size="14.00">E=95</text>
</g>
<!-- db3c085b&#45;c840&#45;4520&#45;8a34&#45;90c5f85b5ade&#45;&gt;14e10297&#45;bf75&#45;4794&#45;9b0b&#45;22a8fbde6d75 -->
<g id="edge3" class="edge">
<title>db3c085b&#45;c840&#45;4520&#45;8a34&#45;90c5f85b5ade&#45;&gt;14e10297&#45;bf75&#45;4794&#45;9b0b&#45;22a8fbde6d75</title>
<path fill="none" stroke="#11646f" stroke-width="2.35" d="M631.85,-223.48C649.37,-221.87 667.52,-220.3 684.58,-219 736.72,-215.03 794.4,-211.58 843.76,-208.9"/>
<polygon fill="#11646f" stroke="#11646f" stroke-width="2.35" points="844.04,-212.39 853.83,-208.36 843.66,-205.4 844.04,-212.39"/>
<text text-anchor="middle" x="750.58" y="-221.6" font-family="Times,serif" font-size="8.00" fill="#11646f">DOCTYPE_PURCHORD EC=95</text>
</g>
<!-- 97d1f50a&#45;5346&#45;4b3f&#45;9cb4&#45;d83e1e1510d6 -->
<g id="node15" class="node">
<title>97d1f50a&#45;5346&#45;4b3f&#45;9cb4&#45;d83e1e1510d6</title>
<polygon fill="none" stroke="transparent" points="1896.58,-246 1714.58,-246 1714.58,-210 1896.58,-210 1896.58,-246"/>
<polyline fill="none" stroke="black" points="1714.58,-210 1896.58,-210 "/>
<text text-anchor="middle" x="1805.58" y="-224.3" font-family="Times,serif" font-size="14.00" fill="#11646f">DOCTYPE_PURCHORD</text>
</g>
<!-- 64cb5e18&#45;14a5&#45;40b5&#45;86c4&#45;7dd603a37279&#45;&gt;97d1f50a&#45;5346&#45;4b3f&#45;9cb4&#45;d83e1e1510d6 -->
<g id="edge14" class="edge">
<title>64cb5e18&#45;14a5&#45;40b5&#45;86c4&#45;7dd603a37279&#45;&gt;97d1f50a&#45;5346&#45;4b3f&#45;9cb4&#45;d83e1e1510d6</title>
<path fill="none" stroke="#11646f" d="M1313.66,-247.14C1422.2,-242.91 1595.31,-236.16 1704.32,-231.91"/>
<polygon fill="#11646f" stroke="#11646f" points="1704.48,-235.41 1714.33,-231.52 1704.2,-228.41 1704.48,-235.41"/>
<text text-anchor="middle" x="1441.58" y="-248.6" font-family="Times,serif" font-size="8.00" fill="#11646f">DOCTYPE_PURCHORD EC=15</text>
</g>
<!-- d6fa91e9&#45;094e&#45;45e0&#45;9569&#45;7b23194f5cf8 -->
<g id="node7" class="node">
<title>d6fa91e9&#45;094e&#45;45e0&#45;9569&#45;7b23194f5cf8</title>
<polygon fill="#aaaaff" stroke="black" points="1537.08,-219 1346.08,-219 1346.08,-181 1537.08,-181 1537.08,-219"/>
<text text-anchor="middle" x="1441.58" y="-203.8" font-family="Times,serif" font-size="14.00">Goods Receipt for Order</text>
<text text-anchor="middle" x="1441.58" y="-188.8" font-family="Times,serif" font-size="14.00">E=95</text>
</g>
<!-- 14e10297&#45;bf75&#45;4794&#45;9b0b&#45;22a8fbde6d75&#45;&gt;d6fa91e9&#45;094e&#45;45e0&#45;9569&#45;7b23194f5cf8 -->
<g id="edge4" class="edge">
<title>14e10297&#45;bf75&#45;4794&#45;9b0b&#45;22a8fbde6d75&#45;&gt;d6fa91e9&#45;094e&#45;45e0&#45;9569&#45;7b23194f5cf8</title>
<path fill="none" stroke="#11646f" stroke-width="2.35" d="M1076.13,-202.3C1154.34,-201.81 1258.73,-201.15 1335.74,-200.66"/>
<polygon fill="#11646f" stroke="#11646f" stroke-width="2.35" points="1335.97,-204.16 1345.95,-200.6 1335.92,-197.16 1335.97,-204.16"/>
<text text-anchor="middle" x="1213.58" y="-204.6" font-family="Times,serif" font-size="8.00" fill="#11646f">DOCTYPE_PURCHORD EC=95</text>
</g>
<!-- d6fa91e9&#45;094e&#45;45e0&#45;9569&#45;7b23194f5cf8&#45;&gt;97d1f50a&#45;5346&#45;4b3f&#45;9cb4&#45;d83e1e1510d6 -->
<g id="edge15" class="edge">
<title>d6fa91e9&#45;094e&#45;45e0&#45;9569&#45;7b23194f5cf8&#45;&gt;97d1f50a&#45;5346&#45;4b3f&#45;9cb4&#45;d83e1e1510d6</title>
<path fill="none" stroke="#11646f" stroke-width="2.35" d="M1537.22,-207.32C1588.57,-211.29 1652.05,-216.2 1704.26,-220.24"/>
<polygon fill="#11646f" stroke="#11646f" stroke-width="2.35" points="1704.3,-223.75 1714.54,-221.04 1704.84,-216.78 1704.3,-223.75"/>
<text text-anchor="middle" x="1633.08" y="-220.6" font-family="Times,serif" font-size="8.00" fill="#11646f">DOCTYPE_PURCHORD EC=95</text>
</g>
<!-- 44e987a6&#45;d9c9&#45;43e5&#45;b5e9&#45;14f989b984d9&#45;&gt;44e987a6&#45;d9c9&#45;43e5&#45;b5e9&#45;14f989b984d9 -->
<g id="edge6" class="edge">
<title>44e987a6&#45;d9c9&#45;43e5&#45;b5e9&#45;14f989b984d9&#45;&gt;44e987a6&#45;d9c9&#45;43e5&#45;b5e9&#45;14f989b984d9</title>
<path fill="none" stroke="#f491f3" d="M926.14,-38.04C920.75,-47.53 933.73,-56 965.08,-56 984.18,-56 996.46,-52.86 1001.92,-48.25"/>
<polygon fill="#f491f3" stroke="#f491f3" points="1005.44,-48.54 1004.02,-38.04 998.58,-47.13 1005.44,-48.54"/>
<text text-anchor="middle" x="965.08" y="-58.6" font-family="Times,serif" font-size="8.00" fill="#f491f3">DOCTYPE_PRODORD EC=45</text>
</g>
<!-- 5a402f73&#45;a6fd&#45;461b&#45;b610&#45;a98a273195f3 -->
<g id="node9" class="node">
<title>5a402f73&#45;a6fd&#45;461b&#45;b610&#45;a98a273195f3</title>
<polygon fill="#dadaff" stroke="black" points="1551.58,-38 1331.58,-38 1331.58,0 1551.58,0 1551.58,-38"/>
<text text-anchor="middle" x="1441.58" y="-22.8" font-family="Times,serif" font-size="14.00">Confirmed Production Order</text>
<text text-anchor="middle" x="1441.58" y="-7.8" font-family="Times,serif" font-size="14.00">E=50</text>
</g>
<!-- 44e987a6&#45;d9c9&#45;43e5&#45;b5e9&#45;14f989b984d9&#45;&gt;5a402f73&#45;a6fd&#45;461b&#45;b610&#45;a98a273195f3 -->
<g id="edge7" class="edge">
<title>44e987a6&#45;d9c9&#45;43e5&#45;b5e9&#45;14f989b984d9&#45;&gt;5a402f73&#45;a6fd&#45;461b&#45;b610&#45;a98a273195f3</title>
<path fill="none" stroke="#f491f3" stroke-width="2.6" d="M1093.86,-19C1164.63,-19 1252.04,-19 1321.39,-19"/>
<polygon fill="#f491f3" stroke="#f491f3" stroke-width="2.6" points="1321.49,-22.5 1331.49,-19 1321.49,-15.5 1321.49,-22.5"/>
<text text-anchor="middle" x="1213.58" y="-21.6" font-family="Times,serif" font-size="8.00" fill="#f491f3">DOCTYPE_PRODORD EC=50</text>
</g>
<!-- 8689f0b0&#45;67e5&#45;49f7&#45;abb6&#45;ed29fb4113a5 -->
<g id="node13" class="node">
<title>8689f0b0&#45;67e5&#45;49f7&#45;abb6&#45;ed29fb4113a5</title>
<polygon fill="none" stroke="transparent" points="1890.58,-37 1720.58,-37 1720.58,-1 1890.58,-1 1890.58,-37"/>
<polyline fill="none" stroke="black" points="1720.58,-1 1890.58,-1 "/>
<text text-anchor="middle" x="1805.58" y="-15.3" font-family="Times,serif" font-size="14.00" fill="#f491f3">DOCTYPE_PRODORD</text>
</g>
<!-- 5a402f73&#45;a6fd&#45;461b&#45;b610&#45;a98a273195f3&#45;&gt;8689f0b0&#45;67e5&#45;49f7&#45;abb6&#45;ed29fb4113a5 -->
<g id="edge11" class="edge">
<title>5a402f73&#45;a6fd&#45;461b&#45;b610&#45;a98a273195f3&#45;&gt;8689f0b0&#45;67e5&#45;49f7&#45;abb6&#45;ed29fb4113a5</title>
<path fill="none" stroke="#f491f3" stroke-width="2.6" d="M1551.68,-19C1602.21,-19 1661.67,-19 1710.24,-19"/>
<polygon fill="#f491f3" stroke="#f491f3" stroke-width="2.6" points="1710.43,-22.5 1720.43,-19 1710.43,-15.5 1710.43,-22.5"/>
<text text-anchor="middle" x="1633.08" y="-21.6" font-family="Times,serif" font-size="8.00" fill="#f491f3">DOCTYPE_PRODORD EC=50</text>
</g>
<!-- 499c515a&#45;7b13&#45;477e&#45;a6ce&#45;c41d94b7e062 -->
<g id="node10" class="node">
<title>499c515a&#45;7b13&#45;477e&#45;a6ce&#45;c41d94b7e062</title>
<ellipse fill="#f491f3" stroke="black" cx="118.29" cy="-19" rx="110.48" ry="18"/>
<text text-anchor="middle" x="118.29" y="-15.3" font-family="Times,serif" font-size="14.00">DOCTYPE_PRODORD</text>
</g>
<!-- 499c515a&#45;7b13&#45;477e&#45;a6ce&#45;c41d94b7e062&#45;&gt;8eb2d7e7&#45;edab&#45;4c4c&#45;93a4&#45;abada217a900 -->
<g id="edge8" class="edge">
<title>499c515a&#45;7b13&#45;477e&#45;a6ce&#45;c41d94b7e062&#45;&gt;8eb2d7e7&#45;edab&#45;4c4c&#45;93a4&#45;abada217a900</title>
<path fill="none" stroke="#f491f3" stroke-width="2.6" d="M228.81,-19C289.08,-19 363.69,-19 424.18,-19"/>
<polygon fill="#f491f3" stroke="#f491f3" stroke-width="2.6" points="424.53,-22.5 434.53,-19 424.53,-15.5 424.53,-22.5"/>
<text text-anchor="middle" x="321.08" y="-21.6" font-family="Times,serif" font-size="8.00" fill="#f491f3">DOCTYPE_PRODORD EC=50</text>
</g>
<!-- 5e0d219e&#45;a0f9&#45;423b&#45;a5f5&#45;c5b2fbb5ac16 -->
<g id="node11" class="node">
<title>5e0d219e&#45;a0f9&#45;423b&#45;a5f5&#45;c5b2fbb5ac16</title>
<ellipse fill="#17069d" stroke="black" cx="118.29" cy="-121" rx="117.78" ry="18"/>
<text text-anchor="middle" x="118.29" y="-117.3" font-family="Times,serif" font-size="14.00">DOCTYPE_PURCHREQ</text>
</g>
<!-- 5e0d219e&#45;a0f9&#45;423b&#45;a5f5&#45;c5b2fbb5ac16&#45;&gt;cf374641&#45;2e63&#45;4d15&#45;ab52&#45;c905fa455cd8 -->
<g id="edge9" class="edge">
<title>5e0d219e&#45;a0f9&#45;423b&#45;a5f5&#45;c5b2fbb5ac16&#45;&gt;cf374641&#45;2e63&#45;4d15&#45;ab52&#45;c905fa455cd8</title>
<path fill="none" stroke="#17069d" stroke-width="2.6" d="M235.94,-121C285.37,-121 343.39,-121 395.11,-121"/>
<polygon fill="#17069d" stroke="#17069d" stroke-width="2.6" points="395.37,-124.5 405.37,-121 395.37,-117.5 395.37,-124.5"/>
<text text-anchor="middle" x="321.08" y="-123.6" font-family="Times,serif" font-size="8.00" fill="#17069d">DOCTYPE_PURCHREQ EC=110</text>
</g>
<!-- 8d220434&#45;d6fd&#45;42e6&#45;ac90&#45;29d7f92de19e -->
<g id="node12" class="node">
<title>8d220434&#45;d6fd&#45;42e6&#45;ac90&#45;29d7f92de19e</title>
<ellipse fill="#11646f" stroke="black" cx="118.29" cy="-233" rx="118.08" ry="18"/>
<text text-anchor="middle" x="118.29" y="-229.3" font-family="Times,serif" font-size="14.00">DOCTYPE_PURCHORD</text>
</g>
<!-- 8d220434&#45;d6fd&#45;42e6&#45;ac90&#45;29d7f92de19e&#45;&gt;db3c085b&#45;c840&#45;4520&#45;8a34&#45;90c5f85b5ade -->
<g id="edge10" class="edge">
<title>8d220434&#45;d6fd&#45;42e6&#45;ac90&#45;29d7f92de19e&#45;&gt;db3c085b&#45;c840&#45;4520&#45;8a34&#45;90c5f85b5ade</title>
<path fill="none" stroke="#11646f" stroke-width="2.6" d="M236.77,-233C297.61,-233 371.28,-233 430.18,-233"/>
<polygon fill="#11646f" stroke="#11646f" stroke-width="2.6" points="430.25,-236.5 440.25,-233 430.25,-229.5 430.25,-236.5"/>
<text text-anchor="middle" x="321.08" y="-235.6" font-family="Times,serif" font-size="8.00" fill="#11646f">DOCTYPE_PURCHORD EC=110</text>
</g>
</g>
</svg>
