<?xml version="1.0" encoding="UTF-8" standalone="no"?>
<!DOCTYPE svg PUBLIC "-//W3C//DTD SVG 1.1//EN"
 "http://www.w3.org/Graphics/SVG/1.1/DTD/svg11.dtd">
<!-- Generated by graphviz version 2.50.0 (0)
 -->
<!-- Pages: 1 -->
<svg width="2641pt" height="1666pt"
 viewBox="0.00 0.00 2640.50 1665.57" xmlns="http://www.w3.org/2000/svg" xmlns:xlink="http://www.w3.org/1999/xlink">
<g id="graph0" class="graph" transform="scale(1 1) rotate(0) translate(4 1661.57)">
<!-- (p)DOCTYPE_PRODORD1 -->
<g id="node1" class="node">
<title>(p)DOCTYPE_PRODORD1</title>
<ellipse fill="none" stroke="#05b202" cx="623" cy="-1100.86" rx="119.5" ry="119.5"/>
<text text-anchor="middle" x="623" y="-1111.46" font-family="Times,serif" font-size="13.00">DOCTYPE_PRODORD1</text>
<text text-anchor="middle" x="623" y="-1097.46" font-family="Times,serif" font-size="13.00"> p=95 r=0</text>
<text text-anchor="middle" x="623" y="-1083.46" font-family="Times,serif" font-size="13.00">c=95 m=0</text>
</g>
<!-- (t)Goods Issue for Production Order -->
<g id="node16" class="node">
<title>(t)Goods Issue for Production Order</title>
<polygon fill="none" stroke="black" points="636,-895.28 4,-895.28 4,-807.28 636,-807.28 636,-895.28"/>
<text text-anchor="middle" x="320" y="-862.48" font-family="Times,serif" font-size="36.00">Goods Issue for Production Order</text>
<text text-anchor="middle" x="320" y="-822.48" font-family="Times,serif" font-size="36.00"> (95)</text>
<text text-anchor="start" x="0" y="-898.48" font-family="Times,serif" font-size="11.00">&#45;</text>
</g>
<!-- (p)DOCTYPE_PRODORD1&#45;&gt;(t)Goods Issue for Production Order -->
<g id="edge3" class="edge">
<title>(p)DOCTYPE_PRODORD1&#45;&gt;(t)Goods Issue for Production Order</title>
<path fill="none" stroke="#05b202" d="M539.01,-1015.55C522.19,-996.78 505.31,-976.44 491,-956.28 478.45,-938.61 484.07,-927.82 468,-913.28 463.2,-908.94 458.04,-904.88 452.64,-901.09"/>
<polygon fill="#05b202" stroke="#05b202" points="454.24,-897.95 443.97,-895.36 450.38,-903.79 454.24,-897.95"/>
<text text-anchor="middle" x="572" y="-930.88" font-family="Times,serif" font-size="13.00"> avg. sojourn time=18D</text>
<text text-anchor="middle" x="572" y="-916.88" font-family="Times,serif" font-size="13.00"> med. sojourn time=19D</text>
</g>
<!-- (p)DOCTYPE_PRODORD2 -->
<g id="node2" class="node">
<title>(p)DOCTYPE_PRODORD2</title>
<ellipse fill="#05b202" stroke="#05b202" cx="623" cy="-1544.5" rx="106.51" ry="106.51"/>
<text text-anchor="middle" x="623" y="-1541.1" font-family="Times,serif" font-size="13.00">DOCTYPE_PRODORD2</text>
</g>
<!-- (t)Created Production Order -->
<g id="node15" class="node">
<title>(t)Created Production Order</title>
<polygon fill="none" stroke="black" points="870,-1352.43 376,-1352.43 376,-1264.43 870,-1264.43 870,-1352.43"/>
<text text-anchor="middle" x="623" y="-1319.63" font-family="Times,serif" font-size="36.00">Created Production Order</text>
<text text-anchor="middle" x="623" y="-1279.63" font-family="Times,serif" font-size="36.00"> (50)</text>
<text text-anchor="start" x="372" y="-1355.63" font-family="Times,serif" font-size="11.00">&#45;</text>
</g>
<!-- (p)DOCTYPE_PRODORD2&#45;&gt;(t)Created Production Order -->
<g id="edge4" class="edge">
<title>(p)DOCTYPE_PRODORD2&#45;&gt;(t)Created Production Order</title>
<path fill="none" stroke="#05b202" d="M623,-1437.42C623,-1411.52 623,-1384.91 623,-1362.7"/>
<polygon fill="#05b202" stroke="#05b202" points="626.5,-1362.5 623,-1352.5 619.5,-1362.5 626.5,-1362.5"/>
<text text-anchor="middle" x="698" y="-1388.03" font-family="Times,serif" font-size="13.00"> avg. sojourn time=0s</text>
<text text-anchor="middle" x="698" y="-1374.03" font-family="Times,serif" font-size="13.00"> med. sojourn time=0s</text>
</g>
<!-- (p)DOCTYPE_PRODORD3 -->
<g id="node3" class="node">
<title>(p)DOCTYPE_PRODORD3</title>
<ellipse fill="#05b202" stroke="#05b202" cx="325" cy="-113.07" rx="106.51" ry="106.51"/>
<text text-anchor="middle" x="325" y="-109.67" font-family="Times,serif" font-size="13.00">DOCTYPE_PRODORD3</text>
</g>
<!-- (p)DOCTYPE_PRODORD4 -->
<g id="node4" class="node">
<title>(p)DOCTYPE_PRODORD4</title>
<ellipse fill="none" stroke="#05b202" cx="457" cy="-556.71" rx="119.5" ry="119.5"/>
<text text-anchor="middle" x="457" y="-567.31" font-family="Times,serif" font-size="13.00">DOCTYPE_PRODORD4</text>
<text text-anchor="middle" x="457" y="-553.31" font-family="Times,serif" font-size="13.00"> p=95 r=0</text>
<text text-anchor="middle" x="457" y="-539.31" font-family="Times,serif" font-size="13.00">c=95 m=0</text>
</g>
<!-- t1 -->
<g id="node14" class="node">
<title>t1</title>
<polygon fill="#000000" stroke="black" points="681,-325.14 627,-325.14 627,-289.14 681,-289.14 681,-325.14"/>
<text text-anchor="middle" x="654" y="-303.44" font-family="Times,serif" font-size="14.00" fill="#ffffff">t1</text>
</g>
<!-- (p)DOCTYPE_PRODORD4&#45;&gt;t1 -->
<g id="edge7" class="edge">
<title>(p)DOCTYPE_PRODORD4&#45;&gt;t1</title>
<path fill="none" stroke="#05b202" d="M475.31,-438.51C482.41,-407.56 491.62,-379.8 503,-369.14 536.28,-337.97 562.81,-370.7 604,-351.14 613.77,-346.5 623.14,-339.43 631.08,-332.35"/>
<polygon fill="#05b202" stroke="#05b202" points="633.62,-334.76 638.5,-325.36 628.82,-329.67 633.62,-334.76"/>
<text text-anchor="middle" x="578" y="-386.74" font-family="Times,serif" font-size="13.00"> avg. sojourn time=0s</text>
<text text-anchor="middle" x="578" y="-372.74" font-family="Times,serif" font-size="13.00"> med. sojourn time=0s</text>
</g>
<!-- (t)Confirmed Production Order -->
<g id="node17" class="node">
<title>(t)Confirmed Production Order</title>
<polygon fill="none" stroke="black" points="595,-351.14 55,-351.14 55,-263.14 595,-263.14 595,-351.14"/>
<text text-anchor="middle" x="325" y="-318.34" font-family="Times,serif" font-size="36.00">Confirmed Production Order</text>
<text text-anchor="middle" x="325" y="-278.34" font-family="Times,serif" font-size="36.00"> (50)</text>
<text text-anchor="start" x="51" y="-354.34" font-family="Times,serif" font-size="11.00">&#45;</text>
</g>
<!-- (p)DOCTYPE_PRODORD4&#45;&gt;(t)Confirmed Production Order -->
<g id="edge8" class="edge">
<title>(p)DOCTYPE_PRODORD4&#45;&gt;(t)Confirmed Production Order</title>
<path fill="none" stroke="#05b202" d="M367.36,-477.6C350.54,-458.06 335.32,-435.85 326,-412.14 319.79,-396.35 318,-378.13 318.23,-361.4"/>
<polygon fill="#05b202" stroke="#05b202" points="321.74,-361.33 318.61,-351.21 314.74,-361.07 321.74,-361.33"/>
<text text-anchor="middle" x="403" y="-386.74" font-family="Times,serif" font-size="13.00"> avg. sojourn time=1D</text>
<text text-anchor="middle" x="403" y="-372.74" font-family="Times,serif" font-size="13.00"> med. sojourn time=1D</text>
</g>
<!-- (p)DOCTYPE_PURCHREQ1 -->
<g id="node5" class="node">
<title>(p)DOCTYPE_PURCHREQ1</title>
<ellipse fill="#ba0d39" stroke="#ba0d39" cx="1210" cy="-1544.5" rx="113.14" ry="113.14"/>
<text text-anchor="middle" x="1210" y="-1541.1" font-family="Times,serif" font-size="13.00">DOCTYPE_PURCHREQ1</text>
</g>
<!-- (t)Released Purchase Requisition (1) -->
<g id="node18" class="node">
<title>(t)Released Purchase Requisition (1)</title>
<polygon fill="none" stroke="black" points="1531.5,-1352.43 888.5,-1352.43 888.5,-1264.43 1531.5,-1264.43 1531.5,-1352.43"/>
<text text-anchor="middle" x="1210" y="-1319.63" font-family="Times,serif" font-size="36.00">Released Purchase Requisition (1)</text>
<text text-anchor="middle" x="1210" y="-1279.63" font-family="Times,serif" font-size="36.00"> (110)</text>
<text text-anchor="start" x="884.5" y="-1355.63" font-family="Times,serif" font-size="11.00">&#45;</text>
</g>
<!-- (p)DOCTYPE_PURCHREQ1&#45;&gt;(t)Released Purchase Requisition (1) -->
<g id="edge9" class="edge">
<title>(p)DOCTYPE_PURCHREQ1&#45;&gt;(t)Released Purchase Requisition (1)</title>
<path fill="none" stroke="#ba0d39" d="M1210,-1431.26C1210,-1407.27 1210,-1383.02 1210,-1362.53"/>
<polygon fill="#ba0d39" stroke="#ba0d39" points="1213.5,-1362.49 1210,-1352.49 1206.5,-1362.49 1213.5,-1362.49"/>
<text text-anchor="middle" x="1285" y="-1388.03" font-family="Times,serif" font-size="13.00"> avg. sojourn time=0s</text>
<text text-anchor="middle" x="1285" y="-1374.03" font-family="Times,serif" font-size="13.00"> med. sojourn time=0s</text>
</g>
<!-- (p)DOCTYPE_PURCHREQ2 -->
<g id="node6" class="node">
<title>(p)DOCTYPE_PURCHREQ2</title>
<ellipse fill="#ba0d39" stroke="#ba0d39" cx="1251" cy="-556.71" rx="113.14" ry="113.14"/>
<text text-anchor="middle" x="1251" y="-553.31" font-family="Times,serif" font-size="13.00">DOCTYPE_PURCHREQ2</text>
</g>
<!-- (p)DOCTYPE_PURCHREQ3 -->
<g id="node7" class="node">
<title>(p)DOCTYPE_PURCHREQ3</title>
<ellipse fill="none" stroke="#ba0d39" cx="1210" cy="-1100.86" rx="126.64" ry="126.64"/>
<text text-anchor="middle" x="1210" y="-1111.46" font-family="Times,serif" font-size="13.00">DOCTYPE_PURCHREQ3</text>
<text text-anchor="middle" x="1210" y="-1097.46" font-family="Times,serif" font-size="13.00"> p=110 r=0</text>
<text text-anchor="middle" x="1210" y="-1083.46" font-family="Times,serif" font-size="13.00">c=110 m=0</text>
</g>
<!-- t6 -->
<g id="node19" class="node">
<title>t6</title>
<polygon fill="#000000" stroke="black" points="1137,-869.28 1083,-869.28 1083,-833.28 1137,-833.28 1137,-869.28"/>
<text text-anchor="middle" x="1110" y="-847.58" font-family="Times,serif" font-size="14.00" fill="#ffffff">t6</text>
</g>
<!-- (p)DOCTYPE_PURCHREQ3&#45;&gt;t6 -->
<g id="edge13" class="edge">
<title>(p)DOCTYPE_PURCHREQ3&#45;&gt;t6</title>
<path fill="none" stroke="#ba0d39" d="M1162.93,-983.32C1147.1,-944.13 1130.87,-903.96 1120.63,-878.61"/>
<polygon fill="#ba0d39" stroke="#ba0d39" points="1123.88,-877.3 1116.89,-869.33 1117.39,-879.92 1123.88,-877.3"/>
</g>
<!-- (t)Released Purchase Requisition (2) -->
<g id="node20" class="node">
<title>(t)Released Purchase Requisition (2)</title>
<polygon fill="none" stroke="black" points="1798.5,-895.28 1155.5,-895.28 1155.5,-807.28 1798.5,-807.28 1798.5,-895.28"/>
<text text-anchor="middle" x="1477" y="-862.48" font-family="Times,serif" font-size="36.00">Released Purchase Requisition (2)</text>
<text text-anchor="middle" x="1477" y="-822.48" font-family="Times,serif" font-size="36.00"> (101)</text>
<text text-anchor="start" x="1151.5" y="-898.48" font-family="Times,serif" font-size="11.00">&#45;</text>
</g>
<!-- (p)DOCTYPE_PURCHREQ3&#45;&gt;(t)Released Purchase Requisition (2) -->
<g id="edge14" class="edge">
<title>(p)DOCTYPE_PURCHREQ3&#45;&gt;(t)Released Purchase Requisition (2)</title>
<path fill="none" stroke="#ba0d39" d="M1302.63,-1013.96C1342.82,-976.7 1388.48,-934.37 1422.99,-902.37"/>
<polygon fill="#ba0d39" stroke="#ba0d39" points="1425.67,-904.66 1430.62,-895.29 1420.91,-899.52 1425.67,-904.66"/>
<text text-anchor="middle" x="1483" y="-930.88" font-family="Times,serif" font-size="13.00"> avg. sojourn time=2D</text>
<text text-anchor="middle" x="1483" y="-916.88" font-family="Times,serif" font-size="13.00"> med. sojourn time=1D</text>
</g>
<!-- (p)DOCTYPE_PURCHORD1 -->
<g id="node8" class="node">
<title>(p)DOCTYPE_PURCHORD1</title>
<ellipse fill="#39f6c0" stroke="#39f6c0" cx="2301" cy="-1544.5" rx="113.14" ry="113.14"/>
<text text-anchor="middle" x="2301" y="-1541.1" font-family="Times,serif" font-size="13.00">DOCTYPE_PURCHORD1</text>
</g>
<!-- (t)Created Purchase Order -->
<g id="node21" class="node">
<title>(t)Created Purchase Order</title>
<polygon fill="none" stroke="black" points="2532.5,-1352.43 2069.5,-1352.43 2069.5,-1264.43 2532.5,-1264.43 2532.5,-1352.43"/>
<text text-anchor="middle" x="2301" y="-1319.63" font-family="Times,serif" font-size="36.00">Created Purchase Order</text>
<text text-anchor="middle" x="2301" y="-1279.63" font-family="Times,serif" font-size="36.00"> (110)</text>
<text text-anchor="start" x="2065.5" y="-1355.63" font-family="Times,serif" font-size="11.00">&#45;</text>
</g>
<!-- (p)DOCTYPE_PURCHORD1&#45;&gt;(t)Created Purchase Order -->
<g id="edge15" class="edge">
<title>(p)DOCTYPE_PURCHORD1&#45;&gt;(t)Created Purchase Order</title>
<path fill="none" stroke="#39f6c0" d="M2301,-1431.26C2301,-1407.27 2301,-1383.02 2301,-1362.53"/>
<polygon fill="#39f6c0" stroke="#39f6c0" points="2304.5,-1362.49 2301,-1352.49 2297.5,-1362.49 2304.5,-1362.49"/>
<text text-anchor="middle" x="2376" y="-1388.03" font-family="Times,serif" font-size="13.00"> avg. sojourn time=0s</text>
<text text-anchor="middle" x="2376" y="-1374.03" font-family="Times,serif" font-size="13.00"> med. sojourn time=0s</text>
</g>
<!-- (p)DOCTYPE_PURCHORD2 -->
<g id="node9" class="node">
<title>(p)DOCTYPE_PURCHORD2</title>
<ellipse fill="none" stroke="#39f6c0" cx="2112" cy="-556.71" rx="126.64" ry="126.64"/>
<text text-anchor="middle" x="2112" y="-567.31" font-family="Times,serif" font-size="13.00">DOCTYPE_PURCHORD2</text>
<text text-anchor="middle" x="2112" y="-553.31" font-family="Times,serif" font-size="13.00"> p=95 r=0</text>
<text text-anchor="middle" x="2112" y="-539.31" font-family="Times,serif" font-size="13.00">c=95 m=0</text>
</g>
<!-- (t)Goods Receipt for Order -->
<g id="node23" class="node">
<title>(t)Goods Receipt for Order</title>
<polygon fill="none" stroke="black" points="2354.5,-351.14 1891.5,-351.14 1891.5,-263.14 2354.5,-263.14 2354.5,-351.14"/>
<text text-anchor="middle" x="2123" y="-318.34" font-family="Times,serif" font-size="36.00">Goods Receipt for Order</text>
<text text-anchor="middle" x="2123" y="-278.34" font-family="Times,serif" font-size="36.00"> (95)</text>
<text text-anchor="start" x="1887.5" y="-354.34" font-family="Times,serif" font-size="11.00">&#45;</text>
</g>
<!-- (p)DOCTYPE_PURCHORD2&#45;&gt;(t)Goods Receipt for Order -->
<g id="edge17" class="edge">
<title>(p)DOCTYPE_PURCHORD2&#45;&gt;(t)Goods Receipt for Order</title>
<path fill="none" stroke="#39f6c0" d="M2117.58,-430.11C2118.65,-405.96 2119.72,-381.89 2120.62,-361.6"/>
<polygon fill="#39f6c0" stroke="#39f6c0" points="2124.13,-361.5 2121.08,-351.35 2117.14,-361.19 2124.13,-361.5"/>
<text text-anchor="middle" x="2197" y="-386.74" font-family="Times,serif" font-size="13.00"> avg. sojourn time=4D</text>
<text text-anchor="middle" x="2197" y="-372.74" font-family="Times,serif" font-size="13.00"> med. sojourn time=3D</text>
</g>
<!-- (p)DOCTYPE_PURCHORD3 -->
<g id="node10" class="node">
<title>(p)DOCTYPE_PURCHORD3</title>
<ellipse fill="none" stroke="#39f6c0" cx="2301" cy="-1100.86" rx="126.64" ry="126.64"/>
<text text-anchor="middle" x="2301" y="-1111.46" font-family="Times,serif" font-size="13.00">DOCTYPE_PURCHORD3</text>
<text text-anchor="middle" x="2301" y="-1097.46" font-family="Times,serif" font-size="13.00"> p=110 r=0</text>
<text text-anchor="middle" x="2301" y="-1083.46" font-family="Times,serif" font-size="13.00">c=110 m=0</text>
</g>
<!-- (t)Released Purchase Order (1) -->
<g id="node22" class="node">
<title>(t)Released Purchase Order (1)</title>
<polygon fill="none" stroke="black" points="2361.5,-895.28 1816.5,-895.28 1816.5,-807.28 2361.5,-807.28 2361.5,-895.28"/>
<text text-anchor="middle" x="2089" y="-862.48" font-family="Times,serif" font-size="36.00">Released Purchase Order (1)</text>
<text text-anchor="middle" x="2089" y="-822.48" font-family="Times,serif" font-size="36.00"> (95)</text>
<text text-anchor="start" x="1812.5" y="-898.48" font-family="Times,serif" font-size="11.00">&#45;</text>
</g>
<!-- (p)DOCTYPE_PURCHORD3&#45;&gt;(t)Released Purchase Order (1) -->
<g id="edge20" class="edge">
<title>(p)DOCTYPE_PURCHORD3&#45;&gt;(t)Released Purchase Order (1)</title>
<path fill="none" stroke="#39f6c0" d="M2219.04,-1004.14C2189.51,-969.66 2157.37,-932.12 2132.42,-902.99"/>
<polygon fill="#39f6c0" stroke="#39f6c0" points="2135.08,-900.71 2125.92,-895.39 2129.76,-905.27 2135.08,-900.71"/>
<text text-anchor="middle" x="2253" y="-930.88" font-family="Times,serif" font-size="13.00"> avg. sojourn time=4D</text>
<text text-anchor="middle" x="2253" y="-916.88" font-family="Times,serif" font-size="13.00"> med. sojourn time=2D</text>
</g>
<!-- (t) Rejected Purchase Order -->
<g id="node24" class="node">
<title>(t) Rejected Purchase Order</title>
<polygon fill="none" stroke="black" points="2632.5,-789.28 2145.5,-789.28 2145.5,-701.28 2632.5,-701.28 2632.5,-789.28"/>
<text text-anchor="middle" x="2389" y="-756.48" font-family="Times,serif" font-size="36.00"> Rejected Purchase Order</text>
<text text-anchor="middle" x="2389" y="-716.48" font-family="Times,serif" font-size="36.00"> (15)</text>
<text text-anchor="start" x="2141.5" y="-792.48" font-family="Times,serif" font-size="11.00">&#45;</text>
</g>
<!-- (p)DOCTYPE_PURCHORD3&#45;&gt;(t) Rejected Purchase Order -->
<g id="edge19" class="edge">
<title>(p)DOCTYPE_PURCHORD3&#45;&gt;(t) Rejected Purchase Order</title>
<path fill="none" stroke="#39f6c0" d="M2345.9,-982.35C2355.36,-954.16 2364.45,-923.92 2371,-895.28 2378.17,-863.95 2382.61,-828.22 2385.28,-799.6"/>
<polygon fill="#39f6c0" stroke="#39f6c0" points="2388.79,-799.68 2386.19,-789.41 2381.82,-799.06 2388.79,-799.68"/>
<text text-anchor="middle" x="2443" y="-930.88" font-family="Times,serif" font-size="13.00"> avg. sojourn time=6D</text>
<text text-anchor="middle" x="2443" y="-916.88" font-family="Times,serif" font-size="13.00"> med. sojourn time=6D</text>
</g>
<!-- (p)DOCTYPE_PURCHORD4 -->
<g id="node11" class="node">
<title>(p)DOCTYPE_PURCHORD4</title>
<ellipse fill="#39f6c0" stroke="#39f6c0" cx="2316" cy="-113.07" rx="113.14" ry="113.14"/>
<text text-anchor="middle" x="2316" y="-109.67" font-family="Times,serif" font-size="13.00">DOCTYPE_PURCHORD4</text>
</g>
<!-- (p)DOCTYPE_RESERVATION1 -->
<g id="node12" class="node">
<title>(p)DOCTYPE_RESERVATION1</title>
<ellipse fill="#a13ccd" stroke="#a13ccd" cx="317" cy="-1100.86" rx="125.91" ry="125.91"/>
<text text-anchor="middle" x="317" y="-1097.46" font-family="Times,serif" font-size="13.00">DOCTYPE_RESERVATION1</text>
</g>
<!-- (p)DOCTYPE_RESERVATION1&#45;&gt;(t)Goods Issue for Production Order -->
<g id="edge23" class="edge">
<title>(p)DOCTYPE_RESERVATION1&#45;&gt;(t)Goods Issue for Production Order</title>
<path fill="none" stroke="#a13ccd" d="M317.2,-974.9C317.37,-954.32 317.62,-933.2 318,-913.28 318.05,-910.78 318.1,-908.22 318.17,-905.64"/>
<polygon fill="#a13ccd" stroke="#a13ccd" points="321.67,-905.69 318.43,-895.6 314.67,-905.5 321.67,-905.69"/>
<text text-anchor="middle" x="393" y="-930.88" font-family="Times,serif" font-size="13.00"> avg. sojourn time=0s</text>
<text text-anchor="middle" x="393" y="-916.88" font-family="Times,serif" font-size="13.00"> med. sojourn time=0s</text>
</g>
<!-- (p)DOCTYPE_RESERVATION2 -->
<g id="node13" class="node">
<title>(p)DOCTYPE_RESERVATION2</title>
<ellipse fill="#a13ccd" stroke="#a13ccd" cx="194" cy="-556.71" rx="125.91" ry="125.91"/>
<text text-anchor="middle" x="194" y="-553.31" font-family="Times,serif" font-size="13.00">DOCTYPE_RESERVATION2</text>
</g>
<!-- t1&#45;&gt;(p)DOCTYPE_PRODORD1 -->
<g id="edge1" class="edge">
<title>t1&#45;&gt;(p)DOCTYPE_PRODORD1</title>
<path fill="none" stroke="#05b202" d="M655.25,-325.23C660.46,-400.12 678.99,-706.7 653,-956.28 652.39,-962.13 651.65,-968.08 650.8,-974.08"/>
<polygon fill="#05b202" stroke="#05b202" points="647.31,-973.8 649.28,-984.2 654.23,-974.83 647.31,-973.8"/>
</g>
<!-- (t)Created Production Order&#45;&gt;(p)DOCTYPE_PRODORD1 -->
<g id="edge2" class="edge">
<title>(t)Created Production Order&#45;&gt;(p)DOCTYPE_PRODORD1</title>
<path fill="none" stroke="#05b202" d="M623,-1264.33C623,-1254.12 623,-1242.71 623,-1230.8"/>
<polygon fill="#05b202" stroke="#05b202" points="626.5,-1230.69 623,-1220.69 619.5,-1230.69 626.5,-1230.69"/>
</g>
<!-- (t)Goods Issue for Production Order&#45;&gt;(p)DOCTYPE_PRODORD4 -->
<g id="edge6" class="edge">
<title>(t)Goods Issue for Production Order&#45;&gt;(p)DOCTYPE_PRODORD4</title>
<path fill="none" stroke="#05b202" d="M340.21,-807.11C356.58,-772.17 380.42,-721.25 402.3,-674.52"/>
<polygon fill="#05b202" stroke="#05b202" points="405.58,-675.78 406.65,-665.24 399.24,-672.81 405.58,-675.78"/>
</g>
<!-- (t)Goods Issue for Production Order&#45;&gt;(p)DOCTYPE_RESERVATION2 -->
<g id="edge24" class="edge">
<title>(t)Goods Issue for Production Order&#45;&gt;(p)DOCTYPE_RESERVATION2</title>
<path fill="none" stroke="#a13ccd" d="M301.41,-807.11C287.13,-773.95 266.65,-726.41 247.4,-681.7"/>
<polygon fill="#a13ccd" stroke="#a13ccd" points="250.61,-680.31 243.44,-672.51 244.18,-683.08 250.61,-680.31"/>
</g>
<!-- (t)Confirmed Production Order&#45;&gt;(p)DOCTYPE_PRODORD3 -->
<g id="edge5" class="edge">
<title>(t)Confirmed Production Order&#45;&gt;(p)DOCTYPE_PRODORD3</title>
<path fill="none" stroke="#05b202" d="M325,-263.04C325,-253.03 325,-241.9 325,-230.37"/>
<polygon fill="#05b202" stroke="#05b202" points="328.5,-230.15 325,-220.15 321.5,-230.15 328.5,-230.15"/>
</g>
<!-- (t)Released Purchase Requisition (1)&#45;&gt;(p)DOCTYPE_PURCHREQ3 -->
<g id="edge12" class="edge">
<title>(t)Released Purchase Requisition (1)&#45;&gt;(p)DOCTYPE_PURCHREQ3</title>
<path fill="none" stroke="#ba0d39" d="M1210,-1264.33C1210,-1256.21 1210,-1247.32 1210,-1238.02"/>
<polygon fill="#ba0d39" stroke="#ba0d39" points="1213.5,-1237.79 1210,-1227.79 1206.5,-1237.79 1213.5,-1237.79"/>
</g>
<!-- t6&#45;&gt;(p)DOCTYPE_PURCHREQ2 -->
<g id="edge10" class="edge">
<title>t6&#45;&gt;(p)DOCTYPE_PURCHREQ2</title>
<path fill="none" stroke="#ba0d39" d="M1118.4,-832.86C1133.88,-800.73 1168.07,-729.79 1197.85,-668"/>
<polygon fill="#ba0d39" stroke="#ba0d39" points="1201.02,-669.48 1202.21,-658.95 1194.72,-666.44 1201.02,-669.48"/>
</g>
<!-- (t)Released Purchase Requisition (2)&#45;&gt;(p)DOCTYPE_PURCHREQ2 -->
<g id="edge11" class="edge">
<title>(t)Released Purchase Requisition (2)&#45;&gt;(p)DOCTYPE_PURCHREQ2</title>
<path fill="none" stroke="#ba0d39" d="M1443.65,-807.11C1412.83,-767.21 1365.91,-706.47 1326.09,-654.92"/>
<polygon fill="#ba0d39" stroke="#ba0d39" points="1328.65,-652.51 1319.76,-646.73 1323.11,-656.79 1328.65,-652.51"/>
</g>
<!-- (t)Created Purchase Order&#45;&gt;(p)DOCTYPE_PURCHORD3 -->
<g id="edge18" class="edge">
<title>(t)Created Purchase Order&#45;&gt;(p)DOCTYPE_PURCHORD3</title>
<path fill="none" stroke="#39f6c0" d="M2301,-1264.33C2301,-1256.21 2301,-1247.32 2301,-1238.02"/>
<polygon fill="#39f6c0" stroke="#39f6c0" points="2304.5,-1237.79 2301,-1227.79 2297.5,-1237.79 2304.5,-1237.79"/>
</g>
<!-- (t)Released Purchase Order (1)&#45;&gt;(p)DOCTYPE_PURCHORD2 -->
<g id="edge16" class="edge">
<title>(t)Released Purchase Order (1)&#45;&gt;(p)DOCTYPE_PURCHORD2</title>
<path fill="none" stroke="#39f6c0" d="M2092.39,-807.11C2094.78,-776.79 2098.11,-734.44 2101.35,-693.23"/>
<polygon fill="#39f6c0" stroke="#39f6c0" points="2104.85,-693.32 2102.15,-683.07 2097.87,-692.77 2104.85,-693.32"/>
</g>
<!-- (t)Goods Receipt for Order&#45;&gt;(p)DOCTYPE_PURCHORD4 -->
<g id="edge22" class="edge">
<title>(t)Goods Receipt for Order&#45;&gt;(p)DOCTYPE_PURCHORD4</title>
<path fill="none" stroke="#39f6c0" d="M2166.31,-263.04C2184.79,-244.65 2207.04,-222.51 2228.67,-200.98"/>
<polygon fill="#39f6c0" stroke="#39f6c0" points="2231.36,-203.24 2235.98,-193.71 2226.42,-198.28 2231.36,-203.24"/>
</g>
<!-- (t) Rejected Purchase Order&#45;&gt;(p)DOCTYPE_PURCHORD4 -->
<g id="edge21" class="edge">
<title>(t) Rejected Purchase Order&#45;&gt;(p)DOCTYPE_PURCHORD4</title>
<path fill="none" stroke="#39f6c0" d="M2390.48,-701.05C2392.56,-616.26 2393.29,-422.53 2364,-263.14 2361.99,-252.18 2359.39,-240.9 2356.44,-229.7"/>
<polygon fill="#39f6c0" stroke="#39f6c0" points="2359.77,-228.61 2353.77,-219.88 2353.02,-230.45 2359.77,-228.61"/>
</g>
</g>
</svg>
