<?xml version="1.0" encoding="UTF-8" standalone="no"?>
<!DOCTYPE svg PUBLIC "-//W3C//DTD SVG 1.1//EN"
 "http://www.w3.org/Graphics/SVG/1.1/DTD/svg11.dtd">
<!-- Generated by graphviz version 2.50.0 (0)
 -->
<!-- Title: ocdfg Pages: 1 -->
<svg width="1646pt" height="263pt"
 viewBox="0.00 0.00 1645.58 263.00" xmlns="http://www.w3.org/2000/svg" xmlns:xlink="http://www.w3.org/1999/xlink">
<g id="graph0" class="graph" transform="scale(1 1) rotate(0) translate(4 259)">
<title>ocdfg</title>
<!-- 42b1e9e5&#45;4ec0&#45;4280&#45;920b&#45;755dccd3397d -->
<g id="node1" class="node">
<title>42b1e9e5&#45;4ec0&#45;4280&#45;920b&#45;755dccd3397d</title>
<polygon fill="none" stroke="black" points="505.58,-36 302.58,-36 302.58,0 505.58,0 505.58,-36"/>
<text text-anchor="middle" x="404.08" y="-14.3" font-family="Times,serif" font-size="14.00">Created Production Order</text>
</g>
<!-- 17189cf9&#45;ebeb&#45;4677&#45;b409&#45;d8d76fa0fce9 -->
<g id="node8" class="node">
<title>17189cf9&#45;ebeb&#45;4677&#45;b409&#45;d8d76fa0fce9</title>
<polygon fill="none" stroke="black" points="960.58,-36 703.58,-36 703.58,0 960.58,0 960.58,-36"/>
<text text-anchor="middle" x="832.08" y="-14.3" font-family="Times,serif" font-size="14.00">Goods Issue for Production Order</text>
</g>
<!-- 42b1e9e5&#45;4ec0&#45;4280&#45;920b&#45;755dccd3397d&#45;&gt;17189cf9&#45;ebeb&#45;4677&#45;b409&#45;d8d76fa0fce9 -->
<g id="edge5" class="edge">
<title>42b1e9e5&#45;4ec0&#45;4280&#45;920b&#45;755dccd3397d&#45;&gt;17189cf9&#45;ebeb&#45;4677&#45;b409&#45;d8d76fa0fce9</title>
<path fill="none" stroke="#f491f3" d="M505.77,-18C561.81,-18 632.39,-18 693.47,-18"/>
<polygon fill="#f491f3" stroke="#f491f3" points="693.58,-21.5 703.58,-18 693.58,-14.5 693.58,-21.5"/>
<text text-anchor="middle" x="618.08" y="-20.6" font-family="Times,serif" font-size="8.00" fill="#f491f3">DOCTYPE_PRODORD EC=1MO</text>
</g>
<!-- 4d8e29b0&#45;0263&#45;4306&#45;acc8&#45;ef78309d3106 -->
<g id="node2" class="node">
<title>4d8e29b0&#45;0263&#45;4306&#45;acc8&#45;ef78309d3106</title>
<polygon fill="none" stroke="black" points="534.58,-149 273.58,-149 273.58,-113 534.58,-113 534.58,-149"/>
<text text-anchor="middle" x="404.08" y="-127.3" font-family="Times,serif" font-size="14.00">Released Purchase Requisition (1)</text>
</g>
<!-- 91bf4698&#45;c362&#45;47dc&#45;a64c&#45;bb4ec4a93bf9 -->
<g id="node3" class="node">
<title>91bf4698&#45;c362&#45;47dc&#45;a64c&#45;bb4ec4a93bf9</title>
<polygon fill="none" stroke="black" points="962.58,-155 701.58,-155 701.58,-119 962.58,-119 962.58,-155"/>
<text text-anchor="middle" x="832.08" y="-133.3" font-family="Times,serif" font-size="14.00">Released Purchase Requisition (2)</text>
</g>
<!-- 4d8e29b0&#45;0263&#45;4306&#45;acc8&#45;ef78309d3106&#45;&gt;91bf4698&#45;c362&#45;47dc&#45;a64c&#45;bb4ec4a93bf9 -->
<g id="edge1" class="edge">
<title>4d8e29b0&#45;0263&#45;4306&#45;acc8&#45;ef78309d3106&#45;&gt;91bf4698&#45;c362&#45;47dc&#45;a64c&#45;bb4ec4a93bf9</title>
<path fill="none" stroke="#17069d" d="M534.63,-132.82C584.2,-133.52 640.93,-134.32 691.4,-135.03"/>
<polygon fill="#17069d" stroke="#17069d" points="691.36,-138.53 701.41,-135.17 691.46,-131.53 691.36,-138.53"/>
<text text-anchor="middle" x="618.08" y="-137.6" font-family="Times,serif" font-size="8.00" fill="#17069d">DOCTYPE_PURCHREQ EC=2D</text>
</g>
<!-- 714e3e68&#45;bead&#45;4f47&#45;a130&#45;1cdee27ca6ab -->
<g id="node14" class="node">
<title>714e3e68&#45;bead&#45;4f47&#45;a130&#45;1cdee27ca6ab</title>
<polygon fill="none" stroke="transparent" points="1399.08,-127 1218.08,-127 1218.08,-91 1399.08,-91 1399.08,-127"/>
<polyline fill="none" stroke="black" points="1218.08,-91 1399.08,-91 "/>
<text text-anchor="middle" x="1308.58" y="-105.3" font-family="Times,serif" font-size="14.00" fill="#17069d">DOCTYPE_PURCHREQ</text>
</g>
<!-- 4d8e29b0&#45;0263&#45;4306&#45;acc8&#45;ef78309d3106&#45;&gt;714e3e68&#45;bead&#45;4f47&#45;a130&#45;1cdee27ca6ab -->
<g id="edge13" class="edge">
<title>4d8e29b0&#45;0263&#45;4306&#45;acc8&#45;ef78309d3106&#45;&gt;714e3e68&#45;bead&#45;4f47&#45;a130&#45;1cdee27ca6ab</title>
<path fill="none" stroke="#17069d" d="M534.87,-119.86C586.68,-115.92 646.91,-111.98 701.58,-110 879.72,-103.55 1087.52,-105.2 1207.68,-107.05"/>
<polygon fill="#17069d" stroke="#17069d" points="1207.9,-110.56 1217.96,-107.22 1208.01,-103.56 1207.9,-110.56"/>
</g>
<!-- 91bf4698&#45;c362&#45;47dc&#45;a64c&#45;bb4ec4a93bf9&#45;&gt;714e3e68&#45;bead&#45;4f47&#45;a130&#45;1cdee27ca6ab -->
<g id="edge12" class="edge">
<title>91bf4698&#45;c362&#45;47dc&#45;a64c&#45;bb4ec4a93bf9&#45;&gt;714e3e68&#45;bead&#45;4f47&#45;a130&#45;1cdee27ca6ab</title>
<path fill="none" stroke="#17069d" stroke-width="2.46" d="M962.74,-129.35C1039.89,-124.8 1136.3,-119.11 1207.55,-114.9"/>
<polygon fill="#17069d" stroke="#17069d" stroke-width="2.46" points="1208.1,-118.38 1217.88,-114.29 1207.69,-111.39 1208.1,-118.38"/>
</g>
<!-- 9fdabd31&#45;57fd&#45;44d2&#45;8886&#45;e55295126905 -->
<g id="node4" class="node">
<title>9fdabd31&#45;57fd&#45;44d2&#45;8886&#45;e55295126905</title>
<polygon fill="none" stroke="black" points="499.58,-209 308.58,-209 308.58,-173 499.58,-173 499.58,-209"/>
<text text-anchor="middle" x="404.08" y="-187.3" font-family="Times,serif" font-size="14.00">Created Purchase Order</text>
</g>
<!-- df30f627&#45;0721&#45;4828&#45;b434&#45;c5c9ee4e31af -->
<g id="node5" class="node">
<title>df30f627&#45;0721&#45;4828&#45;b434&#45;c5c9ee4e31af</title>
<polygon fill="none" stroke="black" points="1180.58,-255 980.58,-255 980.58,-219 1180.58,-219 1180.58,-255"/>
<text text-anchor="middle" x="1080.58" y="-233.3" font-family="Times,serif" font-size="14.00"> Rejected Purchase Order</text>
</g>
<!-- 9fdabd31&#45;57fd&#45;44d2&#45;8886&#45;e55295126905&#45;&gt;df30f627&#45;0721&#45;4828&#45;b434&#45;c5c9ee4e31af -->
<g id="edge2" class="edge">
<title>9fdabd31&#45;57fd&#45;44d2&#45;8886&#45;e55295126905&#45;&gt;df30f627&#45;0721&#45;4828&#45;b434&#45;c5c9ee4e31af</title>
<path fill="none" stroke="#11646f" d="M499.81,-200.61C557.98,-206.27 634.04,-213.23 701.58,-218 792.06,-224.39 894.88,-229.41 970.42,-232.69"/>
<polygon fill="#11646f" stroke="#11646f" points="970.28,-236.18 980.43,-233.12 970.59,-229.19 970.28,-236.18"/>
<text text-anchor="middle" x="618.08" y="-218.6" font-family="Times,serif" font-size="8.00" fill="#11646f">DOCTYPE_PURCHORD EC=6D</text>
</g>
<!-- 0b1dc93c&#45;22fd&#45;4860&#45;8b68&#45;8df21cd628d7 -->
<g id="node6" class="node">
<title>0b1dc93c&#45;22fd&#45;4860&#45;8b68&#45;8df21cd628d7</title>
<polygon fill="none" stroke="black" points="943.08,-209 721.08,-209 721.08,-173 943.08,-173 943.08,-209"/>
<text text-anchor="middle" x="832.08" y="-187.3" font-family="Times,serif" font-size="14.00">Released Purchase Order (1)</text>
</g>
<!-- 9fdabd31&#45;57fd&#45;44d2&#45;8886&#45;e55295126905&#45;&gt;0b1dc93c&#45;22fd&#45;4860&#45;8b68&#45;8df21cd628d7 -->
<g id="edge3" class="edge">
<title>9fdabd31&#45;57fd&#45;44d2&#45;8886&#45;e55295126905&#45;&gt;0b1dc93c&#45;22fd&#45;4860&#45;8b68&#45;8df21cd628d7</title>
<path fill="none" stroke="#11646f" d="M499.62,-191C561.87,-191 643.92,-191 710.81,-191"/>
<polygon fill="#11646f" stroke="#11646f" points="710.98,-194.5 720.98,-191 710.98,-187.5 710.98,-194.5"/>
<text text-anchor="middle" x="618.08" y="-193.6" font-family="Times,serif" font-size="8.00" fill="#11646f">DOCTYPE_PURCHORD EC=4D</text>
</g>
<!-- 21b6a4c9&#45;f09a&#45;4ed3&#45;8474&#45;d2bd5b400244 -->
<g id="node15" class="node">
<title>21b6a4c9&#45;f09a&#45;4ed3&#45;8474&#45;d2bd5b400244</title>
<polygon fill="none" stroke="transparent" points="1637.58,-238 1455.58,-238 1455.58,-202 1637.58,-202 1637.58,-238"/>
<polyline fill="none" stroke="black" points="1455.58,-202 1637.58,-202 "/>
<text text-anchor="middle" x="1546.58" y="-216.3" font-family="Times,serif" font-size="14.00" fill="#11646f">DOCTYPE_PURCHORD</text>
</g>
<!-- df30f627&#45;0721&#45;4828&#45;b434&#45;c5c9ee4e31af&#45;&gt;21b6a4c9&#45;f09a&#45;4ed3&#45;8474&#45;d2bd5b400244 -->
<g id="edge14" class="edge">
<title>df30f627&#45;0721&#45;4828&#45;b434&#45;c5c9ee4e31af&#45;&gt;21b6a4c9&#45;f09a&#45;4ed3&#45;8474&#45;d2bd5b400244</title>
<path fill="none" stroke="#11646f" d="M1180.83,-233.36C1258.8,-230.51 1366.9,-226.55 1445.16,-223.68"/>
<polygon fill="#11646f" stroke="#11646f" points="1445.65,-227.16 1455.52,-223.3 1445.4,-220.17 1445.65,-227.16"/>
</g>
<!-- 4588b8c3&#45;44e1&#45;496a&#45;ac98&#45;83e30ef7cccd -->
<g id="node7" class="node">
<title>4588b8c3&#45;44e1&#45;496a&#45;ac98&#45;83e30ef7cccd</title>
<polygon fill="none" stroke="black" points="1404.08,-209 1213.08,-209 1213.08,-173 1404.08,-173 1404.08,-209"/>
<text text-anchor="middle" x="1308.58" y="-187.3" font-family="Times,serif" font-size="14.00">Goods Receipt for Order</text>
</g>
<!-- 0b1dc93c&#45;22fd&#45;4860&#45;8b68&#45;8df21cd628d7&#45;&gt;4588b8c3&#45;44e1&#45;496a&#45;ac98&#45;83e30ef7cccd -->
<g id="edge4" class="edge">
<title>0b1dc93c&#45;22fd&#45;4860&#45;8b68&#45;8df21cd628d7&#45;&gt;4588b8c3&#45;44e1&#45;496a&#45;ac98&#45;83e30ef7cccd</title>
<path fill="none" stroke="#11646f" d="M943.13,-191C1021.34,-191 1125.73,-191 1202.74,-191"/>
<polygon fill="#11646f" stroke="#11646f" points="1202.95,-194.5 1212.95,-191 1202.95,-187.5 1202.95,-194.5"/>
<text text-anchor="middle" x="1080.58" y="-193.6" font-family="Times,serif" font-size="8.00" fill="#11646f">DOCTYPE_PURCHORD EC=4D</text>
</g>
<!-- 4588b8c3&#45;44e1&#45;496a&#45;ac98&#45;83e30ef7cccd&#45;&gt;21b6a4c9&#45;f09a&#45;4ed3&#45;8474&#45;d2bd5b400244 -->
<g id="edge15" class="edge">
<title>4588b8c3&#45;44e1&#45;496a&#45;ac98&#45;83e30ef7cccd&#45;&gt;21b6a4c9&#45;f09a&#45;4ed3&#45;8474&#45;d2bd5b400244</title>
<path fill="none" stroke="#11646f" stroke-width="2.35" d="M1404.21,-202.63C1417.7,-204.29 1431.61,-206 1445.21,-207.67"/>
<polygon fill="#11646f" stroke="#11646f" stroke-width="2.35" points="1445.17,-211.19 1455.53,-208.93 1446.03,-204.24 1445.17,-211.19"/>
</g>
<!-- 17189cf9&#45;ebeb&#45;4677&#45;b409&#45;d8d76fa0fce9&#45;&gt;17189cf9&#45;ebeb&#45;4677&#45;b409&#45;d8d76fa0fce9 -->
<g id="edge6" class="edge">
<title>17189cf9&#45;ebeb&#45;4677&#45;b409&#45;d8d76fa0fce9&#45;&gt;17189cf9&#45;ebeb&#45;4677&#45;b409&#45;d8d76fa0fce9</title>
<path fill="none" stroke="#f491f3" d="M793.36,-36.15C787.41,-45.54 800.31,-54 832.08,-54 851.44,-54 863.79,-50.86 869.14,-46.28"/>
<polygon fill="#f491f3" stroke="#f491f3" points="872.64,-46.59 870.79,-36.15 865.73,-45.46 872.64,-46.59"/>
<text text-anchor="middle" x="832.08" y="-56.6" font-family="Times,serif" font-size="8.00" fill="#f491f3">DOCTYPE_PRODORD EC=0s</text>
</g>
<!-- f8f3c5d0&#45;05bc&#45;48ae&#45;94a8&#45;fa20797f1378 -->
<g id="node9" class="node">
<title>f8f3c5d0&#45;05bc&#45;48ae&#45;94a8&#45;fa20797f1378</title>
<polygon fill="none" stroke="black" points="1418.58,-36 1198.58,-36 1198.58,0 1418.58,0 1418.58,-36"/>
<text text-anchor="middle" x="1308.58" y="-14.3" font-family="Times,serif" font-size="14.00">Confirmed Production Order</text>
</g>
<!-- 17189cf9&#45;ebeb&#45;4677&#45;b409&#45;d8d76fa0fce9&#45;&gt;f8f3c5d0&#45;05bc&#45;48ae&#45;94a8&#45;fa20797f1378 -->
<g id="edge7" class="edge">
<title>17189cf9&#45;ebeb&#45;4677&#45;b409&#45;d8d76fa0fce9&#45;&gt;f8f3c5d0&#45;05bc&#45;48ae&#45;94a8&#45;fa20797f1378</title>
<path fill="none" stroke="#f491f3" d="M960.86,-18C1031.63,-18 1119.04,-18 1188.39,-18"/>
<polygon fill="#f491f3" stroke="#f491f3" points="1188.49,-21.5 1198.49,-18 1188.49,-14.5 1188.49,-21.5"/>
<text text-anchor="middle" x="1080.58" y="-20.6" font-family="Times,serif" font-size="8.00" fill="#f491f3">DOCTYPE_PRODORD EC=1D</text>
</g>
<!-- 43f21e7e&#45;fa13&#45;4279&#45;8909&#45;74057ecdc35b -->
<g id="node13" class="node">
<title>43f21e7e&#45;fa13&#45;4279&#45;8909&#45;74057ecdc35b</title>
<polygon fill="none" stroke="transparent" points="1631.58,-36 1461.58,-36 1461.58,0 1631.58,0 1631.58,-36"/>
<polyline fill="none" stroke="black" points="1461.58,0 1631.58,0 "/>
<text text-anchor="middle" x="1546.58" y="-14.3" font-family="Times,serif" font-size="14.00" fill="#f491f3">DOCTYPE_PRODORD</text>
</g>
<!-- f8f3c5d0&#45;05bc&#45;48ae&#45;94a8&#45;fa20797f1378&#45;&gt;43f21e7e&#45;fa13&#45;4279&#45;8909&#45;74057ecdc35b -->
<g id="edge11" class="edge">
<title>f8f3c5d0&#45;05bc&#45;48ae&#45;94a8&#45;fa20797f1378&#45;&gt;43f21e7e&#45;fa13&#45;4279&#45;8909&#45;74057ecdc35b</title>
<path fill="none" stroke="#f491f3" stroke-width="2.6" d="M1418.6,-18C1429.49,-18 1440.48,-18 1451.21,-18"/>
<polygon fill="#f491f3" stroke="#f491f3" stroke-width="2.6" points="1451.39,-21.5 1461.39,-18 1451.39,-14.5 1451.39,-21.5"/>
</g>
<!-- 08a3583d&#45;c4db&#45;444b&#45;8589&#45;fae15c4d864c -->
<g id="node10" class="node">
<title>08a3583d&#45;c4db&#45;444b&#45;8589&#45;fae15c4d864c</title>
<ellipse fill="#f491f3" stroke="black" cx="118.29" cy="-18" rx="110.48" ry="18"/>
<text text-anchor="middle" x="118.29" y="-14.3" font-family="Times,serif" font-size="14.00">DOCTYPE_PRODORD</text>
</g>
<!-- 08a3583d&#45;c4db&#45;444b&#45;8589&#45;fae15c4d864c&#45;&gt;42b1e9e5&#45;4ec0&#45;4280&#45;920b&#45;755dccd3397d -->
<g id="edge8" class="edge">
<title>08a3583d&#45;c4db&#45;444b&#45;8589&#45;fae15c4d864c&#45;&gt;42b1e9e5&#45;4ec0&#45;4280&#45;920b&#45;755dccd3397d</title>
<path fill="none" stroke="#f491f3" stroke-width="2.6" d="M229.01,-18C249.79,-18 271.53,-18 292.34,-18"/>
<polygon fill="#f491f3" stroke="#f491f3" stroke-width="2.6" points="292.47,-21.5 302.47,-18 292.47,-14.5 292.47,-21.5"/>
</g>
<!-- fb0327a2&#45;3a3d&#45;4a77&#45;8235&#45;7a23f0fa059b -->
<g id="node11" class="node">
<title>fb0327a2&#45;3a3d&#45;4a77&#45;8235&#45;7a23f0fa059b</title>
<ellipse fill="#17069d" stroke="black" cx="118.29" cy="-131" rx="117.78" ry="18"/>
<text text-anchor="middle" x="118.29" y="-127.3" font-family="Times,serif" font-size="14.00">DOCTYPE_PURCHREQ</text>
</g>
<!-- fb0327a2&#45;3a3d&#45;4a77&#45;8235&#45;7a23f0fa059b&#45;&gt;4d8e29b0&#45;0263&#45;4306&#45;acc8&#45;ef78309d3106 -->
<g id="edge9" class="edge">
<title>fb0327a2&#45;3a3d&#45;4a77&#45;8235&#45;7a23f0fa059b&#45;&gt;4d8e29b0&#45;0263&#45;4306&#45;acc8&#45;ef78309d3106</title>
<path fill="none" stroke="#17069d" stroke-width="2.6" d="M235.95,-131C244.94,-131 254.08,-131 263.21,-131"/>
<polygon fill="#17069d" stroke="#17069d" stroke-width="2.6" points="263.5,-134.5 273.5,-131 263.5,-127.5 263.5,-134.5"/>
</g>
<!-- 4de3ec41&#45;4468&#45;4832&#45;9d9a&#45;ece528156429 -->
<g id="node12" class="node">
<title>4de3ec41&#45;4468&#45;4832&#45;9d9a&#45;ece528156429</title>
<ellipse fill="#11646f" stroke="black" cx="118.29" cy="-191" rx="118.08" ry="18"/>
<text text-anchor="middle" x="118.29" y="-187.3" font-family="Times,serif" font-size="14.00">DOCTYPE_PURCHORD</text>
</g>
<!-- 4de3ec41&#45;4468&#45;4832&#45;9d9a&#45;ece528156429&#45;&gt;9fdabd31&#45;57fd&#45;44d2&#45;8886&#45;e55295126905 -->
<g id="edge10" class="edge">
<title>4de3ec41&#45;4468&#45;4832&#45;9d9a&#45;ece528156429&#45;&gt;9fdabd31&#45;57fd&#45;44d2&#45;8886&#45;e55295126905</title>
<path fill="none" stroke="#11646f" stroke-width="2.6" d="M236.77,-191C257.12,-191 278.16,-191 298.14,-191"/>
<polygon fill="#11646f" stroke="#11646f" stroke-width="2.6" points="298.18,-194.5 308.18,-191 298.18,-187.5 298.18,-194.5"/>
</g>
</g>
</svg>
