<?xml version="1.0" encoding="UTF-8" standalone="no"?>
<!DOCTYPE svg PUBLIC "-//W3C//DTD SVG 1.1//EN"
 "http://www.w3.org/Graphics/SVG/1.1/DTD/svg11.dtd">
<!-- Generated by graphviz version 2.50.0 (0)
 -->
<!-- Pages: 1 -->
<svg width="2237pt" height="1666pt"
 viewBox="0.00 0.00 2236.50 1665.57" xmlns="http://www.w3.org/2000/svg" xmlns:xlink="http://www.w3.org/1999/xlink">
<g id="graph0" class="graph" transform="scale(1 1) rotate(0) translate(4 1661.57)">
<!-- (p)DOCTYPE_PRODORD1 -->
<g id="node1" class="node">
<title>(p)DOCTYPE_PRODORD1</title>
<ellipse fill="#05b202" stroke="#05b202" cx="251" cy="-1544.5" rx="106.51" ry="106.51"/>
<text text-anchor="middle" x="251" y="-1541.1" font-family="Times,serif" font-size="13.00">DOCTYPE_PRODORD1</text>
</g>
<!-- (t)Created Production Order -->
<g id="node14" class="node">
<title>(t)Created Production Order</title>
<polygon fill="none" stroke="black" points="498,-1352.43 4,-1352.43 4,-1264.43 498,-1264.43 498,-1352.43"/>
<text text-anchor="middle" x="251" y="-1319.63" font-family="Times,serif" font-size="36.00">Created Production Order</text>
<text text-anchor="middle" x="251" y="-1279.63" font-family="Times,serif" font-size="36.00"> (50)</text>
<text text-anchor="start" x="0" y="-1355.63" font-family="Times,serif" font-size="11.00">&#45;</text>
</g>
<!-- (p)DOCTYPE_PRODORD1&#45;&gt;(t)Created Production Order -->
<g id="edge1" class="edge">
<title>(p)DOCTYPE_PRODORD1&#45;&gt;(t)Created Production Order</title>
<path fill="none" stroke="#05b202" d="M251,-1437.42C251,-1411.52 251,-1384.91 251,-1362.7"/>
<polygon fill="#05b202" stroke="#05b202" points="254.5,-1362.5 251,-1352.5 247.5,-1362.5 254.5,-1362.5"/>
<text text-anchor="middle" x="326" y="-1388.03" font-family="Times,serif" font-size="13.00"> avg. sojourn time=0s</text>
<text text-anchor="middle" x="326" y="-1374.03" font-family="Times,serif" font-size="13.00"> med. sojourn time=0s</text>
</g>
<!-- (p)DOCTYPE_PRODORD2 -->
<g id="node2" class="node">
<title>(p)DOCTYPE_PRODORD2</title>
<ellipse fill="#05b202" stroke="#05b202" cx="611" cy="-113.07" rx="106.51" ry="106.51"/>
<text text-anchor="middle" x="611" y="-109.67" font-family="Times,serif" font-size="13.00">DOCTYPE_PRODORD2</text>
</g>
<!-- (p)DOCTYPE_PRODORD3 -->
<g id="node3" class="node">
<title>(p)DOCTYPE_PRODORD3</title>
<ellipse fill="none" stroke="#05b202" cx="611" cy="-556.71" rx="119.5" ry="119.5"/>
<text text-anchor="middle" x="611" y="-567.31" font-family="Times,serif" font-size="13.00">DOCTYPE_PRODORD3</text>
<text text-anchor="middle" x="611" y="-553.31" font-family="Times,serif" font-size="13.00"> p=94 r=0</text>
<text text-anchor="middle" x="611" y="-539.31" font-family="Times,serif" font-size="13.00">c=94 m=0</text>
</g>
<!-- (t)Confirmed Production Order -->
<g id="node15" class="node">
<title>(t)Confirmed Production Order</title>
<polygon fill="none" stroke="black" points="881,-351.14 341,-351.14 341,-263.14 881,-263.14 881,-351.14"/>
<text text-anchor="middle" x="611" y="-318.34" font-family="Times,serif" font-size="36.00">Confirmed Production Order</text>
<text text-anchor="middle" x="611" y="-278.34" font-family="Times,serif" font-size="36.00"> (50)</text>
<text text-anchor="start" x="337" y="-354.34" font-family="Times,serif" font-size="11.00">&#45;</text>
</g>
<!-- (p)DOCTYPE_PRODORD3&#45;&gt;(t)Confirmed Production Order -->
<g id="edge5" class="edge">
<title>(p)DOCTYPE_PRODORD3&#45;&gt;(t)Confirmed Production Order</title>
<path fill="none" stroke="#05b202" d="M611,-437C611,-410.54 611,-383.77 611,-361.54"/>
<polygon fill="#05b202" stroke="#05b202" points="614.5,-361.33 611,-351.33 607.5,-361.33 614.5,-361.33"/>
<text text-anchor="middle" x="691" y="-386.74" font-family="Times,serif" font-size="13.00"> avg. sojourn time=1D</text>
<text text-anchor="middle" x="691" y="-372.74" font-family="Times,serif" font-size="13.00"> med. sojourn time=15h</text>
</g>
<!-- t4 -->
<g id="node17" class="node">
<title>t4</title>
<polygon fill="#000000" stroke="black" points="272,-325.14 218,-325.14 218,-289.14 272,-289.14 272,-325.14"/>
<text text-anchor="middle" x="245" y="-303.44" font-family="Times,serif" font-size="14.00" fill="#ffffff">t4</text>
</g>
<!-- (p)DOCTYPE_PRODORD3&#45;&gt;t4 -->
<g id="edge4" class="edge">
<title>(p)DOCTYPE_PRODORD3&#45;&gt;t4</title>
<path fill="none" stroke="#05b202" d="M529.56,-468.77C514.74,-455.04 498.91,-441.61 483,-430.14 465.18,-417.29 343.6,-356.75 281.44,-326.06"/>
<polygon fill="#05b202" stroke="#05b202" points="282.87,-322.87 272.36,-321.58 279.78,-329.14 282.87,-322.87"/>
<text text-anchor="middle" x="524" y="-386.74" font-family="Times,serif" font-size="13.00"> avg. sojourn time=0s</text>
<text text-anchor="middle" x="524" y="-372.74" font-family="Times,serif" font-size="13.00"> med. sojourn time=0s</text>
</g>
<!-- (p)DOCTYPE_PRODORD4 -->
<g id="node4" class="node">
<title>(p)DOCTYPE_PRODORD4</title>
<ellipse fill="none" stroke="#05b202" cx="251" cy="-1100.86" rx="119.5" ry="119.5"/>
<text text-anchor="middle" x="251" y="-1111.46" font-family="Times,serif" font-size="13.00">DOCTYPE_PRODORD4</text>
<text text-anchor="middle" x="251" y="-1097.46" font-family="Times,serif" font-size="13.00"> p=94 r=0</text>
<text text-anchor="middle" x="251" y="-1083.46" font-family="Times,serif" font-size="13.00">c=94 m=0</text>
</g>
<!-- (t)Goods Issue for Production Order -->
<g id="node16" class="node">
<title>(t)Goods Issue for Production Order</title>
<polygon fill="none" stroke="black" points="854,-895.28 222,-895.28 222,-807.28 854,-807.28 854,-895.28"/>
<text text-anchor="middle" x="538" y="-862.48" font-family="Times,serif" font-size="36.00">Goods Issue for Production Order</text>
<text text-anchor="middle" x="538" y="-822.48" font-family="Times,serif" font-size="36.00"> (94)</text>
<text text-anchor="start" x="218" y="-898.48" font-family="Times,serif" font-size="11.00">&#45;</text>
</g>
<!-- (p)DOCTYPE_PRODORD4&#45;&gt;(t)Goods Issue for Production Order -->
<g id="edge8" class="edge">
<title>(p)DOCTYPE_PRODORD4&#45;&gt;(t)Goods Issue for Production Order</title>
<path fill="none" stroke="#05b202" d="M303.71,-993.11C322.09,-964.13 345,-934.84 372,-913.28 377.69,-908.74 383.75,-904.51 390.07,-900.59"/>
<polygon fill="#05b202" stroke="#05b202" points="391.99,-903.51 398.82,-895.42 388.43,-897.49 391.99,-903.51"/>
<text text-anchor="middle" x="453" y="-930.88" font-family="Times,serif" font-size="13.00"> avg. sojourn time=21D</text>
<text text-anchor="middle" x="453" y="-916.88" font-family="Times,serif" font-size="13.00"> med. sojourn time=19D</text>
</g>
<!-- (p)DOCTYPE_PURCHREQ1 -->
<g id="node5" class="node">
<title>(p)DOCTYPE_PURCHREQ1</title>
<ellipse fill="#ba0d39" stroke="#ba0d39" cx="1194" cy="-1544.5" rx="113.14" ry="113.14"/>
<text text-anchor="middle" x="1194" y="-1541.1" font-family="Times,serif" font-size="13.00">DOCTYPE_PURCHREQ1</text>
</g>
<!-- (t)Released Purchase Requisition (1) -->
<g id="node18" class="node">
<title>(t)Released Purchase Requisition (1)</title>
<polygon fill="none" stroke="black" points="1515.5,-1352.43 872.5,-1352.43 872.5,-1264.43 1515.5,-1264.43 1515.5,-1352.43"/>
<text text-anchor="middle" x="1194" y="-1319.63" font-family="Times,serif" font-size="36.00">Released Purchase Requisition (1)</text>
<text text-anchor="middle" x="1194" y="-1279.63" font-family="Times,serif" font-size="36.00"> (119)</text>
<text text-anchor="start" x="868.5" y="-1355.63" font-family="Times,serif" font-size="11.00">&#45;</text>
</g>
<!-- (p)DOCTYPE_PURCHREQ1&#45;&gt;(t)Released Purchase Requisition (1) -->
<g id="edge9" class="edge">
<title>(p)DOCTYPE_PURCHREQ1&#45;&gt;(t)Released Purchase Requisition (1)</title>
<path fill="none" stroke="#ba0d39" d="M1194,-1431.26C1194,-1407.27 1194,-1383.02 1194,-1362.53"/>
<polygon fill="#ba0d39" stroke="#ba0d39" points="1197.5,-1362.49 1194,-1352.49 1190.5,-1362.49 1197.5,-1362.49"/>
<text text-anchor="middle" x="1269" y="-1388.03" font-family="Times,serif" font-size="13.00"> avg. sojourn time=0s</text>
<text text-anchor="middle" x="1269" y="-1374.03" font-family="Times,serif" font-size="13.00"> med. sojourn time=0s</text>
</g>
<!-- (p)DOCTYPE_PURCHREQ2 -->
<g id="node6" class="node">
<title>(p)DOCTYPE_PURCHREQ2</title>
<ellipse fill="#ba0d39" stroke="#ba0d39" cx="1194" cy="-556.71" rx="113.14" ry="113.14"/>
<text text-anchor="middle" x="1194" y="-553.31" font-family="Times,serif" font-size="13.00">DOCTYPE_PURCHREQ2</text>
</g>
<!-- (p)DOCTYPE_PURCHREQ3 -->
<g id="node7" class="node">
<title>(p)DOCTYPE_PURCHREQ3</title>
<ellipse fill="none" stroke="#ba0d39" cx="1194" cy="-1100.86" rx="126.64" ry="126.64"/>
<text text-anchor="middle" x="1194" y="-1111.46" font-family="Times,serif" font-size="13.00">DOCTYPE_PURCHREQ3</text>
<text text-anchor="middle" x="1194" y="-1097.46" font-family="Times,serif" font-size="13.00"> p=119 r=0</text>
<text text-anchor="middle" x="1194" y="-1083.46" font-family="Times,serif" font-size="13.00">c=119 m=0</text>
</g>
<!-- (t)Released Purchase Requisition (2) -->
<g id="node19" class="node">
<title>(t)Released Purchase Requisition (2)</title>
<polygon fill="none" stroke="black" points="1515.5,-895.28 872.5,-895.28 872.5,-807.28 1515.5,-807.28 1515.5,-895.28"/>
<text text-anchor="middle" x="1194" y="-862.48" font-family="Times,serif" font-size="36.00">Released Purchase Requisition (2)</text>
<text text-anchor="middle" x="1194" y="-822.48" font-family="Times,serif" font-size="36.00"> (119)</text>
<text text-anchor="start" x="868.5" y="-898.48" font-family="Times,serif" font-size="11.00">&#45;</text>
</g>
<!-- (p)DOCTYPE_PURCHREQ3&#45;&gt;(t)Released Purchase Requisition (2) -->
<g id="edge12" class="edge">
<title>(p)DOCTYPE_PURCHREQ3&#45;&gt;(t)Released Purchase Requisition (2)</title>
<path fill="none" stroke="#ba0d39" d="M1194,-974.26C1194,-950.1 1194,-926.04 1194,-905.74"/>
<polygon fill="#ba0d39" stroke="#ba0d39" points="1197.5,-905.5 1194,-895.5 1190.5,-905.5 1197.5,-905.5"/>
<text text-anchor="middle" x="1271" y="-930.88" font-family="Times,serif" font-size="13.00"> avg. sojourn time=2D</text>
<text text-anchor="middle" x="1271" y="-916.88" font-family="Times,serif" font-size="13.00"> med. sojourn time=1D</text>
</g>
<!-- (p)DOCTYPE_PURCHORD1 -->
<g id="node8" class="node">
<title>(p)DOCTYPE_PURCHORD1</title>
<ellipse fill="#39f6c0" stroke="#39f6c0" cx="1765" cy="-1544.5" rx="113.14" ry="113.14"/>
<text text-anchor="middle" x="1765" y="-1541.1" font-family="Times,serif" font-size="13.00">DOCTYPE_PURCHORD1</text>
</g>
<!-- (t)Created Purchase Order -->
<g id="node20" class="node">
<title>(t)Created Purchase Order</title>
<polygon fill="none" stroke="black" points="1996.5,-1352.43 1533.5,-1352.43 1533.5,-1264.43 1996.5,-1264.43 1996.5,-1352.43"/>
<text text-anchor="middle" x="1765" y="-1319.63" font-family="Times,serif" font-size="36.00">Created Purchase Order</text>
<text text-anchor="middle" x="1765" y="-1279.63" font-family="Times,serif" font-size="36.00"> (119)</text>
<text text-anchor="start" x="1529.5" y="-1355.63" font-family="Times,serif" font-size="11.00">&#45;</text>
</g>
<!-- (p)DOCTYPE_PURCHORD1&#45;&gt;(t)Created Purchase Order -->
<g id="edge13" class="edge">
<title>(p)DOCTYPE_PURCHORD1&#45;&gt;(t)Created Purchase Order</title>
<path fill="none" stroke="#39f6c0" d="M1765,-1431.26C1765,-1407.27 1765,-1383.02 1765,-1362.53"/>
<polygon fill="#39f6c0" stroke="#39f6c0" points="1768.5,-1362.49 1765,-1352.49 1761.5,-1362.49 1768.5,-1362.49"/>
<text text-anchor="middle" x="1840" y="-1388.03" font-family="Times,serif" font-size="13.00"> avg. sojourn time=0s</text>
<text text-anchor="middle" x="1840" y="-1374.03" font-family="Times,serif" font-size="13.00"> med. sojourn time=0s</text>
</g>
<!-- (p)DOCTYPE_PURCHORD2 -->
<g id="node9" class="node">
<title>(p)DOCTYPE_PURCHORD2</title>
<ellipse fill="none" stroke="#39f6c0" cx="1765" cy="-1100.86" rx="126.64" ry="126.64"/>
<text text-anchor="middle" x="1765" y="-1111.46" font-family="Times,serif" font-size="13.00">DOCTYPE_PURCHORD2</text>
<text text-anchor="middle" x="1765" y="-1097.46" font-family="Times,serif" font-size="13.00"> p=119 r=0</text>
<text text-anchor="middle" x="1765" y="-1083.46" font-family="Times,serif" font-size="13.00">c=119 m=0</text>
</g>
<!-- (t) Rejected Purchase Order -->
<g id="node21" class="node">
<title>(t) Rejected Purchase Order</title>
<polygon fill="none" stroke="black" points="1901.5,-789.28 1414.5,-789.28 1414.5,-701.28 1901.5,-701.28 1901.5,-789.28"/>
<text text-anchor="middle" x="1658" y="-756.48" font-family="Times,serif" font-size="36.00"> Rejected Purchase Order</text>
<text text-anchor="middle" x="1658" y="-716.48" font-family="Times,serif" font-size="36.00"> (25)</text>
<text text-anchor="start" x="1410.5" y="-792.48" font-family="Times,serif" font-size="11.00">&#45;</text>
</g>
<!-- (p)DOCTYPE_PURCHORD2&#45;&gt;(t) Rejected Purchase Order -->
<g id="edge15" class="edge">
<title>(p)DOCTYPE_PURCHORD2&#45;&gt;(t) Rejected Purchase Order</title>
<path fill="none" stroke="#39f6c0" d="M1707.62,-987.73C1694.67,-958.31 1682.3,-926.16 1674,-895.28 1665.63,-864.18 1661.62,-828.32 1659.7,-799.57"/>
<polygon fill="#39f6c0" stroke="#39f6c0" points="1663.18,-799.09 1659.09,-789.32 1656.19,-799.51 1663.18,-799.09"/>
<text text-anchor="middle" x="1771" y="-930.88" font-family="Times,serif" font-size="13.00"> avg. sojourn time=6D</text>
<text text-anchor="middle" x="1771" y="-916.88" font-family="Times,serif" font-size="13.00"> med. sojourn time=4D</text>
</g>
<!-- (t)Released Purchase Order (1) -->
<g id="node22" class="node">
<title>(t)Released Purchase Order (1)</title>
<polygon fill="none" stroke="black" points="2228.5,-895.28 1683.5,-895.28 1683.5,-807.28 2228.5,-807.28 2228.5,-895.28"/>
<text text-anchor="middle" x="1956" y="-862.48" font-family="Times,serif" font-size="36.00">Released Purchase Order (1)</text>
<text text-anchor="middle" x="1956" y="-822.48" font-family="Times,serif" font-size="36.00"> (94)</text>
<text text-anchor="start" x="1679.5" y="-898.48" font-family="Times,serif" font-size="11.00">&#45;</text>
</g>
<!-- (p)DOCTYPE_PURCHORD2&#45;&gt;(t)Released Purchase Order (1) -->
<g id="edge16" class="edge">
<title>(p)DOCTYPE_PURCHORD2&#45;&gt;(t)Released Purchase Order (1)</title>
<path fill="none" stroke="#39f6c0" d="M1841.86,-1000.23C1867.43,-967.09 1894.85,-931.54 1916.41,-903.6"/>
<polygon fill="#39f6c0" stroke="#39f6c0" points="1919.28,-905.62 1922.61,-895.56 1913.73,-901.34 1919.28,-905.62"/>
<text text-anchor="middle" x="1981" y="-930.88" font-family="Times,serif" font-size="13.00"> avg. sojourn time=4D</text>
<text text-anchor="middle" x="1981" y="-916.88" font-family="Times,serif" font-size="13.00"> med. sojourn time=3D</text>
</g>
<!-- (p)DOCTYPE_PURCHORD3 -->
<g id="node10" class="node">
<title>(p)DOCTYPE_PURCHORD3</title>
<ellipse fill="none" stroke="#39f6c0" cx="1954" cy="-556.71" rx="126.64" ry="126.64"/>
<text text-anchor="middle" x="1954" y="-567.31" font-family="Times,serif" font-size="13.00">DOCTYPE_PURCHORD3</text>
<text text-anchor="middle" x="1954" y="-553.31" font-family="Times,serif" font-size="13.00"> p=94 r=0</text>
<text text-anchor="middle" x="1954" y="-539.31" font-family="Times,serif" font-size="13.00">c=94 m=0</text>
</g>
<!-- (t)Goods Receipt for Order -->
<g id="node23" class="node">
<title>(t)Goods Receipt for Order</title>
<polygon fill="none" stroke="black" points="2174.5,-351.14 1711.5,-351.14 1711.5,-263.14 2174.5,-263.14 2174.5,-351.14"/>
<text text-anchor="middle" x="1943" y="-318.34" font-family="Times,serif" font-size="36.00">Goods Receipt for Order</text>
<text text-anchor="middle" x="1943" y="-278.34" font-family="Times,serif" font-size="36.00"> (94)</text>
<text text-anchor="start" x="1707.5" y="-354.34" font-family="Times,serif" font-size="11.00">&#45;</text>
</g>
<!-- (p)DOCTYPE_PURCHORD3&#45;&gt;(t)Goods Receipt for Order -->
<g id="edge18" class="edge">
<title>(p)DOCTYPE_PURCHORD3&#45;&gt;(t)Goods Receipt for Order</title>
<path fill="none" stroke="#39f6c0" d="M1948.42,-430.11C1947.35,-405.96 1946.28,-381.89 1945.38,-361.6"/>
<polygon fill="#39f6c0" stroke="#39f6c0" points="1948.86,-361.19 1944.92,-351.35 1941.87,-361.5 1948.86,-361.19"/>
<text text-anchor="middle" x="2024" y="-386.74" font-family="Times,serif" font-size="13.00"> avg. sojourn time=3D</text>
<text text-anchor="middle" x="2024" y="-372.74" font-family="Times,serif" font-size="13.00"> med. sojourn time=3D</text>
</g>
<!-- (p)DOCTYPE_PURCHORD4 -->
<g id="node11" class="node">
<title>(p)DOCTYPE_PURCHORD4</title>
<ellipse fill="#39f6c0" stroke="#39f6c0" cx="1739" cy="-113.07" rx="113.14" ry="113.14"/>
<text text-anchor="middle" x="1739" y="-109.67" font-family="Times,serif" font-size="13.00">DOCTYPE_PURCHORD4</text>
</g>
<!-- (p)DOCTYPE_RESERVATION1 -->
<g id="node12" class="node">
<title>(p)DOCTYPE_RESERVATION1</title>
<ellipse fill="#a13ccd" stroke="#a13ccd" cx="538" cy="-1100.86" rx="125.91" ry="125.91"/>
<text text-anchor="middle" x="538" y="-1097.46" font-family="Times,serif" font-size="13.00">DOCTYPE_RESERVATION1</text>
</g>
<!-- (p)DOCTYPE_RESERVATION1&#45;&gt;(t)Goods Issue for Production Order -->
<g id="edge21" class="edge">
<title>(p)DOCTYPE_RESERVATION1&#45;&gt;(t)Goods Issue for Production Order</title>
<path fill="none" stroke="#a13ccd" d="M538,-974.98C538,-950.52 538,-926.1 538,-905.57"/>
<polygon fill="#a13ccd" stroke="#a13ccd" points="541.5,-905.52 538,-895.52 534.5,-905.52 541.5,-905.52"/>
<text text-anchor="middle" x="613" y="-930.88" font-family="Times,serif" font-size="13.00"> avg. sojourn time=0s</text>
<text text-anchor="middle" x="613" y="-916.88" font-family="Times,serif" font-size="13.00"> med. sojourn time=0s</text>
</g>
<!-- (p)DOCTYPE_RESERVATION2 -->
<g id="node13" class="node">
<title>(p)DOCTYPE_RESERVATION2</title>
<ellipse fill="#a13ccd" stroke="#a13ccd" cx="348" cy="-556.71" rx="125.91" ry="125.91"/>
<text text-anchor="middle" x="348" y="-553.31" font-family="Times,serif" font-size="13.00">DOCTYPE_RESERVATION2</text>
</g>
<!-- (t)Created Production Order&#45;&gt;(p)DOCTYPE_PRODORD4 -->
<g id="edge7" class="edge">
<title>(t)Created Production Order&#45;&gt;(p)DOCTYPE_PRODORD4</title>
<path fill="none" stroke="#05b202" d="M251,-1264.33C251,-1254.12 251,-1242.71 251,-1230.8"/>
<polygon fill="#05b202" stroke="#05b202" points="254.5,-1230.69 251,-1220.69 247.5,-1230.69 254.5,-1230.69"/>
</g>
<!-- (t)Confirmed Production Order&#45;&gt;(p)DOCTYPE_PRODORD2 -->
<g id="edge2" class="edge">
<title>(t)Confirmed Production Order&#45;&gt;(p)DOCTYPE_PRODORD2</title>
<path fill="none" stroke="#05b202" d="M611,-263.04C611,-253.03 611,-241.9 611,-230.37"/>
<polygon fill="#05b202" stroke="#05b202" points="614.5,-230.15 611,-220.15 607.5,-230.15 614.5,-230.15"/>
</g>
<!-- (t)Goods Issue for Production Order&#45;&gt;(p)DOCTYPE_PRODORD3 -->
<g id="edge3" class="edge">
<title>(t)Goods Issue for Production Order&#45;&gt;(p)DOCTYPE_PRODORD3</title>
<path fill="none" stroke="#05b202" d="M548.77,-807.11C556.99,-774.16 568.76,-727.01 579.85,-682.56"/>
<polygon fill="#05b202" stroke="#05b202" points="583.25,-683.38 582.28,-672.83 576.46,-681.68 583.25,-683.38"/>
</g>
<!-- (t)Goods Issue for Production Order&#45;&gt;(p)DOCTYPE_RESERVATION2 -->
<g id="edge22" class="edge">
<title>(t)Goods Issue for Production Order&#45;&gt;(p)DOCTYPE_RESERVATION2</title>
<path fill="none" stroke="#a13ccd" d="M509.96,-807.11C486.74,-771.35 452.65,-718.86 421.73,-671.25"/>
<polygon fill="#a13ccd" stroke="#a13ccd" points="424.58,-669.21 416.2,-662.73 418.71,-673.02 424.58,-669.21"/>
</g>
<!-- t4&#45;&gt;(p)DOCTYPE_PRODORD4 -->
<g id="edge6" class="edge">
<title>t4&#45;&gt;(p)DOCTYPE_PRODORD4</title>
<path fill="none" stroke="#05b202" d="M239.02,-325.24C231.21,-348.59 217.93,-391.92 213,-430.14 186.56,-635.17 194.04,-689.42 213,-895.28 215.36,-920.88 219.34,-948.05 223.86,-973.95"/>
<polygon fill="#05b202" stroke="#05b202" points="220.42,-974.58 225.62,-983.81 227.31,-973.35 220.42,-974.58"/>
</g>
<!-- (t)Released Purchase Requisition (1)&#45;&gt;(p)DOCTYPE_PURCHREQ3 -->
<g id="edge11" class="edge">
<title>(t)Released Purchase Requisition (1)&#45;&gt;(p)DOCTYPE_PURCHREQ3</title>
<path fill="none" stroke="#ba0d39" d="M1194,-1264.33C1194,-1256.21 1194,-1247.32 1194,-1238.02"/>
<polygon fill="#ba0d39" stroke="#ba0d39" points="1197.5,-1237.79 1194,-1227.79 1190.5,-1237.79 1197.5,-1237.79"/>
</g>
<!-- (t)Released Purchase Requisition (2)&#45;&gt;(p)DOCTYPE_PURCHREQ2 -->
<g id="edge10" class="edge">
<title>(t)Released Purchase Requisition (2)&#45;&gt;(p)DOCTYPE_PURCHREQ2</title>
<path fill="none" stroke="#ba0d39" d="M1194,-807.11C1194,-773.57 1194,-725.3 1194,-680.15"/>
<polygon fill="#ba0d39" stroke="#ba0d39" points="1197.5,-679.97 1194,-669.97 1190.5,-679.97 1197.5,-679.97"/>
</g>
<!-- (t)Created Purchase Order&#45;&gt;(p)DOCTYPE_PURCHORD2 -->
<g id="edge14" class="edge">
<title>(t)Created Purchase Order&#45;&gt;(p)DOCTYPE_PURCHORD2</title>
<path fill="none" stroke="#39f6c0" d="M1765,-1264.33C1765,-1256.21 1765,-1247.32 1765,-1238.02"/>
<polygon fill="#39f6c0" stroke="#39f6c0" points="1768.5,-1237.79 1765,-1227.79 1761.5,-1237.79 1768.5,-1237.79"/>
</g>
<!-- (t) Rejected Purchase Order&#45;&gt;(p)DOCTYPE_PURCHORD4 -->
<g id="edge19" class="edge">
<title>(t) Rejected Purchase Order&#45;&gt;(p)DOCTYPE_PURCHORD4</title>
<path fill="none" stroke="#39f6c0" d="M1659.74,-701.2C1663.64,-616.67 1674.95,-423.39 1702,-263.14 1703.68,-253.18 1705.68,-242.9 1707.85,-232.61"/>
<polygon fill="#39f6c0" stroke="#39f6c0" points="1711.29,-233.28 1709.99,-222.76 1704.45,-231.79 1711.29,-233.28"/>
</g>
<!-- (t)Released Purchase Order (1)&#45;&gt;(p)DOCTYPE_PURCHORD3 -->
<g id="edge17" class="edge">
<title>(t)Released Purchase Order (1)&#45;&gt;(p)DOCTYPE_PURCHORD3</title>
<path fill="none" stroke="#39f6c0" d="M1955.7,-807.11C1955.5,-776.86 1955.21,-734.64 1954.93,-693.53"/>
<polygon fill="#39f6c0" stroke="#39f6c0" points="1958.43,-693.37 1954.86,-683.39 1951.43,-693.42 1958.43,-693.37"/>
</g>
<!-- (t)Goods Receipt for Order&#45;&gt;(p)DOCTYPE_PURCHORD4 -->
<g id="edge20" class="edge">
<title>(t)Goods Receipt for Order&#45;&gt;(p)DOCTYPE_PURCHORD4</title>
<path fill="none" stroke="#39f6c0" d="M1897.22,-263.04C1876.88,-243.89 1852.22,-220.67 1828.47,-198.31"/>
<polygon fill="#39f6c0" stroke="#39f6c0" points="1830.81,-195.71 1821.13,-191.4 1826.01,-200.8 1830.81,-195.71"/>
</g>
</g>
</svg>
