<?xml version="1.0" encoding="UTF-8" standalone="no"?>
<!DOCTYPE svg PUBLIC "-//W3C//DTD SVG 1.1//EN"
 "http://www.w3.org/Graphics/SVG/1.1/DTD/svg11.dtd">
<!-- Generated by graphviz version 2.50.0 (0)
 -->
<!-- Title: ocdfg Pages: 1 -->
<svg width="1905pt" height="230pt"
 viewBox="0.00 0.00 1904.58 230.00" xmlns="http://www.w3.org/2000/svg" xmlns:xlink="http://www.w3.org/1999/xlink">
<g id="graph0" class="graph" transform="scale(1 1) rotate(0) translate(4 226)">
<title>ocdfg</title>
<!-- 21d6cdad&#45;b406&#45;4533&#45;b3bf&#45;aae84998b8a0 -->
<g id="node1" class="node">
<title>21d6cdad&#45;b406&#45;4533&#45;b3bf&#45;aae84998b8a0</title>
<polygon fill="#e4e4ff" stroke="black" points="637.58,-38 434.58,-38 434.58,0 637.58,0 637.58,-38"/>
<text text-anchor="middle" x="536.08" y="-22.8" font-family="Times,serif" font-size="14.00">Created Production Order</text>
<text text-anchor="middle" x="536.08" y="-7.8" font-family="Times,serif" font-size="14.00">E=50</text>
</g>
<!-- b3e8381a&#45;fd15&#45;4b44&#45;b588&#45;1ec749997037 -->
<g id="node8" class="node">
<title>b3e8381a&#45;fd15&#45;4b44&#45;b588&#45;1ec749997037</title>
<polygon fill="#b5b5ff" stroke="black" points="1093.58,-38 836.58,-38 836.58,0 1093.58,0 1093.58,-38"/>
<text text-anchor="middle" x="965.08" y="-22.8" font-family="Times,serif" font-size="14.00">Goods Issue for Production Order</text>
<text text-anchor="middle" x="965.08" y="-7.8" font-family="Times,serif" font-size="14.00">E=94</text>
</g>
<!-- 21d6cdad&#45;b406&#45;4533&#45;b3bf&#45;aae84998b8a0&#45;&gt;b3e8381a&#45;fd15&#45;4b44&#45;b588&#45;1ec749997037 -->
<g id="edge5" class="edge">
<title>21d6cdad&#45;b406&#45;4533&#45;b3bf&#45;aae84998b8a0&#45;&gt;b3e8381a&#45;fd15&#45;4b44&#45;b588&#45;1ec749997037</title>
<path fill="none" stroke="#f491f3" stroke-width="2.6" d="M637.73,-19C694.02,-19 764.99,-19 826.37,-19"/>
<polygon fill="#f491f3" stroke="#f491f3" stroke-width="2.6" points="826.52,-22.5 836.52,-19 826.52,-15.5 826.52,-22.5"/>
<text text-anchor="middle" x="750.58" y="-21.6" font-family="Times,serif" font-size="8.00" fill="#f491f3">DOCTYPE_PRODORD EC=50</text>
</g>
<!-- 0ba9fa80&#45;33d0&#45;41df&#45;996f&#45;4761dcbc67ef -->
<g id="node2" class="node">
<title>0ba9fa80&#45;33d0&#45;41df&#45;996f&#45;4761dcbc67ef</title>
<polygon fill="#9b9bff" stroke="black" points="666.58,-121 405.58,-121 405.58,-83 666.58,-83 666.58,-121"/>
<text text-anchor="middle" x="536.08" y="-105.8" font-family="Times,serif" font-size="14.00">Released Purchase Requisition (1)</text>
<text text-anchor="middle" x="536.08" y="-90.8" font-family="Times,serif" font-size="14.00">E=119</text>
</g>
<!-- 46031650&#45;c3a4&#45;4caa&#45;9547&#45;1fa778e3e075 -->
<g id="node3" class="node">
<title>46031650&#45;c3a4&#45;4caa&#45;9547&#45;1fa778e3e075</title>
<polygon fill="#9b9bff" stroke="black" points="1095.58,-121 834.58,-121 834.58,-83 1095.58,-83 1095.58,-121"/>
<text text-anchor="middle" x="965.08" y="-105.8" font-family="Times,serif" font-size="14.00">Released Purchase Requisition (2)</text>
<text text-anchor="middle" x="965.08" y="-90.8" font-family="Times,serif" font-size="14.00">E=119</text>
</g>
<!-- 0ba9fa80&#45;33d0&#45;41df&#45;996f&#45;4761dcbc67ef&#45;&gt;46031650&#45;c3a4&#45;4caa&#45;9547&#45;1fa778e3e075 -->
<g id="edge1" class="edge">
<title>0ba9fa80&#45;33d0&#45;41df&#45;996f&#45;4761dcbc67ef&#45;&gt;46031650&#45;c3a4&#45;4caa&#45;9547&#45;1fa778e3e075</title>
<path fill="none" stroke="#17069d" d="M666.64,-102C716.45,-102 773.51,-102 824.25,-102"/>
<polygon fill="#17069d" stroke="#17069d" points="824.31,-105.5 834.31,-102 824.31,-98.5 824.31,-105.5"/>
<text text-anchor="middle" x="750.58" y="-104.6" font-family="Times,serif" font-size="8.00" fill="#17069d">DOCTYPE_PURCHREQ EC=119</text>
</g>
<!-- a4a60d75&#45;126d&#45;46e2&#45;bf18&#45;5eef188b3376 -->
<g id="node14" class="node">
<title>a4a60d75&#45;126d&#45;46e2&#45;bf18&#45;5eef188b3376</title>
<polygon fill="none" stroke="transparent" points="1532.08,-120 1351.08,-120 1351.08,-84 1532.08,-84 1532.08,-120"/>
<polyline fill="none" stroke="black" points="1351.08,-84 1532.08,-84 "/>
<text text-anchor="middle" x="1441.58" y="-98.3" font-family="Times,serif" font-size="14.00" fill="#17069d">DOCTYPE_PURCHREQ</text>
</g>
<!-- 46031650&#45;c3a4&#45;4caa&#45;9547&#45;1fa778e3e075&#45;&gt;a4a60d75&#45;126d&#45;46e2&#45;bf18&#45;5eef188b3376 -->
<g id="edge12" class="edge">
<title>46031650&#45;c3a4&#45;4caa&#45;9547&#45;1fa778e3e075&#45;&gt;a4a60d75&#45;126d&#45;46e2&#45;bf18&#45;5eef188b3376</title>
<path fill="none" stroke="#17069d" d="M1095.74,-102C1172.89,-102 1269.3,-102 1340.55,-102"/>
<polygon fill="#17069d" stroke="#17069d" points="1340.88,-105.5 1350.88,-102 1340.88,-98.5 1340.88,-105.5"/>
<text text-anchor="middle" x="1213.58" y="-104.6" font-family="Times,serif" font-size="8.00" fill="#17069d">DOCTYPE_PURCHREQ EC=119</text>
</g>
<!-- c0d957db&#45;ddf4&#45;46cc&#45;bf6d&#45;0444c77187ce -->
<g id="node4" class="node">
<title>c0d957db&#45;ddf4&#45;46cc&#45;bf6d&#45;0444c77187ce</title>
<polygon fill="#9b9bff" stroke="black" points="631.58,-195 440.58,-195 440.58,-157 631.58,-157 631.58,-195"/>
<text text-anchor="middle" x="536.08" y="-179.8" font-family="Times,serif" font-size="14.00">Created Purchase Order</text>
<text text-anchor="middle" x="536.08" y="-164.8" font-family="Times,serif" font-size="14.00">E=119</text>
</g>
<!-- 06a3c083&#45;e516&#45;45f6&#45;8998&#45;5016aa9cc874 -->
<g id="node5" class="node">
<title>06a3c083&#45;e516&#45;45f6&#45;8998&#45;5016aa9cc874</title>
<polygon fill="#b5b5ff" stroke="black" points="1076.08,-222 854.08,-222 854.08,-184 1076.08,-184 1076.08,-222"/>
<text text-anchor="middle" x="965.08" y="-206.8" font-family="Times,serif" font-size="14.00">Released Purchase Order (1)</text>
<text text-anchor="middle" x="965.08" y="-191.8" font-family="Times,serif" font-size="14.00">E=94</text>
</g>
<!-- c0d957db&#45;ddf4&#45;46cc&#45;bf6d&#45;0444c77187ce&#45;&gt;06a3c083&#45;e516&#45;45f6&#45;8998&#45;5016aa9cc874 -->
<g id="edge2" class="edge">
<title>c0d957db&#45;ddf4&#45;46cc&#45;bf6d&#45;0444c77187ce&#45;&gt;06a3c083&#45;e516&#45;45f6&#45;8998&#45;5016aa9cc874</title>
<path fill="none" stroke="#11646f" stroke-width="2.17" d="M631.58,-181.98C694.08,-185.93 776.58,-191.14 843.76,-195.39"/>
<polygon fill="#11646f" stroke="#11646f" stroke-width="2.17" points="843.78,-198.9 853.98,-196.04 844.22,-191.91 843.78,-198.9"/>
<text text-anchor="middle" x="750.58" y="-195.6" font-family="Times,serif" font-size="8.00" fill="#11646f">DOCTYPE_PURCHORD EC=94</text>
</g>
<!-- 9eda6a96&#45;0098&#45;4466&#45;8222&#45;db162a36b2c1 -->
<g id="node7" class="node">
<title>9eda6a96&#45;0098&#45;4466&#45;8222&#45;db162a36b2c1</title>
<polygon fill="#ffffff" stroke="black" points="1313.58,-175 1113.58,-175 1113.58,-137 1313.58,-137 1313.58,-175"/>
<text text-anchor="middle" x="1213.58" y="-159.8" font-family="Times,serif" font-size="14.00"> Rejected Purchase Order</text>
<text text-anchor="middle" x="1213.58" y="-144.8" font-family="Times,serif" font-size="14.00">E=25</text>
</g>
<!-- c0d957db&#45;ddf4&#45;46cc&#45;bf6d&#45;0444c77187ce&#45;&gt;9eda6a96&#45;0098&#45;4466&#45;8222&#45;db162a36b2c1 -->
<g id="edge4" class="edge">
<title>c0d957db&#45;ddf4&#45;46cc&#45;bf6d&#45;0444c77187ce&#45;&gt;9eda6a96&#45;0098&#45;4466&#45;8222&#45;db162a36b2c1</title>
<path fill="none" stroke="#11646f" d="M631.72,-173.2C755.66,-169.53 972.53,-163.11 1103.32,-159.23"/>
<polygon fill="#11646f" stroke="#11646f" points="1103.48,-162.73 1113.37,-158.94 1103.27,-155.73 1103.48,-162.73"/>
<text text-anchor="middle" x="750.58" y="-173.6" font-family="Times,serif" font-size="8.00" fill="#11646f">DOCTYPE_PURCHORD EC=25</text>
</g>
<!-- e3610ce5&#45;e881&#45;4a35&#45;9bd8&#45;5d19c9c460b8 -->
<g id="node6" class="node">
<title>e3610ce5&#45;e881&#45;4a35&#45;9bd8&#45;5d19c9c460b8</title>
<polygon fill="#b5b5ff" stroke="black" points="1537.08,-222 1346.08,-222 1346.08,-184 1537.08,-184 1537.08,-222"/>
<text text-anchor="middle" x="1441.58" y="-206.8" font-family="Times,serif" font-size="14.00">Goods Receipt for Order</text>
<text text-anchor="middle" x="1441.58" y="-191.8" font-family="Times,serif" font-size="14.00">E=94</text>
</g>
<!-- 06a3c083&#45;e516&#45;45f6&#45;8998&#45;5016aa9cc874&#45;&gt;e3610ce5&#45;e881&#45;4a35&#45;9bd8&#45;5d19c9c460b8 -->
<g id="edge3" class="edge">
<title>06a3c083&#45;e516&#45;45f6&#45;8998&#45;5016aa9cc874&#45;&gt;e3610ce5&#45;e881&#45;4a35&#45;9bd8&#45;5d19c9c460b8</title>
<path fill="none" stroke="#11646f" stroke-width="2.17" d="M1076.13,-203C1154.34,-203 1258.73,-203 1335.74,-203"/>
<polygon fill="#11646f" stroke="#11646f" stroke-width="2.17" points="1335.95,-206.5 1345.95,-203 1335.95,-199.5 1335.95,-206.5"/>
<text text-anchor="middle" x="1213.58" y="-205.6" font-family="Times,serif" font-size="8.00" fill="#11646f">DOCTYPE_PURCHORD EC=94</text>
</g>
<!-- ae54b6e8&#45;c8d4&#45;4d35&#45;b149&#45;199e2e5bbd0b -->
<g id="node15" class="node">
<title>ae54b6e8&#45;c8d4&#45;4d35&#45;b149&#45;199e2e5bbd0b</title>
<polygon fill="none" stroke="transparent" points="1896.58,-191 1714.58,-191 1714.58,-155 1896.58,-155 1896.58,-191"/>
<polyline fill="none" stroke="black" points="1714.58,-155 1896.58,-155 "/>
<text text-anchor="middle" x="1805.58" y="-169.3" font-family="Times,serif" font-size="14.00" fill="#11646f">DOCTYPE_PURCHORD</text>
</g>
<!-- e3610ce5&#45;e881&#45;4a35&#45;9bd8&#45;5d19c9c460b8&#45;&gt;ae54b6e8&#45;c8d4&#45;4d35&#45;b149&#45;199e2e5bbd0b -->
<g id="edge13" class="edge">
<title>e3610ce5&#45;e881&#45;4a35&#45;9bd8&#45;5d19c9c460b8&#45;&gt;ae54b6e8&#45;c8d4&#45;4d35&#45;b149&#45;199e2e5bbd0b</title>
<path fill="none" stroke="#11646f" stroke-width="2.17" d="M1537.22,-195.16C1588.57,-190.9 1652.05,-185.64 1704.26,-181.31"/>
<polygon fill="#11646f" stroke="#11646f" stroke-width="2.17" points="1704.87,-184.78 1714.54,-180.46 1704.29,-177.8 1704.87,-184.78"/>
<text text-anchor="middle" x="1633.08" y="-194.6" font-family="Times,serif" font-size="8.00" fill="#11646f">DOCTYPE_PURCHORD EC=94</text>
</g>
<!-- 9eda6a96&#45;0098&#45;4466&#45;8222&#45;db162a36b2c1&#45;&gt;ae54b6e8&#45;c8d4&#45;4d35&#45;b149&#45;199e2e5bbd0b -->
<g id="edge14" class="edge">
<title>9eda6a96&#45;0098&#45;4466&#45;8222&#45;db162a36b2c1&#45;&gt;ae54b6e8&#45;c8d4&#45;4d35&#45;b149&#45;199e2e5bbd0b</title>
<path fill="none" stroke="#11646f" d="M1313.66,-158.86C1422.2,-161.98 1595.31,-166.97 1704.32,-170.11"/>
<polygon fill="#11646f" stroke="#11646f" points="1704.24,-173.61 1714.33,-170.4 1704.44,-166.61 1704.24,-173.61"/>
<text text-anchor="middle" x="1441.58" y="-167.6" font-family="Times,serif" font-size="8.00" fill="#11646f">DOCTYPE_PURCHORD EC=25</text>
</g>
<!-- b3e8381a&#45;fd15&#45;4b44&#45;b588&#45;1ec749997037&#45;&gt;b3e8381a&#45;fd15&#45;4b44&#45;b588&#45;1ec749997037 -->
<g id="edge6" class="edge">
<title>b3e8381a&#45;fd15&#45;4b44&#45;b588&#45;1ec749997037&#45;&gt;b3e8381a&#45;fd15&#45;4b44&#45;b588&#45;1ec749997037</title>
<path fill="none" stroke="#f491f3" d="M926.14,-38.04C920.75,-47.53 933.73,-56 965.08,-56 984.18,-56 996.46,-52.86 1001.92,-48.25"/>
<polygon fill="#f491f3" stroke="#f491f3" points="1005.44,-48.54 1004.02,-38.04 998.58,-47.13 1005.44,-48.54"/>
<text text-anchor="middle" x="965.08" y="-58.6" font-family="Times,serif" font-size="8.00" fill="#f491f3">DOCTYPE_PRODORD EC=44</text>
</g>
<!-- 8566de22&#45;8ea3&#45;4b7d&#45;a998&#45;0b48c22490a3 -->
<g id="node9" class="node">
<title>8566de22&#45;8ea3&#45;4b7d&#45;a998&#45;0b48c22490a3</title>
<polygon fill="#e4e4ff" stroke="black" points="1551.58,-38 1331.58,-38 1331.58,0 1551.58,0 1551.58,-38"/>
<text text-anchor="middle" x="1441.58" y="-22.8" font-family="Times,serif" font-size="14.00">Confirmed Production Order</text>
<text text-anchor="middle" x="1441.58" y="-7.8" font-family="Times,serif" font-size="14.00">E=50</text>
</g>
<!-- b3e8381a&#45;fd15&#45;4b44&#45;b588&#45;1ec749997037&#45;&gt;8566de22&#45;8ea3&#45;4b7d&#45;a998&#45;0b48c22490a3 -->
<g id="edge7" class="edge">
<title>b3e8381a&#45;fd15&#45;4b44&#45;b588&#45;1ec749997037&#45;&gt;8566de22&#45;8ea3&#45;4b7d&#45;a998&#45;0b48c22490a3</title>
<path fill="none" stroke="#f491f3" stroke-width="2.6" d="M1093.86,-19C1164.63,-19 1252.04,-19 1321.39,-19"/>
<polygon fill="#f491f3" stroke="#f491f3" stroke-width="2.6" points="1321.49,-22.5 1331.49,-19 1321.49,-15.5 1321.49,-22.5"/>
<text text-anchor="middle" x="1213.58" y="-21.6" font-family="Times,serif" font-size="8.00" fill="#f491f3">DOCTYPE_PRODORD EC=50</text>
</g>
<!-- b0970830&#45;f6d8&#45;4e7e&#45;98bd&#45;8917269b39a3 -->
<g id="node13" class="node">
<title>b0970830&#45;f6d8&#45;4e7e&#45;98bd&#45;8917269b39a3</title>
<polygon fill="none" stroke="transparent" points="1890.58,-37 1720.58,-37 1720.58,-1 1890.58,-1 1890.58,-37"/>
<polyline fill="none" stroke="black" points="1720.58,-1 1890.58,-1 "/>
<text text-anchor="middle" x="1805.58" y="-15.3" font-family="Times,serif" font-size="14.00" fill="#f491f3">DOCTYPE_PRODORD</text>
</g>
<!-- 8566de22&#45;8ea3&#45;4b7d&#45;a998&#45;0b48c22490a3&#45;&gt;b0970830&#45;f6d8&#45;4e7e&#45;98bd&#45;8917269b39a3 -->
<g id="edge11" class="edge">
<title>8566de22&#45;8ea3&#45;4b7d&#45;a998&#45;0b48c22490a3&#45;&gt;b0970830&#45;f6d8&#45;4e7e&#45;98bd&#45;8917269b39a3</title>
<path fill="none" stroke="#f491f3" stroke-width="2.6" d="M1551.68,-19C1602.21,-19 1661.67,-19 1710.24,-19"/>
<polygon fill="#f491f3" stroke="#f491f3" stroke-width="2.6" points="1710.43,-22.5 1720.43,-19 1710.43,-15.5 1710.43,-22.5"/>
<text text-anchor="middle" x="1633.08" y="-21.6" font-family="Times,serif" font-size="8.00" fill="#f491f3">DOCTYPE_PRODORD EC=50</text>
</g>
<!-- 47516131&#45;adb4&#45;4643&#45;944a&#45;ceb39f9abd8e -->
<g id="node10" class="node">
<title>47516131&#45;adb4&#45;4643&#45;944a&#45;ceb39f9abd8e</title>
<ellipse fill="#f491f3" stroke="black" cx="118.29" cy="-19" rx="110.48" ry="18"/>
<text text-anchor="middle" x="118.29" y="-15.3" font-family="Times,serif" font-size="14.00">DOCTYPE_PRODORD</text>
</g>
<!-- 47516131&#45;adb4&#45;4643&#45;944a&#45;ceb39f9abd8e&#45;&gt;21d6cdad&#45;b406&#45;4533&#45;b3bf&#45;aae84998b8a0 -->
<g id="edge8" class="edge">
<title>47516131&#45;adb4&#45;4643&#45;944a&#45;ceb39f9abd8e&#45;&gt;21d6cdad&#45;b406&#45;4533&#45;b3bf&#45;aae84998b8a0</title>
<path fill="none" stroke="#f491f3" stroke-width="2.6" d="M228.81,-19C289.08,-19 363.69,-19 424.18,-19"/>
<polygon fill="#f491f3" stroke="#f491f3" stroke-width="2.6" points="424.53,-22.5 434.53,-19 424.53,-15.5 424.53,-22.5"/>
<text text-anchor="middle" x="321.08" y="-21.6" font-family="Times,serif" font-size="8.00" fill="#f491f3">DOCTYPE_PRODORD EC=50</text>
</g>
<!-- 5c65c478&#45;b38c&#45;420b&#45;b2a9&#45;8e0e6a98e168 -->
<g id="node11" class="node">
<title>5c65c478&#45;b38c&#45;420b&#45;b2a9&#45;8e0e6a98e168</title>
<ellipse fill="#17069d" stroke="black" cx="118.29" cy="-102" rx="117.78" ry="18"/>
<text text-anchor="middle" x="118.29" y="-98.3" font-family="Times,serif" font-size="14.00">DOCTYPE_PURCHREQ</text>
</g>
<!-- 5c65c478&#45;b38c&#45;420b&#45;b2a9&#45;8e0e6a98e168&#45;&gt;0ba9fa80&#45;33d0&#45;41df&#45;996f&#45;4761dcbc67ef -->
<g id="edge9" class="edge">
<title>5c65c478&#45;b38c&#45;420b&#45;b2a9&#45;8e0e6a98e168&#45;&gt;0ba9fa80&#45;33d0&#45;41df&#45;996f&#45;4761dcbc67ef</title>
<path fill="none" stroke="#17069d" d="M235.94,-102C285.37,-102 343.39,-102 395.11,-102"/>
<polygon fill="#17069d" stroke="#17069d" points="395.37,-105.5 405.37,-102 395.37,-98.5 395.37,-105.5"/>
<text text-anchor="middle" x="321.08" y="-104.6" font-family="Times,serif" font-size="8.00" fill="#17069d">DOCTYPE_PURCHREQ EC=119</text>
</g>
<!-- 8e54a85a&#45;b014&#45;4ce6&#45;b40b&#45;62c2deca85e8 -->
<g id="node12" class="node">
<title>8e54a85a&#45;b014&#45;4ce6&#45;b40b&#45;62c2deca85e8</title>
<ellipse fill="#11646f" stroke="black" cx="118.29" cy="-176" rx="118.08" ry="18"/>
<text text-anchor="middle" x="118.29" y="-172.3" font-family="Times,serif" font-size="14.00">DOCTYPE_PURCHORD</text>
</g>
<!-- 8e54a85a&#45;b014&#45;4ce6&#45;b40b&#45;62c2deca85e8&#45;&gt;c0d957db&#45;ddf4&#45;46cc&#45;bf6d&#45;0444c77187ce -->
<g id="edge10" class="edge">
<title>8e54a85a&#45;b014&#45;4ce6&#45;b40b&#45;62c2deca85e8&#45;&gt;c0d957db&#45;ddf4&#45;46cc&#45;bf6d&#45;0444c77187ce</title>
<path fill="none" stroke="#11646f" stroke-width="2.6" d="M236.77,-176C297.61,-176 371.28,-176 430.18,-176"/>
<polygon fill="#11646f" stroke="#11646f" stroke-width="2.6" points="430.25,-179.5 440.25,-176 430.25,-172.5 430.25,-179.5"/>
<text text-anchor="middle" x="321.08" y="-178.6" font-family="Times,serif" font-size="8.00" fill="#11646f">DOCTYPE_PURCHORD EC=119</text>
</g>
</g>
</svg>
