<?xml version="1.0" encoding="UTF-8" standalone="no"?>
<!DOCTYPE svg PUBLIC "-//W3C//DTD SVG 1.1//EN"
 "http://www.w3.org/Graphics/SVG/1.1/DTD/svg11.dtd">
<!-- Generated by graphviz version 2.50.0 (0)
 -->
<!-- Title: ocdfg Pages: 1 -->
<svg width="1646pt" height="221pt"
 viewBox="0.00 0.00 1645.58 221.00" xmlns="http://www.w3.org/2000/svg" xmlns:xlink="http://www.w3.org/1999/xlink">
<g id="graph0" class="graph" transform="scale(1 1) rotate(0) translate(4 217)">
<title>ocdfg</title>
<!-- ee422763&#45;c6c7&#45;4006&#45;ba3d&#45;0fa9022818cf -->
<g id="node1" class="node">
<title>ee422763&#45;c6c7&#45;4006&#45;ba3d&#45;0fa9022818cf</title>
<polygon fill="none" stroke="black" points="505.58,-36 302.58,-36 302.58,0 505.58,0 505.58,-36"/>
<text text-anchor="middle" x="404.08" y="-14.3" font-family="Times,serif" font-size="14.00">Created Production Order</text>
</g>
<!-- 34569097&#45;0c22&#45;4ee6&#45;9aa2&#45;05cb4b901a7f -->
<g id="node8" class="node">
<title>34569097&#45;0c22&#45;4ee6&#45;9aa2&#45;05cb4b901a7f</title>
<polygon fill="none" stroke="black" points="960.58,-36 703.58,-36 703.58,0 960.58,0 960.58,-36"/>
<text text-anchor="middle" x="832.08" y="-14.3" font-family="Times,serif" font-size="14.00">Goods Issue for Production Order</text>
</g>
<!-- ee422763&#45;c6c7&#45;4006&#45;ba3d&#45;0fa9022818cf&#45;&gt;34569097&#45;0c22&#45;4ee6&#45;9aa2&#45;05cb4b901a7f -->
<g id="edge5" class="edge">
<title>ee422763&#45;c6c7&#45;4006&#45;ba3d&#45;0fa9022818cf&#45;&gt;34569097&#45;0c22&#45;4ee6&#45;9aa2&#45;05cb4b901a7f</title>
<path fill="none" stroke="#f491f3" d="M505.77,-18C561.81,-18 632.39,-18 693.47,-18"/>
<polygon fill="#f491f3" stroke="#f491f3" points="693.58,-21.5 703.58,-18 693.58,-14.5 693.58,-21.5"/>
<text text-anchor="middle" x="618.08" y="-20.6" font-family="Times,serif" font-size="8.00" fill="#f491f3">DOCTYPE_PRODORD EC=1MO</text>
</g>
<!-- 039ce88c&#45;1b15&#45;4668&#45;aa74&#45;b85c02afed8c -->
<g id="node2" class="node">
<title>039ce88c&#45;1b15&#45;4668&#45;aa74&#45;b85c02afed8c</title>
<polygon fill="none" stroke="black" points="534.58,-117 273.58,-117 273.58,-81 534.58,-81 534.58,-117"/>
<text text-anchor="middle" x="404.08" y="-95.3" font-family="Times,serif" font-size="14.00">Released Purchase Requisition (1)</text>
</g>
<!-- d6e9e856&#45;2f3b&#45;4590&#45;a9a5&#45;aaea46a930ed -->
<g id="node3" class="node">
<title>d6e9e856&#45;2f3b&#45;4590&#45;a9a5&#45;aaea46a930ed</title>
<polygon fill="none" stroke="black" points="962.58,-117 701.58,-117 701.58,-81 962.58,-81 962.58,-117"/>
<text text-anchor="middle" x="832.08" y="-95.3" font-family="Times,serif" font-size="14.00">Released Purchase Requisition (2)</text>
</g>
<!-- 039ce88c&#45;1b15&#45;4668&#45;aa74&#45;b85c02afed8c&#45;&gt;d6e9e856&#45;2f3b&#45;4590&#45;a9a5&#45;aaea46a930ed -->
<g id="edge1" class="edge">
<title>039ce88c&#45;1b15&#45;4668&#45;aa74&#45;b85c02afed8c&#45;&gt;d6e9e856&#45;2f3b&#45;4590&#45;a9a5&#45;aaea46a930ed</title>
<path fill="none" stroke="#17069d" d="M534.63,-99C584.2,-99 640.93,-99 691.4,-99"/>
<polygon fill="#17069d" stroke="#17069d" points="691.41,-102.5 701.41,-99 691.41,-95.5 691.41,-102.5"/>
<text text-anchor="middle" x="618.08" y="-101.6" font-family="Times,serif" font-size="8.00" fill="#17069d">DOCTYPE_PURCHREQ EC=2D</text>
</g>
<!-- d8ca7797&#45;2da5&#45;4a0d&#45;93d1&#45;2adb88369516 -->
<g id="node14" class="node">
<title>d8ca7797&#45;2da5&#45;4a0d&#45;93d1&#45;2adb88369516</title>
<polygon fill="none" stroke="transparent" points="1399.08,-117 1218.08,-117 1218.08,-81 1399.08,-81 1399.08,-117"/>
<polyline fill="none" stroke="black" points="1218.08,-81 1399.08,-81 "/>
<text text-anchor="middle" x="1308.58" y="-95.3" font-family="Times,serif" font-size="14.00" fill="#17069d">DOCTYPE_PURCHREQ</text>
</g>
<!-- d6e9e856&#45;2f3b&#45;4590&#45;a9a5&#45;aaea46a930ed&#45;&gt;d8ca7797&#45;2da5&#45;4a0d&#45;93d1&#45;2adb88369516 -->
<g id="edge12" class="edge">
<title>d6e9e856&#45;2f3b&#45;4590&#45;a9a5&#45;aaea46a930ed&#45;&gt;d8ca7797&#45;2da5&#45;4a0d&#45;93d1&#45;2adb88369516</title>
<path fill="none" stroke="#17069d" d="M962.74,-99C1039.89,-99 1136.3,-99 1207.55,-99"/>
<polygon fill="#17069d" stroke="#17069d" points="1207.88,-102.5 1217.88,-99 1207.88,-95.5 1207.88,-102.5"/>
</g>
<!-- 606bae70&#45;b9e9&#45;4345&#45;831a&#45;7e3fa85777a3 -->
<g id="node4" class="node">
<title>606bae70&#45;b9e9&#45;4345&#45;831a&#45;7e3fa85777a3</title>
<polygon fill="none" stroke="black" points="499.58,-188 308.58,-188 308.58,-152 499.58,-152 499.58,-188"/>
<text text-anchor="middle" x="404.08" y="-166.3" font-family="Times,serif" font-size="14.00">Created Purchase Order</text>
</g>
<!-- b625ed25&#45;652d&#45;41c9&#45;9f9b&#45;f8f9327d416a -->
<g id="node5" class="node">
<title>b625ed25&#45;652d&#45;41c9&#45;9f9b&#45;f8f9327d416a</title>
<polygon fill="none" stroke="black" points="943.08,-213 721.08,-213 721.08,-177 943.08,-177 943.08,-213"/>
<text text-anchor="middle" x="832.08" y="-191.3" font-family="Times,serif" font-size="14.00">Released Purchase Order (1)</text>
</g>
<!-- 606bae70&#45;b9e9&#45;4345&#45;831a&#45;7e3fa85777a3&#45;&gt;b625ed25&#45;652d&#45;41c9&#45;9f9b&#45;f8f9327d416a -->
<g id="edge2" class="edge">
<title>606bae70&#45;b9e9&#45;4345&#45;831a&#45;7e3fa85777a3&#45;&gt;b625ed25&#45;652d&#45;41c9&#45;9f9b&#45;f8f9327d416a</title>
<path fill="none" stroke="#11646f" d="M499.62,-175.55C561.87,-179.2 643.92,-184.02 710.81,-187.94"/>
<polygon fill="#11646f" stroke="#11646f" points="710.8,-191.45 720.98,-188.54 711.21,-184.46 710.8,-191.45"/>
<text text-anchor="middle" x="618.08" y="-188.6" font-family="Times,serif" font-size="8.00" fill="#11646f">DOCTYPE_PURCHORD EC=4D</text>
</g>
<!-- 150a6188&#45;26fb&#45;49b4&#45;b4ed&#45;5fb2f298173f -->
<g id="node7" class="node">
<title>150a6188&#45;26fb&#45;49b4&#45;b4ed&#45;5fb2f298173f</title>
<polygon fill="none" stroke="black" points="1180.58,-167 980.58,-167 980.58,-131 1180.58,-131 1180.58,-167"/>
<text text-anchor="middle" x="1080.58" y="-145.3" font-family="Times,serif" font-size="14.00"> Rejected Purchase Order</text>
</g>
<!-- 606bae70&#45;b9e9&#45;4345&#45;831a&#45;7e3fa85777a3&#45;&gt;150a6188&#45;26fb&#45;49b4&#45;b4ed&#45;5fb2f298173f -->
<g id="edge4" class="edge">
<title>606bae70&#45;b9e9&#45;4345&#45;831a&#45;7e3fa85777a3&#45;&gt;150a6188&#45;26fb&#45;49b4&#45;b4ed&#45;5fb2f298173f</title>
<path fill="none" stroke="#11646f" d="M499.9,-166.74C517.41,-166.15 535.55,-165.55 552.58,-165 697.04,-160.36 863.8,-155.36 970.38,-152.2"/>
<polygon fill="#11646f" stroke="#11646f" points="970.61,-155.7 980.5,-151.9 970.4,-148.7 970.61,-155.7"/>
<text text-anchor="middle" x="618.08" y="-167.6" font-family="Times,serif" font-size="8.00" fill="#11646f">DOCTYPE_PURCHORD EC=6D</text>
</g>
<!-- 3681cbd4&#45;5583&#45;4445&#45;a548&#45;508c5a4acdb8 -->
<g id="node6" class="node">
<title>3681cbd4&#45;5583&#45;4445&#45;a548&#45;508c5a4acdb8</title>
<polygon fill="none" stroke="black" points="1404.08,-213 1213.08,-213 1213.08,-177 1404.08,-177 1404.08,-213"/>
<text text-anchor="middle" x="1308.58" y="-191.3" font-family="Times,serif" font-size="14.00">Goods Receipt for Order</text>
</g>
<!-- b625ed25&#45;652d&#45;41c9&#45;9f9b&#45;f8f9327d416a&#45;&gt;3681cbd4&#45;5583&#45;4445&#45;a548&#45;508c5a4acdb8 -->
<g id="edge3" class="edge">
<title>b625ed25&#45;652d&#45;41c9&#45;9f9b&#45;f8f9327d416a&#45;&gt;3681cbd4&#45;5583&#45;4445&#45;a548&#45;508c5a4acdb8</title>
<path fill="none" stroke="#11646f" d="M943.13,-195C1021.34,-195 1125.73,-195 1202.74,-195"/>
<polygon fill="#11646f" stroke="#11646f" points="1202.95,-198.5 1212.95,-195 1202.95,-191.5 1202.95,-198.5"/>
<text text-anchor="middle" x="1080.58" y="-197.6" font-family="Times,serif" font-size="8.00" fill="#11646f">DOCTYPE_PURCHORD EC=3D</text>
</g>
<!-- 2133afd5&#45;8fa8&#45;4e35&#45;8faf&#45;6990c2888ba3 -->
<g id="node15" class="node">
<title>2133afd5&#45;8fa8&#45;4e35&#45;8faf&#45;6990c2888ba3</title>
<polygon fill="none" stroke="transparent" points="1637.58,-185 1455.58,-185 1455.58,-149 1637.58,-149 1637.58,-185"/>
<polyline fill="none" stroke="black" points="1455.58,-149 1637.58,-149 "/>
<text text-anchor="middle" x="1546.58" y="-163.3" font-family="Times,serif" font-size="14.00" fill="#11646f">DOCTYPE_PURCHORD</text>
</g>
<!-- 3681cbd4&#45;5583&#45;4445&#45;a548&#45;508c5a4acdb8&#45;&gt;2133afd5&#45;8fa8&#45;4e35&#45;8faf&#45;6990c2888ba3 -->
<g id="edge13" class="edge">
<title>3681cbd4&#45;5583&#45;4445&#45;a548&#45;508c5a4acdb8&#45;&gt;2133afd5&#45;8fa8&#45;4e35&#45;8faf&#45;6990c2888ba3</title>
<path fill="none" stroke="#11646f" stroke-width="2.17" d="M1404.21,-183.77C1417.7,-182.17 1431.61,-180.52 1445.21,-178.91"/>
<polygon fill="#11646f" stroke="#11646f" stroke-width="2.17" points="1446.01,-182.34 1455.53,-177.68 1445.18,-175.39 1446.01,-182.34"/>
</g>
<!-- 150a6188&#45;26fb&#45;49b4&#45;b4ed&#45;5fb2f298173f&#45;&gt;2133afd5&#45;8fa8&#45;4e35&#45;8faf&#45;6990c2888ba3 -->
<g id="edge14" class="edge">
<title>150a6188&#45;26fb&#45;49b4&#45;b4ed&#45;5fb2f298173f&#45;&gt;2133afd5&#45;8fa8&#45;4e35&#45;8faf&#45;6990c2888ba3</title>
<path fill="none" stroke="#11646f" d="M1180.83,-152.85C1258.8,-155.87 1366.9,-160.07 1445.16,-163.1"/>
<polygon fill="#11646f" stroke="#11646f" points="1445.39,-166.62 1455.52,-163.51 1445.66,-159.62 1445.39,-166.62"/>
</g>
<!-- 34569097&#45;0c22&#45;4ee6&#45;9aa2&#45;05cb4b901a7f&#45;&gt;34569097&#45;0c22&#45;4ee6&#45;9aa2&#45;05cb4b901a7f -->
<g id="edge6" class="edge">
<title>34569097&#45;0c22&#45;4ee6&#45;9aa2&#45;05cb4b901a7f&#45;&gt;34569097&#45;0c22&#45;4ee6&#45;9aa2&#45;05cb4b901a7f</title>
<path fill="none" stroke="#f491f3" d="M793.36,-36.15C787.41,-45.54 800.31,-54 832.08,-54 851.44,-54 863.79,-50.86 869.14,-46.28"/>
<polygon fill="#f491f3" stroke="#f491f3" points="872.64,-46.59 870.79,-36.15 865.73,-45.46 872.64,-46.59"/>
<text text-anchor="middle" x="832.08" y="-56.6" font-family="Times,serif" font-size="8.00" fill="#f491f3">DOCTYPE_PRODORD EC=0s</text>
</g>
<!-- 48b37950&#45;d4e8&#45;4250&#45;b6c3&#45;7d4589240c59 -->
<g id="node9" class="node">
<title>48b37950&#45;d4e8&#45;4250&#45;b6c3&#45;7d4589240c59</title>
<polygon fill="none" stroke="black" points="1418.58,-36 1198.58,-36 1198.58,0 1418.58,0 1418.58,-36"/>
<text text-anchor="middle" x="1308.58" y="-14.3" font-family="Times,serif" font-size="14.00">Confirmed Production Order</text>
</g>
<!-- 34569097&#45;0c22&#45;4ee6&#45;9aa2&#45;05cb4b901a7f&#45;&gt;48b37950&#45;d4e8&#45;4250&#45;b6c3&#45;7d4589240c59 -->
<g id="edge7" class="edge">
<title>34569097&#45;0c22&#45;4ee6&#45;9aa2&#45;05cb4b901a7f&#45;&gt;48b37950&#45;d4e8&#45;4250&#45;b6c3&#45;7d4589240c59</title>
<path fill="none" stroke="#f491f3" d="M960.86,-18C1031.63,-18 1119.04,-18 1188.39,-18"/>
<polygon fill="#f491f3" stroke="#f491f3" points="1188.49,-21.5 1198.49,-18 1188.49,-14.5 1188.49,-21.5"/>
<text text-anchor="middle" x="1080.58" y="-20.6" font-family="Times,serif" font-size="8.00" fill="#f491f3">DOCTYPE_PRODORD EC=1D</text>
</g>
<!-- 4e9e3cf7&#45;c040&#45;4888&#45;b551&#45;6510c83c555a -->
<g id="node13" class="node">
<title>4e9e3cf7&#45;c040&#45;4888&#45;b551&#45;6510c83c555a</title>
<polygon fill="none" stroke="transparent" points="1631.58,-36 1461.58,-36 1461.58,0 1631.58,0 1631.58,-36"/>
<polyline fill="none" stroke="black" points="1461.58,0 1631.58,0 "/>
<text text-anchor="middle" x="1546.58" y="-14.3" font-family="Times,serif" font-size="14.00" fill="#f491f3">DOCTYPE_PRODORD</text>
</g>
<!-- 48b37950&#45;d4e8&#45;4250&#45;b6c3&#45;7d4589240c59&#45;&gt;4e9e3cf7&#45;c040&#45;4888&#45;b551&#45;6510c83c555a -->
<g id="edge11" class="edge">
<title>48b37950&#45;d4e8&#45;4250&#45;b6c3&#45;7d4589240c59&#45;&gt;4e9e3cf7&#45;c040&#45;4888&#45;b551&#45;6510c83c555a</title>
<path fill="none" stroke="#f491f3" stroke-width="2.6" d="M1418.6,-18C1429.49,-18 1440.48,-18 1451.21,-18"/>
<polygon fill="#f491f3" stroke="#f491f3" stroke-width="2.6" points="1451.39,-21.5 1461.39,-18 1451.39,-14.5 1451.39,-21.5"/>
</g>
<!-- 21fa6cfe&#45;b080&#45;4cd2&#45;9cf9&#45;3447ad3e301e -->
<g id="node10" class="node">
<title>21fa6cfe&#45;b080&#45;4cd2&#45;9cf9&#45;3447ad3e301e</title>
<ellipse fill="#f491f3" stroke="black" cx="118.29" cy="-18" rx="110.48" ry="18"/>
<text text-anchor="middle" x="118.29" y="-14.3" font-family="Times,serif" font-size="14.00">DOCTYPE_PRODORD</text>
</g>
<!-- 21fa6cfe&#45;b080&#45;4cd2&#45;9cf9&#45;3447ad3e301e&#45;&gt;ee422763&#45;c6c7&#45;4006&#45;ba3d&#45;0fa9022818cf -->
<g id="edge8" class="edge">
<title>21fa6cfe&#45;b080&#45;4cd2&#45;9cf9&#45;3447ad3e301e&#45;&gt;ee422763&#45;c6c7&#45;4006&#45;ba3d&#45;0fa9022818cf</title>
<path fill="none" stroke="#f491f3" stroke-width="2.6" d="M229.01,-18C249.79,-18 271.53,-18 292.34,-18"/>
<polygon fill="#f491f3" stroke="#f491f3" stroke-width="2.6" points="292.47,-21.5 302.47,-18 292.47,-14.5 292.47,-21.5"/>
</g>
<!-- 661ae6b7&#45;12b8&#45;4cad&#45;8859&#45;b97511b58fdd -->
<g id="node11" class="node">
<title>661ae6b7&#45;12b8&#45;4cad&#45;8859&#45;b97511b58fdd</title>
<ellipse fill="#17069d" stroke="black" cx="118.29" cy="-99" rx="117.78" ry="18"/>
<text text-anchor="middle" x="118.29" y="-95.3" font-family="Times,serif" font-size="14.00">DOCTYPE_PURCHREQ</text>
</g>
<!-- 661ae6b7&#45;12b8&#45;4cad&#45;8859&#45;b97511b58fdd&#45;&gt;039ce88c&#45;1b15&#45;4668&#45;aa74&#45;b85c02afed8c -->
<g id="edge9" class="edge">
<title>661ae6b7&#45;12b8&#45;4cad&#45;8859&#45;b97511b58fdd&#45;&gt;039ce88c&#45;1b15&#45;4668&#45;aa74&#45;b85c02afed8c</title>
<path fill="none" stroke="#17069d" d="M235.95,-99C244.94,-99 254.08,-99 263.21,-99"/>
<polygon fill="#17069d" stroke="#17069d" points="263.5,-102.5 273.5,-99 263.5,-95.5 263.5,-102.5"/>
</g>
<!-- 52dcc073&#45;a25e&#45;462d&#45;8a32&#45;d6e4473e466e -->
<g id="node12" class="node">
<title>52dcc073&#45;a25e&#45;462d&#45;8a32&#45;d6e4473e466e</title>
<ellipse fill="#11646f" stroke="black" cx="118.29" cy="-170" rx="118.08" ry="18"/>
<text text-anchor="middle" x="118.29" y="-166.3" font-family="Times,serif" font-size="14.00">DOCTYPE_PURCHORD</text>
</g>
<!-- 52dcc073&#45;a25e&#45;462d&#45;8a32&#45;d6e4473e466e&#45;&gt;606bae70&#45;b9e9&#45;4345&#45;831a&#45;7e3fa85777a3 -->
<g id="edge10" class="edge">
<title>52dcc073&#45;a25e&#45;462d&#45;8a32&#45;d6e4473e466e&#45;&gt;606bae70&#45;b9e9&#45;4345&#45;831a&#45;7e3fa85777a3</title>
<path fill="none" stroke="#11646f" stroke-width="2.6" d="M236.77,-170C257.12,-170 278.16,-170 298.14,-170"/>
<polygon fill="#11646f" stroke="#11646f" stroke-width="2.6" points="298.18,-173.5 308.18,-170 298.18,-166.5 298.18,-173.5"/>
</g>
</g>
</svg>
