<?xml version="1.0" encoding="UTF-8" standalone="no"?>
<!DOCTYPE svg PUBLIC "-//W3C//DTD SVG 1.1//EN"
 "http://www.w3.org/Graphics/SVG/1.1/DTD/svg11.dtd">
<!-- Generated by graphviz version 2.50.0 (0)
 -->
<!-- Pages: 1 -->
<svg width="1483pt" height="4240pt"
 viewBox="0.00 0.00 1482.50 4240.04" xmlns="http://www.w3.org/2000/svg" xmlns:xlink="http://www.w3.org/1999/xlink">
<g id="graph0" class="graph" transform="scale(1 1) rotate(0) translate(4 4236.04)">
<!-- (p)DOCTYPE_RESERVATION1 -->
<g id="node1" class="node">
<title>(p)DOCTYPE_RESERVATION1</title>
<ellipse fill="#a13ccd" stroke="#a13ccd" cx="554.5" cy="-4106.34" rx="125.91" ry="125.91"/>
<text text-anchor="middle" x="554.5" y="-4102.94" font-family="Times,serif" font-size="13.00">DOCTYPE_RESERVATION1</text>
</g>
<!-- (t)Created Production Order -->
<g id="node18" class="node">
<title>(t)Created Production Order</title>
<polygon fill="none" stroke="black" points="926.5,-3901.63 432.5,-3901.63 432.5,-3813.63 926.5,-3813.63 926.5,-3901.63"/>
<text text-anchor="middle" x="679.5" y="-3868.83" font-family="Times,serif" font-size="36.00">Created Production Order</text>
<text text-anchor="middle" x="679.5" y="-3828.83" font-family="Times,serif" font-size="36.00"> (50)</text>
<text text-anchor="start" x="428.5" y="-3904.83" font-family="Times,serif" font-size="11.00">&#45;</text>
</g>
<!-- (p)DOCTYPE_RESERVATION1&#45;&gt;(t)Created Production Order -->
<g id="edge1" class="edge">
<title>(p)DOCTYPE_RESERVATION1&#45;&gt;(t)Created Production Order</title>
<path fill="none" stroke="#a13ccd" d="M596.43,-3987.38C606.65,-3964.06 618.21,-3940.22 630.77,-3918.63 632.66,-3915.38 634.66,-3912.17 636.79,-3908.94"/>
<path fill="none" stroke="white" d="M598.26,-3988.18C608.45,-3964.93 620.01,-3941.09 632.5,-3919.63 634.36,-3916.44 636.36,-3913.23 638.46,-3910.04"/>
<path fill="none" stroke="#a13ccd" d="M600.1,-3988.98C610.25,-3965.8 621.81,-3941.96 634.23,-3920.64 636.05,-3917.5 638.06,-3914.29 640.13,-3911.13"/>
<polygon fill="#a13ccd" stroke="#a13ccd" points="641.43,-3911.89 644.19,-3901.66 635.66,-3907.94 641.43,-3911.89"/>
<text text-anchor="middle" x="707.5" y="-3937.23" font-family="Times,serif" font-size="13.00"> avg. sojourn time=0s</text>
<text text-anchor="middle" x="707.5" y="-3923.23" font-family="Times,serif" font-size="13.00"> med. sojourn time=0s</text>
</g>
<!-- (p)DOCTYPE_RESERVATION2 -->
<g id="node2" class="node">
<title>(p)DOCTYPE_RESERVATION2</title>
<ellipse fill="#a13ccd" stroke="#a13ccd" cx="941.5" cy="-543.21" rx="125.91" ry="125.91"/>
<text text-anchor="middle" x="941.5" y="-539.81" font-family="Times,serif" font-size="13.00">DOCTYPE_RESERVATION2</text>
</g>
<!-- (p)DOCTYPE_RESERVATION3 -->
<g id="node3" class="node">
<title>(p)DOCTYPE_RESERVATION3</title>
<ellipse fill="none" stroke="#a13ccd" cx="370.5" cy="-3635.92" rx="140.93" ry="140.93"/>
<text text-anchor="middle" x="370.5" y="-3646.52" font-family="Times,serif" font-size="13.00">DOCTYPE_RESERVATION3</text>
<text text-anchor="middle" x="370.5" y="-3632.52" font-family="Times,serif" font-size="13.00"> p=119 r=0</text>
<text text-anchor="middle" x="370.5" y="-3618.52" font-family="Times,serif" font-size="13.00">c=119 m=0</text>
</g>
<!-- (t)Released Purchase Requisition (1) -->
<g id="node21" class="node">
<title>(t)Released Purchase Requisition (1)</title>
<polygon fill="none" stroke="black" points="882,-3220.2 239,-3220.2 239,-3132.2 882,-3132.2 882,-3220.2"/>
<text text-anchor="middle" x="560.5" y="-3187.4" font-family="Times,serif" font-size="36.00">Released Purchase Requisition (1)</text>
<text text-anchor="middle" x="560.5" y="-3147.4" font-family="Times,serif" font-size="36.00"> (119)</text>
<text text-anchor="start" x="235" y="-3223.4" font-family="Times,serif" font-size="11.00">&#45;</text>
</g>
<!-- (p)DOCTYPE_RESERVATION3&#45;&gt;(t)Released Purchase Requisition (1) -->
<g id="edge5" class="edge">
<title>(p)DOCTYPE_RESERVATION3&#45;&gt;(t)Released Purchase Requisition (1)</title>
<path fill="none" stroke="#a13ccd" d="M354.7,-3496.04C352.69,-3413.52 363.92,-3311.09 418.5,-3238.2 421.46,-3234.25 424.73,-3230.55 428.25,-3227.09"/>
<polygon fill="#a13ccd" stroke="#a13ccd" points="430.69,-3229.59 435.8,-3220.31 426.02,-3224.38 430.69,-3229.59"/>
<text text-anchor="middle" x="495.5" y="-3353.8" font-family="Times,serif" font-size="13.00"> avg. sojourn time=7D</text>
<text text-anchor="middle" x="495.5" y="-3339.8" font-family="Times,serif" font-size="13.00"> med. sojourn time=6D</text>
</g>
<!-- (p)DOCTYPE_RESERVATION4 -->
<g id="node4" class="node">
<title>(p)DOCTYPE_RESERVATION4</title>
<ellipse fill="none" stroke="#a13ccd" cx="337.5" cy="-1998.2" rx="140.93" ry="140.93"/>
<text text-anchor="middle" x="337.5" y="-2008.8" font-family="Times,serif" font-size="13.00">DOCTYPE_RESERVATION4</text>
<text text-anchor="middle" x="337.5" y="-1994.8" font-family="Times,serif" font-size="13.00"> p=119 r=0</text>
<text text-anchor="middle" x="337.5" y="-1980.8" font-family="Times,serif" font-size="13.00">c=119 m=0</text>
</g>
<!-- (t) Rejected Purchase Order -->
<g id="node20" class="node">
<title>(t) Rejected Purchase Order</title>
<polygon fill="none" stroke="black" points="491,-1778.49 4,-1778.49 4,-1690.49 491,-1690.49 491,-1778.49"/>
<text text-anchor="middle" x="247.5" y="-1745.69" font-family="Times,serif" font-size="36.00"> Rejected Purchase Order</text>
<text text-anchor="middle" x="247.5" y="-1705.69" font-family="Times,serif" font-size="36.00"> (25)</text>
<text text-anchor="start" x="0" y="-1781.69" font-family="Times,serif" font-size="11.00">&#45;</text>
</g>
<!-- (p)DOCTYPE_RESERVATION4&#45;&gt;(t) Rejected Purchase Order -->
<g id="edge7" class="edge">
<title>(p)DOCTYPE_RESERVATION4&#45;&gt;(t) Rejected Purchase Order</title>
<path fill="none" stroke="#a13ccd" d="M238.86,-1897.54C226.02,-1879.48 214.81,-1859.86 207.5,-1839.49 201.04,-1821.5 202.03,-1814.8 207.5,-1796.49 208.38,-1793.55 209.45,-1790.62 210.66,-1787.72"/>
<polygon fill="#a13ccd" stroke="#a13ccd" points="213.86,-1789.16 215,-1778.63 207.54,-1786.15 213.86,-1789.16"/>
<text text-anchor="middle" x="288.5" y="-1814.09" font-family="Times,serif" font-size="13.00"> avg. sojourn time=11D</text>
<text text-anchor="middle" x="288.5" y="-1800.09" font-family="Times,serif" font-size="13.00"> med. sojourn time=10D</text>
</g>
<!-- (t)Goods Receipt for Order -->
<g id="node22" class="node">
<title>(t)Goods Receipt for Order</title>
<polygon fill="none" stroke="black" points="908,-1279.34 445,-1279.34 445,-1191.34 908,-1191.34 908,-1279.34"/>
<text text-anchor="middle" x="676.5" y="-1246.54" font-family="Times,serif" font-size="36.00">Goods Receipt for Order</text>
<text text-anchor="middle" x="676.5" y="-1206.54" font-family="Times,serif" font-size="36.00"> (94)</text>
<text text-anchor="start" x="441" y="-1282.54" font-family="Times,serif" font-size="11.00">&#45;</text>
</g>
<!-- (p)DOCTYPE_RESERVATION4&#45;&gt;(t)Goods Receipt for Order -->
<g id="edge8" class="edge">
<title>(p)DOCTYPE_RESERVATION4&#45;&gt;(t)Goods Receipt for Order</title>
<path fill="none" stroke="#a13ccd" d="M434.11,-1895.67C450.93,-1881.49 469,-1868.15 487.5,-1857.49 511.25,-1843.79 528.28,-1859.97 546.5,-1839.49 564.55,-1819.19 626.55,-1384.6 633.5,-1358.34 639.61,-1335.28 648.05,-1310.35 655.84,-1289.07"/>
<polygon fill="#a13ccd" stroke="#a13ccd" points="659.17,-1290.17 659.36,-1279.58 652.6,-1287.73 659.17,-1290.17"/>
<text text-anchor="middle" x="670.5" y="-1647.09" font-family="Times,serif" font-size="13.00"> avg. sojourn time=13D</text>
<text text-anchor="middle" x="670.5" y="-1633.09" font-family="Times,serif" font-size="13.00"> med. sojourn time=12D</text>
</g>
<!-- (p)DOCTYPE_RESERVATION5 -->
<g id="node5" class="node">
<title>(p)DOCTYPE_RESERVATION5</title>
<ellipse fill="none" stroke="#a13ccd" cx="804.5" cy="-1013.63" rx="140.93" ry="140.93"/>
<text text-anchor="middle" x="804.5" y="-1024.23" font-family="Times,serif" font-size="13.00">DOCTYPE_RESERVATION5</text>
<text text-anchor="middle" x="804.5" y="-1010.23" font-family="Times,serif" font-size="13.00"> p=94 r=0</text>
<text text-anchor="middle" x="804.5" y="-996.23" font-family="Times,serif" font-size="13.00">c=94 m=0</text>
</g>
<!-- (t)Goods Issue for Production Order -->
<g id="node19" class="node">
<title>(t)Goods Issue for Production Order</title>
<polygon fill="none" stroke="black" points="1269.5,-793.91 637.5,-793.91 637.5,-705.91 1269.5,-705.91 1269.5,-793.91"/>
<text text-anchor="middle" x="953.5" y="-761.11" font-family="Times,serif" font-size="36.00">Goods Issue for Production Order</text>
<text text-anchor="middle" x="953.5" y="-721.11" font-family="Times,serif" font-size="36.00"> (50)</text>
<text text-anchor="start" x="633.5" y="-797.11" font-family="Times,serif" font-size="11.00">&#45;</text>
</g>
<!-- (p)DOCTYPE_RESERVATION5&#45;&gt;(t)Goods Issue for Production Order -->
<g id="edge10" class="edge">
<title>(p)DOCTYPE_RESERVATION5&#45;&gt;(t)Goods Issue for Production Order</title>
<path fill="none" stroke="#a13ccd" d="M872.03,-889.98C889.7,-858.93 907.77,-827.19 922.23,-801.79"/>
<path fill="none" stroke="white" d="M873.77,-890.96C891.44,-859.92 909.51,-828.18 923.97,-802.78"/>
<path fill="none" stroke="#a13ccd" d="M875.5,-891.95C893.18,-860.91 911.25,-829.17 925.71,-803.77"/>
<polygon fill="#a13ccd" stroke="#a13ccd" points="927.02,-804.5 928.93,-794.08 920.94,-801.03 927.02,-804.5"/>
<text text-anchor="middle" x="997.5" y="-829.51" font-family="Times,serif" font-size="13.00"> avg. sojourn time=16D</text>
<text text-anchor="middle" x="997.5" y="-815.51" font-family="Times,serif" font-size="13.00"> med. sojourn time=12D</text>
</g>
<!-- (p)DOCTYPE_PRODORD1 -->
<g id="node6" class="node">
<title>(p)DOCTYPE_PRODORD1</title>
<ellipse fill="#05b202" stroke="#05b202" cx="804.5" cy="-4106.34" rx="106.51" ry="106.51"/>
<text text-anchor="middle" x="804.5" y="-4102.94" font-family="Times,serif" font-size="13.00">DOCTYPE_PRODORD1</text>
</g>
<!-- (p)DOCTYPE_PRODORD1&#45;&gt;(t)Created Production Order -->
<g id="edge11" class="edge">
<title>(p)DOCTYPE_PRODORD1&#45;&gt;(t)Created Production Order</title>
<path fill="none" stroke="#05b202" d="M808.43,-3999.38C805.21,-3971.67 797.73,-3943.03 782.5,-3919.63 780.14,-3916.01 777.48,-3912.57 774.59,-3909.31"/>
<polygon fill="#05b202" stroke="#05b202" points="776.96,-3906.72 767.46,-3902.03 771.96,-3911.62 776.96,-3906.72"/>
<text text-anchor="middle" x="875.5" y="-3937.23" font-family="Times,serif" font-size="13.00"> avg. sojourn time=0s</text>
<text text-anchor="middle" x="875.5" y="-3923.23" font-family="Times,serif" font-size="13.00"> med. sojourn time=0s</text>
</g>
<!-- (p)DOCTYPE_PRODORD2 -->
<g id="node7" class="node">
<title>(p)DOCTYPE_PRODORD2</title>
<ellipse fill="none" stroke="#05b202" cx="1080.5" cy="-3357.7" rx="119.5" ry="119.5"/>
<text text-anchor="middle" x="1080.5" y="-3368.3" font-family="Times,serif" font-size="13.00">DOCTYPE_PRODORD2</text>
<text text-anchor="middle" x="1080.5" y="-3354.3" font-family="Times,serif" font-size="13.00"> p=50 r=0</text>
<text text-anchor="middle" x="1080.5" y="-3340.3" font-family="Times,serif" font-size="13.00">c=50 m=0</text>
</g>
<!-- (p)DOCTYPE_PRODORD2&#45;&gt;(t)Goods Issue for Production Order -->
<g id="edge13" class="edge">
<title>(p)DOCTYPE_PRODORD2&#45;&gt;(t)Goods Issue for Production Order</title>
<path fill="none" stroke="#05b202" d="M1133.01,-3250.34C1149.03,-3208.88 1162.5,-3160.31 1162.5,-3114.2 1162.5,-3114.2 1162.5,-3114.2 1162.5,-1012.63 1162.5,-916.6 1148.25,-881.9 1082.5,-811.91 1078.63,-807.79 1074.43,-803.93 1069.98,-800.29"/>
<polygon fill="#05b202" stroke="#05b202" points="1071.8,-797.28 1061.73,-794.01 1067.56,-802.85 1071.8,-797.28"/>
<text text-anchor="middle" x="1246" y="-2174.51" font-family="Times,serif" font-size="13.00"> avg. sojourn time=1MO</text>
<text text-anchor="middle" x="1246" y="-2160.51" font-family="Times,serif" font-size="13.00"> med. sojourn time=1MO</text>
</g>
<!-- (p)DOCTYPE_PRODORD3 -->
<g id="node8" class="node">
<title>(p)DOCTYPE_PRODORD3</title>
<ellipse fill="#05b202" stroke="#05b202" cx="1204.5" cy="-106.75" rx="106.51" ry="106.51"/>
<text text-anchor="middle" x="1204.5" y="-103.35" font-family="Times,serif" font-size="13.00">DOCTYPE_PRODORD3</text>
</g>
<!-- (p)DOCTYPE_PRODORD4 -->
<g id="node9" class="node">
<title>(p)DOCTYPE_PRODORD4</title>
<ellipse fill="none" stroke="#05b202" cx="1204.5" cy="-543.21" rx="119.5" ry="119.5"/>
<text text-anchor="middle" x="1204.5" y="-553.81" font-family="Times,serif" font-size="13.00">DOCTYPE_PRODORD4</text>
<text text-anchor="middle" x="1204.5" y="-539.81" font-family="Times,serif" font-size="13.00"> p=50 r=0</text>
<text text-anchor="middle" x="1204.5" y="-525.81" font-family="Times,serif" font-size="13.00">c=50 m=0</text>
</g>
<!-- (t)Confirmed Production Order -->
<g id="node23" class="node">
<title>(t)Confirmed Production Order</title>
<polygon fill="none" stroke="black" points="1474.5,-338.51 934.5,-338.51 934.5,-250.51 1474.5,-250.51 1474.5,-338.51"/>
<text text-anchor="middle" x="1204.5" y="-305.71" font-family="Times,serif" font-size="36.00">Confirmed Production Order</text>
<text text-anchor="middle" x="1204.5" y="-265.71" font-family="Times,serif" font-size="36.00"> (50)</text>
<text text-anchor="start" x="930.5" y="-341.71" font-family="Times,serif" font-size="11.00">&#45;</text>
</g>
<!-- (p)DOCTYPE_PRODORD4&#45;&gt;(t)Confirmed Production Order -->
<g id="edge16" class="edge">
<title>(p)DOCTYPE_PRODORD4&#45;&gt;(t)Confirmed Production Order</title>
<path fill="none" stroke="#05b202" d="M1204.5,-423.56C1204.5,-397.34 1204.5,-370.84 1204.5,-348.81"/>
<polygon fill="#05b202" stroke="#05b202" points="1208,-348.69 1204.5,-338.69 1201,-348.69 1208,-348.69"/>
<text text-anchor="middle" x="1284.5" y="-374.11" font-family="Times,serif" font-size="13.00"> avg. sojourn time=1D</text>
<text text-anchor="middle" x="1284.5" y="-360.11" font-family="Times,serif" font-size="13.00"> med. sojourn time=15h</text>
</g>
<!-- (p)DOCTYPE_PURCHREQ1 -->
<g id="node10" class="node">
<title>(p)DOCTYPE_PURCHREQ1</title>
<ellipse fill="#ba0d39" stroke="#ba0d39" cx="642.5" cy="-3635.92" rx="113.14" ry="113.14"/>
<text text-anchor="middle" x="642.5" y="-3632.52" font-family="Times,serif" font-size="13.00">DOCTYPE_PURCHREQ1</text>
</g>
<!-- (p)DOCTYPE_PURCHREQ1&#45;&gt;(t)Released Purchase Requisition (1) -->
<g id="edge17" class="edge">
<title>(p)DOCTYPE_PURCHREQ1&#45;&gt;(t)Released Purchase Requisition (1)</title>
<path fill="none" stroke="#ba0d39" d="M626.78,-3523.68C614.83,-3443.87 596.98,-3333.96 576.5,-3238.2 575.94,-3235.58 575.34,-3232.91 574.71,-3230.21"/>
<polygon fill="#ba0d39" stroke="#ba0d39" points="578.1,-3229.31 572.36,-3220.41 571.29,-3230.95 578.1,-3229.31"/>
<text text-anchor="middle" x="694.5" y="-3353.8" font-family="Times,serif" font-size="13.00"> avg. sojourn time=0s</text>
<text text-anchor="middle" x="694.5" y="-3339.8" font-family="Times,serif" font-size="13.00"> med. sojourn time=0s</text>
</g>
<!-- (p)DOCTYPE_PURCHREQ2 -->
<g id="node11" class="node">
<title>(p)DOCTYPE_PURCHREQ2</title>
<ellipse fill="none" stroke="#ba0d39" cx="687.5" cy="-2511.49" rx="126.64" ry="126.64"/>
<text text-anchor="middle" x="687.5" y="-2522.09" font-family="Times,serif" font-size="13.00">DOCTYPE_PURCHREQ2</text>
<text text-anchor="middle" x="687.5" y="-2508.09" font-family="Times,serif" font-size="13.00"> p=119 r=0</text>
<text text-anchor="middle" x="687.5" y="-2494.09" font-family="Times,serif" font-size="13.00">c=119 m=0</text>
</g>
<!-- (t)Created Purchase Order -->
<g id="node25" class="node">
<title>(t)Created Purchase Order</title>
<polygon fill="none" stroke="black" points="1029,-2305.91 566,-2305.91 566,-2217.91 1029,-2217.91 1029,-2305.91"/>
<text text-anchor="middle" x="797.5" y="-2273.11" font-family="Times,serif" font-size="36.00">Created Purchase Order</text>
<text text-anchor="middle" x="797.5" y="-2233.11" font-family="Times,serif" font-size="36.00"> (119)</text>
<text text-anchor="start" x="562" y="-2309.11" font-family="Times,serif" font-size="11.00">&#45;</text>
</g>
<!-- (p)DOCTYPE_PURCHREQ2&#45;&gt;(t)Created Purchase Order -->
<g id="edge19" class="edge">
<title>(p)DOCTYPE_PURCHREQ2&#45;&gt;(t)Created Purchase Order</title>
<path fill="none" stroke="#ba0d39" d="M737.95,-2394.91C748.31,-2371.38 759.21,-2346.83 769.5,-2323.91 770.75,-2321.13 772.04,-2318.29 773.34,-2315.41"/>
<polygon fill="#ba0d39" stroke="#ba0d39" points="776.57,-2316.75 777.53,-2306.2 770.2,-2313.85 776.57,-2316.75"/>
<text text-anchor="middle" x="846.5" y="-2341.51" font-family="Times,serif" font-size="13.00"> avg. sojourn time=2D</text>
<text text-anchor="middle" x="846.5" y="-2327.51" font-family="Times,serif" font-size="13.00"> med. sojourn time=1D</text>
</g>
<!-- (p)DOCTYPE_PURCHREQ3 -->
<g id="node12" class="node">
<title>(p)DOCTYPE_PURCHREQ3</title>
<ellipse fill="none" stroke="#ba0d39" cx="655.5" cy="-2968.63" rx="126.64" ry="126.64"/>
<text text-anchor="middle" x="655.5" y="-2979.23" font-family="Times,serif" font-size="13.00">DOCTYPE_PURCHREQ3</text>
<text text-anchor="middle" x="655.5" y="-2965.23" font-family="Times,serif" font-size="13.00"> p=119 r=0</text>
<text text-anchor="middle" x="655.5" y="-2951.23" font-family="Times,serif" font-size="13.00">c=119 m=0</text>
</g>
<!-- (t)Released Purchase Requisition (2) -->
<g id="node24" class="node">
<title>(t)Released Purchase Requisition (2)</title>
<polygon fill="none" stroke="black" points="1009,-2763.06 366,-2763.06 366,-2675.06 1009,-2675.06 1009,-2763.06"/>
<text text-anchor="middle" x="687.5" y="-2730.26" font-family="Times,serif" font-size="36.00">Released Purchase Requisition (2)</text>
<text text-anchor="middle" x="687.5" y="-2690.26" font-family="Times,serif" font-size="36.00"> (119)</text>
<text text-anchor="start" x="362" y="-2766.26" font-family="Times,serif" font-size="11.00">&#45;</text>
</g>
<!-- (p)DOCTYPE_PURCHREQ3&#45;&gt;(t)Released Purchase Requisition (2) -->
<g id="edge21" class="edge">
<title>(p)DOCTYPE_PURCHREQ3&#45;&gt;(t)Released Purchase Requisition (2)</title>
<path fill="none" stroke="#ba0d39" d="M671.64,-2842.76C674.8,-2818.29 677.96,-2793.88 680.61,-2773.35"/>
<polygon fill="#ba0d39" stroke="#ba0d39" points="684.1,-2773.66 681.91,-2763.29 677.16,-2772.76 684.1,-2773.66"/>
<text text-anchor="middle" x="755.5" y="-2798.66" font-family="Times,serif" font-size="13.00"> avg. sojourn time=2D</text>
<text text-anchor="middle" x="755.5" y="-2784.66" font-family="Times,serif" font-size="13.00"> med. sojourn time=1D</text>
</g>
<!-- (p)DOCTYPE_PURCHREQ4 -->
<g id="node13" class="node">
<title>(p)DOCTYPE_PURCHREQ4</title>
<ellipse fill="#ba0d39" stroke="#ba0d39" cx="609.5" cy="-1998.2" rx="113.14" ry="113.14"/>
<text text-anchor="middle" x="609.5" y="-1994.8" font-family="Times,serif" font-size="13.00">DOCTYPE_PURCHREQ4</text>
</g>
<!-- (p)DOCTYPE_PURCHORD1 -->
<g id="node14" class="node">
<title>(p)DOCTYPE_PURCHORD1</title>
<ellipse fill="#39f6c0" stroke="#39f6c0" cx="945.5" cy="-2511.49" rx="113.14" ry="113.14"/>
<text text-anchor="middle" x="945.5" y="-2508.09" font-family="Times,serif" font-size="13.00">DOCTYPE_PURCHORD1</text>
</g>
<!-- (p)DOCTYPE_PURCHORD1&#45;&gt;(t)Created Purchase Order -->
<g id="edge23" class="edge">
<title>(p)DOCTYPE_PURCHORD1&#45;&gt;(t)Created Purchase Order</title>
<path fill="none" stroke="#39f6c0" d="M950.19,-2398.3C946.65,-2372.02 938.82,-2345.44 923.5,-2323.91 920.77,-2320.08 917.73,-2316.48 914.45,-2313.09"/>
<polygon fill="#39f6c0" stroke="#39f6c0" points="916.59,-2310.3 906.89,-2306.02 911.8,-2315.41 916.59,-2310.3"/>
<text text-anchor="middle" x="1017.5" y="-2341.51" font-family="Times,serif" font-size="13.00"> avg. sojourn time=0s</text>
<text text-anchor="middle" x="1017.5" y="-2327.51" font-family="Times,serif" font-size="13.00"> med. sojourn time=0s</text>
</g>
<!-- (p)DOCTYPE_PURCHORD2 -->
<g id="node15" class="node">
<title>(p)DOCTYPE_PURCHORD2</title>
<ellipse fill="#39f6c0" stroke="#39f6c0" cx="515.5" cy="-1013.63" rx="113.14" ry="113.14"/>
<text text-anchor="middle" x="515.5" y="-1010.23" font-family="Times,serif" font-size="13.00">DOCTYPE_PURCHORD2</text>
</g>
<!-- (p)DOCTYPE_PURCHORD3 -->
<g id="node16" class="node">
<title>(p)DOCTYPE_PURCHORD3</title>
<ellipse fill="none" stroke="#39f6c0" cx="769.5" cy="-1484.91" rx="126.64" ry="126.64"/>
<text text-anchor="middle" x="769.5" y="-1495.51" font-family="Times,serif" font-size="13.00">DOCTYPE_PURCHORD3</text>
<text text-anchor="middle" x="769.5" y="-1481.51" font-family="Times,serif" font-size="13.00"> p=94 r=0</text>
<text text-anchor="middle" x="769.5" y="-1467.51" font-family="Times,serif" font-size="13.00">c=94 m=0</text>
</g>
<!-- (p)DOCTYPE_PURCHORD3&#45;&gt;(t)Goods Receipt for Order -->
<g id="edge27" class="edge">
<title>(p)DOCTYPE_PURCHORD3&#45;&gt;(t)Goods Receipt for Order</title>
<path fill="none" stroke="#39f6c0" d="M725.32,-1366.29C715.1,-1339.11 704.74,-1311.53 696.21,-1288.81"/>
<polygon fill="#39f6c0" stroke="#39f6c0" points="699.46,-1287.52 692.67,-1279.39 692.91,-1289.98 699.46,-1287.52"/>
<text text-anchor="middle" x="791.5" y="-1314.94" font-family="Times,serif" font-size="13.00"> avg. sojourn time=3D</text>
<text text-anchor="middle" x="791.5" y="-1300.94" font-family="Times,serif" font-size="13.00"> med. sojourn time=3D</text>
</g>
<!-- (p)DOCTYPE_PURCHORD4 -->
<g id="node17" class="node">
<title>(p)DOCTYPE_PURCHORD4</title>
<ellipse fill="none" stroke="#39f6c0" cx="867.5" cy="-1998.2" rx="126.64" ry="126.64"/>
<text text-anchor="middle" x="867.5" y="-2008.8" font-family="Times,serif" font-size="13.00">DOCTYPE_PURCHORD4</text>
<text text-anchor="middle" x="867.5" y="-1994.8" font-family="Times,serif" font-size="13.00"> p=119 r=0</text>
<text text-anchor="middle" x="867.5" y="-1980.8" font-family="Times,serif" font-size="13.00">c=119 m=0</text>
</g>
<!-- (p)DOCTYPE_PURCHORD4&#45;&gt;(t) Rejected Purchase Order -->
<g id="edge29" class="edge">
<title>(p)DOCTYPE_PURCHORD4&#45;&gt;(t) Rejected Purchase Order</title>
<path fill="none" stroke="#39f6c0" d="M787.08,-1900.06C770.11,-1884 751.3,-1868.9 731.5,-1857.49 661.57,-1817.18 578.46,-1790.05 501.01,-1771.85"/>
<polygon fill="#39f6c0" stroke="#39f6c0" points="501.64,-1768.4 491.11,-1769.56 500.06,-1775.22 501.64,-1768.4"/>
<text text-anchor="middle" x="772.5" y="-1814.09" font-family="Times,serif" font-size="13.00"> avg. sojourn time=6D</text>
<text text-anchor="middle" x="772.5" y="-1800.09" font-family="Times,serif" font-size="13.00"> med. sojourn time=4D</text>
</g>
<!-- (t)Released Purchase Order (1) -->
<g id="node26" class="node">
<title>(t)Released Purchase Order (1)</title>
<polygon fill="none" stroke="black" points="1134,-1778.49 589,-1778.49 589,-1690.49 1134,-1690.49 1134,-1778.49"/>
<text text-anchor="middle" x="861.5" y="-1745.69" font-family="Times,serif" font-size="36.00">Released Purchase Order (1)</text>
<text text-anchor="middle" x="861.5" y="-1705.69" font-family="Times,serif" font-size="36.00"> (94)</text>
<text text-anchor="start" x="585" y="-1781.69" font-family="Times,serif" font-size="11.00">&#45;</text>
</g>
<!-- (p)DOCTYPE_PURCHORD4&#45;&gt;(t)Released Purchase Order (1) -->
<g id="edge30" class="edge">
<title>(p)DOCTYPE_PURCHORD4&#45;&gt;(t)Released Purchase Order (1)</title>
<path fill="none" stroke="#39f6c0" d="M864.61,-1871.33C863.95,-1842.24 863.27,-1812.82 862.72,-1788.84"/>
<polygon fill="#39f6c0" stroke="#39f6c0" points="866.22,-1788.48 862.49,-1778.56 859.22,-1788.64 866.22,-1788.48"/>
<text text-anchor="middle" x="940.5" y="-1814.09" font-family="Times,serif" font-size="13.00"> avg. sojourn time=4D</text>
<text text-anchor="middle" x="940.5" y="-1800.09" font-family="Times,serif" font-size="13.00"> med. sojourn time=3D</text>
</g>
<!-- (t)Created Production Order&#45;&gt;(p)DOCTYPE_RESERVATION3 -->
<g id="edge4" class="edge">
<title>(t)Created Production Order&#45;&gt;(p)DOCTYPE_RESERVATION3</title>
<path fill="none" stroke="#a13ccd" d="M581.89,-3815.27C560.63,-3804.29 538.78,-3791.79 519.36,-3778.28 504.72,-3768.08 490.16,-3756.62 476.09,-3744.66"/>
<path fill="none" stroke="white" d="M582.81,-3813.5C561.62,-3802.55 539.78,-3790.05 520.5,-3776.63 505.96,-3766.51 491.4,-3755.05 477.38,-3743.14"/>
<path fill="none" stroke="#a13ccd" d="M583.73,-3811.72C562.61,-3800.82 540.77,-3788.31 521.64,-3774.99 507.2,-3764.94 492.64,-3753.47 478.68,-3741.61"/>
<polygon fill="#a13ccd" stroke="#a13ccd" points="479.52,-3740.36 469.65,-3736.48 474.95,-3745.66 479.52,-3740.36"/>
</g>
<!-- (t)Created Production Order&#45;&gt;(p)DOCTYPE_PRODORD2 -->
<g id="edge12" class="edge">
<title>(t)Created Production Order&#45;&gt;(p)DOCTYPE_PRODORD2</title>
<path fill="none" stroke="#05b202" d="M728.09,-3813.56C740.38,-3801.96 753.26,-3789.15 764.5,-3776.63 854.57,-3676.31 946.27,-3552.06 1007.52,-3465.22"/>
<polygon fill="#05b202" stroke="#05b202" points="1010.46,-3467.12 1013.35,-3456.93 1004.73,-3463.09 1010.46,-3467.12"/>
</g>
<!-- (t)Goods Issue for Production Order&#45;&gt;(p)DOCTYPE_RESERVATION2 -->
<g id="edge2" class="edge">
<title>(t)Goods Issue for Production Order&#45;&gt;(p)DOCTYPE_RESERVATION2</title>
<path fill="none" stroke="#a13ccd" d="M948.96,-705.62C948.47,-697.34 947.94,-688.29 947.39,-678.83"/>
<path fill="none" stroke="white" d="M950.96,-705.5C950.47,-697.23 949.94,-688.17 949.38,-678.71"/>
<path fill="none" stroke="#a13ccd" d="M952.95,-705.38C952.47,-697.11 951.94,-688.05 951.38,-678.59"/>
<polygon fill="#a13ccd" stroke="#a13ccd" points="952.88,-678.49 948.8,-668.72 945.89,-678.9 952.88,-678.49"/>
</g>
<!-- (t)Goods Issue for Production Order&#45;&gt;(p)DOCTYPE_PRODORD4 -->
<g id="edge15" class="edge">
<title>(t)Goods Issue for Production Order&#45;&gt;(p)DOCTYPE_PRODORD4</title>
<path fill="none" stroke="#05b202" d="M1025.08,-705.73C1042.38,-694.38 1060.48,-681.72 1076.5,-668.91 1089.04,-658.89 1101.74,-647.81 1114.03,-636.53"/>
<polygon fill="#05b202" stroke="#05b202" points="1116.67,-638.86 1121.62,-629.49 1111.91,-633.73 1116.67,-638.86"/>
</g>
<!-- (t) Rejected Purchase Order&#45;&gt;(p)DOCTYPE_RESERVATION3 -->
<g id="edge3" class="edge">
<title>(t) Rejected Purchase Order&#45;&gt;(p)DOCTYPE_RESERVATION3</title>
<path fill="none" stroke="#a13ccd" d="M209.74,-1778.52C205.86,-1784.3 202.31,-1790.36 199.5,-1796.49 161.83,-1878.52 168.5,-1906.94 168.5,-1997.2 168.5,-3177.2 168.5,-3177.2 168.5,-3177.2 168.5,-3298.46 228.57,-3423.58 283.19,-3512.29"/>
<polygon fill="#a13ccd" stroke="#a13ccd" points="280.38,-3514.39 288.63,-3521.03 286.32,-3510.69 280.38,-3514.39"/>
</g>
<!-- (t) Rejected Purchase Order&#45;&gt;(p)DOCTYPE_PURCHORD2 -->
<g id="edge24" class="edge">
<title>(t) Rejected Purchase Order&#45;&gt;(p)DOCTYPE_PURCHORD2</title>
<path fill="none" stroke="#39f6c0" d="M260.94,-1690.47C290.11,-1598.11 362.53,-1374.33 435.5,-1191.34 444.07,-1169.86 453.8,-1147.18 463.45,-1125.49"/>
<polygon fill="#39f6c0" stroke="#39f6c0" points="466.69,-1126.83 467.58,-1116.27 460.3,-1123.97 466.69,-1126.83"/>
</g>
<!-- (t)Released Purchase Requisition (1)&#45;&gt;(p)DOCTYPE_RESERVATION4 -->
<g id="edge6" class="edge">
<title>(t)Released Purchase Requisition (1)&#45;&gt;(p)DOCTYPE_RESERVATION4</title>
<path fill="none" stroke="#a13ccd" d="M464.31,-3132.05C403.96,-3097.72 337.5,-3043.22 337.5,-2969.63 337.5,-2969.63 337.5,-2969.63 337.5,-2260.91 337.5,-2224.78 337.5,-2185.84 337.5,-2149.33"/>
<polygon fill="#a13ccd" stroke="#a13ccd" points="341,-2149.1 337.5,-2139.1 334,-2149.1 341,-2149.1"/>
</g>
<!-- (t)Released Purchase Requisition (1)&#45;&gt;(p)DOCTYPE_PURCHREQ3 -->
<g id="edge20" class="edge">
<title>(t)Released Purchase Requisition (1)&#45;&gt;(p)DOCTYPE_PURCHREQ3</title>
<path fill="none" stroke="#ba0d39" d="M580.42,-3132.11C585.86,-3120.33 592.05,-3106.94 598.47,-3093.03"/>
<polygon fill="#ba0d39" stroke="#ba0d39" points="601.71,-3094.37 602.73,-3083.83 595.35,-3091.44 601.71,-3094.37"/>
</g>
<!-- (t)Goods Receipt for Order&#45;&gt;(p)DOCTYPE_RESERVATION5 -->
<g id="edge9" class="edge">
<title>(t)Goods Receipt for Order&#45;&gt;(p)DOCTYPE_RESERVATION5</title>
<path fill="none" stroke="#a13ccd" d="M701.64,-1191.2C709.7,-1177.36 719.08,-1161.25 728.84,-1144.5"/>
<polygon fill="#a13ccd" stroke="#a13ccd" points="731.96,-1146.1 733.97,-1135.7 725.91,-1142.57 731.96,-1146.1"/>
</g>
<!-- (t)Goods Receipt for Order&#45;&gt;(p)DOCTYPE_PURCHORD2 -->
<g id="edge25" class="edge">
<title>(t)Goods Receipt for Order&#45;&gt;(p)DOCTYPE_PURCHORD2</title>
<path fill="none" stroke="#39f6c0" d="M644.88,-1191.2C628.62,-1169 608.07,-1140.95 588.16,-1113.78"/>
<polygon fill="#39f6c0" stroke="#39f6c0" points="590.74,-1111.39 582.01,-1105.39 585.09,-1115.52 590.74,-1111.39"/>
</g>
<!-- (t)Confirmed Production Order&#45;&gt;(p)DOCTYPE_PRODORD3 -->
<g id="edge14" class="edge">
<title>(t)Confirmed Production Order&#45;&gt;(p)DOCTYPE_PRODORD3</title>
<path fill="none" stroke="#05b202" d="M1204.5,-250.42C1204.5,-242.16 1204.5,-233.15 1204.5,-223.8"/>
<polygon fill="#05b202" stroke="#05b202" points="1208,-223.55 1204.5,-213.55 1201,-223.55 1208,-223.55"/>
</g>
<!-- (t)Released Purchase Requisition (2)&#45;&gt;(p)DOCTYPE_PURCHREQ2 -->
<g id="edge18" class="edge">
<title>(t)Released Purchase Requisition (2)&#45;&gt;(p)DOCTYPE_PURCHREQ2</title>
<path fill="none" stroke="#ba0d39" d="M687.5,-2674.96C687.5,-2666.84 687.5,-2657.95 687.5,-2648.65"/>
<polygon fill="#ba0d39" stroke="#ba0d39" points="691,-2648.42 687.5,-2638.42 684,-2648.42 691,-2648.42"/>
</g>
<!-- (t)Created Purchase Order&#45;&gt;(p)DOCTYPE_PURCHREQ4 -->
<g id="edge22" class="edge">
<title>(t)Created Purchase Order&#45;&gt;(p)DOCTYPE_PURCHREQ4</title>
<path fill="none" stroke="#ba0d39" d="M766.46,-2217.7C743.23,-2185.37 710.53,-2139.84 680.98,-2098.7"/>
<polygon fill="#ba0d39" stroke="#ba0d39" points="683.79,-2096.62 675.11,-2090.54 678.1,-2100.7 683.79,-2096.62"/>
</g>
<!-- (t)Created Purchase Order&#45;&gt;(p)DOCTYPE_PURCHORD4 -->
<g id="edge28" class="edge">
<title>(t)Created Purchase Order&#45;&gt;(p)DOCTYPE_PURCHORD4</title>
<path fill="none" stroke="#39f6c0" d="M809.06,-2217.7C815.52,-2193.55 823.94,-2162.04 832.38,-2130.5"/>
<polygon fill="#39f6c0" stroke="#39f6c0" points="835.8,-2131.28 835,-2120.72 829.03,-2129.47 835.8,-2131.28"/>
</g>
<!-- (t)Released Purchase Order (1)&#45;&gt;(p)DOCTYPE_PURCHORD3 -->
<g id="edge26" class="edge">
<title>(t)Released Purchase Order (1)&#45;&gt;(p)DOCTYPE_PURCHORD3</title>
<path fill="none" stroke="#39f6c0" d="M845.47,-1690.36C837.4,-1668.64 827.15,-1641.06 816.81,-1613.23"/>
<polygon fill="#39f6c0" stroke="#39f6c0" points="820.07,-1611.95 813.3,-1603.79 813.51,-1614.39 820.07,-1611.95"/>
</g>
</g>
</svg>
