<?xml version="1.0" encoding="UTF-8" standalone="no"?>
<!DOCTYPE svg PUBLIC "-//W3C//DTD SVG 1.1//EN"
 "http://www.w3.org/Graphics/SVG/1.1/DTD/svg11.dtd">
<!-- Generated by graphviz version 2.50.0 (0)
 -->
<!-- Title: ocdfg Pages: 1 -->
<svg width="3543pt" height="317pt"
 viewBox="0.00 0.00 3542.56 317.00" xmlns="http://www.w3.org/2000/svg" xmlns:xlink="http://www.w3.org/1999/xlink">
<g id="graph0" class="graph" transform="scale(1 1) rotate(0) translate(4 313)">
<title>ocdfg</title>
<!-- f123eed1&#45;26de&#45;4d86&#45;90da&#45;f6aa186d1d85 -->
<g id="node1" class="node">
<title>f123eed1&#45;26de&#45;4d86&#45;90da&#45;f6aa186d1d85</title>
<polygon fill="none" stroke="black" points="517.42,-63 314.42,-63 314.42,-27 517.42,-27 517.42,-63"/>
<text text-anchor="middle" x="415.92" y="-41.3" font-family="Times,serif" font-size="14.00">Created Production Order</text>
</g>
<!-- f6f0e151&#45;777a&#45;4b24&#45;8651&#45;bd3650eb4d0b -->
<g id="node2" class="node">
<title>f6f0e151&#45;777a&#45;4b24&#45;8651&#45;bd3650eb4d0b</title>
<polygon fill="none" stroke="black" points="970.56,-137 709.56,-137 709.56,-101 970.56,-101 970.56,-137"/>
<text text-anchor="middle" x="840.06" y="-115.3" font-family="Times,serif" font-size="14.00">Released Purchase Requisition (1)</text>
</g>
<!-- f123eed1&#45;26de&#45;4d86&#45;90da&#45;f6aa186d1d85&#45;&gt;f6f0e151&#45;777a&#45;4b24&#45;8651&#45;bd3650eb4d0b -->
<g id="edge1" class="edge">
<title>f123eed1&#45;26de&#45;4d86&#45;90da&#45;f6aa186d1d85&#45;&gt;f6f0e151&#45;777a&#45;4b24&#45;8651&#45;bd3650eb4d0b</title>
<path fill="none" stroke="#e4cbd4" d="M517.49,-62.63C580.35,-73.65 661.42,-87.86 726.44,-99.26"/>
<polygon fill="#e4cbd4" stroke="#e4cbd4" points="725.86,-102.71 736.32,-100.99 727.07,-95.82 725.86,-102.71"/>
<text text-anchor="middle" x="621.56" y="-94.6" font-family="Times,serif" font-size="8.00" fill="#e4cbd4">DOCTYPE_RESERVATION EC=8D</text>
</g>
<!-- 9e69e761&#45;48c8&#45;4f2b&#45;bb4e&#45;0a99d6a71ee2 -->
<g id="node8" class="node">
<title>9e69e761&#45;48c8&#45;4f2b&#45;bb4e&#45;0a99d6a71ee2</title>
<polygon fill="none" stroke="black" points="2948.56,-74 2691.56,-74 2691.56,-38 2948.56,-38 2948.56,-74"/>
<text text-anchor="middle" x="2820.06" y="-52.3" font-family="Times,serif" font-size="14.00">Goods Issue for Production Order</text>
</g>
<!-- f123eed1&#45;26de&#45;4d86&#45;90da&#45;f6aa186d1d85&#45;&gt;9e69e761&#45;48c8&#45;4f2b&#45;bb4e&#45;0a99d6a71ee2 -->
<g id="edge11" class="edge">
<title>f123eed1&#45;26de&#45;4d86&#45;90da&#45;f6aa186d1d85&#45;&gt;9e69e761&#45;48c8&#45;4f2b&#45;bb4e&#45;0a99d6a71ee2</title>
<path fill="none" stroke="#f491f3" d="M517.49,-37.18C602.98,-31.21 728.99,-24 839.06,-24 839.06,-24 839.06,-24 2416.06,-24 2504.38,-24 2603.26,-31.73 2680.97,-39.6"/>
<polygon fill="#f491f3" stroke="#f491f3" points="2681,-43.12 2691.31,-40.66 2681.71,-36.15 2681,-43.12"/>
<text text-anchor="middle" x="1672.06" y="-26.6" font-family="Times,serif" font-size="8.00" fill="#f491f3">DOCTYPE_PRODORD EC=1MO</text>
</g>
<!-- 0783a841&#45;ff75&#45;4f76&#45;b498&#45;45c6e058fade -->
<g id="node3" class="node">
<title>0783a841&#45;ff75&#45;4f76&#45;b498&#45;45c6e058fade</title>
<polygon fill="none" stroke="black" points="1395.56,-137 1134.56,-137 1134.56,-101 1395.56,-101 1395.56,-137"/>
<text text-anchor="middle" x="1265.06" y="-115.3" font-family="Times,serif" font-size="14.00">Released Purchase Requisition (2)</text>
</g>
<!-- f6f0e151&#45;777a&#45;4b24&#45;8651&#45;bd3650eb4d0b&#45;&gt;0783a841&#45;ff75&#45;4f76&#45;b498&#45;45c6e058fade -->
<g id="edge6" class="edge">
<title>f6f0e151&#45;777a&#45;4b24&#45;8651&#45;bd3650eb4d0b&#45;&gt;0783a841&#45;ff75&#45;4f76&#45;b498&#45;45c6e058fade</title>
<path fill="none" stroke="#17069d" d="M970.56,-119C1019.19,-119 1074.66,-119 1124.2,-119"/>
<polygon fill="#17069d" stroke="#17069d" points="1124.35,-122.5 1134.35,-119 1124.34,-115.5 1124.35,-122.5"/>
<text text-anchor="middle" x="1052.56" y="-121.6" font-family="Times,serif" font-size="8.00" fill="#17069d">DOCTYPE_PURCHREQ EC=2D</text>
</g>
<!-- 1f0fbc78&#45;a5b1&#45;4968&#45;be46&#45;0a7ad53e9fd7 -->
<g id="node6" class="node">
<title>1f0fbc78&#45;a5b1&#45;4968&#45;be46&#45;0a7ad53e9fd7</title>
<polygon fill="none" stroke="black" points="2510.56,-106 2319.56,-106 2319.56,-70 2510.56,-70 2510.56,-106"/>
<text text-anchor="middle" x="2415.06" y="-84.3" font-family="Times,serif" font-size="14.00">Goods Receipt for Order</text>
</g>
<!-- f6f0e151&#45;777a&#45;4b24&#45;8651&#45;bd3650eb4d0b&#45;&gt;1f0fbc78&#45;a5b1&#45;4968&#45;be46&#45;0a7ad53e9fd7 -->
<g id="edge2" class="edge">
<title>f6f0e151&#45;777a&#45;4b24&#45;8651&#45;bd3650eb4d0b&#45;&gt;1f0fbc78&#45;a5b1&#45;4968&#45;be46&#45;0a7ad53e9fd7</title>
<path fill="none" stroke="#e4cbd4" d="M938.12,-100.95C1023.61,-86.63 1151.65,-69 1264.06,-69 1264.06,-69 1264.06,-69 2044.56,-69 2133.82,-69 2235.05,-74.6 2308.95,-79.72"/>
<polygon fill="#e4cbd4" stroke="#e4cbd4" points="2308.98,-83.23 2319.2,-80.44 2309.47,-76.24 2308.98,-83.23"/>
<text text-anchor="middle" x="1672.06" y="-71.6" font-family="Times,serif" font-size="8.00" fill="#e4cbd4">DOCTYPE_RESERVATION EC=13D</text>
</g>
<!-- 924dbf4e&#45;6b05&#45;4c07&#45;912e&#45;c8a664c42a2c -->
<g id="node7" class="node">
<title>924dbf4e&#45;6b05&#45;4c07&#45;912e&#45;c8a664c42a2c</title>
<polygon fill="none" stroke="black" points="2143.56,-241 1943.56,-241 1943.56,-205 2143.56,-205 2143.56,-241"/>
<text text-anchor="middle" x="2043.56" y="-219.3" font-family="Times,serif" font-size="14.00"> Rejected Purchase Order</text>
</g>
<!-- f6f0e151&#45;777a&#45;4b24&#45;8651&#45;bd3650eb4d0b&#45;&gt;924dbf4e&#45;6b05&#45;4c07&#45;912e&#45;c8a664c42a2c -->
<g id="edge3" class="edge">
<title>f6f0e151&#45;777a&#45;4b24&#45;8651&#45;bd3650eb4d0b&#45;&gt;924dbf4e&#45;6b05&#45;4c07&#45;912e&#45;c8a664c42a2c</title>
<path fill="none" stroke="#e4cbd4" d="M856.45,-137.16C881.05,-164.6 932.22,-215.5 988.56,-235 1330.08,-353.21 1771.94,-281.89 1956.07,-243.12"/>
<polygon fill="#e4cbd4" stroke="#e4cbd4" points="1956.92,-246.52 1965.97,-241.01 1955.46,-239.67 1956.92,-246.52"/>
<text text-anchor="middle" x="1486.06" y="-302.6" font-family="Times,serif" font-size="8.00" fill="#e4cbd4">DOCTYPE_RESERVATION EC=11D</text>
</g>
<!-- 9d1dec01&#45;93e3&#45;4e3e&#45;aa8a&#45;5f0ec21f9911 -->
<g id="node4" class="node">
<title>9d1dec01&#45;93e3&#45;4e3e&#45;aa8a&#45;5f0ec21f9911</title>
<polygon fill="none" stroke="black" points="1767.56,-182 1576.56,-182 1576.56,-146 1767.56,-146 1767.56,-182"/>
<text text-anchor="middle" x="1672.06" y="-160.3" font-family="Times,serif" font-size="14.00">Created Purchase Order</text>
</g>
<!-- 0783a841&#45;ff75&#45;4f76&#45;b498&#45;45c6e058fade&#45;&gt;9d1dec01&#45;93e3&#45;4e3e&#45;aa8a&#45;5f0ec21f9911 -->
<g id="edge7" class="edge">
<title>0783a841&#45;ff75&#45;4f76&#45;b498&#45;45c6e058fade&#45;&gt;9d1dec01&#45;93e3&#45;4e3e&#45;aa8a&#45;5f0ec21f9911</title>
<path fill="none" stroke="#17069d" d="M1395.59,-133.39C1450.7,-139.52 1514.14,-146.56 1566.23,-152.35"/>
<polygon fill="#17069d" stroke="#17069d" points="1566.16,-155.87 1576.49,-153.49 1566.94,-148.91 1566.16,-155.87"/>
<text text-anchor="middle" x="1486.06" y="-152.6" font-family="Times,serif" font-size="8.00" fill="#17069d">DOCTYPE_PURCHREQ EC=2D</text>
</g>
<!-- 1de087d6&#45;19a7&#45;4a8d&#45;b8db&#45;e109c38f2dc5 -->
<g id="node5" class="node">
<title>1de087d6&#45;19a7&#45;4a8d&#45;b8db&#45;e109c38f2dc5</title>
<polygon fill="none" stroke="black" points="2154.56,-133 1932.56,-133 1932.56,-97 2154.56,-97 2154.56,-133"/>
<text text-anchor="middle" x="2043.56" y="-111.3" font-family="Times,serif" font-size="14.00">Released Purchase Order (1)</text>
</g>
<!-- 9d1dec01&#45;93e3&#45;4e3e&#45;aa8a&#45;5f0ec21f9911&#45;&gt;1de087d6&#45;19a7&#45;4a8d&#45;b8db&#45;e109c38f2dc5 -->
<g id="edge8" class="edge">
<title>9d1dec01&#45;93e3&#45;4e3e&#45;aa8a&#45;5f0ec21f9911&#45;&gt;1de087d6&#45;19a7&#45;4a8d&#45;b8db&#45;e109c38f2dc5</title>
<path fill="none" stroke="#11646f" d="M1767.73,-151.44C1814.84,-145.2 1872.29,-137.58 1922.46,-130.93"/>
<polygon fill="#11646f" stroke="#11646f" points="1922.94,-134.39 1932.4,-129.61 1922.02,-127.45 1922.94,-134.39"/>
<text text-anchor="middle" x="1850.06" y="-150.6" font-family="Times,serif" font-size="8.00" fill="#11646f">DOCTYPE_PURCHORD EC=4D</text>
</g>
<!-- 9d1dec01&#45;93e3&#45;4e3e&#45;aa8a&#45;5f0ec21f9911&#45;&gt;924dbf4e&#45;6b05&#45;4c07&#45;912e&#45;c8a664c42a2c -->
<g id="edge10" class="edge">
<title>9d1dec01&#45;93e3&#45;4e3e&#45;aa8a&#45;5f0ec21f9911&#45;&gt;924dbf4e&#45;6b05&#45;4c07&#45;912e&#45;c8a664c42a2c</title>
<path fill="none" stroke="#11646f" d="M1767.57,-176.12C1812.23,-182.16 1866.22,-189.88 1914.56,-198 1923.92,-199.57 1933.65,-201.3 1943.38,-203.09"/>
<polygon fill="#11646f" stroke="#11646f" points="1943.02,-206.59 1953.49,-204.98 1944.3,-199.7 1943.02,-206.59"/>
<text text-anchor="middle" x="1850.06" y="-200.6" font-family="Times,serif" font-size="8.00" fill="#11646f">DOCTYPE_PURCHORD EC=6D</text>
</g>
<!-- d7417a35&#45;4b0a&#45;4c59&#45;a091&#45;7f9c9d558b33 -->
<g id="node16" class="node">
<title>d7417a35&#45;4b0a&#45;4c59&#45;a091&#45;7f9c9d558b33</title>
<polygon fill="none" stroke="transparent" points="2134.06,-187 1953.06,-187 1953.06,-151 2134.06,-151 2134.06,-187"/>
<polyline fill="none" stroke="black" points="1953.06,-151 2134.06,-151 "/>
<text text-anchor="middle" x="2043.56" y="-165.3" font-family="Times,serif" font-size="14.00" fill="#17069d">DOCTYPE_PURCHREQ</text>
</g>
<!-- 9d1dec01&#45;93e3&#45;4e3e&#45;aa8a&#45;5f0ec21f9911&#45;&gt;d7417a35&#45;4b0a&#45;4c59&#45;a091&#45;7f9c9d558b33 -->
<g id="edge19" class="edge">
<title>9d1dec01&#45;93e3&#45;4e3e&#45;aa8a&#45;5f0ec21f9911&#45;&gt;d7417a35&#45;4b0a&#45;4c59&#45;a091&#45;7f9c9d558b33</title>
<path fill="none" stroke="#17069d" d="M1767.73,-165.28C1821.38,-166.01 1888.44,-166.91 1942.88,-167.65"/>
<polygon fill="#17069d" stroke="#17069d" points="1942.85,-171.15 1952.9,-167.79 1942.95,-164.15 1942.85,-171.15"/>
</g>
<!-- 1de087d6&#45;19a7&#45;4a8d&#45;b8db&#45;e109c38f2dc5&#45;&gt;1f0fbc78&#45;a5b1&#45;4968&#45;be46&#45;0a7ad53e9fd7 -->
<g id="edge9" class="edge">
<title>1de087d6&#45;19a7&#45;4a8d&#45;b8db&#45;e109c38f2dc5&#45;&gt;1f0fbc78&#45;a5b1&#45;4968&#45;be46&#45;0a7ad53e9fd7</title>
<path fill="none" stroke="#11646f" d="M2154.92,-106.94C2203.76,-103.37 2260.92,-99.19 2309.12,-95.67"/>
<polygon fill="#11646f" stroke="#11646f" points="2309.54,-99.15 2319.26,-94.93 2309.03,-92.17 2309.54,-99.15"/>
<text text-anchor="middle" x="2237.06" y="-107.6" font-family="Times,serif" font-size="8.00" fill="#11646f">DOCTYPE_PURCHORD EC=3D</text>
</g>
<!-- 1f0fbc78&#45;a5b1&#45;4968&#45;be46&#45;0a7ad53e9fd7&#45;&gt;9e69e761&#45;48c8&#45;4f2b&#45;bb4e&#45;0a99d6a71ee2 -->
<g id="edge5" class="edge">
<title>1f0fbc78&#45;a5b1&#45;4968&#45;be46&#45;0a7ad53e9fd7&#45;&gt;9e69e761&#45;48c8&#45;4f2b&#45;bb4e&#45;0a99d6a71ee2</title>
<path fill="none" stroke="#e4cbd4" d="M2510.8,-80.48C2561.61,-76.44 2625.16,-71.4 2681.33,-66.94"/>
<polygon fill="#e4cbd4" stroke="#e4cbd4" points="2681.68,-70.42 2691.37,-66.14 2681.12,-63.44 2681.68,-70.42"/>
<text text-anchor="middle" x="2601.06" y="-80.6" font-family="Times,serif" font-size="8.00" fill="#e4cbd4">DOCTYPE_RESERVATION EC=16D</text>
</g>
<!-- c428b40b&#45;fa26&#45;4da5&#45;b319&#45;7cbbb2feaf93 -->
<g id="node17" class="node">
<title>c428b40b&#45;fa26&#45;4da5&#45;b319&#45;7cbbb2feaf93</title>
<polygon fill="none" stroke="transparent" points="2911.06,-129 2729.06,-129 2729.06,-93 2911.06,-93 2911.06,-129"/>
<polyline fill="none" stroke="black" points="2729.06,-93 2911.06,-93 "/>
<text text-anchor="middle" x="2820.06" y="-107.3" font-family="Times,serif" font-size="14.00" fill="#11646f">DOCTYPE_PURCHORD</text>
</g>
<!-- 1f0fbc78&#45;a5b1&#45;4968&#45;be46&#45;0a7ad53e9fd7&#45;&gt;c428b40b&#45;fa26&#45;4da5&#45;b319&#45;7cbbb2feaf93 -->
<g id="edge20" class="edge">
<title>1f0fbc78&#45;a5b1&#45;4968&#45;be46&#45;0a7ad53e9fd7&#45;&gt;c428b40b&#45;fa26&#45;4da5&#45;b319&#45;7cbbb2feaf93</title>
<path fill="none" stroke="#11646f" stroke-width="2.17" d="M2510.8,-93.41C2573.3,-96.97 2655.07,-101.64 2718.69,-105.27"/>
<polygon fill="#11646f" stroke="#11646f" stroke-width="2.17" points="2718.55,-108.77 2728.74,-105.85 2718.95,-101.78 2718.55,-108.77"/>
</g>
<!-- 924dbf4e&#45;6b05&#45;4c07&#45;912e&#45;c8a664c42a2c&#45;&gt;f6f0e151&#45;777a&#45;4b24&#45;8651&#45;bd3650eb4d0b -->
<g id="edge4" class="edge">
<title>924dbf4e&#45;6b05&#45;4c07&#45;912e&#45;c8a664c42a2c&#45;&gt;f6f0e151&#45;777a&#45;4b24&#45;8651&#45;bd3650eb4d0b</title>
<path fill="none" stroke="#e4cbd4" d="M1943.46,-228.33C1775.82,-235.61 1426.05,-243.25 1134.56,-200 1052.09,-187.76 959.83,-159.86 901.15,-140.24"/>
<polygon fill="#e4cbd4" stroke="#e4cbd4" points="902.26,-136.92 891.67,-137.04 900.03,-143.55 902.26,-136.92"/>
<text text-anchor="middle" x="1486.06" y="-234.6" font-family="Times,serif" font-size="8.00" fill="#e4cbd4">DOCTYPE_RESERVATION EC=3D</text>
</g>
<!-- 924dbf4e&#45;6b05&#45;4c07&#45;912e&#45;c8a664c42a2c&#45;&gt;c428b40b&#45;fa26&#45;4da5&#45;b319&#45;7cbbb2feaf93 -->
<g id="edge21" class="edge">
<title>924dbf4e&#45;6b05&#45;4c07&#45;912e&#45;c8a664c42a2c&#45;&gt;c428b40b&#45;fa26&#45;4da5&#45;b319&#45;7cbbb2feaf93</title>
<path fill="none" stroke="#11646f" d="M2143.83,-208.64C2292.16,-187.19 2570.09,-147 2718.92,-125.48"/>
<polygon fill="#11646f" stroke="#11646f" points="2719.58,-128.92 2728.97,-124.03 2718.58,-121.99 2719.58,-128.92"/>
</g>
<!-- f9eb5993&#45;1404&#45;4796&#45;9aea&#45;807190ea14ef -->
<g id="node9" class="node">
<title>f9eb5993&#45;1404&#45;4796&#45;9aea&#45;807190ea14ef</title>
<polygon fill="none" stroke="black" points="3327.56,-112 3107.56,-112 3107.56,-76 3327.56,-76 3327.56,-112"/>
<text text-anchor="middle" x="3217.56" y="-90.3" font-family="Times,serif" font-size="14.00">Confirmed Production Order</text>
</g>
<!-- 9e69e761&#45;48c8&#45;4f2b&#45;bb4e&#45;0a99d6a71ee2&#45;&gt;f9eb5993&#45;1404&#45;4796&#45;9aea&#45;807190ea14ef -->
<g id="edge12" class="edge">
<title>9e69e761&#45;48c8&#45;4f2b&#45;bb4e&#45;0a99d6a71ee2&#45;&gt;f9eb5993&#45;1404&#45;4796&#45;9aea&#45;807190ea14ef</title>
<path fill="none" stroke="#f491f3" d="M2948.64,-68.26C2996.28,-72.84 3050.16,-78.01 3097.04,-82.52"/>
<polygon fill="#f491f3" stroke="#f491f3" points="3096.96,-86.02 3107.25,-83.5 3097.63,-79.06 3096.96,-86.02"/>
<text text-anchor="middle" x="3028.06" y="-83.6" font-family="Times,serif" font-size="8.00" fill="#f491f3">DOCTYPE_PRODORD EC=1D</text>
</g>
<!-- 960a40fa&#45;3279&#45;4312&#45;9efe&#45;2aa1324b203e -->
<g id="node15" class="node">
<title>960a40fa&#45;3279&#45;4312&#45;9efe&#45;2aa1324b203e</title>
<polygon fill="none" stroke="transparent" points="3318.06,-58 3117.06,-58 3117.06,-22 3318.06,-22 3318.06,-58"/>
<polyline fill="none" stroke="black" points="3117.06,-22 3318.06,-22 "/>
<text text-anchor="middle" x="3217.56" y="-36.3" font-family="Times,serif" font-size="14.00" fill="#e4cbd4">DOCTYPE_RESERVATION</text>
</g>
<!-- 9e69e761&#45;48c8&#45;4f2b&#45;bb4e&#45;0a99d6a71ee2&#45;&gt;960a40fa&#45;3279&#45;4312&#45;9efe&#45;2aa1324b203e -->
<g id="edge18" class="edge">
<title>9e69e761&#45;48c8&#45;4f2b&#45;bb4e&#45;0a99d6a71ee2&#45;&gt;960a40fa&#45;3279&#45;4312&#45;9efe&#45;2aa1324b203e</title>
<path fill="none" stroke="#e4cbd4" stroke-width="1.58" d="M2948.64,-50.84C2999.65,-48.77 3057.81,-46.42 3106.88,-44.44"/>
<polygon fill="#e4cbd4" stroke="#e4cbd4" stroke-width="1.58" points="3107.03,-47.93 3116.88,-44.03 3106.75,-40.94 3107.03,-47.93"/>
</g>
<!-- 15999ef4&#45;9fb5&#45;4302&#45;8dce&#45;b812ca8d90ed -->
<g id="node14" class="node">
<title>15999ef4&#45;9fb5&#45;4302&#45;8dce&#45;b812ca8d90ed</title>
<polygon fill="none" stroke="transparent" points="3534.56,-112 3364.56,-112 3364.56,-76 3534.56,-76 3534.56,-112"/>
<polyline fill="none" stroke="black" points="3364.56,-76 3534.56,-76 "/>
<text text-anchor="middle" x="3449.56" y="-90.3" font-family="Times,serif" font-size="14.00" fill="#f491f3">DOCTYPE_PRODORD</text>
</g>
<!-- f9eb5993&#45;1404&#45;4796&#45;9aea&#45;807190ea14ef&#45;&gt;15999ef4&#45;9fb5&#45;4302&#45;8dce&#45;b812ca8d90ed -->
<g id="edge17" class="edge">
<title>f9eb5993&#45;1404&#45;4796&#45;9aea&#45;807190ea14ef&#45;&gt;15999ef4&#45;9fb5&#45;4302&#45;8dce&#45;b812ca8d90ed</title>
<path fill="none" stroke="#f491f3" d="M3327.83,-94C3336.66,-94 3345.54,-94 3354.25,-94"/>
<polygon fill="#f491f3" stroke="#f491f3" points="3354.39,-97.5 3364.39,-94 3354.39,-90.5 3354.39,-97.5"/>
</g>
<!-- 3c617b32&#45;18e5&#45;4019&#45;a56e&#45;a16967f31285 -->
<g id="node10" class="node">
<title>3c617b32&#45;18e5&#45;4019&#45;a56e&#45;a16967f31285</title>
<ellipse fill="#f491f3" stroke="black" cx="130.64" cy="-72" rx="110.48" ry="18"/>
<text text-anchor="middle" x="130.64" y="-68.3" font-family="Times,serif" font-size="14.00">DOCTYPE_PRODORD</text>
</g>
<!-- 3c617b32&#45;18e5&#45;4019&#45;a56e&#45;a16967f31285&#45;&gt;f123eed1&#45;26de&#45;4d86&#45;90da&#45;f6aa186d1d85 -->
<g id="edge13" class="edge">
<title>3c617b32&#45;18e5&#45;4019&#45;a56e&#45;a16967f31285&#45;&gt;f123eed1&#45;26de&#45;4d86&#45;90da&#45;f6aa186d1d85</title>
<path fill="none" stroke="#f491f3" d="M226.36,-62.97C251.21,-60.6 278.23,-58.03 303.85,-55.59"/>
<polygon fill="#f491f3" stroke="#f491f3" points="304.35,-59.05 313.97,-54.62 303.68,-52.09 304.35,-59.05"/>
</g>
<!-- 6ae31e8b&#45;70a3&#45;40a4&#45;8ad7&#45;d55d2fd8b6b2 -->
<g id="node11" class="node">
<title>6ae31e8b&#45;70a3&#45;40a4&#45;8ad7&#45;d55d2fd8b6b2</title>
<ellipse fill="#e4cbd4" stroke="black" cx="130.64" cy="-18" rx="130.78" ry="18"/>
<text text-anchor="middle" x="130.64" y="-14.3" font-family="Times,serif" font-size="14.00">DOCTYPE_RESERVATION</text>
</g>
<!-- 6ae31e8b&#45;70a3&#45;40a4&#45;8ad7&#45;d55d2fd8b6b2&#45;&gt;f123eed1&#45;26de&#45;4d86&#45;90da&#45;f6aa186d1d85 -->
<g id="edge14" class="edge">
<title>6ae31e8b&#45;70a3&#45;40a4&#45;8ad7&#45;d55d2fd8b6b2&#45;&gt;f123eed1&#45;26de&#45;4d86&#45;90da&#45;f6aa186d1d85</title>
<path fill="none" stroke="#e4cbd4" stroke-width="1.58" d="M238.73,-28.21C260.1,-30.24 282.59,-32.39 304.09,-34.44"/>
<polygon fill="#e4cbd4" stroke="#e4cbd4" stroke-width="1.58" points="303.93,-37.94 314.21,-35.4 304.59,-30.97 303.93,-37.94"/>
</g>
<!-- d6a8ec8a&#45;5466&#45;47a3&#45;bde7&#45;f7a4a2e72861 -->
<g id="node12" class="node">
<title>d6a8ec8a&#45;5466&#45;47a3&#45;bde7&#45;f7a4a2e72861</title>
<ellipse fill="#17069d" stroke="black" cx="415.92" cy="-119" rx="117.78" ry="18"/>
<text text-anchor="middle" x="415.92" y="-115.3" font-family="Times,serif" font-size="14.00">DOCTYPE_PURCHREQ</text>
</g>
<!-- d6a8ec8a&#45;5466&#45;47a3&#45;bde7&#45;f7a4a2e72861&#45;&gt;f6f0e151&#45;777a&#45;4b24&#45;8651&#45;bd3650eb4d0b -->
<g id="edge15" class="edge">
<title>d6a8ec8a&#45;5466&#45;47a3&#45;bde7&#45;f7a4a2e72861&#45;&gt;f6f0e151&#45;777a&#45;4b24&#45;8651&#45;bd3650eb4d0b</title>
<path fill="none" stroke="#17069d" d="M533.67,-119C584.9,-119 645.48,-119 699.11,-119"/>
<polygon fill="#17069d" stroke="#17069d" points="699.39,-122.5 709.39,-119 699.39,-115.5 699.39,-122.5"/>
</g>
<!-- 3689b39d&#45;93f6&#45;472a&#45;a594&#45;9a8b14c4e1fb -->
<g id="node13" class="node">
<title>3689b39d&#45;93f6&#45;472a&#45;a594&#45;9a8b14c4e1fb</title>
<ellipse fill="#11646f" stroke="black" cx="1265.06" cy="-173" rx="118.08" ry="18"/>
<text text-anchor="middle" x="1265.06" y="-169.3" font-family="Times,serif" font-size="14.00">DOCTYPE_PURCHORD</text>
</g>
<!-- 3689b39d&#45;93f6&#45;472a&#45;a594&#45;9a8b14c4e1fb&#45;&gt;9d1dec01&#45;93e3&#45;4e3e&#45;aa8a&#45;5f0ec21f9911 -->
<g id="edge16" class="edge">
<title>3689b39d&#45;93f6&#45;472a&#45;a594&#45;9a8b14c4e1fb&#45;&gt;9d1dec01&#45;93e3&#45;4e3e&#45;aa8a&#45;5f0ec21f9911</title>
<path fill="none" stroke="#11646f" stroke-width="2.6" d="M1382.38,-170.41C1440.25,-169.13 1509.65,-167.59 1565.91,-166.34"/>
<polygon fill="#11646f" stroke="#11646f" stroke-width="2.6" points="1566.33,-169.83 1576.25,-166.11 1566.18,-162.83 1566.33,-169.83"/>
</g>
</g>
</svg>
