<?xml version="1.0" encoding="UTF-8" standalone="no"?>
<!DOCTYPE svg PUBLIC "-//W3C//DTD SVG 1.1//EN"
 "http://www.w3.org/Graphics/SVG/1.1/DTD/svg11.dtd">
<!-- Generated by graphviz version 2.50.0 (0)
 -->
<!-- Title: ocdfg Pages: 1 -->
<svg width="3809pt" height="322pt"
 viewBox="0.00 0.00 3808.56 322.00" xmlns="http://www.w3.org/2000/svg" xmlns:xlink="http://www.w3.org/1999/xlink">
<g id="graph0" class="graph" transform="scale(1 1) rotate(0) translate(4 318)">
<title>ocdfg</title>
<!-- dc9aadce&#45;47b4&#45;4b75&#45;b8c1&#45;d262265a8066 -->
<g id="node1" class="node">
<title>dc9aadce&#45;47b4&#45;4b75&#45;b8c1&#45;d262265a8066</title>
<polygon fill="#e4e4ff" stroke="black" points="655.42,-64 452.42,-64 452.42,-26 655.42,-26 655.42,-64"/>
<text text-anchor="middle" x="553.92" y="-48.8" font-family="Times,serif" font-size="14.00">Created Production Order</text>
<text text-anchor="middle" x="553.92" y="-33.8" font-family="Times,serif" font-size="14.00">E=50</text>
</g>
<!-- 6125fcc7&#45;ffda&#45;4871&#45;902a&#45;0aaa01d49c26 -->
<g id="node2" class="node">
<title>6125fcc7&#45;ffda&#45;4871&#45;902a&#45;0aaa01d49c26</title>
<polygon fill="#9b9bff" stroke="black" points="1107.56,-142 846.56,-142 846.56,-104 1107.56,-104 1107.56,-142"/>
<text text-anchor="middle" x="977.06" y="-126.8" font-family="Times,serif" font-size="14.00">Released Purchase Requisition (1)</text>
<text text-anchor="middle" x="977.06" y="-111.8" font-family="Times,serif" font-size="14.00">E=119</text>
</g>
<!-- dc9aadce&#45;47b4&#45;4b75&#45;b8c1&#45;d262265a8066&#45;&gt;6125fcc7&#45;ffda&#45;4871&#45;902a&#45;0aaa01d49c26 -->
<g id="edge1" class="edge">
<title>dc9aadce&#45;47b4&#45;4b75&#45;b8c1&#45;d262265a8066&#45;&gt;6125fcc7&#45;ffda&#45;4871&#45;902a&#45;0aaa01d49c26</title>
<path fill="none" stroke="#e4cbd4" stroke-width="2.6" d="M655.52,-63.63C718.13,-75.23 798.75,-90.16 863.48,-102.15"/>
<polygon fill="#e4cbd4" stroke="#e4cbd4" stroke-width="2.6" points="862.85,-105.59 873.32,-103.97 864.12,-98.71 862.85,-105.59"/>
<text text-anchor="middle" x="759.06" y="-97.6" font-family="Times,serif" font-size="8.00" fill="#e4cbd4">DOCTYPE_RESERVATION EC=94</text>
</g>
<!-- 9cff6ddf&#45;243f&#45;45f7&#45;813a&#45;5f61f3020e82 -->
<g id="node8" class="node">
<title>9cff6ddf&#45;243f&#45;45f7&#45;813a&#45;5f61f3020e82</title>
<polygon fill="#e4e4ff" stroke="black" points="3078.56,-74 2821.56,-74 2821.56,-36 3078.56,-36 3078.56,-74"/>
<text text-anchor="middle" x="2950.06" y="-58.8" font-family="Times,serif" font-size="14.00">Goods Issue for Production Order</text>
<text text-anchor="middle" x="2950.06" y="-43.8" font-family="Times,serif" font-size="14.00">E=50</text>
</g>
<!-- dc9aadce&#45;47b4&#45;4b75&#45;b8c1&#45;d262265a8066&#45;&gt;9cff6ddf&#45;243f&#45;45f7&#45;813a&#45;5f61f3020e82 -->
<g id="edge11" class="edge">
<title>dc9aadce&#45;47b4&#45;4b75&#45;b8c1&#45;d262265a8066&#45;&gt;9cff6ddf&#45;243f&#45;45f7&#45;813a&#45;5f61f3020e82</title>
<path fill="none" stroke="#f491f3" d="M655.7,-38.27C740.98,-33.16 866.47,-27 976.06,-27 976.06,-27 976.06,-27 2552.06,-27 2638.35,-27 2734.93,-33.66 2811.23,-40.49"/>
<polygon fill="#f491f3" stroke="#f491f3" points="2811.11,-43.99 2821.38,-41.41 2811.74,-37.02 2811.11,-43.99"/>
<text text-anchor="middle" x="1807.06" y="-29.6" font-family="Times,serif" font-size="8.00" fill="#f491f3">DOCTYPE_PRODORD EC=50</text>
</g>
<!-- b50aa071&#45;12fa&#45;4fba&#45;b372&#45;68bf70d845eb -->
<g id="node3" class="node">
<title>b50aa071&#45;12fa&#45;4fba&#45;b372&#45;68bf70d845eb</title>
<polygon fill="#9b9bff" stroke="black" points="1536.56,-142 1275.56,-142 1275.56,-104 1536.56,-104 1536.56,-142"/>
<text text-anchor="middle" x="1406.06" y="-126.8" font-family="Times,serif" font-size="14.00">Released Purchase Requisition (2)</text>
<text text-anchor="middle" x="1406.06" y="-111.8" font-family="Times,serif" font-size="14.00">E=119</text>
</g>
<!-- 6125fcc7&#45;ffda&#45;4871&#45;902a&#45;0aaa01d49c26&#45;&gt;b50aa071&#45;12fa&#45;4fba&#45;b372&#45;68bf70d845eb -->
<g id="edge6" class="edge">
<title>6125fcc7&#45;ffda&#45;4871&#45;902a&#45;0aaa01d49c26&#45;&gt;b50aa071&#45;12fa&#45;4fba&#45;b372&#45;68bf70d845eb</title>
<path fill="none" stroke="#17069d" d="M1107.62,-123C1157.43,-123 1214.49,-123 1265.23,-123"/>
<polygon fill="#17069d" stroke="#17069d" points="1265.29,-126.5 1275.29,-123 1265.29,-119.5 1265.29,-126.5"/>
<text text-anchor="middle" x="1191.56" y="-125.6" font-family="Times,serif" font-size="8.00" fill="#17069d">DOCTYPE_PURCHREQ EC=119</text>
</g>
<!-- f5ee4e9c&#45;c8f6&#45;4f52&#45;9052&#45;7c5cdec87c81 -->
<g id="node6" class="node">
<title>f5ee4e9c&#45;c8f6&#45;4f52&#45;9052&#45;7c5cdec87c81</title>
<polygon fill="#b5b5ff" stroke="black" points="2646.56,-110 2455.56,-110 2455.56,-72 2646.56,-72 2646.56,-110"/>
<text text-anchor="middle" x="2551.06" y="-94.8" font-family="Times,serif" font-size="14.00">Goods Receipt for Order</text>
<text text-anchor="middle" x="2551.06" y="-79.8" font-family="Times,serif" font-size="14.00">E=94</text>
</g>
<!-- 6125fcc7&#45;ffda&#45;4871&#45;902a&#45;0aaa01d49c26&#45;&gt;f5ee4e9c&#45;c8f6&#45;4f52&#45;9052&#45;7c5cdec87c81 -->
<g id="edge2" class="edge">
<title>6125fcc7&#45;ffda&#45;4871&#45;902a&#45;0aaa01d49c26&#45;&gt;f5ee4e9c&#45;c8f6&#45;4f52&#45;9052&#45;7c5cdec87c81</title>
<path fill="none" stroke="#e4cbd4" stroke-width="2.6" d="M1079.89,-103.94C1166.14,-89.45 1293.25,-72 1405.06,-72 1405.06,-72 1405.06,-72 2182.56,-72 2271.18,-72 2371.67,-77.58 2445.14,-82.69"/>
<polygon fill="#e4cbd4" stroke="#e4cbd4" stroke-width="2.6" points="2445.11,-86.2 2455.33,-83.41 2445.6,-79.21 2445.11,-86.2"/>
<text text-anchor="middle" x="1807.06" y="-74.6" font-family="Times,serif" font-size="8.00" fill="#e4cbd4">DOCTYPE_RESERVATION EC=94</text>
</g>
<!-- ca71a0cb&#45;6d35&#45;4051&#45;a919&#45;544df7c2d0c1 -->
<g id="node7" class="node">
<title>ca71a0cb&#45;6d35&#45;4051&#45;a919&#45;544df7c2d0c1</title>
<polygon fill="#ffffff" stroke="black" points="2281.56,-248 2081.56,-248 2081.56,-210 2281.56,-210 2281.56,-248"/>
<text text-anchor="middle" x="2181.56" y="-232.8" font-family="Times,serif" font-size="14.00"> Rejected Purchase Order</text>
<text text-anchor="middle" x="2181.56" y="-217.8" font-family="Times,serif" font-size="14.00">E=25</text>
</g>
<!-- 6125fcc7&#45;ffda&#45;4871&#45;902a&#45;0aaa01d49c26&#45;&gt;ca71a0cb&#45;6d35&#45;4051&#45;a919&#45;544df7c2d0c1 -->
<g id="edge3" class="edge">
<title>6125fcc7&#45;ffda&#45;4871&#45;902a&#45;0aaa01d49c26&#45;&gt;ca71a0cb&#45;6d35&#45;4051&#45;a919&#45;544df7c2d0c1</title>
<path fill="none" stroke="#e4cbd4" d="M994.23,-142.23C1019.09,-170.11 1069.69,-220.53 1125.56,-240 1464.35,-358.05 1902.31,-289.02 2089.36,-250.07"/>
<polygon fill="#e4cbd4" stroke="#e4cbd4" points="2090.09,-253.5 2099.16,-248.01 2088.65,-246.65 2090.09,-253.5"/>
<text text-anchor="middle" x="1624.06" y="-307.6" font-family="Times,serif" font-size="8.00" fill="#e4cbd4">DOCTYPE_RESERVATION EC=25</text>
</g>
<!-- 46f68817&#45;ed78&#45;456c&#45;bb60&#45;ca1c7d5a21f7 -->
<g id="node4" class="node">
<title>46f68817&#45;ed78&#45;456c&#45;bb60&#45;ca1c7d5a21f7</title>
<polygon fill="#9b9bff" stroke="black" points="1902.56,-189 1711.56,-189 1711.56,-151 1902.56,-151 1902.56,-189"/>
<text text-anchor="middle" x="1807.06" y="-173.8" font-family="Times,serif" font-size="14.00">Created Purchase Order</text>
<text text-anchor="middle" x="1807.06" y="-158.8" font-family="Times,serif" font-size="14.00">E=119</text>
</g>
<!-- b50aa071&#45;12fa&#45;4fba&#45;b372&#45;68bf70d845eb&#45;&gt;46f68817&#45;ed78&#45;456c&#45;bb60&#45;ca1c7d5a21f7 -->
<g id="edge7" class="edge">
<title>b50aa071&#45;12fa&#45;4fba&#45;b372&#45;68bf70d845eb&#45;&gt;46f68817&#45;ed78&#45;456c&#45;bb60&#45;ca1c7d5a21f7</title>
<path fill="none" stroke="#17069d" d="M1536.6,-138.26C1589.93,-144.54 1650.9,-151.72 1701.34,-157.66"/>
<polygon fill="#17069d" stroke="#17069d" points="1700.94,-161.14 1711.28,-158.84 1701.76,-154.19 1700.94,-161.14"/>
<text text-anchor="middle" x="1624.06" y="-158.6" font-family="Times,serif" font-size="8.00" fill="#17069d">DOCTYPE_PURCHREQ EC=119</text>
</g>
<!-- c94467a0&#45;5ae8&#45;48d3&#45;9a13&#45;d62e4140a4ac -->
<g id="node5" class="node">
<title>c94467a0&#45;5ae8&#45;48d3&#45;9a13&#45;d62e4140a4ac</title>
<polygon fill="#b5b5ff" stroke="black" points="2292.56,-138 2070.56,-138 2070.56,-100 2292.56,-100 2292.56,-138"/>
<text text-anchor="middle" x="2181.56" y="-122.8" font-family="Times,serif" font-size="14.00">Released Purchase Order (1)</text>
<text text-anchor="middle" x="2181.56" y="-107.8" font-family="Times,serif" font-size="14.00">E=94</text>
</g>
<!-- 46f68817&#45;ed78&#45;456c&#45;bb60&#45;ca1c7d5a21f7&#45;&gt;c94467a0&#45;5ae8&#45;48d3&#45;9a13&#45;d62e4140a4ac -->
<g id="edge8" class="edge">
<title>46f68817&#45;ed78&#45;456c&#45;bb60&#45;ca1c7d5a21f7&#45;&gt;c94467a0&#45;5ae8&#45;48d3&#45;9a13&#45;d62e4140a4ac</title>
<path fill="none" stroke="#11646f" stroke-width="2.17" d="M1903.02,-157C1950.81,-150.46 2009.26,-142.45 2060.17,-135.48"/>
<polygon fill="#11646f" stroke="#11646f" stroke-width="2.17" points="2060.81,-138.93 2070.24,-134.1 2059.86,-131.99 2060.81,-138.93"/>
<text text-anchor="middle" x="1986.56" y="-155.6" font-family="Times,serif" font-size="8.00" fill="#11646f">DOCTYPE_PURCHORD EC=94</text>
</g>
<!-- 46f68817&#45;ed78&#45;456c&#45;bb60&#45;ca1c7d5a21f7&#45;&gt;ca71a0cb&#45;6d35&#45;4051&#45;a919&#45;544df7c2d0c1 -->
<g id="edge10" class="edge">
<title>46f68817&#45;ed78&#45;456c&#45;bb60&#45;ca1c7d5a21f7&#45;&gt;ca71a0cb&#45;6d35&#45;4051&#45;a919&#45;544df7c2d0c1</title>
<path fill="none" stroke="#11646f" d="M1902.61,-181.28C1948.06,-187.08 2003.25,-194.67 2052.56,-203 2061.77,-204.56 2071.33,-206.28 2080.89,-208.09"/>
<polygon fill="#11646f" stroke="#11646f" points="2080.35,-211.55 2090.83,-209.99 2081.67,-204.67 2080.35,-211.55"/>
<text text-anchor="middle" x="1986.56" y="-205.6" font-family="Times,serif" font-size="8.00" fill="#11646f">DOCTYPE_PURCHORD EC=25</text>
</g>
<!-- 0e6dc760&#45;212a&#45;4084&#45;a0d4&#45;87dd9538af03 -->
<g id="node16" class="node">
<title>0e6dc760&#45;212a&#45;4084&#45;a0d4&#45;87dd9538af03</title>
<polygon fill="none" stroke="transparent" points="2272.06,-192 2091.06,-192 2091.06,-156 2272.06,-156 2272.06,-192"/>
<polyline fill="none" stroke="black" points="2091.06,-156 2272.06,-156 "/>
<text text-anchor="middle" x="2181.56" y="-170.3" font-family="Times,serif" font-size="14.00" fill="#17069d">DOCTYPE_PURCHREQ</text>
</g>
<!-- 46f68817&#45;ed78&#45;456c&#45;bb60&#45;ca1c7d5a21f7&#45;&gt;0e6dc760&#45;212a&#45;4084&#45;a0d4&#45;87dd9538af03 -->
<g id="edge19" class="edge">
<title>46f68817&#45;ed78&#45;456c&#45;bb60&#45;ca1c7d5a21f7&#45;&gt;0e6dc760&#45;212a&#45;4084&#45;a0d4&#45;87dd9538af03</title>
<path fill="none" stroke="#17069d" d="M1902.69,-169.96C1948.03,-170.05 2003.11,-170.32 2052.56,-171 2061.79,-171.13 2071.41,-171.29 2081.03,-171.48"/>
<polygon fill="#17069d" stroke="#17069d" points="2080.97,-174.98 2091.04,-171.68 2081.11,-167.98 2080.97,-174.98"/>
<text text-anchor="middle" x="1986.56" y="-173.6" font-family="Times,serif" font-size="8.00" fill="#17069d">DOCTYPE_PURCHREQ EC=119</text>
</g>
<!-- c94467a0&#45;5ae8&#45;48d3&#45;9a13&#45;d62e4140a4ac&#45;&gt;f5ee4e9c&#45;c8f6&#45;4f52&#45;9052&#45;7c5cdec87c81 -->
<g id="edge9" class="edge">
<title>c94467a0&#45;5ae8&#45;48d3&#45;9a13&#45;d62e4140a4ac&#45;&gt;f5ee4e9c&#45;c8f6&#45;4f52&#45;9052&#45;7c5cdec87c81</title>
<path fill="none" stroke="#11646f" stroke-width="2.17" d="M2292.82,-110.6C2341.18,-106.91 2397.67,-102.61 2445.37,-98.98"/>
<polygon fill="#11646f" stroke="#11646f" stroke-width="2.17" points="2445.71,-102.46 2455.41,-98.21 2445.17,-95.48 2445.71,-102.46"/>
<text text-anchor="middle" x="2374.06" y="-111.6" font-family="Times,serif" font-size="8.00" fill="#11646f">DOCTYPE_PURCHORD EC=94</text>
</g>
<!-- f5ee4e9c&#45;c8f6&#45;4f52&#45;9052&#45;7c5cdec87c81&#45;&gt;9cff6ddf&#45;243f&#45;45f7&#45;813a&#45;5f61f3020e82 -->
<g id="edge5" class="edge">
<title>f5ee4e9c&#45;c8f6&#45;4f52&#45;9052&#45;7c5cdec87c81&#45;&gt;9cff6ddf&#45;243f&#45;45f7&#45;813a&#45;5f61f3020e82</title>
<path fill="none" stroke="#e4cbd4" stroke-width="2.6" d="M2646.64,-82.42C2695.87,-77.96 2756.97,-72.42 2811.34,-67.49"/>
<polygon fill="#e4cbd4" stroke="#e4cbd4" stroke-width="2.6" points="2811.76,-70.96 2821.41,-66.58 2811.13,-63.99 2811.76,-70.96"/>
<text text-anchor="middle" x="2734.06" y="-82.6" font-family="Times,serif" font-size="8.00" fill="#e4cbd4">DOCTYPE_RESERVATION EC=94</text>
</g>
<!-- 638d9b75&#45;8b18&#45;4d43&#45;916f&#45;cb2ac1b80114 -->
<g id="node17" class="node">
<title>638d9b75&#45;8b18&#45;4d43&#45;916f&#45;cb2ac1b80114</title>
<polygon fill="none" stroke="transparent" points="3041.06,-133 2859.06,-133 2859.06,-97 3041.06,-97 3041.06,-133"/>
<polyline fill="none" stroke="black" points="2859.06,-97 3041.06,-97 "/>
<text text-anchor="middle" x="2950.06" y="-111.3" font-family="Times,serif" font-size="14.00" fill="#11646f">DOCTYPE_PURCHORD</text>
</g>
<!-- f5ee4e9c&#45;c8f6&#45;4f52&#45;9052&#45;7c5cdec87c81&#45;&gt;638d9b75&#45;8b18&#45;4d43&#45;916f&#45;cb2ac1b80114 -->
<g id="edge20" class="edge">
<title>f5ee4e9c&#45;c8f6&#45;4f52&#45;9052&#45;7c5cdec87c81&#45;&gt;638d9b75&#45;8b18&#45;4d43&#45;916f&#45;cb2ac1b80114</title>
<path fill="none" stroke="#11646f" stroke-width="2.17" d="M2646.64,-96.72C2707.58,-100.4 2786.72,-105.19 2848.75,-108.94"/>
<polygon fill="#11646f" stroke="#11646f" stroke-width="2.17" points="2848.75,-112.44 2858.94,-109.55 2849.17,-105.46 2848.75,-112.44"/>
<text text-anchor="middle" x="2734.06" y="-107.6" font-family="Times,serif" font-size="8.00" fill="#11646f">DOCTYPE_PURCHORD EC=94</text>
</g>
<!-- ca71a0cb&#45;6d35&#45;4051&#45;a919&#45;544df7c2d0c1&#45;&gt;6125fcc7&#45;ffda&#45;4871&#45;902a&#45;0aaa01d49c26 -->
<g id="edge4" class="edge">
<title>ca71a0cb&#45;6d35&#45;4051&#45;a919&#45;544df7c2d0c1&#45;&gt;6125fcc7&#45;ffda&#45;4871&#45;902a&#45;0aaa01d49c26</title>
<path fill="none" stroke="#e4cbd4" d="M2081.45,-234.17C1914.23,-241.15 1565.88,-248.21 1275.56,-205 1193.11,-192.73 1100.99,-165.09 1041.41,-145.29"/>
<polygon fill="#e4cbd4" stroke="#e4cbd4" points="1042.36,-141.92 1031.77,-142.06 1040.14,-148.55 1042.36,-141.92"/>
<text text-anchor="middle" x="1624.06" y="-239.6" font-family="Times,serif" font-size="8.00" fill="#e4cbd4">DOCTYPE_RESERVATION EC=25</text>
</g>
<!-- ca71a0cb&#45;6d35&#45;4051&#45;a919&#45;544df7c2d0c1&#45;&gt;638d9b75&#45;8b18&#45;4d43&#45;916f&#45;cb2ac1b80114 -->
<g id="edge21" class="edge">
<title>ca71a0cb&#45;6d35&#45;4051&#45;a919&#45;544df7c2d0c1&#45;&gt;638d9b75&#45;8b18&#45;4d43&#45;916f&#45;cb2ac1b80114</title>
<path fill="none" stroke="#11646f" d="M2281.58,-214.27C2428.26,-192.46 2701.73,-151.78 2848.99,-129.88"/>
<polygon fill="#11646f" stroke="#11646f" points="2849.57,-133.34 2858.94,-128.4 2848.54,-126.41 2849.57,-133.34"/>
<text text-anchor="middle" x="2551.06" y="-189.6" font-family="Times,serif" font-size="8.00" fill="#11646f">DOCTYPE_PURCHORD EC=25</text>
</g>
<!-- 4dc21e46&#45;eb76&#45;4359&#45;a56b&#45;9dc1e7b9ebe7 -->
<g id="node9" class="node">
<title>4dc21e46&#45;eb76&#45;4359&#45;a56b&#45;9dc1e7b9ebe7</title>
<polygon fill="#e4e4ff" stroke="black" points="3473.56,-113 3253.56,-113 3253.56,-75 3473.56,-75 3473.56,-113"/>
<text text-anchor="middle" x="3363.56" y="-97.8" font-family="Times,serif" font-size="14.00">Confirmed Production Order</text>
<text text-anchor="middle" x="3363.56" y="-82.8" font-family="Times,serif" font-size="14.00">E=50</text>
</g>
<!-- 9cff6ddf&#45;243f&#45;45f7&#45;813a&#45;5f61f3020e82&#45;&gt;4dc21e46&#45;eb76&#45;4359&#45;a56b&#45;9dc1e7b9ebe7 -->
<g id="edge12" class="edge">
<title>9cff6ddf&#45;243f&#45;45f7&#45;813a&#45;5f61f3020e82&#45;&gt;4dc21e46&#45;eb76&#45;4359&#45;a56b&#45;9dc1e7b9ebe7</title>
<path fill="none" stroke="#f491f3" d="M3078.72,-67.1C3131.15,-72.07 3191.53,-77.79 3243.08,-82.68"/>
<polygon fill="#f491f3" stroke="#f491f3" points="3242.99,-86.18 3253.27,-83.64 3243.65,-79.21 3242.99,-86.18"/>
<text text-anchor="middle" x="3166.06" y="-83.6" font-family="Times,serif" font-size="8.00" fill="#f491f3">DOCTYPE_PRODORD EC=50</text>
</g>
<!-- 7287b46e&#45;b870&#45;43b2&#45;887e&#45;f935c312bf56 -->
<g id="node15" class="node">
<title>7287b46e&#45;b870&#45;43b2&#45;887e&#45;f935c312bf56</title>
<polygon fill="none" stroke="transparent" points="3464.06,-57 3263.06,-57 3263.06,-21 3464.06,-21 3464.06,-57"/>
<polyline fill="none" stroke="black" points="3263.06,-21 3464.06,-21 "/>
<text text-anchor="middle" x="3363.56" y="-35.3" font-family="Times,serif" font-size="14.00" fill="#e4cbd4">DOCTYPE_RESERVATION</text>
</g>
<!-- 9cff6ddf&#45;243f&#45;45f7&#45;813a&#45;5f61f3020e82&#45;&gt;7287b46e&#45;b870&#45;43b2&#45;887e&#45;f935c312bf56 -->
<g id="edge18" class="edge">
<title>9cff6ddf&#45;243f&#45;45f7&#45;813a&#45;5f61f3020e82&#45;&gt;7287b46e&#45;b870&#45;43b2&#45;887e&#45;f935c312bf56</title>
<path fill="none" stroke="#e4cbd4" stroke-width="1.58" d="M3078.72,-50.04C3134.48,-47.87 3199.22,-45.35 3252.78,-43.27"/>
<polygon fill="#e4cbd4" stroke="#e4cbd4" stroke-width="1.58" points="3253.13,-46.76 3262.99,-42.87 3252.86,-39.76 3253.13,-46.76"/>
<text text-anchor="middle" x="3166.06" y="-51.6" font-family="Times,serif" font-size="8.00" fill="#e4cbd4">DOCTYPE_RESERVATION EC=50</text>
</g>
<!-- f75c0d3f&#45;4f57&#45;4ce4&#45;8e59&#45;331a1281e0e3 -->
<g id="node14" class="node">
<title>f75c0d3f&#45;4f57&#45;4ce4&#45;8e59&#45;331a1281e0e3</title>
<polygon fill="none" stroke="transparent" points="3800.56,-112 3630.56,-112 3630.56,-76 3800.56,-76 3800.56,-112"/>
<polyline fill="none" stroke="black" points="3630.56,-76 3800.56,-76 "/>
<text text-anchor="middle" x="3715.56" y="-90.3" font-family="Times,serif" font-size="14.00" fill="#f491f3">DOCTYPE_PRODORD</text>
</g>
<!-- 4dc21e46&#45;eb76&#45;4359&#45;a56b&#45;9dc1e7b9ebe7&#45;&gt;f75c0d3f&#45;4f57&#45;4ce4&#45;8e59&#45;331a1281e0e3 -->
<g id="edge17" class="edge">
<title>4dc21e46&#45;eb76&#45;4359&#45;a56b&#45;9dc1e7b9ebe7&#45;&gt;f75c0d3f&#45;4f57&#45;4ce4&#45;8e59&#45;331a1281e0e3</title>
<path fill="none" stroke="#f491f3" d="M3473.86,-94C3520.85,-94 3575.23,-94 3620.41,-94"/>
<polygon fill="#f491f3" stroke="#f491f3" points="3620.49,-97.5 3630.49,-94 3620.49,-90.5 3620.49,-97.5"/>
<text text-anchor="middle" x="3552.06" y="-96.6" font-family="Times,serif" font-size="8.00" fill="#f491f3">DOCTYPE_PRODORD EC=50</text>
</g>
<!-- 1a53bbad&#45;ce4a&#45;488d&#45;9e81&#45;d7f6e8dc32b1 -->
<g id="node10" class="node">
<title>1a53bbad&#45;ce4a&#45;488d&#45;9e81&#45;d7f6e8dc32b1</title>
<ellipse fill="#f491f3" stroke="black" cx="130.64" cy="-72" rx="110.48" ry="18"/>
<text text-anchor="middle" x="130.64" y="-68.3" font-family="Times,serif" font-size="14.00">DOCTYPE_PRODORD</text>
</g>
<!-- 1a53bbad&#45;ce4a&#45;488d&#45;9e81&#45;d7f6e8dc32b1&#45;&gt;dc9aadce&#45;47b4&#45;4b75&#45;b8c1&#45;d262265a8066 -->
<g id="edge13" class="edge">
<title>1a53bbad&#45;ce4a&#45;488d&#45;9e81&#45;d7f6e8dc32b1&#45;&gt;dc9aadce&#45;47b4&#45;4b75&#45;b8c1&#45;d262265a8066</title>
<path fill="none" stroke="#f491f3" d="M233.62,-65.46C296.61,-61.43 377.44,-56.25 442.02,-52.11"/>
<polygon fill="#f491f3" stroke="#f491f3" points="442.48,-55.58 452.24,-51.45 442.04,-48.6 442.48,-55.58"/>
<text text-anchor="middle" x="348.78" y="-65.6" font-family="Times,serif" font-size="8.00" fill="#f491f3">DOCTYPE_PRODORD EC=50</text>
</g>
<!-- 5e541659&#45;560e&#45;47bc&#45;b7f7&#45;399d15e30fdc -->
<g id="node11" class="node">
<title>5e541659&#45;560e&#45;47bc&#45;b7f7&#45;399d15e30fdc</title>
<ellipse fill="#e4cbd4" stroke="black" cx="130.64" cy="-18" rx="130.78" ry="18"/>
<text text-anchor="middle" x="130.64" y="-14.3" font-family="Times,serif" font-size="14.00">DOCTYPE_RESERVATION</text>
</g>
<!-- 5e541659&#45;560e&#45;47bc&#45;b7f7&#45;399d15e30fdc&#45;&gt;dc9aadce&#45;47b4&#45;4b75&#45;b8c1&#45;d262265a8066 -->
<g id="edge14" class="edge">
<title>5e541659&#45;560e&#45;47bc&#45;b7f7&#45;399d15e30fdc&#45;&gt;dc9aadce&#45;47b4&#45;4b75&#45;b8c1&#45;d262265a8066</title>
<path fill="none" stroke="#e4cbd4" stroke-width="1.58" d="M249.27,-25.54C309.68,-29.41 382.85,-34.1 442.24,-37.91"/>
<polygon fill="#e4cbd4" stroke="#e4cbd4" stroke-width="1.58" points="442.19,-41.41 452.4,-38.56 442.64,-34.43 442.19,-41.41"/>
<text text-anchor="middle" x="348.78" y="-39.6" font-family="Times,serif" font-size="8.00" fill="#e4cbd4">DOCTYPE_RESERVATION EC=50</text>
</g>
<!-- ed515fd6&#45;8307&#45;416d&#45;b26c&#45;dd48ac56171b -->
<g id="node12" class="node">
<title>ed515fd6&#45;8307&#45;416d&#45;b26c&#45;dd48ac56171b</title>
<ellipse fill="#17069d" stroke="black" cx="553.92" cy="-123" rx="117.78" ry="18"/>
<text text-anchor="middle" x="553.92" y="-119.3" font-family="Times,serif" font-size="14.00">DOCTYPE_PURCHREQ</text>
</g>
<!-- ed515fd6&#45;8307&#45;416d&#45;b26c&#45;dd48ac56171b&#45;&gt;6125fcc7&#45;ffda&#45;4871&#45;902a&#45;0aaa01d49c26 -->
<g id="edge15" class="edge">
<title>ed515fd6&#45;8307&#45;416d&#45;b26c&#45;dd48ac56171b&#45;&gt;6125fcc7&#45;ffda&#45;4871&#45;902a&#45;0aaa01d49c26</title>
<path fill="none" stroke="#17069d" d="M671.67,-123C722.67,-123 782.89,-123 836.25,-123"/>
<polygon fill="#17069d" stroke="#17069d" points="836.48,-126.5 846.48,-123 836.48,-119.5 836.48,-126.5"/>
<text text-anchor="middle" x="759.06" y="-125.6" font-family="Times,serif" font-size="8.00" fill="#17069d">DOCTYPE_PURCHREQ EC=119</text>
</g>
<!-- 190ddda1&#45;c282&#45;4934&#45;bd49&#45;d3361ed6d992 -->
<g id="node13" class="node">
<title>190ddda1&#45;c282&#45;4934&#45;bd49&#45;d3361ed6d992</title>
<ellipse fill="#11646f" stroke="black" cx="1406.06" cy="-178" rx="118.08" ry="18"/>
<text text-anchor="middle" x="1406.06" y="-174.3" font-family="Times,serif" font-size="14.00">DOCTYPE_PURCHORD</text>
</g>
<!-- 190ddda1&#45;c282&#45;4934&#45;bd49&#45;d3361ed6d992&#45;&gt;46f68817&#45;ed78&#45;456c&#45;bb60&#45;ca1c7d5a21f7 -->
<g id="edge16" class="edge">
<title>190ddda1&#45;c282&#45;4934&#45;bd49&#45;d3361ed6d992&#45;&gt;46f68817&#45;ed78&#45;456c&#45;bb60&#45;ca1c7d5a21f7</title>
<path fill="none" stroke="#11646f" stroke-width="2.6" d="M1523.54,-175.66C1579.73,-174.54 1646.62,-173.2 1701.2,-172.1"/>
<polygon fill="#11646f" stroke="#11646f" stroke-width="2.6" points="1701.32,-175.6 1711.24,-171.9 1701.18,-168.6 1701.32,-175.6"/>
<text text-anchor="middle" x="1624.06" y="-176.6" font-family="Times,serif" font-size="8.00" fill="#11646f">DOCTYPE_PURCHORD EC=119</text>
</g>
</g>
</svg>
