<?xml version="1.0" encoding="UTF-8" standalone="no"?>
<!DOCTYPE svg PUBLIC "-//W3C//DTD SVG 1.1//EN"
 "http://www.w3.org/Graphics/SVG/1.1/DTD/svg11.dtd">
<!-- Generated by graphviz version 2.50.0 (0)
 -->
<!-- Title: ocdfg Pages: 1 -->
<svg width="3548pt" height="317pt"
 viewBox="0.00 0.00 3547.56 317.00" xmlns="http://www.w3.org/2000/svg" xmlns:xlink="http://www.w3.org/1999/xlink">
<g id="graph0" class="graph" transform="scale(1 1) rotate(0) translate(4 313)">
<title>ocdfg</title>
<!-- 49dac23e&#45;4b50&#45;4dba&#45;b6f2&#45;c45fb421e4eb -->
<g id="node1" class="node">
<title>49dac23e&#45;4b50&#45;4dba&#45;b6f2&#45;c45fb421e4eb</title>
<polygon fill="none" stroke="black" points="517.42,-63 314.42,-63 314.42,-27 517.42,-27 517.42,-63"/>
<text text-anchor="middle" x="415.92" y="-41.3" font-family="Times,serif" font-size="14.00">Created Production Order</text>
</g>
<!-- 0508ca81&#45;6e50&#45;4e34&#45;afea&#45;f30b646fffb4 -->
<g id="node2" class="node">
<title>0508ca81&#45;6e50&#45;4e34&#45;afea&#45;f30b646fffb4</title>
<polygon fill="none" stroke="black" points="970.56,-137 709.56,-137 709.56,-101 970.56,-101 970.56,-137"/>
<text text-anchor="middle" x="840.06" y="-115.3" font-family="Times,serif" font-size="14.00">Released Purchase Requisition (1)</text>
</g>
<!-- 49dac23e&#45;4b50&#45;4dba&#45;b6f2&#45;c45fb421e4eb&#45;&gt;0508ca81&#45;6e50&#45;4e34&#45;afea&#45;f30b646fffb4 -->
<g id="edge1" class="edge">
<title>49dac23e&#45;4b50&#45;4dba&#45;b6f2&#45;c45fb421e4eb&#45;&gt;0508ca81&#45;6e50&#45;4e34&#45;afea&#45;f30b646fffb4</title>
<path fill="none" stroke="#e4cbd4" d="M517.49,-62.63C580.35,-73.65 661.42,-87.86 726.44,-99.26"/>
<polygon fill="#e4cbd4" stroke="#e4cbd4" points="725.86,-102.71 736.32,-100.99 727.07,-95.82 725.86,-102.71"/>
<text text-anchor="middle" x="621.56" y="-94.6" font-family="Times,serif" font-size="8.00" fill="#e4cbd4">DOCTYPE_RESERVATION EC=7D</text>
</g>
<!-- 40957d07&#45;77b6&#45;4f9b&#45;891b&#45;76e7665eafe5 -->
<g id="node7" class="node">
<title>40957d07&#45;77b6&#45;4f9b&#45;891b&#45;76e7665eafe5</title>
<polygon fill="none" stroke="black" points="2953.56,-74 2696.56,-74 2696.56,-38 2953.56,-38 2953.56,-74"/>
<text text-anchor="middle" x="2825.06" y="-52.3" font-family="Times,serif" font-size="14.00">Goods Issue for Production Order</text>
</g>
<!-- 49dac23e&#45;4b50&#45;4dba&#45;b6f2&#45;c45fb421e4eb&#45;&gt;40957d07&#45;77b6&#45;4f9b&#45;891b&#45;76e7665eafe5 -->
<g id="edge11" class="edge">
<title>49dac23e&#45;4b50&#45;4dba&#45;b6f2&#45;c45fb421e4eb&#45;&gt;40957d07&#45;77b6&#45;4f9b&#45;891b&#45;76e7665eafe5</title>
<path fill="none" stroke="#f491f3" d="M517.49,-37.18C602.98,-31.21 728.99,-24 839.06,-24 839.06,-24 839.06,-24 2421.06,-24 2509.38,-24 2608.26,-31.73 2685.97,-39.6"/>
<polygon fill="#f491f3" stroke="#f491f3" points="2686,-43.12 2696.31,-40.66 2686.71,-36.15 2686,-43.12"/>
<text text-anchor="middle" x="1672.06" y="-26.6" font-family="Times,serif" font-size="8.00" fill="#f491f3">DOCTYPE_PRODORD EC=1MO</text>
</g>
<!-- 43fd7450&#45;5915&#45;4a6d&#45;859b&#45;c7af58466ac4 -->
<g id="node3" class="node">
<title>43fd7450&#45;5915&#45;4a6d&#45;859b&#45;c7af58466ac4</title>
<polygon fill="none" stroke="black" points="1395.56,-137 1134.56,-137 1134.56,-101 1395.56,-101 1395.56,-137"/>
<text text-anchor="middle" x="1265.06" y="-115.3" font-family="Times,serif" font-size="14.00">Released Purchase Requisition (2)</text>
</g>
<!-- 0508ca81&#45;6e50&#45;4e34&#45;afea&#45;f30b646fffb4&#45;&gt;43fd7450&#45;5915&#45;4a6d&#45;859b&#45;c7af58466ac4 -->
<g id="edge6" class="edge">
<title>0508ca81&#45;6e50&#45;4e34&#45;afea&#45;f30b646fffb4&#45;&gt;43fd7450&#45;5915&#45;4a6d&#45;859b&#45;c7af58466ac4</title>
<path fill="none" stroke="#17069d" d="M970.56,-119C1019.19,-119 1074.66,-119 1124.2,-119"/>
<polygon fill="#17069d" stroke="#17069d" points="1124.35,-122.5 1134.35,-119 1124.34,-115.5 1124.35,-122.5"/>
<text text-anchor="middle" x="1052.56" y="-121.6" font-family="Times,serif" font-size="8.00" fill="#17069d">DOCTYPE_PURCHREQ EC=2D</text>
</g>
<!-- df9802a4&#45;2ff5&#45;46b6&#45;88fc&#45;1a4b97773ff3 -->
<g id="node6" class="node">
<title>df9802a4&#45;2ff5&#45;46b6&#45;88fc&#45;1a4b97773ff3</title>
<polygon fill="none" stroke="black" points="2515.56,-106 2324.56,-106 2324.56,-70 2515.56,-70 2515.56,-106"/>
<text text-anchor="middle" x="2420.06" y="-84.3" font-family="Times,serif" font-size="14.00">Goods Receipt for Order</text>
</g>
<!-- 0508ca81&#45;6e50&#45;4e34&#45;afea&#45;f30b646fffb4&#45;&gt;df9802a4&#45;2ff5&#45;46b6&#45;88fc&#45;1a4b97773ff3 -->
<g id="edge2" class="edge">
<title>0508ca81&#45;6e50&#45;4e34&#45;afea&#45;f30b646fffb4&#45;&gt;df9802a4&#45;2ff5&#45;46b6&#45;88fc&#45;1a4b97773ff3</title>
<path fill="none" stroke="#e4cbd4" d="M938.12,-100.95C1023.61,-86.63 1151.65,-69 1264.06,-69 1264.06,-69 1264.06,-69 2049.56,-69 2138.82,-69 2240.05,-74.6 2313.95,-79.72"/>
<polygon fill="#e4cbd4" stroke="#e4cbd4" points="2313.98,-83.23 2324.2,-80.44 2314.47,-76.24 2313.98,-83.23"/>
<text text-anchor="middle" x="1672.06" y="-71.6" font-family="Times,serif" font-size="8.00" fill="#e4cbd4">DOCTYPE_RESERVATION EC=20D</text>
</g>
<!-- cd3e0aad&#45;f39c&#45;47cd&#45;b98f&#45;1ebc8675e3f8 -->
<g id="node9" class="node">
<title>cd3e0aad&#45;f39c&#45;47cd&#45;b98f&#45;1ebc8675e3f8</title>
<polygon fill="none" stroke="black" points="2148.56,-241 1948.56,-241 1948.56,-205 2148.56,-205 2148.56,-241"/>
<text text-anchor="middle" x="2048.56" y="-219.3" font-family="Times,serif" font-size="14.00"> Rejected Purchase Order</text>
</g>
<!-- 0508ca81&#45;6e50&#45;4e34&#45;afea&#45;f30b646fffb4&#45;&gt;cd3e0aad&#45;f39c&#45;47cd&#45;b98f&#45;1ebc8675e3f8 -->
<g id="edge4" class="edge">
<title>0508ca81&#45;6e50&#45;4e34&#45;afea&#45;f30b646fffb4&#45;&gt;cd3e0aad&#45;f39c&#45;47cd&#45;b98f&#45;1ebc8675e3f8</title>
<path fill="none" stroke="#e4cbd4" d="M856.45,-137.16C881.05,-164.6 932.22,-215.5 988.56,-235 1331.92,-353.84 1776.21,-282.06 1961.01,-243.13"/>
<polygon fill="#e4cbd4" stroke="#e4cbd4" points="1961.89,-246.52 1970.94,-241.02 1960.43,-239.68 1961.89,-246.52"/>
<text text-anchor="middle" x="1486.06" y="-302.6" font-family="Times,serif" font-size="8.00" fill="#e4cbd4">DOCTYPE_RESERVATION EC=19D</text>
</g>
<!-- 150a3ade&#45;66b6&#45;4a96&#45;bc70&#45;25f4cb0e5250 -->
<g id="node4" class="node">
<title>150a3ade&#45;66b6&#45;4a96&#45;bc70&#45;25f4cb0e5250</title>
<polygon fill="none" stroke="black" points="1767.56,-182 1576.56,-182 1576.56,-146 1767.56,-146 1767.56,-182"/>
<text text-anchor="middle" x="1672.06" y="-160.3" font-family="Times,serif" font-size="14.00">Created Purchase Order</text>
</g>
<!-- 43fd7450&#45;5915&#45;4a6d&#45;859b&#45;c7af58466ac4&#45;&gt;150a3ade&#45;66b6&#45;4a96&#45;bc70&#45;25f4cb0e5250 -->
<g id="edge7" class="edge">
<title>43fd7450&#45;5915&#45;4a6d&#45;859b&#45;c7af58466ac4&#45;&gt;150a3ade&#45;66b6&#45;4a96&#45;bc70&#45;25f4cb0e5250</title>
<path fill="none" stroke="#17069d" d="M1395.59,-133.39C1450.7,-139.52 1514.14,-146.56 1566.23,-152.35"/>
<polygon fill="#17069d" stroke="#17069d" points="1566.16,-155.87 1576.49,-153.49 1566.94,-148.91 1566.16,-155.87"/>
<text text-anchor="middle" x="1486.06" y="-152.6" font-family="Times,serif" font-size="8.00" fill="#17069d">DOCTYPE_PURCHREQ EC=1D</text>
</g>
<!-- e507bf4e&#45;c487&#45;44cc&#45;afce&#45;46ed437a8b5e -->
<g id="node5" class="node">
<title>e507bf4e&#45;c487&#45;44cc&#45;afce&#45;46ed437a8b5e</title>
<polygon fill="none" stroke="black" points="2159.56,-133 1937.56,-133 1937.56,-97 2159.56,-97 2159.56,-133"/>
<text text-anchor="middle" x="2048.56" y="-111.3" font-family="Times,serif" font-size="14.00">Released Purchase Order (1)</text>
</g>
<!-- 150a3ade&#45;66b6&#45;4a96&#45;bc70&#45;25f4cb0e5250&#45;&gt;e507bf4e&#45;c487&#45;44cc&#45;afce&#45;46ed437a8b5e -->
<g id="edge8" class="edge">
<title>150a3ade&#45;66b6&#45;4a96&#45;bc70&#45;25f4cb0e5250&#45;&gt;e507bf4e&#45;c487&#45;44cc&#45;afce&#45;46ed437a8b5e</title>
<path fill="none" stroke="#11646f" d="M1767.56,-151.64C1816.01,-145.3 1875.54,-137.51 1927.23,-130.74"/>
<polygon fill="#11646f" stroke="#11646f" points="1928,-134.17 1937.46,-129.4 1927.09,-127.23 1928,-134.17"/>
<text text-anchor="middle" x="1852.56" y="-150.6" font-family="Times,serif" font-size="8.00" fill="#11646f">DOCTYPE_PURCHORD EC=13D</text>
</g>
<!-- 150a3ade&#45;66b6&#45;4a96&#45;bc70&#45;25f4cb0e5250&#45;&gt;cd3e0aad&#45;f39c&#45;47cd&#45;b98f&#45;1ebc8675e3f8 -->
<g id="edge10" class="edge">
<title>150a3ade&#45;66b6&#45;4a96&#45;bc70&#45;25f4cb0e5250&#45;&gt;cd3e0aad&#45;f39c&#45;47cd&#45;b98f&#45;1ebc8675e3f8</title>
<path fill="none" stroke="#11646f" d="M1767.76,-175.81C1813.69,-181.85 1869.59,-189.68 1919.56,-198 1928.92,-199.56 1938.65,-201.28 1948.38,-203.06"/>
<polygon fill="#11646f" stroke="#11646f" points="1948.03,-206.56 1958.5,-204.94 1949.31,-199.68 1948.03,-206.56"/>
<text text-anchor="middle" x="1852.56" y="-200.6" font-family="Times,serif" font-size="8.00" fill="#11646f">DOCTYPE_PURCHORD EC=15D</text>
</g>
<!-- a36d347e&#45;cd20&#45;4dd1&#45;a7dd&#45;50d43bd3a023 -->
<g id="node16" class="node">
<title>a36d347e&#45;cd20&#45;4dd1&#45;a7dd&#45;50d43bd3a023</title>
<polygon fill="none" stroke="transparent" points="2139.06,-187 1958.06,-187 1958.06,-151 2139.06,-151 2139.06,-187"/>
<polyline fill="none" stroke="black" points="1958.06,-151 2139.06,-151 "/>
<text text-anchor="middle" x="2048.56" y="-165.3" font-family="Times,serif" font-size="14.00" fill="#17069d">DOCTYPE_PURCHREQ</text>
</g>
<!-- 150a3ade&#45;66b6&#45;4a96&#45;bc70&#45;25f4cb0e5250&#45;&gt;a36d347e&#45;cd20&#45;4dd1&#45;a7dd&#45;50d43bd3a023 -->
<g id="edge19" class="edge">
<title>150a3ade&#45;66b6&#45;4a96&#45;bc70&#45;25f4cb0e5250&#45;&gt;a36d347e&#45;cd20&#45;4dd1&#45;a7dd&#45;50d43bd3a023</title>
<path fill="none" stroke="#17069d" d="M1767.56,-165.26C1822.53,-166 1891.78,-166.92 1947.65,-167.67"/>
<polygon fill="#17069d" stroke="#17069d" points="1947.87,-171.17 1957.92,-167.8 1947.97,-164.17 1947.87,-171.17"/>
</g>
<!-- e507bf4e&#45;c487&#45;44cc&#45;afce&#45;46ed437a8b5e&#45;&gt;df9802a4&#45;2ff5&#45;46b6&#45;88fc&#45;1a4b97773ff3 -->
<g id="edge9" class="edge">
<title>e507bf4e&#45;c487&#45;44cc&#45;afce&#45;46ed437a8b5e&#45;&gt;df9802a4&#45;2ff5&#45;46b6&#45;88fc&#45;1a4b97773ff3</title>
<path fill="none" stroke="#11646f" d="M2159.92,-106.94C2208.76,-103.37 2265.92,-99.19 2314.12,-95.67"/>
<polygon fill="#11646f" stroke="#11646f" points="2314.54,-99.15 2324.26,-94.93 2314.03,-92.17 2314.54,-99.15"/>
<text text-anchor="middle" x="2242.06" y="-107.6" font-family="Times,serif" font-size="8.00" fill="#11646f">DOCTYPE_PURCHORD EC=3D</text>
</g>
<!-- df9802a4&#45;2ff5&#45;46b6&#45;88fc&#45;1a4b97773ff3&#45;&gt;40957d07&#45;77b6&#45;4f9b&#45;891b&#45;76e7665eafe5 -->
<g id="edge3" class="edge">
<title>df9802a4&#45;2ff5&#45;46b6&#45;88fc&#45;1a4b97773ff3&#45;&gt;40957d07&#45;77b6&#45;4f9b&#45;891b&#45;76e7665eafe5</title>
<path fill="none" stroke="#e4cbd4" d="M2515.8,-80.48C2566.61,-76.44 2630.16,-71.4 2686.33,-66.94"/>
<polygon fill="#e4cbd4" stroke="#e4cbd4" points="2686.68,-70.42 2696.37,-66.14 2686.12,-63.44 2686.68,-70.42"/>
<text text-anchor="middle" x="2606.06" y="-80.6" font-family="Times,serif" font-size="8.00" fill="#e4cbd4">DOCTYPE_RESERVATION EC=16D</text>
</g>
<!-- 6459c785&#45;8a51&#45;4904&#45;9a5a&#45;3d00fce47518 -->
<g id="node17" class="node">
<title>6459c785&#45;8a51&#45;4904&#45;9a5a&#45;3d00fce47518</title>
<polygon fill="none" stroke="transparent" points="2916.06,-129 2734.06,-129 2734.06,-93 2916.06,-93 2916.06,-129"/>
<polyline fill="none" stroke="black" points="2734.06,-93 2916.06,-93 "/>
<text text-anchor="middle" x="2825.06" y="-107.3" font-family="Times,serif" font-size="14.00" fill="#11646f">DOCTYPE_PURCHORD</text>
</g>
<!-- df9802a4&#45;2ff5&#45;46b6&#45;88fc&#45;1a4b97773ff3&#45;&gt;6459c785&#45;8a51&#45;4904&#45;9a5a&#45;3d00fce47518 -->
<g id="edge20" class="edge">
<title>df9802a4&#45;2ff5&#45;46b6&#45;88fc&#45;1a4b97773ff3&#45;&gt;6459c785&#45;8a51&#45;4904&#45;9a5a&#45;3d00fce47518</title>
<path fill="none" stroke="#11646f" stroke-width="2.16" d="M2515.8,-93.41C2578.3,-96.97 2660.07,-101.64 2723.69,-105.27"/>
<polygon fill="#11646f" stroke="#11646f" stroke-width="2.16" points="2723.55,-108.77 2733.74,-105.85 2723.95,-101.78 2723.55,-108.77"/>
</g>
<!-- 5327d761&#45;b6b5&#45;46ee&#45;b7a6&#45;b4b5e40b98d0 -->
<g id="node8" class="node">
<title>5327d761&#45;b6b5&#45;46ee&#45;b7a6&#45;b4b5e40b98d0</title>
<polygon fill="none" stroke="black" points="3332.56,-112 3112.56,-112 3112.56,-76 3332.56,-76 3332.56,-112"/>
<text text-anchor="middle" x="3222.56" y="-90.3" font-family="Times,serif" font-size="14.00">Confirmed Production Order</text>
</g>
<!-- 40957d07&#45;77b6&#45;4f9b&#45;891b&#45;76e7665eafe5&#45;&gt;5327d761&#45;b6b5&#45;46ee&#45;b7a6&#45;b4b5e40b98d0 -->
<g id="edge12" class="edge">
<title>40957d07&#45;77b6&#45;4f9b&#45;891b&#45;76e7665eafe5&#45;&gt;5327d761&#45;b6b5&#45;46ee&#45;b7a6&#45;b4b5e40b98d0</title>
<path fill="none" stroke="#f491f3" d="M2953.64,-68.26C3001.28,-72.84 3055.16,-78.01 3102.04,-82.52"/>
<polygon fill="#f491f3" stroke="#f491f3" points="3101.96,-86.02 3112.25,-83.5 3102.63,-79.06 3101.96,-86.02"/>
<text text-anchor="middle" x="3033.06" y="-83.6" font-family="Times,serif" font-size="8.00" fill="#f491f3">DOCTYPE_PRODORD EC=1D</text>
</g>
<!-- 8d840e61&#45;57b9&#45;4b05&#45;ae7a&#45;139e16c8ef74 -->
<g id="node15" class="node">
<title>8d840e61&#45;57b9&#45;4b05&#45;ae7a&#45;139e16c8ef74</title>
<polygon fill="none" stroke="transparent" points="3323.06,-58 3122.06,-58 3122.06,-22 3323.06,-22 3323.06,-58"/>
<polyline fill="none" stroke="black" points="3122.06,-22 3323.06,-22 "/>
<text text-anchor="middle" x="3222.56" y="-36.3" font-family="Times,serif" font-size="14.00" fill="#e4cbd4">DOCTYPE_RESERVATION</text>
</g>
<!-- 40957d07&#45;77b6&#45;4f9b&#45;891b&#45;76e7665eafe5&#45;&gt;8d840e61&#45;57b9&#45;4b05&#45;ae7a&#45;139e16c8ef74 -->
<g id="edge18" class="edge">
<title>40957d07&#45;77b6&#45;4f9b&#45;891b&#45;76e7665eafe5&#45;&gt;8d840e61&#45;57b9&#45;4b05&#45;ae7a&#45;139e16c8ef74</title>
<path fill="none" stroke="#e4cbd4" stroke-width="1.52" d="M2953.64,-50.84C3004.65,-48.77 3062.81,-46.42 3111.88,-44.44"/>
<polygon fill="#e4cbd4" stroke="#e4cbd4" stroke-width="1.52" points="3112.03,-47.93 3121.88,-44.03 3111.75,-40.94 3112.03,-47.93"/>
</g>
<!-- e1e15525&#45;14a2&#45;487c&#45;b54b&#45;c1023834c315 -->
<g id="node14" class="node">
<title>e1e15525&#45;14a2&#45;487c&#45;b54b&#45;c1023834c315</title>
<polygon fill="none" stroke="transparent" points="3539.56,-112 3369.56,-112 3369.56,-76 3539.56,-76 3539.56,-112"/>
<polyline fill="none" stroke="black" points="3369.56,-76 3539.56,-76 "/>
<text text-anchor="middle" x="3454.56" y="-90.3" font-family="Times,serif" font-size="14.00" fill="#f491f3">DOCTYPE_PRODORD</text>
</g>
<!-- 5327d761&#45;b6b5&#45;46ee&#45;b7a6&#45;b4b5e40b98d0&#45;&gt;e1e15525&#45;14a2&#45;487c&#45;b54b&#45;c1023834c315 -->
<g id="edge17" class="edge">
<title>5327d761&#45;b6b5&#45;46ee&#45;b7a6&#45;b4b5e40b98d0&#45;&gt;e1e15525&#45;14a2&#45;487c&#45;b54b&#45;c1023834c315</title>
<path fill="none" stroke="#f491f3" d="M3332.83,-94C3341.66,-94 3350.54,-94 3359.25,-94"/>
<polygon fill="#f491f3" stroke="#f491f3" points="3359.39,-97.5 3369.39,-94 3359.39,-90.5 3359.39,-97.5"/>
</g>
<!-- cd3e0aad&#45;f39c&#45;47cd&#45;b98f&#45;1ebc8675e3f8&#45;&gt;0508ca81&#45;6e50&#45;4e34&#45;afea&#45;f30b646fffb4 -->
<g id="edge5" class="edge">
<title>cd3e0aad&#45;f39c&#45;47cd&#45;b98f&#45;1ebc8675e3f8&#45;&gt;0508ca81&#45;6e50&#45;4e34&#45;afea&#45;f30b646fffb4</title>
<path fill="none" stroke="#e4cbd4" d="M1948.25,-228.37C1779.82,-235.72 1427.85,-243.5 1134.56,-200 1052.09,-187.77 959.83,-159.86 901.15,-140.24"/>
<polygon fill="#e4cbd4" stroke="#e4cbd4" points="902.26,-136.92 891.67,-137.04 900.03,-143.56 902.26,-136.92"/>
<text text-anchor="middle" x="1486.06" y="-234.6" font-family="Times,serif" font-size="8.00" fill="#e4cbd4">DOCTYPE_RESERVATION EC=4D</text>
</g>
<!-- cd3e0aad&#45;f39c&#45;47cd&#45;b98f&#45;1ebc8675e3f8&#45;&gt;6459c785&#45;8a51&#45;4904&#45;9a5a&#45;3d00fce47518 -->
<g id="edge21" class="edge">
<title>cd3e0aad&#45;f39c&#45;47cd&#45;b98f&#45;1ebc8675e3f8&#45;&gt;6459c785&#45;8a51&#45;4904&#45;9a5a&#45;3d00fce47518</title>
<path fill="none" stroke="#11646f" d="M2148.83,-208.64C2297.16,-187.19 2575.09,-147 2723.92,-125.48"/>
<polygon fill="#11646f" stroke="#11646f" points="2724.58,-128.92 2733.97,-124.03 2723.58,-121.99 2724.58,-128.92"/>
</g>
<!-- 5307c97a&#45;416a&#45;4ad5&#45;a45f&#45;7409c2420c28 -->
<g id="node10" class="node">
<title>5307c97a&#45;416a&#45;4ad5&#45;a45f&#45;7409c2420c28</title>
<ellipse fill="#f491f3" stroke="black" cx="130.64" cy="-72" rx="110.48" ry="18"/>
<text text-anchor="middle" x="130.64" y="-68.3" font-family="Times,serif" font-size="14.00">DOCTYPE_PRODORD</text>
</g>
<!-- 5307c97a&#45;416a&#45;4ad5&#45;a45f&#45;7409c2420c28&#45;&gt;49dac23e&#45;4b50&#45;4dba&#45;b6f2&#45;c45fb421e4eb -->
<g id="edge13" class="edge">
<title>5307c97a&#45;416a&#45;4ad5&#45;a45f&#45;7409c2420c28&#45;&gt;49dac23e&#45;4b50&#45;4dba&#45;b6f2&#45;c45fb421e4eb</title>
<path fill="none" stroke="#f491f3" d="M226.36,-62.97C251.21,-60.6 278.23,-58.03 303.85,-55.59"/>
<polygon fill="#f491f3" stroke="#f491f3" points="304.35,-59.05 313.97,-54.62 303.68,-52.09 304.35,-59.05"/>
</g>
<!-- badb5d65&#45;5aaa&#45;4705&#45;a0e3&#45;bf6639b7cd20 -->
<g id="node11" class="node">
<title>badb5d65&#45;5aaa&#45;4705&#45;a0e3&#45;bf6639b7cd20</title>
<ellipse fill="#e4cbd4" stroke="black" cx="130.64" cy="-18" rx="130.78" ry="18"/>
<text text-anchor="middle" x="130.64" y="-14.3" font-family="Times,serif" font-size="14.00">DOCTYPE_RESERVATION</text>
</g>
<!-- badb5d65&#45;5aaa&#45;4705&#45;a0e3&#45;bf6639b7cd20&#45;&gt;49dac23e&#45;4b50&#45;4dba&#45;b6f2&#45;c45fb421e4eb -->
<g id="edge14" class="edge">
<title>badb5d65&#45;5aaa&#45;4705&#45;a0e3&#45;bf6639b7cd20&#45;&gt;49dac23e&#45;4b50&#45;4dba&#45;b6f2&#45;c45fb421e4eb</title>
<path fill="none" stroke="#e4cbd4" stroke-width="1.52" d="M238.73,-28.21C260.1,-30.24 282.59,-32.39 304.09,-34.44"/>
<polygon fill="#e4cbd4" stroke="#e4cbd4" stroke-width="1.52" points="303.93,-37.94 314.21,-35.4 304.59,-30.97 303.93,-37.94"/>
</g>
<!-- 1c4f5046&#45;dc7b&#45;41ae&#45;96e1&#45;9ce9835422ce -->
<g id="node12" class="node">
<title>1c4f5046&#45;dc7b&#45;41ae&#45;96e1&#45;9ce9835422ce</title>
<ellipse fill="#17069d" stroke="black" cx="415.92" cy="-119" rx="117.78" ry="18"/>
<text text-anchor="middle" x="415.92" y="-115.3" font-family="Times,serif" font-size="14.00">DOCTYPE_PURCHREQ</text>
</g>
<!-- 1c4f5046&#45;dc7b&#45;41ae&#45;96e1&#45;9ce9835422ce&#45;&gt;0508ca81&#45;6e50&#45;4e34&#45;afea&#45;f30b646fffb4 -->
<g id="edge15" class="edge">
<title>1c4f5046&#45;dc7b&#45;41ae&#45;96e1&#45;9ce9835422ce&#45;&gt;0508ca81&#45;6e50&#45;4e34&#45;afea&#45;f30b646fffb4</title>
<path fill="none" stroke="#17069d" d="M533.67,-119C584.9,-119 645.48,-119 699.11,-119"/>
<polygon fill="#17069d" stroke="#17069d" points="699.39,-122.5 709.39,-119 699.39,-115.5 699.39,-122.5"/>
</g>
<!-- cd15de85&#45;866d&#45;42f2&#45;85d6&#45;e72ea849f7e2 -->
<g id="node13" class="node">
<title>cd15de85&#45;866d&#45;42f2&#45;85d6&#45;e72ea849f7e2</title>
<ellipse fill="#11646f" stroke="black" cx="1265.06" cy="-173" rx="118.08" ry="18"/>
<text text-anchor="middle" x="1265.06" y="-169.3" font-family="Times,serif" font-size="14.00">DOCTYPE_PURCHORD</text>
</g>
<!-- cd15de85&#45;866d&#45;42f2&#45;85d6&#45;e72ea849f7e2&#45;&gt;150a3ade&#45;66b6&#45;4a96&#45;bc70&#45;25f4cb0e5250 -->
<g id="edge16" class="edge">
<title>cd15de85&#45;866d&#45;42f2&#45;85d6&#45;e72ea849f7e2&#45;&gt;150a3ade&#45;66b6&#45;4a96&#45;bc70&#45;25f4cb0e5250</title>
<path fill="none" stroke="#11646f" stroke-width="2.6" d="M1382.38,-170.41C1440.25,-169.13 1509.65,-167.59 1565.91,-166.34"/>
<polygon fill="#11646f" stroke="#11646f" stroke-width="2.6" points="1566.33,-169.83 1576.25,-166.11 1566.18,-162.83 1566.33,-169.83"/>
</g>
</g>
</svg>
