<?xml version="1.0" encoding="UTF-8" standalone="no"?>
<!DOCTYPE svg PUBLIC "-//W3C//DTD SVG 1.1//EN"
 "http://www.w3.org/Graphics/SVG/1.1/DTD/svg11.dtd">
<!-- Generated by graphviz version 2.50.0 (0)
 -->
<!-- Pages: 1 -->
<svg width="1519pt" height="4240pt"
 viewBox="0.00 0.00 1518.50 4240.04" xmlns="http://www.w3.org/2000/svg" xmlns:xlink="http://www.w3.org/1999/xlink">
<g id="graph0" class="graph" transform="scale(1 1) rotate(0) translate(4 4236.04)">
<!-- (p)DOCTYPE_RESERVATION1 -->
<g id="node1" class="node">
<title>(p)DOCTYPE_RESERVATION1</title>
<ellipse fill="#a13ccd" stroke="#a13ccd" cx="555.5" cy="-4106.34" rx="125.91" ry="125.91"/>
<text text-anchor="middle" x="555.5" y="-4102.94" font-family="Times,serif" font-size="13.00">DOCTYPE_RESERVATION1</text>
</g>
<!-- (t)Created Production Order -->
<g id="node18" class="node">
<title>(t)Created Production Order</title>
<polygon fill="none" stroke="black" points="927.5,-3901.63 433.5,-3901.63 433.5,-3813.63 927.5,-3813.63 927.5,-3901.63"/>
<text text-anchor="middle" x="680.5" y="-3868.83" font-family="Times,serif" font-size="36.00">Created Production Order</text>
<text text-anchor="middle" x="680.5" y="-3828.83" font-family="Times,serif" font-size="36.00"> (50)</text>
<text text-anchor="start" x="429.5" y="-3904.83" font-family="Times,serif" font-size="11.00">&#45;</text>
</g>
<!-- (p)DOCTYPE_RESERVATION1&#45;&gt;(t)Created Production Order -->
<g id="edge1" class="edge">
<title>(p)DOCTYPE_RESERVATION1&#45;&gt;(t)Created Production Order</title>
<path fill="none" stroke="#a13ccd" d="M597.43,-3987.38C607.65,-3964.06 619.21,-3940.22 631.77,-3918.63 633.66,-3915.38 635.66,-3912.17 637.79,-3908.94"/>
<path fill="none" stroke="white" d="M599.26,-3988.18C609.45,-3964.93 621.01,-3941.09 633.5,-3919.63 635.36,-3916.44 637.36,-3913.23 639.46,-3910.04"/>
<path fill="none" stroke="#a13ccd" d="M601.1,-3988.98C611.25,-3965.8 622.81,-3941.96 635.23,-3920.64 637.05,-3917.5 639.06,-3914.29 641.13,-3911.13"/>
<polygon fill="#a13ccd" stroke="#a13ccd" points="642.43,-3911.89 645.19,-3901.66 636.66,-3907.94 642.43,-3911.89"/>
<text text-anchor="middle" x="708.5" y="-3937.23" font-family="Times,serif" font-size="13.00"> avg. sojourn time=0s</text>
<text text-anchor="middle" x="708.5" y="-3923.23" font-family="Times,serif" font-size="13.00"> med. sojourn time=0s</text>
</g>
<!-- (p)DOCTYPE_RESERVATION2 -->
<g id="node2" class="node">
<title>(p)DOCTYPE_RESERVATION2</title>
<ellipse fill="none" stroke="#a13ccd" cx="371.5" cy="-3635.92" rx="140.93" ry="140.93"/>
<text text-anchor="middle" x="371.5" y="-3646.52" font-family="Times,serif" font-size="13.00">DOCTYPE_RESERVATION2</text>
<text text-anchor="middle" x="371.5" y="-3632.52" font-family="Times,serif" font-size="13.00"> p=125 r=0</text>
<text text-anchor="middle" x="371.5" y="-3618.52" font-family="Times,serif" font-size="13.00">c=125 m=0</text>
</g>
<!-- (t)Released Purchase Requisition (1) -->
<g id="node20" class="node">
<title>(t)Released Purchase Requisition (1)</title>
<polygon fill="none" stroke="black" points="882,-3220.2 239,-3220.2 239,-3132.2 882,-3132.2 882,-3220.2"/>
<text text-anchor="middle" x="560.5" y="-3187.4" font-family="Times,serif" font-size="36.00">Released Purchase Requisition (1)</text>
<text text-anchor="middle" x="560.5" y="-3147.4" font-family="Times,serif" font-size="36.00"> (125)</text>
<text text-anchor="start" x="235" y="-3223.4" font-family="Times,serif" font-size="11.00">&#45;</text>
</g>
<!-- (p)DOCTYPE_RESERVATION2&#45;&gt;(t)Released Purchase Requisition (1) -->
<g id="edge4" class="edge">
<title>(p)DOCTYPE_RESERVATION2&#45;&gt;(t)Released Purchase Requisition (1)</title>
<path fill="none" stroke="#a13ccd" d="M355.76,-3495.62C353.82,-3413.2 365.12,-3311.02 419.5,-3238.2 422.44,-3234.27 425.68,-3230.59 429.17,-3227.14"/>
<polygon fill="#a13ccd" stroke="#a13ccd" points="431.58,-3229.68 436.67,-3220.38 426.9,-3224.48 431.58,-3229.68"/>
<text text-anchor="middle" x="496.5" y="-3353.8" font-family="Times,serif" font-size="13.00"> avg. sojourn time=6D</text>
<text text-anchor="middle" x="496.5" y="-3339.8" font-family="Times,serif" font-size="13.00"> med. sojourn time=5D</text>
</g>
<!-- (p)DOCTYPE_RESERVATION3 -->
<g id="node3" class="node">
<title>(p)DOCTYPE_RESERVATION3</title>
<ellipse fill="#a13ccd" stroke="#a13ccd" cx="977.5" cy="-543.21" rx="125.91" ry="125.91"/>
<text text-anchor="middle" x="977.5" y="-539.81" font-family="Times,serif" font-size="13.00">DOCTYPE_RESERVATION3</text>
</g>
<!-- (p)DOCTYPE_RESERVATION4 -->
<g id="node4" class="node">
<title>(p)DOCTYPE_RESERVATION4</title>
<ellipse fill="none" stroke="#a13ccd" cx="337.5" cy="-1998.2" rx="140.93" ry="140.93"/>
<text text-anchor="middle" x="337.5" y="-2008.8" font-family="Times,serif" font-size="13.00">DOCTYPE_RESERVATION4</text>
<text text-anchor="middle" x="337.5" y="-1994.8" font-family="Times,serif" font-size="13.00"> p=125 r=0</text>
<text text-anchor="middle" x="337.5" y="-1980.8" font-family="Times,serif" font-size="13.00">c=125 m=0</text>
</g>
<!-- (t) Rejected Purchase Order -->
<g id="node19" class="node">
<title>(t) Rejected Purchase Order</title>
<polygon fill="none" stroke="black" points="491,-1778.49 4,-1778.49 4,-1690.49 491,-1690.49 491,-1778.49"/>
<text text-anchor="middle" x="247.5" y="-1745.69" font-family="Times,serif" font-size="36.00"> Rejected Purchase Order</text>
<text text-anchor="middle" x="247.5" y="-1705.69" font-family="Times,serif" font-size="36.00"> (27)</text>
<text text-anchor="start" x="0" y="-1781.69" font-family="Times,serif" font-size="11.00">&#45;</text>
</g>
<!-- (p)DOCTYPE_RESERVATION4&#45;&gt;(t) Rejected Purchase Order -->
<g id="edge7" class="edge">
<title>(p)DOCTYPE_RESERVATION4&#45;&gt;(t) Rejected Purchase Order</title>
<path fill="none" stroke="#a13ccd" d="M236.84,-1899.22C223.2,-1880.75 211.25,-1860.56 203.5,-1839.49 196.91,-1821.55 197.63,-1814.67 203.5,-1796.49 204.45,-1793.54 205.61,-1790.61 206.92,-1787.73"/>
<polygon fill="#a13ccd" stroke="#a13ccd" points="210.1,-1789.19 211.58,-1778.69 203.88,-1785.98 210.1,-1789.19"/>
<text text-anchor="middle" x="284.5" y="-1814.09" font-family="Times,serif" font-size="13.00"> avg. sojourn time=19D</text>
<text text-anchor="middle" x="284.5" y="-1800.09" font-family="Times,serif" font-size="13.00"> med. sojourn time=20D</text>
</g>
<!-- (t)Goods Receipt for Order -->
<g id="node22" class="node">
<title>(t)Goods Receipt for Order</title>
<polygon fill="none" stroke="black" points="818,-1279.34 355,-1279.34 355,-1191.34 818,-1191.34 818,-1279.34"/>
<text text-anchor="middle" x="586.5" y="-1246.54" font-family="Times,serif" font-size="36.00">Goods Receipt for Order</text>
<text text-anchor="middle" x="586.5" y="-1206.54" font-family="Times,serif" font-size="36.00"> (98)</text>
<text text-anchor="start" x="351" y="-1282.54" font-family="Times,serif" font-size="11.00">&#45;</text>
</g>
<!-- (p)DOCTYPE_RESERVATION4&#45;&gt;(t)Goods Receipt for Order -->
<g id="edge8" class="edge">
<title>(p)DOCTYPE_RESERVATION4&#45;&gt;(t)Goods Receipt for Order</title>
<path fill="none" stroke="#a13ccd" d="M433.95,-1895.38C450.79,-1881.24 468.91,-1867.99 487.5,-1857.49 512.86,-1843.17 532.28,-1862.2 550.5,-1839.49 584.48,-1797.13 587.04,-1428.68 586.78,-1289.38"/>
<polygon fill="#a13ccd" stroke="#a13ccd" points="590.28,-1289.36 586.76,-1279.36 583.28,-1289.37 590.28,-1289.36"/>
<text text-anchor="middle" x="661.5" y="-1647.09" font-family="Times,serif" font-size="13.00"> avg. sojourn time=20D</text>
<text text-anchor="middle" x="661.5" y="-1633.09" font-family="Times,serif" font-size="13.00"> med. sojourn time=21D</text>
</g>
<!-- (p)DOCTYPE_RESERVATION5 -->
<g id="node5" class="node">
<title>(p)DOCTYPE_RESERVATION5</title>
<ellipse fill="none" stroke="#a13ccd" cx="726.5" cy="-1013.63" rx="140.93" ry="140.93"/>
<text text-anchor="middle" x="726.5" y="-1024.23" font-family="Times,serif" font-size="13.00">DOCTYPE_RESERVATION5</text>
<text text-anchor="middle" x="726.5" y="-1010.23" font-family="Times,serif" font-size="13.00"> p=98 r=0</text>
<text text-anchor="middle" x="726.5" y="-996.23" font-family="Times,serif" font-size="13.00">c=98 m=0</text>
</g>
<!-- (t)Goods Issue for Production Order -->
<g id="node21" class="node">
<title>(t)Goods Issue for Production Order</title>
<polygon fill="none" stroke="black" points="1305.5,-793.91 673.5,-793.91 673.5,-705.91 1305.5,-705.91 1305.5,-793.91"/>
<text text-anchor="middle" x="989.5" y="-761.11" font-family="Times,serif" font-size="36.00">Goods Issue for Production Order</text>
<text text-anchor="middle" x="989.5" y="-721.11" font-family="Times,serif" font-size="36.00"> (50)</text>
<text text-anchor="start" x="669.5" y="-797.11" font-family="Times,serif" font-size="11.00">&#45;</text>
</g>
<!-- (p)DOCTYPE_RESERVATION5&#45;&gt;(t)Goods Issue for Production Order -->
<g id="edge10" class="edge">
<title>(p)DOCTYPE_RESERVATION5&#45;&gt;(t)Goods Issue for Production Order</title>
<path fill="none" stroke="#a13ccd" d="M824.52,-912.27C862.9,-874.07 905.16,-832.02 937.11,-800.23"/>
<path fill="none" stroke="white" d="M825.93,-913.68C864.31,-875.49 906.57,-833.44 938.52,-801.64"/>
<path fill="none" stroke="#a13ccd" d="M827.34,-915.1C865.72,-876.91 907.98,-834.86 939.93,-803.06"/>
<polygon fill="#a13ccd" stroke="#a13ccd" points="941.38,-803.74 946,-794.2 936.44,-798.77 941.38,-803.74"/>
<text text-anchor="middle" x="1006.5" y="-829.51" font-family="Times,serif" font-size="13.00"> avg. sojourn time=16D</text>
<text text-anchor="middle" x="1006.5" y="-815.51" font-family="Times,serif" font-size="13.00"> med. sojourn time=12D</text>
</g>
<!-- (p)DOCTYPE_PRODORD1 -->
<g id="node6" class="node">
<title>(p)DOCTYPE_PRODORD1</title>
<ellipse fill="#05b202" stroke="#05b202" cx="805.5" cy="-4106.34" rx="106.51" ry="106.51"/>
<text text-anchor="middle" x="805.5" y="-4102.94" font-family="Times,serif" font-size="13.00">DOCTYPE_PRODORD1</text>
</g>
<!-- (p)DOCTYPE_PRODORD1&#45;&gt;(t)Created Production Order -->
<g id="edge11" class="edge">
<title>(p)DOCTYPE_PRODORD1&#45;&gt;(t)Created Production Order</title>
<path fill="none" stroke="#05b202" d="M809.43,-3999.38C806.21,-3971.67 798.73,-3943.03 783.5,-3919.63 781.14,-3916.01 778.48,-3912.57 775.59,-3909.31"/>
<polygon fill="#05b202" stroke="#05b202" points="777.96,-3906.72 768.46,-3902.03 772.96,-3911.62 777.96,-3906.72"/>
<text text-anchor="middle" x="876.5" y="-3937.23" font-family="Times,serif" font-size="13.00"> avg. sojourn time=0s</text>
<text text-anchor="middle" x="876.5" y="-3923.23" font-family="Times,serif" font-size="13.00"> med. sojourn time=0s</text>
</g>
<!-- (p)DOCTYPE_PRODORD2 -->
<g id="node7" class="node">
<title>(p)DOCTYPE_PRODORD2</title>
<ellipse fill="none" stroke="#05b202" cx="1083.5" cy="-3357.7" rx="119.5" ry="119.5"/>
<text text-anchor="middle" x="1083.5" y="-3368.3" font-family="Times,serif" font-size="13.00">DOCTYPE_PRODORD2</text>
<text text-anchor="middle" x="1083.5" y="-3354.3" font-family="Times,serif" font-size="13.00"> p=50 r=0</text>
<text text-anchor="middle" x="1083.5" y="-3340.3" font-family="Times,serif" font-size="13.00">c=50 m=0</text>
</g>
<!-- (p)DOCTYPE_PRODORD2&#45;&gt;(t)Goods Issue for Production Order -->
<g id="edge13" class="edge">
<title>(p)DOCTYPE_PRODORD2&#45;&gt;(t)Goods Issue for Production Order</title>
<path fill="none" stroke="#05b202" d="M1136.65,-3250.4C1152.87,-3208.95 1166.5,-3160.37 1166.5,-3114.2 1166.5,-3114.2 1166.5,-3114.2 1166.5,-1012.63 1166.5,-917.4 1152.46,-885.07 1091.5,-811.91 1088.2,-807.95 1084.57,-804.18 1080.71,-800.61"/>
<polygon fill="#05b202" stroke="#05b202" points="1082.88,-797.86 1073.03,-793.97 1078.31,-803.16 1082.88,-797.86"/>
<text text-anchor="middle" x="1250" y="-2174.51" font-family="Times,serif" font-size="13.00"> avg. sojourn time=1MO</text>
<text text-anchor="middle" x="1250" y="-2160.51" font-family="Times,serif" font-size="13.00"> med. sojourn time=1MO</text>
</g>
<!-- (p)DOCTYPE_PRODORD3 -->
<g id="node8" class="node">
<title>(p)DOCTYPE_PRODORD3</title>
<ellipse fill="#05b202" stroke="#05b202" cx="1240.5" cy="-106.75" rx="106.51" ry="106.51"/>
<text text-anchor="middle" x="1240.5" y="-103.35" font-family="Times,serif" font-size="13.00">DOCTYPE_PRODORD3</text>
</g>
<!-- (p)DOCTYPE_PRODORD4 -->
<g id="node9" class="node">
<title>(p)DOCTYPE_PRODORD4</title>
<ellipse fill="none" stroke="#05b202" cx="1240.5" cy="-543.21" rx="119.5" ry="119.5"/>
<text text-anchor="middle" x="1240.5" y="-553.81" font-family="Times,serif" font-size="13.00">DOCTYPE_PRODORD4</text>
<text text-anchor="middle" x="1240.5" y="-539.81" font-family="Times,serif" font-size="13.00"> p=50 r=0</text>
<text text-anchor="middle" x="1240.5" y="-525.81" font-family="Times,serif" font-size="13.00">c=50 m=0</text>
</g>
<!-- (t)Confirmed Production Order -->
<g id="node23" class="node">
<title>(t)Confirmed Production Order</title>
<polygon fill="none" stroke="black" points="1510.5,-338.51 970.5,-338.51 970.5,-250.51 1510.5,-250.51 1510.5,-338.51"/>
<text text-anchor="middle" x="1240.5" y="-305.71" font-family="Times,serif" font-size="36.00">Confirmed Production Order</text>
<text text-anchor="middle" x="1240.5" y="-265.71" font-family="Times,serif" font-size="36.00"> (50)</text>
<text text-anchor="start" x="966.5" y="-341.71" font-family="Times,serif" font-size="11.00">&#45;</text>
</g>
<!-- (p)DOCTYPE_PRODORD4&#45;&gt;(t)Confirmed Production Order -->
<g id="edge16" class="edge">
<title>(p)DOCTYPE_PRODORD4&#45;&gt;(t)Confirmed Production Order</title>
<path fill="none" stroke="#05b202" d="M1240.5,-423.56C1240.5,-397.34 1240.5,-370.84 1240.5,-348.81"/>
<polygon fill="#05b202" stroke="#05b202" points="1244,-348.69 1240.5,-338.69 1237,-348.69 1244,-348.69"/>
<text text-anchor="middle" x="1320.5" y="-374.11" font-family="Times,serif" font-size="13.00"> avg. sojourn time=1D</text>
<text text-anchor="middle" x="1320.5" y="-360.11" font-family="Times,serif" font-size="13.00"> med. sojourn time=22h</text>
</g>
<!-- (p)DOCTYPE_PURCHREQ1 -->
<g id="node10" class="node">
<title>(p)DOCTYPE_PURCHREQ1</title>
<ellipse fill="#ba0d39" stroke="#ba0d39" cx="643.5" cy="-3635.92" rx="113.14" ry="113.14"/>
<text text-anchor="middle" x="643.5" y="-3632.52" font-family="Times,serif" font-size="13.00">DOCTYPE_PURCHREQ1</text>
</g>
<!-- (p)DOCTYPE_PURCHREQ1&#45;&gt;(t)Released Purchase Requisition (1) -->
<g id="edge17" class="edge">
<title>(p)DOCTYPE_PURCHREQ1&#45;&gt;(t)Released Purchase Requisition (1)</title>
<path fill="none" stroke="#ba0d39" d="M628.23,-3523.58C616.49,-3443.72 598.71,-3333.8 577.5,-3238.2 576.92,-3235.58 576.29,-3232.9 575.63,-3230.19"/>
<polygon fill="#ba0d39" stroke="#ba0d39" points="579,-3229.21 573.15,-3220.38 572.21,-3230.93 579,-3229.21"/>
<text text-anchor="middle" x="696.5" y="-3353.8" font-family="Times,serif" font-size="13.00"> avg. sojourn time=0s</text>
<text text-anchor="middle" x="696.5" y="-3339.8" font-family="Times,serif" font-size="13.00"> med. sojourn time=0s</text>
</g>
<!-- (p)DOCTYPE_PURCHREQ2 -->
<g id="node11" class="node">
<title>(p)DOCTYPE_PURCHREQ2</title>
<ellipse fill="none" stroke="#ba0d39" cx="655.5" cy="-2968.63" rx="126.64" ry="126.64"/>
<text text-anchor="middle" x="655.5" y="-2979.23" font-family="Times,serif" font-size="13.00">DOCTYPE_PURCHREQ2</text>
<text text-anchor="middle" x="655.5" y="-2965.23" font-family="Times,serif" font-size="13.00"> p=125 r=0</text>
<text text-anchor="middle" x="655.5" y="-2951.23" font-family="Times,serif" font-size="13.00">c=125 m=0</text>
</g>
<!-- (t)Released Purchase Requisition (2) -->
<g id="node24" class="node">
<title>(t)Released Purchase Requisition (2)</title>
<polygon fill="none" stroke="black" points="1009,-2763.06 366,-2763.06 366,-2675.06 1009,-2675.06 1009,-2763.06"/>
<text text-anchor="middle" x="687.5" y="-2730.26" font-family="Times,serif" font-size="36.00">Released Purchase Requisition (2)</text>
<text text-anchor="middle" x="687.5" y="-2690.26" font-family="Times,serif" font-size="36.00"> (125)</text>
<text text-anchor="start" x="362" y="-2766.26" font-family="Times,serif" font-size="11.00">&#45;</text>
</g>
<!-- (p)DOCTYPE_PURCHREQ2&#45;&gt;(t)Released Purchase Requisition (2) -->
<g id="edge19" class="edge">
<title>(p)DOCTYPE_PURCHREQ2&#45;&gt;(t)Released Purchase Requisition (2)</title>
<path fill="none" stroke="#ba0d39" d="M671.64,-2842.76C674.8,-2818.29 677.96,-2793.88 680.61,-2773.35"/>
<polygon fill="#ba0d39" stroke="#ba0d39" points="684.1,-2773.66 681.91,-2763.29 677.16,-2772.76 684.1,-2773.66"/>
<text text-anchor="middle" x="755.5" y="-2798.66" font-family="Times,serif" font-size="13.00"> avg. sojourn time=2D</text>
<text text-anchor="middle" x="755.5" y="-2784.66" font-family="Times,serif" font-size="13.00"> med. sojourn time=1D</text>
</g>
<!-- (p)DOCTYPE_PURCHREQ3 -->
<g id="node12" class="node">
<title>(p)DOCTYPE_PURCHREQ3</title>
<ellipse fill="#ba0d39" stroke="#ba0d39" cx="609.5" cy="-1998.2" rx="113.14" ry="113.14"/>
<text text-anchor="middle" x="609.5" y="-1994.8" font-family="Times,serif" font-size="13.00">DOCTYPE_PURCHREQ3</text>
</g>
<!-- (p)DOCTYPE_PURCHREQ4 -->
<g id="node13" class="node">
<title>(p)DOCTYPE_PURCHREQ4</title>
<ellipse fill="none" stroke="#ba0d39" cx="687.5" cy="-2511.49" rx="126.64" ry="126.64"/>
<text text-anchor="middle" x="687.5" y="-2522.09" font-family="Times,serif" font-size="13.00">DOCTYPE_PURCHREQ4</text>
<text text-anchor="middle" x="687.5" y="-2508.09" font-family="Times,serif" font-size="13.00"> p=125 r=0</text>
<text text-anchor="middle" x="687.5" y="-2494.09" font-family="Times,serif" font-size="13.00">c=125 m=0</text>
</g>
<!-- (t)Created Purchase Order -->
<g id="node25" class="node">
<title>(t)Created Purchase Order</title>
<polygon fill="none" stroke="black" points="1029,-2305.91 566,-2305.91 566,-2217.91 1029,-2217.91 1029,-2305.91"/>
<text text-anchor="middle" x="797.5" y="-2273.11" font-family="Times,serif" font-size="36.00">Created Purchase Order</text>
<text text-anchor="middle" x="797.5" y="-2233.11" font-family="Times,serif" font-size="36.00"> (125)</text>
<text text-anchor="start" x="562" y="-2309.11" font-family="Times,serif" font-size="11.00">&#45;</text>
</g>
<!-- (p)DOCTYPE_PURCHREQ4&#45;&gt;(t)Created Purchase Order -->
<g id="edge22" class="edge">
<title>(p)DOCTYPE_PURCHREQ4&#45;&gt;(t)Created Purchase Order</title>
<path fill="none" stroke="#ba0d39" d="M737.95,-2394.91C748.31,-2371.38 759.21,-2346.83 769.5,-2323.91 770.75,-2321.13 772.04,-2318.29 773.34,-2315.41"/>
<polygon fill="#ba0d39" stroke="#ba0d39" points="776.57,-2316.75 777.53,-2306.2 770.2,-2313.85 776.57,-2316.75"/>
<text text-anchor="middle" x="846.5" y="-2341.51" font-family="Times,serif" font-size="13.00"> avg. sojourn time=1D</text>
<text text-anchor="middle" x="846.5" y="-2327.51" font-family="Times,serif" font-size="13.00"> med. sojourn time=1D</text>
</g>
<!-- (p)DOCTYPE_PURCHORD1 -->
<g id="node14" class="node">
<title>(p)DOCTYPE_PURCHORD1</title>
<ellipse fill="#39f6c0" stroke="#39f6c0" cx="945.5" cy="-2511.49" rx="113.14" ry="113.14"/>
<text text-anchor="middle" x="945.5" y="-2508.09" font-family="Times,serif" font-size="13.00">DOCTYPE_PURCHORD1</text>
</g>
<!-- (p)DOCTYPE_PURCHORD1&#45;&gt;(t)Created Purchase Order -->
<g id="edge23" class="edge">
<title>(p)DOCTYPE_PURCHORD1&#45;&gt;(t)Created Purchase Order</title>
<path fill="none" stroke="#39f6c0" d="M950.19,-2398.3C946.65,-2372.02 938.82,-2345.44 923.5,-2323.91 920.77,-2320.08 917.73,-2316.48 914.45,-2313.09"/>
<polygon fill="#39f6c0" stroke="#39f6c0" points="916.59,-2310.3 906.89,-2306.02 911.8,-2315.41 916.59,-2310.3"/>
<text text-anchor="middle" x="1017.5" y="-2341.51" font-family="Times,serif" font-size="13.00"> avg. sojourn time=0s</text>
<text text-anchor="middle" x="1017.5" y="-2327.51" font-family="Times,serif" font-size="13.00"> med. sojourn time=0s</text>
</g>
<!-- (p)DOCTYPE_PURCHORD2 -->
<g id="node15" class="node">
<title>(p)DOCTYPE_PURCHORD2</title>
<ellipse fill="none" stroke="#39f6c0" cx="867.5" cy="-1998.2" rx="126.64" ry="126.64"/>
<text text-anchor="middle" x="867.5" y="-2008.8" font-family="Times,serif" font-size="13.00">DOCTYPE_PURCHORD2</text>
<text text-anchor="middle" x="867.5" y="-1994.8" font-family="Times,serif" font-size="13.00"> p=125 r=0</text>
<text text-anchor="middle" x="867.5" y="-1980.8" font-family="Times,serif" font-size="13.00">c=125 m=0</text>
</g>
<!-- (p)DOCTYPE_PURCHORD2&#45;&gt;(t) Rejected Purchase Order -->
<g id="edge25" class="edge">
<title>(p)DOCTYPE_PURCHORD2&#45;&gt;(t) Rejected Purchase Order</title>
<path fill="none" stroke="#39f6c0" d="M787.08,-1900.06C770.11,-1884 751.3,-1868.9 731.5,-1857.49 661.57,-1817.18 578.46,-1790.05 501.01,-1771.85"/>
<polygon fill="#39f6c0" stroke="#39f6c0" points="501.64,-1768.4 491.11,-1769.56 500.06,-1775.22 501.64,-1768.4"/>
<text text-anchor="middle" x="776.5" y="-1814.09" font-family="Times,serif" font-size="13.00"> avg. sojourn time=15D</text>
<text text-anchor="middle" x="776.5" y="-1800.09" font-family="Times,serif" font-size="13.00"> med. sojourn time=12D</text>
</g>
<!-- (t)Released Purchase Order (1) -->
<g id="node26" class="node">
<title>(t)Released Purchase Order (1)</title>
<polygon fill="none" stroke="black" points="1138,-1778.49 593,-1778.49 593,-1690.49 1138,-1690.49 1138,-1778.49"/>
<text text-anchor="middle" x="865.5" y="-1745.69" font-family="Times,serif" font-size="36.00">Released Purchase Order (1)</text>
<text text-anchor="middle" x="865.5" y="-1705.69" font-family="Times,serif" font-size="36.00"> (98)</text>
<text text-anchor="start" x="589" y="-1781.69" font-family="Times,serif" font-size="11.00">&#45;</text>
</g>
<!-- (p)DOCTYPE_PURCHORD2&#45;&gt;(t)Released Purchase Order (1) -->
<g id="edge26" class="edge">
<title>(p)DOCTYPE_PURCHORD2&#45;&gt;(t)Released Purchase Order (1)</title>
<path fill="none" stroke="#39f6c0" d="M866.54,-1871.33C866.32,-1842.24 866.09,-1812.82 865.91,-1788.84"/>
<polygon fill="#39f6c0" stroke="#39f6c0" points="869.41,-1788.54 865.83,-1778.56 862.41,-1788.59 869.41,-1788.54"/>
<text text-anchor="middle" x="946.5" y="-1814.09" font-family="Times,serif" font-size="13.00"> avg. sojourn time=13D</text>
<text text-anchor="middle" x="946.5" y="-1800.09" font-family="Times,serif" font-size="13.00"> med. sojourn time=12D</text>
</g>
<!-- (p)DOCTYPE_PURCHORD3 -->
<g id="node16" class="node">
<title>(p)DOCTYPE_PURCHORD3</title>
<ellipse fill="#39f6c0" stroke="#39f6c0" cx="432.5" cy="-1013.63" rx="113.14" ry="113.14"/>
<text text-anchor="middle" x="432.5" y="-1010.23" font-family="Times,serif" font-size="13.00">DOCTYPE_PURCHORD3</text>
</g>
<!-- (p)DOCTYPE_PURCHORD4 -->
<g id="node17" class="node">
<title>(p)DOCTYPE_PURCHORD4</title>
<ellipse fill="none" stroke="#39f6c0" cx="756.5" cy="-1484.91" rx="126.64" ry="126.64"/>
<text text-anchor="middle" x="756.5" y="-1495.51" font-family="Times,serif" font-size="13.00">DOCTYPE_PURCHORD4</text>
<text text-anchor="middle" x="756.5" y="-1481.51" font-family="Times,serif" font-size="13.00"> p=98 r=0</text>
<text text-anchor="middle" x="756.5" y="-1467.51" font-family="Times,serif" font-size="13.00">c=98 m=0</text>
</g>
<!-- (p)DOCTYPE_PURCHORD4&#45;&gt;(t)Goods Receipt for Order -->
<g id="edge30" class="edge">
<title>(p)DOCTYPE_PURCHORD4&#45;&gt;(t)Goods Receipt for Order</title>
<path fill="none" stroke="#39f6c0" d="M685.14,-1380C663.33,-1348.24 640.29,-1314.68 621.97,-1288"/>
<polygon fill="#39f6c0" stroke="#39f6c0" points="624.74,-1285.85 616.19,-1279.59 618.97,-1289.81 624.74,-1285.85"/>
<text text-anchor="middle" x="732.5" y="-1314.94" font-family="Times,serif" font-size="13.00"> avg. sojourn time=3D</text>
<text text-anchor="middle" x="732.5" y="-1300.94" font-family="Times,serif" font-size="13.00"> med. sojourn time=3D</text>
</g>
<!-- (t)Created Production Order&#45;&gt;(p)DOCTYPE_RESERVATION2 -->
<g id="edge2" class="edge">
<title>(t)Created Production Order&#45;&gt;(p)DOCTYPE_RESERVATION2</title>
<path fill="none" stroke="#a13ccd" d="M582.89,-3815.27C561.63,-3804.29 539.78,-3791.79 520.36,-3778.28 505.72,-3768.08 491.16,-3756.62 477.09,-3744.66"/>
<path fill="none" stroke="white" d="M583.81,-3813.5C562.62,-3802.55 540.78,-3790.05 521.5,-3776.63 506.96,-3766.51 492.4,-3755.05 478.38,-3743.14"/>
<path fill="none" stroke="#a13ccd" d="M584.73,-3811.72C563.61,-3800.82 541.77,-3788.31 522.64,-3774.99 508.2,-3764.94 493.64,-3753.47 479.68,-3741.61"/>
<polygon fill="#a13ccd" stroke="#a13ccd" points="480.52,-3740.36 470.65,-3736.48 475.95,-3745.66 480.52,-3740.36"/>
</g>
<!-- (t)Created Production Order&#45;&gt;(p)DOCTYPE_PRODORD2 -->
<g id="edge12" class="edge">
<title>(t)Created Production Order&#45;&gt;(p)DOCTYPE_PRODORD2</title>
<path fill="none" stroke="#05b202" d="M729.07,-3813.53C741.35,-3801.94 754.24,-3789.13 765.5,-3776.63 856.07,-3676.05 948.54,-3551.57 1010.25,-3464.74"/>
<polygon fill="#05b202" stroke="#05b202" points="1013.19,-3466.64 1016.12,-3456.46 1007.48,-3462.59 1013.19,-3466.64"/>
</g>
<!-- (t) Rejected Purchase Order&#45;&gt;(p)DOCTYPE_RESERVATION2 -->
<g id="edge3" class="edge">
<title>(t) Rejected Purchase Order&#45;&gt;(p)DOCTYPE_RESERVATION2</title>
<path fill="none" stroke="#a13ccd" d="M205.69,-1778.78C201.75,-1784.43 198.22,-1790.39 195.5,-1796.49 158.81,-1878.68 168.5,-1907.19 168.5,-1997.2 168.5,-3177.2 168.5,-3177.2 168.5,-3177.2 168.5,-3298.56 228.87,-3423.67 283.76,-3512.36"/>
<polygon fill="#a13ccd" stroke="#a13ccd" points="280.96,-3514.47 289.22,-3521.09 286.89,-3510.76 280.96,-3514.47"/>
</g>
<!-- (t) Rejected Purchase Order&#45;&gt;(p)DOCTYPE_PURCHORD3 -->
<g id="edge27" class="edge">
<title>(t) Rejected Purchase Order&#45;&gt;(p)DOCTYPE_PURCHORD3</title>
<path fill="none" stroke="#39f6c0" d="M251.19,-1690.31C260.03,-1597.16 286.26,-1371.22 345.5,-1191.34 353.07,-1168.36 363.1,-1144.59 373.65,-1122.21"/>
<polygon fill="#39f6c0" stroke="#39f6c0" points="376.88,-1123.58 378.04,-1113.05 370.56,-1120.55 376.88,-1123.58"/>
</g>
<!-- (t)Released Purchase Requisition (1)&#45;&gt;(p)DOCTYPE_RESERVATION4 -->
<g id="edge6" class="edge">
<title>(t)Released Purchase Requisition (1)&#45;&gt;(p)DOCTYPE_RESERVATION4</title>
<path fill="none" stroke="#a13ccd" d="M464.31,-3132.05C403.96,-3097.72 337.5,-3043.22 337.5,-2969.63 337.5,-2969.63 337.5,-2969.63 337.5,-2260.91 337.5,-2224.78 337.5,-2185.84 337.5,-2149.33"/>
<polygon fill="#a13ccd" stroke="#a13ccd" points="341,-2149.1 337.5,-2139.1 334,-2149.1 341,-2149.1"/>
</g>
<!-- (t)Released Purchase Requisition (1)&#45;&gt;(p)DOCTYPE_PURCHREQ2 -->
<g id="edge18" class="edge">
<title>(t)Released Purchase Requisition (1)&#45;&gt;(p)DOCTYPE_PURCHREQ2</title>
<path fill="none" stroke="#ba0d39" d="M580.42,-3132.11C585.86,-3120.33 592.05,-3106.94 598.47,-3093.03"/>
<polygon fill="#ba0d39" stroke="#ba0d39" points="601.71,-3094.37 602.73,-3083.83 595.35,-3091.44 601.71,-3094.37"/>
</g>
<!-- (t)Goods Issue for Production Order&#45;&gt;(p)DOCTYPE_RESERVATION3 -->
<g id="edge5" class="edge">
<title>(t)Goods Issue for Production Order&#45;&gt;(p)DOCTYPE_RESERVATION3</title>
<path fill="none" stroke="#a13ccd" d="M984.96,-705.62C984.47,-697.34 983.94,-688.29 983.39,-678.83"/>
<path fill="none" stroke="white" d="M986.96,-705.5C986.47,-697.23 985.94,-688.17 985.38,-678.71"/>
<path fill="none" stroke="#a13ccd" d="M988.95,-705.38C988.47,-697.11 987.94,-688.05 987.38,-678.59"/>
<polygon fill="#a13ccd" stroke="#a13ccd" points="988.88,-678.49 984.8,-668.72 981.89,-678.9 988.88,-678.49"/>
</g>
<!-- (t)Goods Issue for Production Order&#45;&gt;(p)DOCTYPE_PRODORD4 -->
<g id="edge15" class="edge">
<title>(t)Goods Issue for Production Order&#45;&gt;(p)DOCTYPE_PRODORD4</title>
<path fill="none" stroke="#05b202" d="M1061.08,-705.73C1078.38,-694.38 1096.48,-681.72 1112.5,-668.91 1125.04,-658.89 1137.74,-647.81 1150.03,-636.53"/>
<polygon fill="#05b202" stroke="#05b202" points="1152.67,-638.86 1157.62,-629.49 1147.91,-633.73 1152.67,-638.86"/>
</g>
<!-- (t)Goods Receipt for Order&#45;&gt;(p)DOCTYPE_RESERVATION5 -->
<g id="edge9" class="edge">
<title>(t)Goods Receipt for Order&#45;&gt;(p)DOCTYPE_RESERVATION5</title>
<path fill="none" stroke="#a13ccd" d="M613.99,-1191.2C623.3,-1176.59 634.22,-1159.45 645.53,-1141.7"/>
<polygon fill="#a13ccd" stroke="#a13ccd" points="648.69,-1143.26 651.11,-1132.94 642.79,-1139.49 648.69,-1143.26"/>
</g>
<!-- (t)Goods Receipt for Order&#45;&gt;(p)DOCTYPE_PURCHORD3 -->
<g id="edge28" class="edge">
<title>(t)Goods Receipt for Order&#45;&gt;(p)DOCTYPE_PURCHORD3</title>
<path fill="none" stroke="#39f6c0" d="M556.26,-1191.2C540.94,-1169.34 521.64,-1141.81 502.87,-1115.03"/>
<polygon fill="#39f6c0" stroke="#39f6c0" points="505.68,-1112.93 497.07,-1106.75 499.95,-1116.95 505.68,-1112.93"/>
</g>
<!-- (t)Confirmed Production Order&#45;&gt;(p)DOCTYPE_PRODORD3 -->
<g id="edge14" class="edge">
<title>(t)Confirmed Production Order&#45;&gt;(p)DOCTYPE_PRODORD3</title>
<path fill="none" stroke="#05b202" d="M1240.5,-250.42C1240.5,-242.16 1240.5,-233.15 1240.5,-223.8"/>
<polygon fill="#05b202" stroke="#05b202" points="1244,-223.55 1240.5,-213.55 1237,-223.55 1244,-223.55"/>
</g>
<!-- (t)Released Purchase Requisition (2)&#45;&gt;(p)DOCTYPE_PURCHREQ4 -->
<g id="edge21" class="edge">
<title>(t)Released Purchase Requisition (2)&#45;&gt;(p)DOCTYPE_PURCHREQ4</title>
<path fill="none" stroke="#ba0d39" d="M687.5,-2674.96C687.5,-2666.84 687.5,-2657.95 687.5,-2648.65"/>
<polygon fill="#ba0d39" stroke="#ba0d39" points="691,-2648.42 687.5,-2638.42 684,-2648.42 691,-2648.42"/>
</g>
<!-- (t)Created Purchase Order&#45;&gt;(p)DOCTYPE_PURCHREQ3 -->
<g id="edge20" class="edge">
<title>(t)Created Purchase Order&#45;&gt;(p)DOCTYPE_PURCHREQ3</title>
<path fill="none" stroke="#ba0d39" d="M766.46,-2217.7C743.23,-2185.37 710.53,-2139.84 680.98,-2098.7"/>
<polygon fill="#ba0d39" stroke="#ba0d39" points="683.79,-2096.62 675.11,-2090.54 678.1,-2100.7 683.79,-2096.62"/>
</g>
<!-- (t)Created Purchase Order&#45;&gt;(p)DOCTYPE_PURCHORD2 -->
<g id="edge24" class="edge">
<title>(t)Created Purchase Order&#45;&gt;(p)DOCTYPE_PURCHORD2</title>
<path fill="none" stroke="#39f6c0" d="M809.06,-2217.7C815.52,-2193.55 823.94,-2162.04 832.38,-2130.5"/>
<polygon fill="#39f6c0" stroke="#39f6c0" points="835.8,-2131.28 835,-2120.72 829.03,-2129.47 835.8,-2131.28"/>
</g>
<!-- (t)Released Purchase Order (1)&#45;&gt;(p)DOCTYPE_PURCHORD4 -->
<g id="edge29" class="edge">
<title>(t)Released Purchase Order (1)&#45;&gt;(p)DOCTYPE_PURCHORD4</title>
<path fill="none" stroke="#39f6c0" d="M846.51,-1690.36C836.63,-1667.92 824,-1639.22 811.34,-1610.46"/>
<polygon fill="#39f6c0" stroke="#39f6c0" points="814.46,-1608.87 807.23,-1601.13 808.05,-1611.7 814.46,-1608.87"/>
</g>
</g>
</svg>
