<?xml version="1.0" encoding="UTF-8" standalone="no"?>
<!DOCTYPE svg PUBLIC "-//W3C//DTD SVG 1.1//EN"
 "http://www.w3.org/Graphics/SVG/1.1/DTD/svg11.dtd">
<!-- Generated by graphviz version 2.50.0 (0)
 -->
<!-- Title: ocdfg Pages: 1 -->
<svg width="3809pt" height="322pt"
 viewBox="0.00 0.00 3808.56 322.00" xmlns="http://www.w3.org/2000/svg" xmlns:xlink="http://www.w3.org/1999/xlink">
<g id="graph0" class="graph" transform="scale(1 1) rotate(0) translate(4 318)">
<title>ocdfg</title>
<!-- 7fa6bead&#45;cd3e&#45;48c7&#45;8561&#45;11fc8e29db5e -->
<g id="node1" class="node">
<title>7fa6bead&#45;cd3e&#45;48c7&#45;8561&#45;11fc8e29db5e</title>
<polygon fill="#e7e7ff" stroke="black" points="655.42,-64 452.42,-64 452.42,-26 655.42,-26 655.42,-64"/>
<text text-anchor="middle" x="553.92" y="-48.8" font-family="Times,serif" font-size="14.00">Created Production Order</text>
<text text-anchor="middle" x="553.92" y="-33.8" font-family="Times,serif" font-size="14.00">E=50</text>
</g>
<!-- 271d564b&#45;394d&#45;4e41&#45;b315&#45;8f8fb17ae8a8 -->
<g id="node2" class="node">
<title>271d564b&#45;394d&#45;4e41&#45;b315&#45;8f8fb17ae8a8</title>
<polygon fill="#9b9bff" stroke="black" points="1107.56,-142 846.56,-142 846.56,-104 1107.56,-104 1107.56,-142"/>
<text text-anchor="middle" x="977.06" y="-126.8" font-family="Times,serif" font-size="14.00">Released Purchase Requisition (1)</text>
<text text-anchor="middle" x="977.06" y="-111.8" font-family="Times,serif" font-size="14.00">E=125</text>
</g>
<!-- 7fa6bead&#45;cd3e&#45;48c7&#45;8561&#45;11fc8e29db5e&#45;&gt;271d564b&#45;394d&#45;4e41&#45;b315&#45;8f8fb17ae8a8 -->
<g id="edge1" class="edge">
<title>7fa6bead&#45;cd3e&#45;48c7&#45;8561&#45;11fc8e29db5e&#45;&gt;271d564b&#45;394d&#45;4e41&#45;b315&#45;8f8fb17ae8a8</title>
<path fill="none" stroke="#e4cbd4" stroke-width="2.6" d="M655.52,-63.63C718.13,-75.23 798.75,-90.16 863.48,-102.15"/>
<polygon fill="#e4cbd4" stroke="#e4cbd4" stroke-width="2.6" points="862.85,-105.59 873.32,-103.97 864.12,-98.71 862.85,-105.59"/>
<text text-anchor="middle" x="759.06" y="-97.6" font-family="Times,serif" font-size="8.00" fill="#e4cbd4">DOCTYPE_RESERVATION EC=98</text>
</g>
<!-- 93a187d4&#45;045b&#45;4e06&#45;8c34&#45;cf840f7aa884 -->
<g id="node7" class="node">
<title>93a187d4&#45;045b&#45;4e06&#45;8c34&#45;cf840f7aa884</title>
<polygon fill="#e7e7ff" stroke="black" points="3078.56,-74 2821.56,-74 2821.56,-36 3078.56,-36 3078.56,-74"/>
<text text-anchor="middle" x="2950.06" y="-58.8" font-family="Times,serif" font-size="14.00">Goods Issue for Production Order</text>
<text text-anchor="middle" x="2950.06" y="-43.8" font-family="Times,serif" font-size="14.00">E=50</text>
</g>
<!-- 7fa6bead&#45;cd3e&#45;48c7&#45;8561&#45;11fc8e29db5e&#45;&gt;93a187d4&#45;045b&#45;4e06&#45;8c34&#45;cf840f7aa884 -->
<g id="edge11" class="edge">
<title>7fa6bead&#45;cd3e&#45;48c7&#45;8561&#45;11fc8e29db5e&#45;&gt;93a187d4&#45;045b&#45;4e06&#45;8c34&#45;cf840f7aa884</title>
<path fill="none" stroke="#f491f3" d="M655.7,-38.27C740.98,-33.16 866.47,-27 976.06,-27 976.06,-27 976.06,-27 2552.06,-27 2638.35,-27 2734.93,-33.66 2811.23,-40.49"/>
<polygon fill="#f491f3" stroke="#f491f3" points="2811.11,-43.99 2821.38,-41.41 2811.74,-37.02 2811.11,-43.99"/>
<text text-anchor="middle" x="1807.06" y="-29.6" font-family="Times,serif" font-size="8.00" fill="#f491f3">DOCTYPE_PRODORD EC=50</text>
</g>
<!-- 70a39a1f&#45;b27f&#45;468d&#45;9391&#45;d9a94d8e3b2a -->
<g id="node3" class="node">
<title>70a39a1f&#45;b27f&#45;468d&#45;9391&#45;d9a94d8e3b2a</title>
<polygon fill="#9b9bff" stroke="black" points="1536.56,-142 1275.56,-142 1275.56,-104 1536.56,-104 1536.56,-142"/>
<text text-anchor="middle" x="1406.06" y="-126.8" font-family="Times,serif" font-size="14.00">Released Purchase Requisition (2)</text>
<text text-anchor="middle" x="1406.06" y="-111.8" font-family="Times,serif" font-size="14.00">E=125</text>
</g>
<!-- 271d564b&#45;394d&#45;4e41&#45;b315&#45;8f8fb17ae8a8&#45;&gt;70a39a1f&#45;b27f&#45;468d&#45;9391&#45;d9a94d8e3b2a -->
<g id="edge6" class="edge">
<title>271d564b&#45;394d&#45;4e41&#45;b315&#45;8f8fb17ae8a8&#45;&gt;70a39a1f&#45;b27f&#45;468d&#45;9391&#45;d9a94d8e3b2a</title>
<path fill="none" stroke="#17069d" d="M1107.62,-123C1157.43,-123 1214.49,-123 1265.23,-123"/>
<polygon fill="#17069d" stroke="#17069d" points="1265.29,-126.5 1275.29,-123 1265.29,-119.5 1265.29,-126.5"/>
<text text-anchor="middle" x="1191.56" y="-125.6" font-family="Times,serif" font-size="8.00" fill="#17069d">DOCTYPE_PURCHREQ EC=125</text>
</g>
<!-- 166075cd&#45;62eb&#45;40dd&#45;a4ab&#45;4ed9e9140335 -->
<g id="node6" class="node">
<title>166075cd&#45;62eb&#45;40dd&#45;a4ab&#45;4ed9e9140335</title>
<polygon fill="#b6b6ff" stroke="black" points="2646.56,-110 2455.56,-110 2455.56,-72 2646.56,-72 2646.56,-110"/>
<text text-anchor="middle" x="2551.06" y="-94.8" font-family="Times,serif" font-size="14.00">Goods Receipt for Order</text>
<text text-anchor="middle" x="2551.06" y="-79.8" font-family="Times,serif" font-size="14.00">E=98</text>
</g>
<!-- 271d564b&#45;394d&#45;4e41&#45;b315&#45;8f8fb17ae8a8&#45;&gt;166075cd&#45;62eb&#45;40dd&#45;a4ab&#45;4ed9e9140335 -->
<g id="edge2" class="edge">
<title>271d564b&#45;394d&#45;4e41&#45;b315&#45;8f8fb17ae8a8&#45;&gt;166075cd&#45;62eb&#45;40dd&#45;a4ab&#45;4ed9e9140335</title>
<path fill="none" stroke="#e4cbd4" stroke-width="2.6" d="M1079.89,-103.94C1166.14,-89.45 1293.25,-72 1405.06,-72 1405.06,-72 1405.06,-72 2182.56,-72 2271.18,-72 2371.67,-77.58 2445.14,-82.69"/>
<polygon fill="#e4cbd4" stroke="#e4cbd4" stroke-width="2.6" points="2445.11,-86.2 2455.33,-83.41 2445.6,-79.21 2445.11,-86.2"/>
<text text-anchor="middle" x="1807.06" y="-74.6" font-family="Times,serif" font-size="8.00" fill="#e4cbd4">DOCTYPE_RESERVATION EC=98</text>
</g>
<!-- 33c24901&#45;8a8a&#45;4846&#45;a48e&#45;57e2411d6d8a -->
<g id="node9" class="node">
<title>33c24901&#45;8a8a&#45;4846&#45;a48e&#45;57e2411d6d8a</title>
<polygon fill="#ffffff" stroke="black" points="2281.56,-248 2081.56,-248 2081.56,-210 2281.56,-210 2281.56,-248"/>
<text text-anchor="middle" x="2181.56" y="-232.8" font-family="Times,serif" font-size="14.00"> Rejected Purchase Order</text>
<text text-anchor="middle" x="2181.56" y="-217.8" font-family="Times,serif" font-size="14.00">E=27</text>
</g>
<!-- 271d564b&#45;394d&#45;4e41&#45;b315&#45;8f8fb17ae8a8&#45;&gt;33c24901&#45;8a8a&#45;4846&#45;a48e&#45;57e2411d6d8a -->
<g id="edge4" class="edge">
<title>271d564b&#45;394d&#45;4e41&#45;b315&#45;8f8fb17ae8a8&#45;&gt;33c24901&#45;8a8a&#45;4846&#45;a48e&#45;57e2411d6d8a</title>
<path fill="none" stroke="#e4cbd4" d="M994.23,-142.23C1019.09,-170.11 1069.69,-220.53 1125.56,-240 1464.35,-358.05 1902.31,-289.02 2089.36,-250.07"/>
<polygon fill="#e4cbd4" stroke="#e4cbd4" points="2090.09,-253.5 2099.16,-248.01 2088.65,-246.65 2090.09,-253.5"/>
<text text-anchor="middle" x="1624.06" y="-307.6" font-family="Times,serif" font-size="8.00" fill="#e4cbd4">DOCTYPE_RESERVATION EC=27</text>
</g>
<!-- fc4a0737&#45;d67d&#45;4e14&#45;8b91&#45;95fc05e6aaea -->
<g id="node4" class="node">
<title>fc4a0737&#45;d67d&#45;4e14&#45;8b91&#45;95fc05e6aaea</title>
<polygon fill="#9b9bff" stroke="black" points="1902.56,-189 1711.56,-189 1711.56,-151 1902.56,-151 1902.56,-189"/>
<text text-anchor="middle" x="1807.06" y="-173.8" font-family="Times,serif" font-size="14.00">Created Purchase Order</text>
<text text-anchor="middle" x="1807.06" y="-158.8" font-family="Times,serif" font-size="14.00">E=125</text>
</g>
<!-- 70a39a1f&#45;b27f&#45;468d&#45;9391&#45;d9a94d8e3b2a&#45;&gt;fc4a0737&#45;d67d&#45;4e14&#45;8b91&#45;95fc05e6aaea -->
<g id="edge7" class="edge">
<title>70a39a1f&#45;b27f&#45;468d&#45;9391&#45;d9a94d8e3b2a&#45;&gt;fc4a0737&#45;d67d&#45;4e14&#45;8b91&#45;95fc05e6aaea</title>
<path fill="none" stroke="#17069d" d="M1536.6,-138.26C1589.93,-144.54 1650.9,-151.72 1701.34,-157.66"/>
<polygon fill="#17069d" stroke="#17069d" points="1700.94,-161.14 1711.28,-158.84 1701.76,-154.19 1700.94,-161.14"/>
<text text-anchor="middle" x="1624.06" y="-158.6" font-family="Times,serif" font-size="8.00" fill="#17069d">DOCTYPE_PURCHREQ EC=125</text>
</g>
<!-- 84e097a9&#45;f759&#45;4e83&#45;8233&#45;67cb20cc1e39 -->
<g id="node5" class="node">
<title>84e097a9&#45;f759&#45;4e83&#45;8233&#45;67cb20cc1e39</title>
<polygon fill="#b6b6ff" stroke="black" points="2292.56,-138 2070.56,-138 2070.56,-100 2292.56,-100 2292.56,-138"/>
<text text-anchor="middle" x="2181.56" y="-122.8" font-family="Times,serif" font-size="14.00">Released Purchase Order (1)</text>
<text text-anchor="middle" x="2181.56" y="-107.8" font-family="Times,serif" font-size="14.00">E=98</text>
</g>
<!-- fc4a0737&#45;d67d&#45;4e14&#45;8b91&#45;95fc05e6aaea&#45;&gt;84e097a9&#45;f759&#45;4e83&#45;8233&#45;67cb20cc1e39 -->
<g id="edge8" class="edge">
<title>fc4a0737&#45;d67d&#45;4e14&#45;8b91&#45;95fc05e6aaea&#45;&gt;84e097a9&#45;f759&#45;4e83&#45;8233&#45;67cb20cc1e39</title>
<path fill="none" stroke="#11646f" stroke-width="2.16" d="M1903.02,-157C1950.81,-150.46 2009.26,-142.45 2060.17,-135.48"/>
<polygon fill="#11646f" stroke="#11646f" stroke-width="2.16" points="2060.81,-138.93 2070.24,-134.1 2059.86,-131.99 2060.81,-138.93"/>
<text text-anchor="middle" x="1986.56" y="-155.6" font-family="Times,serif" font-size="8.00" fill="#11646f">DOCTYPE_PURCHORD EC=98</text>
</g>
<!-- fc4a0737&#45;d67d&#45;4e14&#45;8b91&#45;95fc05e6aaea&#45;&gt;33c24901&#45;8a8a&#45;4846&#45;a48e&#45;57e2411d6d8a -->
<g id="edge10" class="edge">
<title>fc4a0737&#45;d67d&#45;4e14&#45;8b91&#45;95fc05e6aaea&#45;&gt;33c24901&#45;8a8a&#45;4846&#45;a48e&#45;57e2411d6d8a</title>
<path fill="none" stroke="#11646f" d="M1902.61,-181.28C1948.06,-187.08 2003.25,-194.67 2052.56,-203 2061.77,-204.56 2071.33,-206.28 2080.89,-208.09"/>
<polygon fill="#11646f" stroke="#11646f" points="2080.35,-211.55 2090.83,-209.99 2081.67,-204.67 2080.35,-211.55"/>
<text text-anchor="middle" x="1986.56" y="-205.6" font-family="Times,serif" font-size="8.00" fill="#11646f">DOCTYPE_PURCHORD EC=27</text>
</g>
<!-- 08b73184&#45;dd47&#45;4197&#45;b167&#45;8b54d3308754 -->
<g id="node16" class="node">
<title>08b73184&#45;dd47&#45;4197&#45;b167&#45;8b54d3308754</title>
<polygon fill="none" stroke="transparent" points="2272.06,-192 2091.06,-192 2091.06,-156 2272.06,-156 2272.06,-192"/>
<polyline fill="none" stroke="black" points="2091.06,-156 2272.06,-156 "/>
<text text-anchor="middle" x="2181.56" y="-170.3" font-family="Times,serif" font-size="14.00" fill="#17069d">DOCTYPE_PURCHREQ</text>
</g>
<!-- fc4a0737&#45;d67d&#45;4e14&#45;8b91&#45;95fc05e6aaea&#45;&gt;08b73184&#45;dd47&#45;4197&#45;b167&#45;8b54d3308754 -->
<g id="edge19" class="edge">
<title>fc4a0737&#45;d67d&#45;4e14&#45;8b91&#45;95fc05e6aaea&#45;&gt;08b73184&#45;dd47&#45;4197&#45;b167&#45;8b54d3308754</title>
<path fill="none" stroke="#17069d" d="M1902.69,-169.96C1948.03,-170.05 2003.11,-170.32 2052.56,-171 2061.79,-171.13 2071.41,-171.29 2081.03,-171.48"/>
<polygon fill="#17069d" stroke="#17069d" points="2080.97,-174.98 2091.04,-171.68 2081.11,-167.98 2080.97,-174.98"/>
<text text-anchor="middle" x="1986.56" y="-173.6" font-family="Times,serif" font-size="8.00" fill="#17069d">DOCTYPE_PURCHREQ EC=125</text>
</g>
<!-- 84e097a9&#45;f759&#45;4e83&#45;8233&#45;67cb20cc1e39&#45;&gt;166075cd&#45;62eb&#45;40dd&#45;a4ab&#45;4ed9e9140335 -->
<g id="edge9" class="edge">
<title>84e097a9&#45;f759&#45;4e83&#45;8233&#45;67cb20cc1e39&#45;&gt;166075cd&#45;62eb&#45;40dd&#45;a4ab&#45;4ed9e9140335</title>
<path fill="none" stroke="#11646f" stroke-width="2.16" d="M2292.82,-110.6C2341.18,-106.91 2397.67,-102.61 2445.37,-98.98"/>
<polygon fill="#11646f" stroke="#11646f" stroke-width="2.16" points="2445.71,-102.46 2455.41,-98.21 2445.17,-95.48 2445.71,-102.46"/>
<text text-anchor="middle" x="2374.06" y="-111.6" font-family="Times,serif" font-size="8.00" fill="#11646f">DOCTYPE_PURCHORD EC=98</text>
</g>
<!-- 166075cd&#45;62eb&#45;40dd&#45;a4ab&#45;4ed9e9140335&#45;&gt;93a187d4&#45;045b&#45;4e06&#45;8c34&#45;cf840f7aa884 -->
<g id="edge3" class="edge">
<title>166075cd&#45;62eb&#45;40dd&#45;a4ab&#45;4ed9e9140335&#45;&gt;93a187d4&#45;045b&#45;4e06&#45;8c34&#45;cf840f7aa884</title>
<path fill="none" stroke="#e4cbd4" stroke-width="2.6" d="M2646.64,-82.42C2695.87,-77.96 2756.97,-72.42 2811.34,-67.49"/>
<polygon fill="#e4cbd4" stroke="#e4cbd4" stroke-width="2.6" points="2811.76,-70.96 2821.41,-66.58 2811.13,-63.99 2811.76,-70.96"/>
<text text-anchor="middle" x="2734.06" y="-82.6" font-family="Times,serif" font-size="8.00" fill="#e4cbd4">DOCTYPE_RESERVATION EC=98</text>
</g>
<!-- fb5dddd5&#45;10ea&#45;4da2&#45;924d&#45;1aaf1fb1f6f1 -->
<g id="node17" class="node">
<title>fb5dddd5&#45;10ea&#45;4da2&#45;924d&#45;1aaf1fb1f6f1</title>
<polygon fill="none" stroke="transparent" points="3041.06,-133 2859.06,-133 2859.06,-97 3041.06,-97 3041.06,-133"/>
<polyline fill="none" stroke="black" points="2859.06,-97 3041.06,-97 "/>
<text text-anchor="middle" x="2950.06" y="-111.3" font-family="Times,serif" font-size="14.00" fill="#11646f">DOCTYPE_PURCHORD</text>
</g>
<!-- 166075cd&#45;62eb&#45;40dd&#45;a4ab&#45;4ed9e9140335&#45;&gt;fb5dddd5&#45;10ea&#45;4da2&#45;924d&#45;1aaf1fb1f6f1 -->
<g id="edge20" class="edge">
<title>166075cd&#45;62eb&#45;40dd&#45;a4ab&#45;4ed9e9140335&#45;&gt;fb5dddd5&#45;10ea&#45;4da2&#45;924d&#45;1aaf1fb1f6f1</title>
<path fill="none" stroke="#11646f" stroke-width="2.16" d="M2646.64,-96.72C2707.58,-100.4 2786.72,-105.19 2848.75,-108.94"/>
<polygon fill="#11646f" stroke="#11646f" stroke-width="2.16" points="2848.75,-112.44 2858.94,-109.55 2849.17,-105.46 2848.75,-112.44"/>
<text text-anchor="middle" x="2734.06" y="-107.6" font-family="Times,serif" font-size="8.00" fill="#11646f">DOCTYPE_PURCHORD EC=98</text>
</g>
<!-- 60a9c016&#45;612d&#45;4963&#45;81b7&#45;efe7d05c4fb9 -->
<g id="node8" class="node">
<title>60a9c016&#45;612d&#45;4963&#45;81b7&#45;efe7d05c4fb9</title>
<polygon fill="#e7e7ff" stroke="black" points="3473.56,-113 3253.56,-113 3253.56,-75 3473.56,-75 3473.56,-113"/>
<text text-anchor="middle" x="3363.56" y="-97.8" font-family="Times,serif" font-size="14.00">Confirmed Production Order</text>
<text text-anchor="middle" x="3363.56" y="-82.8" font-family="Times,serif" font-size="14.00">E=50</text>
</g>
<!-- 93a187d4&#45;045b&#45;4e06&#45;8c34&#45;cf840f7aa884&#45;&gt;60a9c016&#45;612d&#45;4963&#45;81b7&#45;efe7d05c4fb9 -->
<g id="edge12" class="edge">
<title>93a187d4&#45;045b&#45;4e06&#45;8c34&#45;cf840f7aa884&#45;&gt;60a9c016&#45;612d&#45;4963&#45;81b7&#45;efe7d05c4fb9</title>
<path fill="none" stroke="#f491f3" d="M3078.72,-67.1C3131.15,-72.07 3191.53,-77.79 3243.08,-82.68"/>
<polygon fill="#f491f3" stroke="#f491f3" points="3242.99,-86.18 3253.27,-83.64 3243.65,-79.21 3242.99,-86.18"/>
<text text-anchor="middle" x="3166.06" y="-83.6" font-family="Times,serif" font-size="8.00" fill="#f491f3">DOCTYPE_PRODORD EC=50</text>
</g>
<!-- 69734dcf&#45;1f1b&#45;41c2&#45;9b50&#45;a649159fa5fc -->
<g id="node15" class="node">
<title>69734dcf&#45;1f1b&#45;41c2&#45;9b50&#45;a649159fa5fc</title>
<polygon fill="none" stroke="transparent" points="3464.06,-57 3263.06,-57 3263.06,-21 3464.06,-21 3464.06,-57"/>
<polyline fill="none" stroke="black" points="3263.06,-21 3464.06,-21 "/>
<text text-anchor="middle" x="3363.56" y="-35.3" font-family="Times,serif" font-size="14.00" fill="#e4cbd4">DOCTYPE_RESERVATION</text>
</g>
<!-- 93a187d4&#45;045b&#45;4e06&#45;8c34&#45;cf840f7aa884&#45;&gt;69734dcf&#45;1f1b&#45;41c2&#45;9b50&#45;a649159fa5fc -->
<g id="edge18" class="edge">
<title>93a187d4&#45;045b&#45;4e06&#45;8c34&#45;cf840f7aa884&#45;&gt;69734dcf&#45;1f1b&#45;41c2&#45;9b50&#45;a649159fa5fc</title>
<path fill="none" stroke="#e4cbd4" stroke-width="1.52" d="M3078.72,-50.04C3134.48,-47.87 3199.22,-45.35 3252.78,-43.27"/>
<polygon fill="#e4cbd4" stroke="#e4cbd4" stroke-width="1.52" points="3253.13,-46.76 3262.99,-42.87 3252.86,-39.76 3253.13,-46.76"/>
<text text-anchor="middle" x="3166.06" y="-51.6" font-family="Times,serif" font-size="8.00" fill="#e4cbd4">DOCTYPE_RESERVATION EC=50</text>
</g>
<!-- b753a84b&#45;fec4&#45;49b1&#45;be3b&#45;7586482f5837 -->
<g id="node14" class="node">
<title>b753a84b&#45;fec4&#45;49b1&#45;be3b&#45;7586482f5837</title>
<polygon fill="none" stroke="transparent" points="3800.56,-112 3630.56,-112 3630.56,-76 3800.56,-76 3800.56,-112"/>
<polyline fill="none" stroke="black" points="3630.56,-76 3800.56,-76 "/>
<text text-anchor="middle" x="3715.56" y="-90.3" font-family="Times,serif" font-size="14.00" fill="#f491f3">DOCTYPE_PRODORD</text>
</g>
<!-- 60a9c016&#45;612d&#45;4963&#45;81b7&#45;efe7d05c4fb9&#45;&gt;b753a84b&#45;fec4&#45;49b1&#45;be3b&#45;7586482f5837 -->
<g id="edge17" class="edge">
<title>60a9c016&#45;612d&#45;4963&#45;81b7&#45;efe7d05c4fb9&#45;&gt;b753a84b&#45;fec4&#45;49b1&#45;be3b&#45;7586482f5837</title>
<path fill="none" stroke="#f491f3" d="M3473.86,-94C3520.85,-94 3575.23,-94 3620.41,-94"/>
<polygon fill="#f491f3" stroke="#f491f3" points="3620.49,-97.5 3630.49,-94 3620.49,-90.5 3620.49,-97.5"/>
<text text-anchor="middle" x="3552.06" y="-96.6" font-family="Times,serif" font-size="8.00" fill="#f491f3">DOCTYPE_PRODORD EC=50</text>
</g>
<!-- 33c24901&#45;8a8a&#45;4846&#45;a48e&#45;57e2411d6d8a&#45;&gt;271d564b&#45;394d&#45;4e41&#45;b315&#45;8f8fb17ae8a8 -->
<g id="edge5" class="edge">
<title>33c24901&#45;8a8a&#45;4846&#45;a48e&#45;57e2411d6d8a&#45;&gt;271d564b&#45;394d&#45;4e41&#45;b315&#45;8f8fb17ae8a8</title>
<path fill="none" stroke="#e4cbd4" d="M2081.45,-234.17C1914.23,-241.15 1565.88,-248.21 1275.56,-205 1193.11,-192.73 1100.99,-165.09 1041.41,-145.29"/>
<polygon fill="#e4cbd4" stroke="#e4cbd4" points="1042.36,-141.92 1031.77,-142.06 1040.14,-148.55 1042.36,-141.92"/>
<text text-anchor="middle" x="1624.06" y="-239.6" font-family="Times,serif" font-size="8.00" fill="#e4cbd4">DOCTYPE_RESERVATION EC=27</text>
</g>
<!-- 33c24901&#45;8a8a&#45;4846&#45;a48e&#45;57e2411d6d8a&#45;&gt;fb5dddd5&#45;10ea&#45;4da2&#45;924d&#45;1aaf1fb1f6f1 -->
<g id="edge21" class="edge">
<title>33c24901&#45;8a8a&#45;4846&#45;a48e&#45;57e2411d6d8a&#45;&gt;fb5dddd5&#45;10ea&#45;4da2&#45;924d&#45;1aaf1fb1f6f1</title>
<path fill="none" stroke="#11646f" d="M2281.58,-214.27C2428.26,-192.46 2701.73,-151.78 2848.99,-129.88"/>
<polygon fill="#11646f" stroke="#11646f" points="2849.57,-133.34 2858.94,-128.4 2848.54,-126.41 2849.57,-133.34"/>
<text text-anchor="middle" x="2551.06" y="-189.6" font-family="Times,serif" font-size="8.00" fill="#11646f">DOCTYPE_PURCHORD EC=27</text>
</g>
<!-- f25bd1b7&#45;05ae&#45;4d61&#45;a911&#45;d1652080052e -->
<g id="node10" class="node">
<title>f25bd1b7&#45;05ae&#45;4d61&#45;a911&#45;d1652080052e</title>
<ellipse fill="#f491f3" stroke="black" cx="130.64" cy="-72" rx="110.48" ry="18"/>
<text text-anchor="middle" x="130.64" y="-68.3" font-family="Times,serif" font-size="14.00">DOCTYPE_PRODORD</text>
</g>
<!-- f25bd1b7&#45;05ae&#45;4d61&#45;a911&#45;d1652080052e&#45;&gt;7fa6bead&#45;cd3e&#45;48c7&#45;8561&#45;11fc8e29db5e -->
<g id="edge13" class="edge">
<title>f25bd1b7&#45;05ae&#45;4d61&#45;a911&#45;d1652080052e&#45;&gt;7fa6bead&#45;cd3e&#45;48c7&#45;8561&#45;11fc8e29db5e</title>
<path fill="none" stroke="#f491f3" d="M233.62,-65.46C296.61,-61.43 377.44,-56.25 442.02,-52.11"/>
<polygon fill="#f491f3" stroke="#f491f3" points="442.48,-55.58 452.24,-51.45 442.04,-48.6 442.48,-55.58"/>
<text text-anchor="middle" x="348.78" y="-65.6" font-family="Times,serif" font-size="8.00" fill="#f491f3">DOCTYPE_PRODORD EC=50</text>
</g>
<!-- 48426386&#45;179f&#45;4312&#45;a772&#45;7377ce0d380c -->
<g id="node11" class="node">
<title>48426386&#45;179f&#45;4312&#45;a772&#45;7377ce0d380c</title>
<ellipse fill="#e4cbd4" stroke="black" cx="130.64" cy="-18" rx="130.78" ry="18"/>
<text text-anchor="middle" x="130.64" y="-14.3" font-family="Times,serif" font-size="14.00">DOCTYPE_RESERVATION</text>
</g>
<!-- 48426386&#45;179f&#45;4312&#45;a772&#45;7377ce0d380c&#45;&gt;7fa6bead&#45;cd3e&#45;48c7&#45;8561&#45;11fc8e29db5e -->
<g id="edge14" class="edge">
<title>48426386&#45;179f&#45;4312&#45;a772&#45;7377ce0d380c&#45;&gt;7fa6bead&#45;cd3e&#45;48c7&#45;8561&#45;11fc8e29db5e</title>
<path fill="none" stroke="#e4cbd4" stroke-width="1.52" d="M249.27,-25.54C309.68,-29.41 382.85,-34.1 442.24,-37.91"/>
<polygon fill="#e4cbd4" stroke="#e4cbd4" stroke-width="1.52" points="442.19,-41.41 452.4,-38.56 442.64,-34.43 442.19,-41.41"/>
<text text-anchor="middle" x="348.78" y="-39.6" font-family="Times,serif" font-size="8.00" fill="#e4cbd4">DOCTYPE_RESERVATION EC=50</text>
</g>
<!-- f3d87368&#45;2cf3&#45;47b6&#45;9bb3&#45;7452f6c78fe8 -->
<g id="node12" class="node">
<title>f3d87368&#45;2cf3&#45;47b6&#45;9bb3&#45;7452f6c78fe8</title>
<ellipse fill="#17069d" stroke="black" cx="553.92" cy="-123" rx="117.78" ry="18"/>
<text text-anchor="middle" x="553.92" y="-119.3" font-family="Times,serif" font-size="14.00">DOCTYPE_PURCHREQ</text>
</g>
<!-- f3d87368&#45;2cf3&#45;47b6&#45;9bb3&#45;7452f6c78fe8&#45;&gt;271d564b&#45;394d&#45;4e41&#45;b315&#45;8f8fb17ae8a8 -->
<g id="edge15" class="edge">
<title>f3d87368&#45;2cf3&#45;47b6&#45;9bb3&#45;7452f6c78fe8&#45;&gt;271d564b&#45;394d&#45;4e41&#45;b315&#45;8f8fb17ae8a8</title>
<path fill="none" stroke="#17069d" d="M671.67,-123C722.67,-123 782.89,-123 836.25,-123"/>
<polygon fill="#17069d" stroke="#17069d" points="836.48,-126.5 846.48,-123 836.48,-119.5 836.48,-126.5"/>
<text text-anchor="middle" x="759.06" y="-125.6" font-family="Times,serif" font-size="8.00" fill="#17069d">DOCTYPE_PURCHREQ EC=125</text>
</g>
<!-- 4a3b94cc&#45;3a89&#45;4c9b&#45;bb55&#45;0342a4f754af -->
<g id="node13" class="node">
<title>4a3b94cc&#45;3a89&#45;4c9b&#45;bb55&#45;0342a4f754af</title>
<ellipse fill="#11646f" stroke="black" cx="1406.06" cy="-178" rx="118.08" ry="18"/>
<text text-anchor="middle" x="1406.06" y="-174.3" font-family="Times,serif" font-size="14.00">DOCTYPE_PURCHORD</text>
</g>
<!-- 4a3b94cc&#45;3a89&#45;4c9b&#45;bb55&#45;0342a4f754af&#45;&gt;fc4a0737&#45;d67d&#45;4e14&#45;8b91&#45;95fc05e6aaea -->
<g id="edge16" class="edge">
<title>4a3b94cc&#45;3a89&#45;4c9b&#45;bb55&#45;0342a4f754af&#45;&gt;fc4a0737&#45;d67d&#45;4e14&#45;8b91&#45;95fc05e6aaea</title>
<path fill="none" stroke="#11646f" stroke-width="2.6" d="M1523.54,-175.66C1579.73,-174.54 1646.62,-173.2 1701.2,-172.1"/>
<polygon fill="#11646f" stroke="#11646f" stroke-width="2.6" points="1701.32,-175.6 1711.24,-171.9 1701.18,-168.6 1701.32,-175.6"/>
<text text-anchor="middle" x="1624.06" y="-176.6" font-family="Times,serif" font-size="8.00" fill="#11646f">DOCTYPE_PURCHORD EC=125</text>
</g>
</g>
</svg>
