<?xml version="1.0" encoding="UTF-8" standalone="no"?>
<!DOCTYPE svg PUBLIC "-//W3C//DTD SVG 1.1//EN"
 "http://www.w3.org/Graphics/SVG/1.1/DTD/svg11.dtd">
<!-- Generated by graphviz version 2.50.0 (0)
 -->
<!-- Pages: 1 -->
<svg width="2271pt" height="1666pt"
 viewBox="0.00 0.00 2270.50 1665.57" xmlns="http://www.w3.org/2000/svg" xmlns:xlink="http://www.w3.org/1999/xlink">
<g id="graph0" class="graph" transform="scale(1 1) rotate(0) translate(4 1661.57)">
<!-- (p)DOCTYPE_PRODORD1 -->
<g id="node1" class="node">
<title>(p)DOCTYPE_PRODORD1</title>
<ellipse fill="none" stroke="#05b202" cx="623" cy="-1100.86" rx="119.5" ry="119.5"/>
<text text-anchor="middle" x="623" y="-1111.46" font-family="Times,serif" font-size="13.00">DOCTYPE_PRODORD1</text>
<text text-anchor="middle" x="623" y="-1097.46" font-family="Times,serif" font-size="13.00"> p=98 r=0</text>
<text text-anchor="middle" x="623" y="-1083.46" font-family="Times,serif" font-size="13.00">c=98 m=0</text>
</g>
<!-- (t)Goods Issue for Production Order -->
<g id="node16" class="node">
<title>(t)Goods Issue for Production Order</title>
<polygon fill="none" stroke="black" points="636,-895.28 4,-895.28 4,-807.28 636,-807.28 636,-895.28"/>
<text text-anchor="middle" x="320" y="-862.48" font-family="Times,serif" font-size="36.00">Goods Issue for Production Order</text>
<text text-anchor="middle" x="320" y="-822.48" font-family="Times,serif" font-size="36.00"> (98)</text>
<text text-anchor="start" x="0" y="-898.48" font-family="Times,serif" font-size="11.00">&#45;</text>
</g>
<!-- (p)DOCTYPE_PRODORD1&#45;&gt;(t)Goods Issue for Production Order -->
<g id="edge3" class="edge">
<title>(p)DOCTYPE_PRODORD1&#45;&gt;(t)Goods Issue for Production Order</title>
<path fill="none" stroke="#05b202" d="M539.01,-1015.55C522.19,-996.78 505.31,-976.44 491,-956.28 478.45,-938.61 484.07,-927.82 468,-913.28 463.2,-908.94 458.04,-904.88 452.64,-901.09"/>
<polygon fill="#05b202" stroke="#05b202" points="454.24,-897.95 443.97,-895.36 450.38,-903.79 454.24,-897.95"/>
<text text-anchor="middle" x="572" y="-930.88" font-family="Times,serif" font-size="13.00"> avg. sojourn time=25D</text>
<text text-anchor="middle" x="572" y="-916.88" font-family="Times,serif" font-size="13.00"> med. sojourn time=13D</text>
</g>
<!-- (p)DOCTYPE_PRODORD2 -->
<g id="node2" class="node">
<title>(p)DOCTYPE_PRODORD2</title>
<ellipse fill="#05b202" stroke="#05b202" cx="319" cy="-113.07" rx="106.51" ry="106.51"/>
<text text-anchor="middle" x="319" y="-109.67" font-family="Times,serif" font-size="13.00">DOCTYPE_PRODORD2</text>
</g>
<!-- (p)DOCTYPE_PRODORD3 -->
<g id="node3" class="node">
<title>(p)DOCTYPE_PRODORD3</title>
<ellipse fill="#05b202" stroke="#05b202" cx="623" cy="-1544.5" rx="106.51" ry="106.51"/>
<text text-anchor="middle" x="623" y="-1541.1" font-family="Times,serif" font-size="13.00">DOCTYPE_PRODORD3</text>
</g>
<!-- (t)Created Production Order -->
<g id="node14" class="node">
<title>(t)Created Production Order</title>
<polygon fill="none" stroke="black" points="870,-1352.43 376,-1352.43 376,-1264.43 870,-1264.43 870,-1352.43"/>
<text text-anchor="middle" x="623" y="-1319.63" font-family="Times,serif" font-size="36.00">Created Production Order</text>
<text text-anchor="middle" x="623" y="-1279.63" font-family="Times,serif" font-size="36.00"> (50)</text>
<text text-anchor="start" x="372" y="-1355.63" font-family="Times,serif" font-size="11.00">&#45;</text>
</g>
<!-- (p)DOCTYPE_PRODORD3&#45;&gt;(t)Created Production Order -->
<g id="edge5" class="edge">
<title>(p)DOCTYPE_PRODORD3&#45;&gt;(t)Created Production Order</title>
<path fill="none" stroke="#05b202" d="M623,-1437.42C623,-1411.52 623,-1384.91 623,-1362.7"/>
<polygon fill="#05b202" stroke="#05b202" points="626.5,-1362.5 623,-1352.5 619.5,-1362.5 626.5,-1362.5"/>
<text text-anchor="middle" x="698" y="-1388.03" font-family="Times,serif" font-size="13.00"> avg. sojourn time=0s</text>
<text text-anchor="middle" x="698" y="-1374.03" font-family="Times,serif" font-size="13.00"> med. sojourn time=0s</text>
</g>
<!-- (p)DOCTYPE_PRODORD4 -->
<g id="node4" class="node">
<title>(p)DOCTYPE_PRODORD4</title>
<ellipse fill="none" stroke="#05b202" cx="456" cy="-556.71" rx="119.5" ry="119.5"/>
<text text-anchor="middle" x="456" y="-567.31" font-family="Times,serif" font-size="13.00">DOCTYPE_PRODORD4</text>
<text text-anchor="middle" x="456" y="-553.31" font-family="Times,serif" font-size="13.00"> p=98 r=0</text>
<text text-anchor="middle" x="456" y="-539.31" font-family="Times,serif" font-size="13.00">c=98 m=0</text>
</g>
<!-- t2 -->
<g id="node15" class="node">
<title>t2</title>
<polygon fill="#000000" stroke="black" points="678,-325.14 624,-325.14 624,-289.14 678,-289.14 678,-325.14"/>
<text text-anchor="middle" x="651" y="-303.44" font-family="Times,serif" font-size="14.00" fill="#ffffff">t2</text>
</g>
<!-- (p)DOCTYPE_PRODORD4&#45;&gt;t2 -->
<g id="edge7" class="edge">
<title>(p)DOCTYPE_PRODORD4&#45;&gt;t2</title>
<path fill="none" stroke="#05b202" d="M475.03,-438.57C482.3,-407.62 491.63,-379.85 503,-369.14 534.28,-339.67 559.02,-369.23 598,-351.14 608.26,-346.38 618.24,-339.19 626.72,-332.04"/>
<polygon fill="#05b202" stroke="#05b202" points="629.19,-334.53 634.36,-325.28 624.55,-329.29 629.19,-334.53"/>
<text text-anchor="middle" x="578" y="-386.74" font-family="Times,serif" font-size="13.00"> avg. sojourn time=0s</text>
<text text-anchor="middle" x="578" y="-372.74" font-family="Times,serif" font-size="13.00"> med. sojourn time=0s</text>
</g>
<!-- (t)Confirmed Production Order -->
<g id="node17" class="node">
<title>(t)Confirmed Production Order</title>
<polygon fill="none" stroke="black" points="589,-351.14 49,-351.14 49,-263.14 589,-263.14 589,-351.14"/>
<text text-anchor="middle" x="319" y="-318.34" font-family="Times,serif" font-size="36.00">Confirmed Production Order</text>
<text text-anchor="middle" x="319" y="-278.34" font-family="Times,serif" font-size="36.00"> (50)</text>
<text text-anchor="start" x="45" y="-354.34" font-family="Times,serif" font-size="11.00">&#45;</text>
</g>
<!-- (p)DOCTYPE_PRODORD4&#45;&gt;(t)Confirmed Production Order -->
<g id="edge8" class="edge">
<title>(p)DOCTYPE_PRODORD4&#45;&gt;(t)Confirmed Production Order</title>
<path fill="none" stroke="#05b202" d="M364.38,-479.63C346.36,-459.7 329.97,-436.81 320,-412.14 313.64,-396.4 311.82,-378.2 312.06,-361.47"/>
<polygon fill="#05b202" stroke="#05b202" points="315.56,-361.4 312.45,-351.28 308.57,-361.13 315.56,-361.4"/>
<text text-anchor="middle" x="400" y="-386.74" font-family="Times,serif" font-size="13.00"> avg. sojourn time=1D</text>
<text text-anchor="middle" x="400" y="-372.74" font-family="Times,serif" font-size="13.00"> med. sojourn time=22h</text>
</g>
<!-- (p)DOCTYPE_PURCHREQ1 -->
<g id="node5" class="node">
<title>(p)DOCTYPE_PURCHREQ1</title>
<ellipse fill="#ba0d39" stroke="#ba0d39" cx="1210" cy="-1544.5" rx="113.14" ry="113.14"/>
<text text-anchor="middle" x="1210" y="-1541.1" font-family="Times,serif" font-size="13.00">DOCTYPE_PURCHREQ1</text>
</g>
<!-- (t)Released Purchase Requisition (1) -->
<g id="node18" class="node">
<title>(t)Released Purchase Requisition (1)</title>
<polygon fill="none" stroke="black" points="1531.5,-1352.43 888.5,-1352.43 888.5,-1264.43 1531.5,-1264.43 1531.5,-1352.43"/>
<text text-anchor="middle" x="1210" y="-1319.63" font-family="Times,serif" font-size="36.00">Released Purchase Requisition (1)</text>
<text text-anchor="middle" x="1210" y="-1279.63" font-family="Times,serif" font-size="36.00"> (125)</text>
<text text-anchor="start" x="884.5" y="-1355.63" font-family="Times,serif" font-size="11.00">&#45;</text>
</g>
<!-- (p)DOCTYPE_PURCHREQ1&#45;&gt;(t)Released Purchase Requisition (1) -->
<g id="edge9" class="edge">
<title>(p)DOCTYPE_PURCHREQ1&#45;&gt;(t)Released Purchase Requisition (1)</title>
<path fill="none" stroke="#ba0d39" d="M1210,-1431.26C1210,-1407.27 1210,-1383.02 1210,-1362.53"/>
<polygon fill="#ba0d39" stroke="#ba0d39" points="1213.5,-1362.49 1210,-1352.49 1206.5,-1362.49 1213.5,-1362.49"/>
<text text-anchor="middle" x="1285" y="-1388.03" font-family="Times,serif" font-size="13.00"> avg. sojourn time=0s</text>
<text text-anchor="middle" x="1285" y="-1374.03" font-family="Times,serif" font-size="13.00"> med. sojourn time=0s</text>
</g>
<!-- (p)DOCTYPE_PURCHREQ2 -->
<g id="node6" class="node">
<title>(p)DOCTYPE_PURCHREQ2</title>
<ellipse fill="#ba0d39" stroke="#ba0d39" cx="1210" cy="-556.71" rx="113.14" ry="113.14"/>
<text text-anchor="middle" x="1210" y="-553.31" font-family="Times,serif" font-size="13.00">DOCTYPE_PURCHREQ2</text>
</g>
<!-- (p)DOCTYPE_PURCHREQ3 -->
<g id="node7" class="node">
<title>(p)DOCTYPE_PURCHREQ3</title>
<ellipse fill="none" stroke="#ba0d39" cx="1210" cy="-1100.86" rx="126.64" ry="126.64"/>
<text text-anchor="middle" x="1210" y="-1111.46" font-family="Times,serif" font-size="13.00">DOCTYPE_PURCHREQ3</text>
<text text-anchor="middle" x="1210" y="-1097.46" font-family="Times,serif" font-size="13.00"> p=125 r=0</text>
<text text-anchor="middle" x="1210" y="-1083.46" font-family="Times,serif" font-size="13.00">c=125 m=0</text>
</g>
<!-- (t)Released Purchase Requisition (2) -->
<g id="node19" class="node">
<title>(t)Released Purchase Requisition (2)</title>
<polygon fill="none" stroke="black" points="1531.5,-895.28 888.5,-895.28 888.5,-807.28 1531.5,-807.28 1531.5,-895.28"/>
<text text-anchor="middle" x="1210" y="-862.48" font-family="Times,serif" font-size="36.00">Released Purchase Requisition (2)</text>
<text text-anchor="middle" x="1210" y="-822.48" font-family="Times,serif" font-size="36.00"> (125)</text>
<text text-anchor="start" x="884.5" y="-898.48" font-family="Times,serif" font-size="11.00">&#45;</text>
</g>
<!-- (p)DOCTYPE_PURCHREQ3&#45;&gt;(t)Released Purchase Requisition (2) -->
<g id="edge12" class="edge">
<title>(p)DOCTYPE_PURCHREQ3&#45;&gt;(t)Released Purchase Requisition (2)</title>
<path fill="none" stroke="#ba0d39" d="M1210,-974.26C1210,-950.1 1210,-926.04 1210,-905.74"/>
<polygon fill="#ba0d39" stroke="#ba0d39" points="1213.5,-905.5 1210,-895.5 1206.5,-905.5 1213.5,-905.5"/>
<text text-anchor="middle" x="1287" y="-930.88" font-family="Times,serif" font-size="13.00"> avg. sojourn time=2D</text>
<text text-anchor="middle" x="1287" y="-916.88" font-family="Times,serif" font-size="13.00"> med. sojourn time=1D</text>
</g>
<!-- (p)DOCTYPE_PURCHORD1 -->
<g id="node8" class="node">
<title>(p)DOCTYPE_PURCHORD1</title>
<ellipse fill="#39f6c0" stroke="#39f6c0" cx="1781" cy="-1544.5" rx="113.14" ry="113.14"/>
<text text-anchor="middle" x="1781" y="-1541.1" font-family="Times,serif" font-size="13.00">DOCTYPE_PURCHORD1</text>
</g>
<!-- (t)Created Purchase Order -->
<g id="node20" class="node">
<title>(t)Created Purchase Order</title>
<polygon fill="none" stroke="black" points="2012.5,-1352.43 1549.5,-1352.43 1549.5,-1264.43 2012.5,-1264.43 2012.5,-1352.43"/>
<text text-anchor="middle" x="1781" y="-1319.63" font-family="Times,serif" font-size="36.00">Created Purchase Order</text>
<text text-anchor="middle" x="1781" y="-1279.63" font-family="Times,serif" font-size="36.00"> (125)</text>
<text text-anchor="start" x="1545.5" y="-1355.63" font-family="Times,serif" font-size="11.00">&#45;</text>
</g>
<!-- (p)DOCTYPE_PURCHORD1&#45;&gt;(t)Created Purchase Order -->
<g id="edge13" class="edge">
<title>(p)DOCTYPE_PURCHORD1&#45;&gt;(t)Created Purchase Order</title>
<path fill="none" stroke="#39f6c0" d="M1781,-1431.26C1781,-1407.27 1781,-1383.02 1781,-1362.53"/>
<polygon fill="#39f6c0" stroke="#39f6c0" points="1784.5,-1362.49 1781,-1352.49 1777.5,-1362.49 1784.5,-1362.49"/>
<text text-anchor="middle" x="1856" y="-1388.03" font-family="Times,serif" font-size="13.00"> avg. sojourn time=0s</text>
<text text-anchor="middle" x="1856" y="-1374.03" font-family="Times,serif" font-size="13.00"> med. sojourn time=0s</text>
</g>
<!-- (p)DOCTYPE_PURCHORD2 -->
<g id="node9" class="node">
<title>(p)DOCTYPE_PURCHORD2</title>
<ellipse fill="#39f6c0" stroke="#39f6c0" cx="1785" cy="-113.07" rx="113.14" ry="113.14"/>
<text text-anchor="middle" x="1785" y="-109.67" font-family="Times,serif" font-size="13.00">DOCTYPE_PURCHORD2</text>
</g>
<!-- (p)DOCTYPE_PURCHORD3 -->
<g id="node10" class="node">
<title>(p)DOCTYPE_PURCHORD3</title>
<ellipse fill="none" stroke="#39f6c0" cx="1988" cy="-556.71" rx="126.64" ry="126.64"/>
<text text-anchor="middle" x="1988" y="-567.31" font-family="Times,serif" font-size="13.00">DOCTYPE_PURCHORD3</text>
<text text-anchor="middle" x="1988" y="-553.31" font-family="Times,serif" font-size="13.00"> p=98 r=0</text>
<text text-anchor="middle" x="1988" y="-539.31" font-family="Times,serif" font-size="13.00">c=98 m=0</text>
</g>
<!-- (t)Goods Receipt for Order -->
<g id="node22" class="node">
<title>(t)Goods Receipt for Order</title>
<polygon fill="none" stroke="black" points="2208.5,-351.14 1745.5,-351.14 1745.5,-263.14 2208.5,-263.14 2208.5,-351.14"/>
<text text-anchor="middle" x="1977" y="-318.34" font-family="Times,serif" font-size="36.00">Goods Receipt for Order</text>
<text text-anchor="middle" x="1977" y="-278.34" font-family="Times,serif" font-size="36.00"> (98)</text>
<text text-anchor="start" x="1741.5" y="-354.34" font-family="Times,serif" font-size="11.00">&#45;</text>
</g>
<!-- (p)DOCTYPE_PURCHORD3&#45;&gt;(t)Goods Receipt for Order -->
<g id="edge17" class="edge">
<title>(p)DOCTYPE_PURCHORD3&#45;&gt;(t)Goods Receipt for Order</title>
<path fill="none" stroke="#39f6c0" d="M1982.42,-430.11C1981.35,-405.96 1980.28,-381.89 1979.38,-361.6"/>
<polygon fill="#39f6c0" stroke="#39f6c0" points="1982.86,-361.19 1978.92,-351.35 1975.87,-361.5 1982.86,-361.19"/>
<text text-anchor="middle" x="2058" y="-386.74" font-family="Times,serif" font-size="13.00"> avg. sojourn time=3D</text>
<text text-anchor="middle" x="2058" y="-372.74" font-family="Times,serif" font-size="13.00"> med. sojourn time=3D</text>
</g>
<!-- (p)DOCTYPE_PURCHORD4 -->
<g id="node11" class="node">
<title>(p)DOCTYPE_PURCHORD4</title>
<ellipse fill="none" stroke="#39f6c0" cx="1781" cy="-1100.86" rx="126.64" ry="126.64"/>
<text text-anchor="middle" x="1781" y="-1111.46" font-family="Times,serif" font-size="13.00">DOCTYPE_PURCHORD4</text>
<text text-anchor="middle" x="1781" y="-1097.46" font-family="Times,serif" font-size="13.00"> p=125 r=0</text>
<text text-anchor="middle" x="1781" y="-1083.46" font-family="Times,serif" font-size="13.00">c=125 m=0</text>
</g>
<!-- (t) Rejected Purchase Order -->
<g id="node21" class="node">
<title>(t) Rejected Purchase Order</title>
<polygon fill="none" stroke="black" points="1935.5,-789.28 1448.5,-789.28 1448.5,-701.28 1935.5,-701.28 1935.5,-789.28"/>
<text text-anchor="middle" x="1692" y="-756.48" font-family="Times,serif" font-size="36.00"> Rejected Purchase Order</text>
<text text-anchor="middle" x="1692" y="-716.48" font-family="Times,serif" font-size="36.00"> (27)</text>
<text text-anchor="start" x="1444.5" y="-792.48" font-family="Times,serif" font-size="11.00">&#45;</text>
</g>
<!-- (p)DOCTYPE_PURCHORD4&#45;&gt;(t) Rejected Purchase Order -->
<g id="edge19" class="edge">
<title>(p)DOCTYPE_PURCHORD4&#45;&gt;(t) Rejected Purchase Order</title>
<path fill="none" stroke="#39f6c0" d="M1734,-983.08C1724.08,-954.73 1714.62,-924.23 1708,-895.28 1700.84,-864 1696.87,-828.27 1694.67,-799.64"/>
<polygon fill="#39f6c0" stroke="#39f6c0" points="1698.15,-799.16 1693.94,-789.44 1691.16,-799.66 1698.15,-799.16"/>
<text text-anchor="middle" x="1805" y="-930.88" font-family="Times,serif" font-size="13.00"> avg. sojourn time=15D</text>
<text text-anchor="middle" x="1805" y="-916.88" font-family="Times,serif" font-size="13.00"> med. sojourn time=12D</text>
</g>
<!-- (t)Released Purchase Order (1) -->
<g id="node23" class="node">
<title>(t)Released Purchase Order (1)</title>
<polygon fill="none" stroke="black" points="2262.5,-895.28 1717.5,-895.28 1717.5,-807.28 2262.5,-807.28 2262.5,-895.28"/>
<text text-anchor="middle" x="1990" y="-862.48" font-family="Times,serif" font-size="36.00">Released Purchase Order (1)</text>
<text text-anchor="middle" x="1990" y="-822.48" font-family="Times,serif" font-size="36.00"> (98)</text>
<text text-anchor="start" x="1713.5" y="-898.48" font-family="Times,serif" font-size="11.00">&#45;</text>
</g>
<!-- (p)DOCTYPE_PURCHORD4&#45;&gt;(t)Released Purchase Order (1) -->
<g id="edge20" class="edge">
<title>(p)DOCTYPE_PURCHORD4&#45;&gt;(t)Released Purchase Order (1)</title>
<path fill="none" stroke="#39f6c0" d="M1862.4,-1003.43C1891.21,-969.3 1922.49,-932.25 1946.87,-903.38"/>
<polygon fill="#39f6c0" stroke="#39f6c0" points="1949.78,-905.36 1953.55,-895.46 1944.43,-900.84 1949.78,-905.36"/>
<text text-anchor="middle" x="2014" y="-930.88" font-family="Times,serif" font-size="13.00"> avg. sojourn time=13D</text>
<text text-anchor="middle" x="2014" y="-916.88" font-family="Times,serif" font-size="13.00"> med. sojourn time=12D</text>
</g>
<!-- (p)DOCTYPE_RESERVATION1 -->
<g id="node12" class="node">
<title>(p)DOCTYPE_RESERVATION1</title>
<ellipse fill="#a13ccd" stroke="#a13ccd" cx="317" cy="-1100.86" rx="125.91" ry="125.91"/>
<text text-anchor="middle" x="317" y="-1097.46" font-family="Times,serif" font-size="13.00">DOCTYPE_RESERVATION1</text>
</g>
<!-- (p)DOCTYPE_RESERVATION1&#45;&gt;(t)Goods Issue for Production Order -->
<g id="edge21" class="edge">
<title>(p)DOCTYPE_RESERVATION1&#45;&gt;(t)Goods Issue for Production Order</title>
<path fill="none" stroke="#a13ccd" d="M317.2,-974.9C317.37,-954.32 317.62,-933.2 318,-913.28 318.05,-910.78 318.1,-908.22 318.17,-905.64"/>
<polygon fill="#a13ccd" stroke="#a13ccd" points="321.67,-905.69 318.43,-895.6 314.67,-905.5 321.67,-905.69"/>
<text text-anchor="middle" x="393" y="-930.88" font-family="Times,serif" font-size="13.00"> avg. sojourn time=0s</text>
<text text-anchor="middle" x="393" y="-916.88" font-family="Times,serif" font-size="13.00"> med. sojourn time=0s</text>
</g>
<!-- (p)DOCTYPE_RESERVATION2 -->
<g id="node13" class="node">
<title>(p)DOCTYPE_RESERVATION2</title>
<ellipse fill="#a13ccd" stroke="#a13ccd" cx="193" cy="-556.71" rx="125.91" ry="125.91"/>
<text text-anchor="middle" x="193" y="-553.31" font-family="Times,serif" font-size="13.00">DOCTYPE_RESERVATION2</text>
</g>
<!-- (t)Created Production Order&#45;&gt;(p)DOCTYPE_PRODORD1 -->
<g id="edge1" class="edge">
<title>(t)Created Production Order&#45;&gt;(p)DOCTYPE_PRODORD1</title>
<path fill="none" stroke="#05b202" d="M623,-1264.33C623,-1254.12 623,-1242.71 623,-1230.8"/>
<polygon fill="#05b202" stroke="#05b202" points="626.5,-1230.69 623,-1220.69 619.5,-1230.69 626.5,-1230.69"/>
</g>
<!-- t2&#45;&gt;(p)DOCTYPE_PRODORD1 -->
<g id="edge2" class="edge">
<title>t2&#45;&gt;(p)DOCTYPE_PRODORD1</title>
<path fill="none" stroke="#05b202" d="M652.38,-325.23C658.13,-400.12 678.8,-706.68 653,-956.28 652.4,-962.13 651.66,-968.08 650.81,-974.08"/>
<polygon fill="#05b202" stroke="#05b202" points="647.32,-973.8 649.3,-984.21 654.24,-974.83 647.32,-973.8"/>
</g>
<!-- (t)Goods Issue for Production Order&#45;&gt;(p)DOCTYPE_PRODORD4 -->
<g id="edge6" class="edge">
<title>(t)Goods Issue for Production Order&#45;&gt;(p)DOCTYPE_PRODORD4</title>
<path fill="none" stroke="#05b202" d="M340.07,-807.11C356.28,-772.24 379.88,-721.47 401.56,-674.82"/>
<polygon fill="#05b202" stroke="#05b202" points="404.83,-676.1 405.87,-665.55 398.48,-673.14 404.83,-676.1"/>
</g>
<!-- (t)Goods Issue for Production Order&#45;&gt;(p)DOCTYPE_RESERVATION2 -->
<g id="edge22" class="edge">
<title>(t)Goods Issue for Production Order&#45;&gt;(p)DOCTYPE_RESERVATION2</title>
<path fill="none" stroke="#a13ccd" d="M301.26,-807.11C286.83,-773.88 266.13,-726.19 246.69,-681.4"/>
<polygon fill="#a13ccd" stroke="#a13ccd" points="249.89,-679.97 242.69,-672.19 243.47,-682.76 249.89,-679.97"/>
</g>
<!-- (t)Confirmed Production Order&#45;&gt;(p)DOCTYPE_PRODORD2 -->
<g id="edge4" class="edge">
<title>(t)Confirmed Production Order&#45;&gt;(p)DOCTYPE_PRODORD2</title>
<path fill="none" stroke="#05b202" d="M319,-263.04C319,-253.03 319,-241.9 319,-230.37"/>
<polygon fill="#05b202" stroke="#05b202" points="322.5,-230.15 319,-220.15 315.5,-230.15 322.5,-230.15"/>
</g>
<!-- (t)Released Purchase Requisition (1)&#45;&gt;(p)DOCTYPE_PURCHREQ3 -->
<g id="edge11" class="edge">
<title>(t)Released Purchase Requisition (1)&#45;&gt;(p)DOCTYPE_PURCHREQ3</title>
<path fill="none" stroke="#ba0d39" d="M1210,-1264.33C1210,-1256.21 1210,-1247.32 1210,-1238.02"/>
<polygon fill="#ba0d39" stroke="#ba0d39" points="1213.5,-1237.79 1210,-1227.79 1206.5,-1237.79 1213.5,-1237.79"/>
</g>
<!-- (t)Released Purchase Requisition (2)&#45;&gt;(p)DOCTYPE_PURCHREQ2 -->
<g id="edge10" class="edge">
<title>(t)Released Purchase Requisition (2)&#45;&gt;(p)DOCTYPE_PURCHREQ2</title>
<path fill="none" stroke="#ba0d39" d="M1210,-807.11C1210,-773.57 1210,-725.3 1210,-680.15"/>
<polygon fill="#ba0d39" stroke="#ba0d39" points="1213.5,-679.97 1210,-669.97 1206.5,-679.97 1213.5,-679.97"/>
</g>
<!-- (t)Created Purchase Order&#45;&gt;(p)DOCTYPE_PURCHORD4 -->
<g id="edge18" class="edge">
<title>(t)Created Purchase Order&#45;&gt;(p)DOCTYPE_PURCHORD4</title>
<path fill="none" stroke="#39f6c0" d="M1781,-1264.33C1781,-1256.21 1781,-1247.32 1781,-1238.02"/>
<polygon fill="#39f6c0" stroke="#39f6c0" points="1784.5,-1237.79 1781,-1227.79 1777.5,-1237.79 1784.5,-1237.79"/>
</g>
<!-- (t) Rejected Purchase Order&#45;&gt;(p)DOCTYPE_PURCHORD2 -->
<g id="edge14" class="edge">
<title>(t) Rejected Purchase Order&#45;&gt;(p)DOCTYPE_PURCHORD2</title>
<path fill="none" stroke="#39f6c0" d="M1692.69,-701C1694.75,-616.13 1703.01,-422.28 1736,-263.14 1738.27,-252.21 1741.06,-240.95 1744.16,-229.76"/>
<polygon fill="#39f6c0" stroke="#39f6c0" points="1747.58,-230.52 1746.96,-219.95 1740.85,-228.61 1747.58,-230.52"/>
</g>
<!-- (t)Goods Receipt for Order&#45;&gt;(p)DOCTYPE_PURCHORD2 -->
<g id="edge15" class="edge">
<title>(t)Goods Receipt for Order&#45;&gt;(p)DOCTYPE_PURCHORD2</title>
<path fill="none" stroke="#39f6c0" d="M1933.91,-263.04C1915.53,-244.65 1893.4,-222.51 1871.88,-200.98"/>
<polygon fill="#39f6c0" stroke="#39f6c0" points="1874.15,-198.3 1864.61,-193.71 1869.2,-203.25 1874.15,-198.3"/>
</g>
<!-- (t)Released Purchase Order (1)&#45;&gt;(p)DOCTYPE_PURCHORD3 -->
<g id="edge16" class="edge">
<title>(t)Released Purchase Order (1)&#45;&gt;(p)DOCTYPE_PURCHORD3</title>
<path fill="none" stroke="#39f6c0" d="M1989.7,-807.11C1989.5,-776.86 1989.21,-734.64 1988.93,-693.53"/>
<polygon fill="#39f6c0" stroke="#39f6c0" points="1992.43,-693.37 1988.86,-683.39 1985.43,-693.42 1992.43,-693.37"/>
</g>
</g>
</svg>
