<?xml version="1.0" encoding="UTF-8" standalone="no"?>
<!DOCTYPE svg PUBLIC "-//W3C//DTD SVG 1.1//EN"
 "http://www.w3.org/Graphics/SVG/1.1/DTD/svg11.dtd">
<!-- Generated by graphviz version 2.50.0 (0)
 -->
<!-- Title: ocdfg Pages: 1 -->
<svg width="1649pt" height="221pt"
 viewBox="0.00 0.00 1648.58 221.00" xmlns="http://www.w3.org/2000/svg" xmlns:xlink="http://www.w3.org/1999/xlink">
<g id="graph0" class="graph" transform="scale(1 1) rotate(0) translate(4 217)">
<title>ocdfg</title>
<!-- 6164e978&#45;22b6&#45;4eb0&#45;8ebc&#45;0ddc45e4420c -->
<g id="node1" class="node">
<title>6164e978&#45;22b6&#45;4eb0&#45;8ebc&#45;0ddc45e4420c</title>
<polygon fill="none" stroke="black" points="505.58,-36 302.58,-36 302.58,0 505.58,0 505.58,-36"/>
<text text-anchor="middle" x="404.08" y="-14.3" font-family="Times,serif" font-size="14.00">Created Production Order</text>
</g>
<!-- 93284682&#45;b665&#45;4566&#45;8eba&#45;a663c816ee02 -->
<g id="node7" class="node">
<title>93284682&#45;b665&#45;4566&#45;8eba&#45;a663c816ee02</title>
<polygon fill="none" stroke="black" points="963.58,-36 706.58,-36 706.58,0 963.58,0 963.58,-36"/>
<text text-anchor="middle" x="835.08" y="-14.3" font-family="Times,serif" font-size="14.00">Goods Issue for Production Order</text>
</g>
<!-- 6164e978&#45;22b6&#45;4eb0&#45;8ebc&#45;0ddc45e4420c&#45;&gt;93284682&#45;b665&#45;4566&#45;8eba&#45;a663c816ee02 -->
<g id="edge5" class="edge">
<title>6164e978&#45;22b6&#45;4eb0&#45;8ebc&#45;0ddc45e4420c&#45;&gt;93284682&#45;b665&#45;4566&#45;8eba&#45;a663c816ee02</title>
<path fill="none" stroke="#f491f3" d="M505.66,-18C562.43,-18 634.2,-18 696.16,-18"/>
<polygon fill="#f491f3" stroke="#f491f3" points="696.41,-21.5 706.41,-18 696.41,-14.5 696.41,-21.5"/>
<text text-anchor="middle" x="619.58" y="-20.6" font-family="Times,serif" font-size="8.00" fill="#f491f3">DOCTYPE_PRODORD EC=1MO</text>
</g>
<!-- e48c6c47&#45;d82a&#45;4f3b&#45;bf32&#45;f5e1b6fa1029 -->
<g id="node2" class="node">
<title>e48c6c47&#45;d82a&#45;4f3b&#45;bf32&#45;f5e1b6fa1029</title>
<polygon fill="none" stroke="black" points="534.58,-117 273.58,-117 273.58,-81 534.58,-81 534.58,-117"/>
<text text-anchor="middle" x="404.08" y="-95.3" font-family="Times,serif" font-size="14.00">Released Purchase Requisition (1)</text>
</g>
<!-- 2367fe1e&#45;c4fd&#45;47e6&#45;bbdb&#45;eb983bbb09bf -->
<g id="node3" class="node">
<title>2367fe1e&#45;c4fd&#45;47e6&#45;bbdb&#45;eb983bbb09bf</title>
<polygon fill="none" stroke="black" points="965.58,-117 704.58,-117 704.58,-81 965.58,-81 965.58,-117"/>
<text text-anchor="middle" x="835.08" y="-95.3" font-family="Times,serif" font-size="14.00">Released Purchase Requisition (2)</text>
</g>
<!-- e48c6c47&#45;d82a&#45;4f3b&#45;bf32&#45;f5e1b6fa1029&#45;&gt;2367fe1e&#45;c4fd&#45;47e6&#45;bbdb&#45;eb983bbb09bf -->
<g id="edge1" class="edge">
<title>e48c6c47&#45;d82a&#45;4f3b&#45;bf32&#45;f5e1b6fa1029&#45;&gt;2367fe1e&#45;c4fd&#45;47e6&#45;bbdb&#45;eb983bbb09bf</title>
<path fill="none" stroke="#17069d" d="M534.67,-99C585.08,-99 642.95,-99 694.3,-99"/>
<polygon fill="#17069d" stroke="#17069d" points="694.47,-102.5 704.47,-99 694.47,-95.5 694.47,-102.5"/>
<text text-anchor="middle" x="619.58" y="-101.6" font-family="Times,serif" font-size="8.00" fill="#17069d">DOCTYPE_PURCHREQ EC=2D</text>
</g>
<!-- 2879eda5&#45;2b4d&#45;4716&#45;8028&#45;a4203d8acaba -->
<g id="node14" class="node">
<title>2879eda5&#45;2b4d&#45;4716&#45;8028&#45;a4203d8acaba</title>
<polygon fill="none" stroke="transparent" points="1402.08,-117 1221.08,-117 1221.08,-81 1402.08,-81 1402.08,-117"/>
<polyline fill="none" stroke="black" points="1221.08,-81 1402.08,-81 "/>
<text text-anchor="middle" x="1311.58" y="-95.3" font-family="Times,serif" font-size="14.00" fill="#17069d">DOCTYPE_PURCHREQ</text>
</g>
<!-- 2367fe1e&#45;c4fd&#45;47e6&#45;bbdb&#45;eb983bbb09bf&#45;&gt;2879eda5&#45;2b4d&#45;4716&#45;8028&#45;a4203d8acaba -->
<g id="edge12" class="edge">
<title>2367fe1e&#45;c4fd&#45;47e6&#45;bbdb&#45;eb983bbb09bf&#45;&gt;2879eda5&#45;2b4d&#45;4716&#45;8028&#45;a4203d8acaba</title>
<path fill="none" stroke="#17069d" d="M965.74,-99C1042.89,-99 1139.3,-99 1210.55,-99"/>
<polygon fill="#17069d" stroke="#17069d" points="1210.88,-102.5 1220.88,-99 1210.88,-95.5 1210.88,-102.5"/>
</g>
<!-- fc9a1e7f&#45;b8b6&#45;428c&#45;a724&#45;9659f80c452f -->
<g id="node4" class="node">
<title>fc9a1e7f&#45;b8b6&#45;428c&#45;a724&#45;9659f80c452f</title>
<polygon fill="none" stroke="black" points="499.58,-188 308.58,-188 308.58,-152 499.58,-152 499.58,-188"/>
<text text-anchor="middle" x="404.08" y="-166.3" font-family="Times,serif" font-size="14.00">Created Purchase Order</text>
</g>
<!-- 110fe401&#45;e47e&#45;4712&#45;8bd6&#45;c951d176de5a -->
<g id="node5" class="node">
<title>110fe401&#45;e47e&#45;4712&#45;8bd6&#45;c951d176de5a</title>
<polygon fill="none" stroke="black" points="946.08,-213 724.08,-213 724.08,-177 946.08,-177 946.08,-213"/>
<text text-anchor="middle" x="835.08" y="-191.3" font-family="Times,serif" font-size="14.00">Released Purchase Order (1)</text>
</g>
<!-- fc9a1e7f&#45;b8b6&#45;428c&#45;a724&#45;9659f80c452f&#45;&gt;110fe401&#45;e47e&#45;4712&#45;8bd6&#45;c951d176de5a -->
<g id="edge2" class="edge">
<title>fc9a1e7f&#45;b8b6&#45;428c&#45;a724&#45;9659f80c452f&#45;&gt;110fe401&#45;e47e&#45;4712&#45;8bd6&#45;c951d176de5a</title>
<path fill="none" stroke="#11646f" d="M499.76,-175.52C562.66,-179.18 645.8,-184.03 713.43,-187.97"/>
<polygon fill="#11646f" stroke="#11646f" points="713.53,-191.48 723.72,-188.57 713.94,-184.49 713.53,-191.48"/>
<text text-anchor="middle" x="619.58" y="-188.6" font-family="Times,serif" font-size="8.00" fill="#11646f">DOCTYPE_PURCHORD EC=13D</text>
</g>
<!-- d80f210d&#45;067f&#45;4e8a&#45;aa78&#45;8876317185b1 -->
<g id="node9" class="node">
<title>d80f210d&#45;067f&#45;4e8a&#45;aa78&#45;8876317185b1</title>
<polygon fill="none" stroke="black" points="1183.58,-167 983.58,-167 983.58,-131 1183.58,-131 1183.58,-167"/>
<text text-anchor="middle" x="1083.58" y="-145.3" font-family="Times,serif" font-size="14.00"> Rejected Purchase Order</text>
</g>
<!-- fc9a1e7f&#45;b8b6&#45;428c&#45;a724&#45;9659f80c452f&#45;&gt;d80f210d&#45;067f&#45;4e8a&#45;aa78&#45;8876317185b1 -->
<g id="edge4" class="edge">
<title>fc9a1e7f&#45;b8b6&#45;428c&#45;a724&#45;9659f80c452f&#45;&gt;d80f210d&#45;067f&#45;4e8a&#45;aa78&#45;8876317185b1</title>
<path fill="none" stroke="#11646f" d="M499.9,-166.73C517.41,-166.15 535.55,-165.55 552.58,-165 698.09,-160.34 866.08,-155.33 973.25,-152.18"/>
<polygon fill="#11646f" stroke="#11646f" points="973.54,-155.68 983.43,-151.88 973.33,-148.68 973.54,-155.68"/>
<text text-anchor="middle" x="619.58" y="-167.6" font-family="Times,serif" font-size="8.00" fill="#11646f">DOCTYPE_PURCHORD EC=15D</text>
</g>
<!-- f04513b0&#45;0b5b&#45;452e&#45;966f&#45;cdaa1e76e831 -->
<g id="node6" class="node">
<title>f04513b0&#45;0b5b&#45;452e&#45;966f&#45;cdaa1e76e831</title>
<polygon fill="none" stroke="black" points="1407.08,-213 1216.08,-213 1216.08,-177 1407.08,-177 1407.08,-213"/>
<text text-anchor="middle" x="1311.58" y="-191.3" font-family="Times,serif" font-size="14.00">Goods Receipt for Order</text>
</g>
<!-- 110fe401&#45;e47e&#45;4712&#45;8bd6&#45;c951d176de5a&#45;&gt;f04513b0&#45;0b5b&#45;452e&#45;966f&#45;cdaa1e76e831 -->
<g id="edge3" class="edge">
<title>110fe401&#45;e47e&#45;4712&#45;8bd6&#45;c951d176de5a&#45;&gt;f04513b0&#45;0b5b&#45;452e&#45;966f&#45;cdaa1e76e831</title>
<path fill="none" stroke="#11646f" d="M946.13,-195C1024.34,-195 1128.73,-195 1205.74,-195"/>
<polygon fill="#11646f" stroke="#11646f" points="1205.95,-198.5 1215.95,-195 1205.95,-191.5 1205.95,-198.5"/>
<text text-anchor="middle" x="1083.58" y="-197.6" font-family="Times,serif" font-size="8.00" fill="#11646f">DOCTYPE_PURCHORD EC=3D</text>
</g>
<!-- a6f4c5f6&#45;68ee&#45;467a&#45;a5ef&#45;4363cec48b12 -->
<g id="node15" class="node">
<title>a6f4c5f6&#45;68ee&#45;467a&#45;a5ef&#45;4363cec48b12</title>
<polygon fill="none" stroke="transparent" points="1640.58,-185 1458.58,-185 1458.58,-149 1640.58,-149 1640.58,-185"/>
<polyline fill="none" stroke="black" points="1458.58,-149 1640.58,-149 "/>
<text text-anchor="middle" x="1549.58" y="-163.3" font-family="Times,serif" font-size="14.00" fill="#11646f">DOCTYPE_PURCHORD</text>
</g>
<!-- f04513b0&#45;0b5b&#45;452e&#45;966f&#45;cdaa1e76e831&#45;&gt;a6f4c5f6&#45;68ee&#45;467a&#45;a5ef&#45;4363cec48b12 -->
<g id="edge13" class="edge">
<title>f04513b0&#45;0b5b&#45;452e&#45;966f&#45;cdaa1e76e831&#45;&gt;a6f4c5f6&#45;68ee&#45;467a&#45;a5ef&#45;4363cec48b12</title>
<path fill="none" stroke="#11646f" stroke-width="2.16" d="M1407.21,-183.77C1420.7,-182.17 1434.61,-180.52 1448.21,-178.91"/>
<polygon fill="#11646f" stroke="#11646f" stroke-width="2.16" points="1449.01,-182.34 1458.53,-177.68 1448.18,-175.39 1449.01,-182.34"/>
</g>
<!-- 93284682&#45;b665&#45;4566&#45;8eba&#45;a663c816ee02&#45;&gt;93284682&#45;b665&#45;4566&#45;8eba&#45;a663c816ee02 -->
<g id="edge7" class="edge">
<title>93284682&#45;b665&#45;4566&#45;8eba&#45;a663c816ee02&#45;&gt;93284682&#45;b665&#45;4566&#45;8eba&#45;a663c816ee02</title>
<path fill="none" stroke="#f491f3" d="M796.36,-36.15C790.41,-45.54 803.31,-54 835.08,-54 854.44,-54 866.79,-50.86 872.14,-46.28"/>
<polygon fill="#f491f3" stroke="#f491f3" points="875.64,-46.59 873.79,-36.15 868.73,-45.46 875.64,-46.59"/>
<text text-anchor="middle" x="835.08" y="-56.6" font-family="Times,serif" font-size="8.00" fill="#f491f3">DOCTYPE_PRODORD EC=0s</text>
</g>
<!-- 01af6d54&#45;176f&#45;424a&#45;8b7c&#45;dabb7e6caeec -->
<g id="node8" class="node">
<title>01af6d54&#45;176f&#45;424a&#45;8b7c&#45;dabb7e6caeec</title>
<polygon fill="none" stroke="black" points="1421.58,-36 1201.58,-36 1201.58,0 1421.58,0 1421.58,-36"/>
<text text-anchor="middle" x="1311.58" y="-14.3" font-family="Times,serif" font-size="14.00">Confirmed Production Order</text>
</g>
<!-- 93284682&#45;b665&#45;4566&#45;8eba&#45;a663c816ee02&#45;&gt;01af6d54&#45;176f&#45;424a&#45;8b7c&#45;dabb7e6caeec -->
<g id="edge6" class="edge">
<title>93284682&#45;b665&#45;4566&#45;8eba&#45;a663c816ee02&#45;&gt;01af6d54&#45;176f&#45;424a&#45;8b7c&#45;dabb7e6caeec</title>
<path fill="none" stroke="#f491f3" d="M963.86,-18C1034.63,-18 1122.04,-18 1191.39,-18"/>
<polygon fill="#f491f3" stroke="#f491f3" points="1191.49,-21.5 1201.49,-18 1191.49,-14.5 1191.49,-21.5"/>
<text text-anchor="middle" x="1083.58" y="-20.6" font-family="Times,serif" font-size="8.00" fill="#f491f3">DOCTYPE_PRODORD EC=1D</text>
</g>
<!-- 7ca9a9e5&#45;2e77&#45;44ff&#45;85f0&#45;425be324daf7 -->
<g id="node13" class="node">
<title>7ca9a9e5&#45;2e77&#45;44ff&#45;85f0&#45;425be324daf7</title>
<polygon fill="none" stroke="transparent" points="1634.58,-36 1464.58,-36 1464.58,0 1634.58,0 1634.58,-36"/>
<polyline fill="none" stroke="black" points="1464.58,0 1634.58,0 "/>
<text text-anchor="middle" x="1549.58" y="-14.3" font-family="Times,serif" font-size="14.00" fill="#f491f3">DOCTYPE_PRODORD</text>
</g>
<!-- 01af6d54&#45;176f&#45;424a&#45;8b7c&#45;dabb7e6caeec&#45;&gt;7ca9a9e5&#45;2e77&#45;44ff&#45;85f0&#45;425be324daf7 -->
<g id="edge11" class="edge">
<title>01af6d54&#45;176f&#45;424a&#45;8b7c&#45;dabb7e6caeec&#45;&gt;7ca9a9e5&#45;2e77&#45;44ff&#45;85f0&#45;425be324daf7</title>
<path fill="none" stroke="#f491f3" stroke-width="2.6" d="M1421.6,-18C1432.49,-18 1443.48,-18 1454.21,-18"/>
<polygon fill="#f491f3" stroke="#f491f3" stroke-width="2.6" points="1454.39,-21.5 1464.39,-18 1454.39,-14.5 1454.39,-21.5"/>
</g>
<!-- d80f210d&#45;067f&#45;4e8a&#45;aa78&#45;8876317185b1&#45;&gt;a6f4c5f6&#45;68ee&#45;467a&#45;a5ef&#45;4363cec48b12 -->
<g id="edge14" class="edge">
<title>d80f210d&#45;067f&#45;4e8a&#45;aa78&#45;8876317185b1&#45;&gt;a6f4c5f6&#45;68ee&#45;467a&#45;a5ef&#45;4363cec48b12</title>
<path fill="none" stroke="#11646f" d="M1183.83,-152.85C1261.8,-155.87 1369.9,-160.07 1448.16,-163.1"/>
<polygon fill="#11646f" stroke="#11646f" points="1448.39,-166.62 1458.52,-163.51 1448.66,-159.62 1448.39,-166.62"/>
</g>
<!-- 0bc15db4&#45;8f78&#45;4065&#45;81a5&#45;50f9da07f3d7 -->
<g id="node10" class="node">
<title>0bc15db4&#45;8f78&#45;4065&#45;81a5&#45;50f9da07f3d7</title>
<ellipse fill="#f491f3" stroke="black" cx="118.29" cy="-18" rx="110.48" ry="18"/>
<text text-anchor="middle" x="118.29" y="-14.3" font-family="Times,serif" font-size="14.00">DOCTYPE_PRODORD</text>
</g>
<!-- 0bc15db4&#45;8f78&#45;4065&#45;81a5&#45;50f9da07f3d7&#45;&gt;6164e978&#45;22b6&#45;4eb0&#45;8ebc&#45;0ddc45e4420c -->
<g id="edge8" class="edge">
<title>0bc15db4&#45;8f78&#45;4065&#45;81a5&#45;50f9da07f3d7&#45;&gt;6164e978&#45;22b6&#45;4eb0&#45;8ebc&#45;0ddc45e4420c</title>
<path fill="none" stroke="#f491f3" stroke-width="2.6" d="M229.01,-18C249.79,-18 271.53,-18 292.34,-18"/>
<polygon fill="#f491f3" stroke="#f491f3" stroke-width="2.6" points="292.47,-21.5 302.47,-18 292.47,-14.5 292.47,-21.5"/>
</g>
<!-- 39a05fdf&#45;f00e&#45;4b29&#45;a345&#45;6880f545fb23 -->
<g id="node11" class="node">
<title>39a05fdf&#45;f00e&#45;4b29&#45;a345&#45;6880f545fb23</title>
<ellipse fill="#17069d" stroke="black" cx="118.29" cy="-99" rx="117.78" ry="18"/>
<text text-anchor="middle" x="118.29" y="-95.3" font-family="Times,serif" font-size="14.00">DOCTYPE_PURCHREQ</text>
</g>
<!-- 39a05fdf&#45;f00e&#45;4b29&#45;a345&#45;6880f545fb23&#45;&gt;e48c6c47&#45;d82a&#45;4f3b&#45;bf32&#45;f5e1b6fa1029 -->
<g id="edge9" class="edge">
<title>39a05fdf&#45;f00e&#45;4b29&#45;a345&#45;6880f545fb23&#45;&gt;e48c6c47&#45;d82a&#45;4f3b&#45;bf32&#45;f5e1b6fa1029</title>
<path fill="none" stroke="#17069d" d="M235.95,-99C244.94,-99 254.08,-99 263.21,-99"/>
<polygon fill="#17069d" stroke="#17069d" points="263.5,-102.5 273.5,-99 263.5,-95.5 263.5,-102.5"/>
</g>
<!-- 6277e59e&#45;b22a&#45;4655&#45;9c6b&#45;ee868fd8ff4f -->
<g id="node12" class="node">
<title>6277e59e&#45;b22a&#45;4655&#45;9c6b&#45;ee868fd8ff4f</title>
<ellipse fill="#11646f" stroke="black" cx="118.29" cy="-170" rx="118.08" ry="18"/>
<text text-anchor="middle" x="118.29" y="-166.3" font-family="Times,serif" font-size="14.00">DOCTYPE_PURCHORD</text>
</g>
<!-- 6277e59e&#45;b22a&#45;4655&#45;9c6b&#45;ee868fd8ff4f&#45;&gt;fc9a1e7f&#45;b8b6&#45;428c&#45;a724&#45;9659f80c452f -->
<g id="edge10" class="edge">
<title>6277e59e&#45;b22a&#45;4655&#45;9c6b&#45;ee868fd8ff4f&#45;&gt;fc9a1e7f&#45;b8b6&#45;428c&#45;a724&#45;9659f80c452f</title>
<path fill="none" stroke="#11646f" stroke-width="2.6" d="M236.77,-170C257.12,-170 278.16,-170 298.14,-170"/>
<polygon fill="#11646f" stroke="#11646f" stroke-width="2.6" points="298.18,-173.5 308.18,-170 298.18,-166.5 298.18,-173.5"/>
</g>
</g>
</svg>
