<?xml version="1.0" encoding="UTF-8" standalone="no"?>
<!DOCTYPE svg PUBLIC "-//W3C//DTD SVG 1.1//EN"
 "http://www.w3.org/Graphics/SVG/1.1/DTD/svg11.dtd">
<!-- Generated by graphviz version 2.50.0 (0)
 -->
<!-- Title: ocdfg Pages: 1 -->
<svg width="1905pt" height="230pt"
 viewBox="0.00 0.00 1904.58 230.00" xmlns="http://www.w3.org/2000/svg" xmlns:xlink="http://www.w3.org/1999/xlink">
<g id="graph0" class="graph" transform="scale(1 1) rotate(0) translate(4 226)">
<title>ocdfg</title>
<!-- dfa78025&#45;15d8&#45;4953&#45;abf5&#45;0985ae726277 -->
<g id="node1" class="node">
<title>dfa78025&#45;15d8&#45;4953&#45;abf5&#45;0985ae726277</title>
<polygon fill="#e7e7ff" stroke="black" points="637.58,-38 434.58,-38 434.58,0 637.58,0 637.58,-38"/>
<text text-anchor="middle" x="536.08" y="-22.8" font-family="Times,serif" font-size="14.00">Created Production Order</text>
<text text-anchor="middle" x="536.08" y="-7.8" font-family="Times,serif" font-size="14.00">E=50</text>
</g>
<!-- 2babcf83&#45;e162&#45;4cf1&#45;9131&#45;26882232a193 -->
<g id="node7" class="node">
<title>2babcf83&#45;e162&#45;4cf1&#45;9131&#45;26882232a193</title>
<polygon fill="#b6b6ff" stroke="black" points="1093.58,-38 836.58,-38 836.58,0 1093.58,0 1093.58,-38"/>
<text text-anchor="middle" x="965.08" y="-22.8" font-family="Times,serif" font-size="14.00">Goods Issue for Production Order</text>
<text text-anchor="middle" x="965.08" y="-7.8" font-family="Times,serif" font-size="14.00">E=98</text>
</g>
<!-- dfa78025&#45;15d8&#45;4953&#45;abf5&#45;0985ae726277&#45;&gt;2babcf83&#45;e162&#45;4cf1&#45;9131&#45;26882232a193 -->
<g id="edge5" class="edge">
<title>dfa78025&#45;15d8&#45;4953&#45;abf5&#45;0985ae726277&#45;&gt;2babcf83&#45;e162&#45;4cf1&#45;9131&#45;26882232a193</title>
<path fill="none" stroke="#f491f3" stroke-width="2.6" d="M637.73,-19C694.02,-19 764.99,-19 826.37,-19"/>
<polygon fill="#f491f3" stroke="#f491f3" stroke-width="2.6" points="826.52,-22.5 836.52,-19 826.52,-15.5 826.52,-22.5"/>
<text text-anchor="middle" x="750.58" y="-21.6" font-family="Times,serif" font-size="8.00" fill="#f491f3">DOCTYPE_PRODORD EC=50</text>
</g>
<!-- d9d75032&#45;7da3&#45;45be&#45;a20d&#45;ea6344cbc35c -->
<g id="node2" class="node">
<title>d9d75032&#45;7da3&#45;45be&#45;a20d&#45;ea6344cbc35c</title>
<polygon fill="#9b9bff" stroke="black" points="666.58,-121 405.58,-121 405.58,-83 666.58,-83 666.58,-121"/>
<text text-anchor="middle" x="536.08" y="-105.8" font-family="Times,serif" font-size="14.00">Released Purchase Requisition (1)</text>
<text text-anchor="middle" x="536.08" y="-90.8" font-family="Times,serif" font-size="14.00">E=125</text>
</g>
<!-- f6ee2ef1&#45;c1d5&#45;47f8&#45;bbde&#45;99f5bb00e3b0 -->
<g id="node3" class="node">
<title>f6ee2ef1&#45;c1d5&#45;47f8&#45;bbde&#45;99f5bb00e3b0</title>
<polygon fill="#9b9bff" stroke="black" points="1095.58,-121 834.58,-121 834.58,-83 1095.58,-83 1095.58,-121"/>
<text text-anchor="middle" x="965.08" y="-105.8" font-family="Times,serif" font-size="14.00">Released Purchase Requisition (2)</text>
<text text-anchor="middle" x="965.08" y="-90.8" font-family="Times,serif" font-size="14.00">E=125</text>
</g>
<!-- d9d75032&#45;7da3&#45;45be&#45;a20d&#45;ea6344cbc35c&#45;&gt;f6ee2ef1&#45;c1d5&#45;47f8&#45;bbde&#45;99f5bb00e3b0 -->
<g id="edge1" class="edge">
<title>d9d75032&#45;7da3&#45;45be&#45;a20d&#45;ea6344cbc35c&#45;&gt;f6ee2ef1&#45;c1d5&#45;47f8&#45;bbde&#45;99f5bb00e3b0</title>
<path fill="none" stroke="#17069d" d="M666.64,-102C716.45,-102 773.51,-102 824.25,-102"/>
<polygon fill="#17069d" stroke="#17069d" points="824.31,-105.5 834.31,-102 824.31,-98.5 824.31,-105.5"/>
<text text-anchor="middle" x="750.58" y="-104.6" font-family="Times,serif" font-size="8.00" fill="#17069d">DOCTYPE_PURCHREQ EC=125</text>
</g>
<!-- 37a5418f&#45;9b8f&#45;49b6&#45;ae7d&#45;55e9bae750b4 -->
<g id="node14" class="node">
<title>37a5418f&#45;9b8f&#45;49b6&#45;ae7d&#45;55e9bae750b4</title>
<polygon fill="none" stroke="transparent" points="1532.08,-120 1351.08,-120 1351.08,-84 1532.08,-84 1532.08,-120"/>
<polyline fill="none" stroke="black" points="1351.08,-84 1532.08,-84 "/>
<text text-anchor="middle" x="1441.58" y="-98.3" font-family="Times,serif" font-size="14.00" fill="#17069d">DOCTYPE_PURCHREQ</text>
</g>
<!-- f6ee2ef1&#45;c1d5&#45;47f8&#45;bbde&#45;99f5bb00e3b0&#45;&gt;37a5418f&#45;9b8f&#45;49b6&#45;ae7d&#45;55e9bae750b4 -->
<g id="edge12" class="edge">
<title>f6ee2ef1&#45;c1d5&#45;47f8&#45;bbde&#45;99f5bb00e3b0&#45;&gt;37a5418f&#45;9b8f&#45;49b6&#45;ae7d&#45;55e9bae750b4</title>
<path fill="none" stroke="#17069d" d="M1095.74,-102C1172.89,-102 1269.3,-102 1340.55,-102"/>
<polygon fill="#17069d" stroke="#17069d" points="1340.88,-105.5 1350.88,-102 1340.88,-98.5 1340.88,-105.5"/>
<text text-anchor="middle" x="1213.58" y="-104.6" font-family="Times,serif" font-size="8.00" fill="#17069d">DOCTYPE_PURCHREQ EC=125</text>
</g>
<!-- 8decf468&#45;ba6e&#45;4061&#45;8c26&#45;212a9dfb297a -->
<g id="node4" class="node">
<title>8decf468&#45;ba6e&#45;4061&#45;8c26&#45;212a9dfb297a</title>
<polygon fill="#9b9bff" stroke="black" points="631.58,-195 440.58,-195 440.58,-157 631.58,-157 631.58,-195"/>
<text text-anchor="middle" x="536.08" y="-179.8" font-family="Times,serif" font-size="14.00">Created Purchase Order</text>
<text text-anchor="middle" x="536.08" y="-164.8" font-family="Times,serif" font-size="14.00">E=125</text>
</g>
<!-- a05fd058&#45;01df&#45;4c64&#45;8447&#45;67878e8a1630 -->
<g id="node5" class="node">
<title>a05fd058&#45;01df&#45;4c64&#45;8447&#45;67878e8a1630</title>
<polygon fill="#b6b6ff" stroke="black" points="1076.08,-222 854.08,-222 854.08,-184 1076.08,-184 1076.08,-222"/>
<text text-anchor="middle" x="965.08" y="-206.8" font-family="Times,serif" font-size="14.00">Released Purchase Order (1)</text>
<text text-anchor="middle" x="965.08" y="-191.8" font-family="Times,serif" font-size="14.00">E=98</text>
</g>
<!-- 8decf468&#45;ba6e&#45;4061&#45;8c26&#45;212a9dfb297a&#45;&gt;a05fd058&#45;01df&#45;4c64&#45;8447&#45;67878e8a1630 -->
<g id="edge2" class="edge">
<title>8decf468&#45;ba6e&#45;4061&#45;8c26&#45;212a9dfb297a&#45;&gt;a05fd058&#45;01df&#45;4c64&#45;8447&#45;67878e8a1630</title>
<path fill="none" stroke="#11646f" stroke-width="2.16" d="M631.58,-181.98C694.08,-185.93 776.58,-191.14 843.76,-195.39"/>
<polygon fill="#11646f" stroke="#11646f" stroke-width="2.16" points="843.78,-198.9 853.98,-196.04 844.22,-191.91 843.78,-198.9"/>
<text text-anchor="middle" x="750.58" y="-195.6" font-family="Times,serif" font-size="8.00" fill="#11646f">DOCTYPE_PURCHORD EC=98</text>
</g>
<!-- 29c7ad9b&#45;d2e4&#45;4f69&#45;acdb&#45;029726ab4913 -->
<g id="node9" class="node">
<title>29c7ad9b&#45;d2e4&#45;4f69&#45;acdb&#45;029726ab4913</title>
<polygon fill="#ffffff" stroke="black" points="1313.58,-175 1113.58,-175 1113.58,-137 1313.58,-137 1313.58,-175"/>
<text text-anchor="middle" x="1213.58" y="-159.8" font-family="Times,serif" font-size="14.00"> Rejected Purchase Order</text>
<text text-anchor="middle" x="1213.58" y="-144.8" font-family="Times,serif" font-size="14.00">E=27</text>
</g>
<!-- 8decf468&#45;ba6e&#45;4061&#45;8c26&#45;212a9dfb297a&#45;&gt;29c7ad9b&#45;d2e4&#45;4f69&#45;acdb&#45;029726ab4913 -->
<g id="edge4" class="edge">
<title>8decf468&#45;ba6e&#45;4061&#45;8c26&#45;212a9dfb297a&#45;&gt;29c7ad9b&#45;d2e4&#45;4f69&#45;acdb&#45;029726ab4913</title>
<path fill="none" stroke="#11646f" d="M631.72,-173.2C755.66,-169.53 972.53,-163.11 1103.32,-159.23"/>
<polygon fill="#11646f" stroke="#11646f" points="1103.48,-162.73 1113.37,-158.94 1103.27,-155.73 1103.48,-162.73"/>
<text text-anchor="middle" x="750.58" y="-173.6" font-family="Times,serif" font-size="8.00" fill="#11646f">DOCTYPE_PURCHORD EC=27</text>
</g>
<!-- f78afe7b&#45;ea3c&#45;430d&#45;8354&#45;4919f48a3c3e -->
<g id="node6" class="node">
<title>f78afe7b&#45;ea3c&#45;430d&#45;8354&#45;4919f48a3c3e</title>
<polygon fill="#b6b6ff" stroke="black" points="1537.08,-222 1346.08,-222 1346.08,-184 1537.08,-184 1537.08,-222"/>
<text text-anchor="middle" x="1441.58" y="-206.8" font-family="Times,serif" font-size="14.00">Goods Receipt for Order</text>
<text text-anchor="middle" x="1441.58" y="-191.8" font-family="Times,serif" font-size="14.00">E=98</text>
</g>
<!-- a05fd058&#45;01df&#45;4c64&#45;8447&#45;67878e8a1630&#45;&gt;f78afe7b&#45;ea3c&#45;430d&#45;8354&#45;4919f48a3c3e -->
<g id="edge3" class="edge">
<title>a05fd058&#45;01df&#45;4c64&#45;8447&#45;67878e8a1630&#45;&gt;f78afe7b&#45;ea3c&#45;430d&#45;8354&#45;4919f48a3c3e</title>
<path fill="none" stroke="#11646f" stroke-width="2.16" d="M1076.13,-203C1154.34,-203 1258.73,-203 1335.74,-203"/>
<polygon fill="#11646f" stroke="#11646f" stroke-width="2.16" points="1335.95,-206.5 1345.95,-203 1335.95,-199.5 1335.95,-206.5"/>
<text text-anchor="middle" x="1213.58" y="-205.6" font-family="Times,serif" font-size="8.00" fill="#11646f">DOCTYPE_PURCHORD EC=98</text>
</g>
<!-- 619b4266&#45;b813&#45;48c0&#45;a240&#45;2758ff739ceb -->
<g id="node15" class="node">
<title>619b4266&#45;b813&#45;48c0&#45;a240&#45;2758ff739ceb</title>
<polygon fill="none" stroke="transparent" points="1896.58,-191 1714.58,-191 1714.58,-155 1896.58,-155 1896.58,-191"/>
<polyline fill="none" stroke="black" points="1714.58,-155 1896.58,-155 "/>
<text text-anchor="middle" x="1805.58" y="-169.3" font-family="Times,serif" font-size="14.00" fill="#11646f">DOCTYPE_PURCHORD</text>
</g>
<!-- f78afe7b&#45;ea3c&#45;430d&#45;8354&#45;4919f48a3c3e&#45;&gt;619b4266&#45;b813&#45;48c0&#45;a240&#45;2758ff739ceb -->
<g id="edge13" class="edge">
<title>f78afe7b&#45;ea3c&#45;430d&#45;8354&#45;4919f48a3c3e&#45;&gt;619b4266&#45;b813&#45;48c0&#45;a240&#45;2758ff739ceb</title>
<path fill="none" stroke="#11646f" stroke-width="2.16" d="M1537.22,-195.16C1588.57,-190.9 1652.05,-185.64 1704.26,-181.31"/>
<polygon fill="#11646f" stroke="#11646f" stroke-width="2.16" points="1704.87,-184.78 1714.54,-180.46 1704.29,-177.8 1704.87,-184.78"/>
<text text-anchor="middle" x="1633.08" y="-194.6" font-family="Times,serif" font-size="8.00" fill="#11646f">DOCTYPE_PURCHORD EC=98</text>
</g>
<!-- 2babcf83&#45;e162&#45;4cf1&#45;9131&#45;26882232a193&#45;&gt;2babcf83&#45;e162&#45;4cf1&#45;9131&#45;26882232a193 -->
<g id="edge7" class="edge">
<title>2babcf83&#45;e162&#45;4cf1&#45;9131&#45;26882232a193&#45;&gt;2babcf83&#45;e162&#45;4cf1&#45;9131&#45;26882232a193</title>
<path fill="none" stroke="#f491f3" d="M926.14,-38.04C920.75,-47.53 933.73,-56 965.08,-56 984.18,-56 996.46,-52.86 1001.92,-48.25"/>
<polygon fill="#f491f3" stroke="#f491f3" points="1005.44,-48.54 1004.02,-38.04 998.58,-47.13 1005.44,-48.54"/>
<text text-anchor="middle" x="965.08" y="-58.6" font-family="Times,serif" font-size="8.00" fill="#f491f3">DOCTYPE_PRODORD EC=48</text>
</g>
<!-- dd4d9a5d&#45;85f8&#45;4c6f&#45;90fc&#45;c4b46692bb13 -->
<g id="node8" class="node">
<title>dd4d9a5d&#45;85f8&#45;4c6f&#45;90fc&#45;c4b46692bb13</title>
<polygon fill="#e7e7ff" stroke="black" points="1551.58,-38 1331.58,-38 1331.58,0 1551.58,0 1551.58,-38"/>
<text text-anchor="middle" x="1441.58" y="-22.8" font-family="Times,serif" font-size="14.00">Confirmed Production Order</text>
<text text-anchor="middle" x="1441.58" y="-7.8" font-family="Times,serif" font-size="14.00">E=50</text>
</g>
<!-- 2babcf83&#45;e162&#45;4cf1&#45;9131&#45;26882232a193&#45;&gt;dd4d9a5d&#45;85f8&#45;4c6f&#45;90fc&#45;c4b46692bb13 -->
<g id="edge6" class="edge">
<title>2babcf83&#45;e162&#45;4cf1&#45;9131&#45;26882232a193&#45;&gt;dd4d9a5d&#45;85f8&#45;4c6f&#45;90fc&#45;c4b46692bb13</title>
<path fill="none" stroke="#f491f3" stroke-width="2.6" d="M1093.86,-19C1164.63,-19 1252.04,-19 1321.39,-19"/>
<polygon fill="#f491f3" stroke="#f491f3" stroke-width="2.6" points="1321.49,-22.5 1331.49,-19 1321.49,-15.5 1321.49,-22.5"/>
<text text-anchor="middle" x="1213.58" y="-21.6" font-family="Times,serif" font-size="8.00" fill="#f491f3">DOCTYPE_PRODORD EC=50</text>
</g>
<!-- 2776545c&#45;4d59&#45;409d&#45;a2c9&#45;8a6a833f8939 -->
<g id="node13" class="node">
<title>2776545c&#45;4d59&#45;409d&#45;a2c9&#45;8a6a833f8939</title>
<polygon fill="none" stroke="transparent" points="1890.58,-37 1720.58,-37 1720.58,-1 1890.58,-1 1890.58,-37"/>
<polyline fill="none" stroke="black" points="1720.58,-1 1890.58,-1 "/>
<text text-anchor="middle" x="1805.58" y="-15.3" font-family="Times,serif" font-size="14.00" fill="#f491f3">DOCTYPE_PRODORD</text>
</g>
<!-- dd4d9a5d&#45;85f8&#45;4c6f&#45;90fc&#45;c4b46692bb13&#45;&gt;2776545c&#45;4d59&#45;409d&#45;a2c9&#45;8a6a833f8939 -->
<g id="edge11" class="edge">
<title>dd4d9a5d&#45;85f8&#45;4c6f&#45;90fc&#45;c4b46692bb13&#45;&gt;2776545c&#45;4d59&#45;409d&#45;a2c9&#45;8a6a833f8939</title>
<path fill="none" stroke="#f491f3" stroke-width="2.6" d="M1551.68,-19C1602.21,-19 1661.67,-19 1710.24,-19"/>
<polygon fill="#f491f3" stroke="#f491f3" stroke-width="2.6" points="1710.43,-22.5 1720.43,-19 1710.43,-15.5 1710.43,-22.5"/>
<text text-anchor="middle" x="1633.08" y="-21.6" font-family="Times,serif" font-size="8.00" fill="#f491f3">DOCTYPE_PRODORD EC=50</text>
</g>
<!-- 29c7ad9b&#45;d2e4&#45;4f69&#45;acdb&#45;029726ab4913&#45;&gt;619b4266&#45;b813&#45;48c0&#45;a240&#45;2758ff739ceb -->
<g id="edge14" class="edge">
<title>29c7ad9b&#45;d2e4&#45;4f69&#45;acdb&#45;029726ab4913&#45;&gt;619b4266&#45;b813&#45;48c0&#45;a240&#45;2758ff739ceb</title>
<path fill="none" stroke="#11646f" d="M1313.66,-158.86C1422.2,-161.98 1595.31,-166.97 1704.32,-170.11"/>
<polygon fill="#11646f" stroke="#11646f" points="1704.24,-173.61 1714.33,-170.4 1704.44,-166.61 1704.24,-173.61"/>
<text text-anchor="middle" x="1441.58" y="-167.6" font-family="Times,serif" font-size="8.00" fill="#11646f">DOCTYPE_PURCHORD EC=27</text>
</g>
<!-- 9e65c1cf&#45;9070&#45;4b3a&#45;ab7b&#45;736216c3b41c -->
<g id="node10" class="node">
<title>9e65c1cf&#45;9070&#45;4b3a&#45;ab7b&#45;736216c3b41c</title>
<ellipse fill="#f491f3" stroke="black" cx="118.29" cy="-19" rx="110.48" ry="18"/>
<text text-anchor="middle" x="118.29" y="-15.3" font-family="Times,serif" font-size="14.00">DOCTYPE_PRODORD</text>
</g>
<!-- 9e65c1cf&#45;9070&#45;4b3a&#45;ab7b&#45;736216c3b41c&#45;&gt;dfa78025&#45;15d8&#45;4953&#45;abf5&#45;0985ae726277 -->
<g id="edge8" class="edge">
<title>9e65c1cf&#45;9070&#45;4b3a&#45;ab7b&#45;736216c3b41c&#45;&gt;dfa78025&#45;15d8&#45;4953&#45;abf5&#45;0985ae726277</title>
<path fill="none" stroke="#f491f3" stroke-width="2.6" d="M228.81,-19C289.08,-19 363.69,-19 424.18,-19"/>
<polygon fill="#f491f3" stroke="#f491f3" stroke-width="2.6" points="424.53,-22.5 434.53,-19 424.53,-15.5 424.53,-22.5"/>
<text text-anchor="middle" x="321.08" y="-21.6" font-family="Times,serif" font-size="8.00" fill="#f491f3">DOCTYPE_PRODORD EC=50</text>
</g>
<!-- ee9e6c69&#45;b849&#45;4380&#45;bd5e&#45;43270e78bd3f -->
<g id="node11" class="node">
<title>ee9e6c69&#45;b849&#45;4380&#45;bd5e&#45;43270e78bd3f</title>
<ellipse fill="#17069d" stroke="black" cx="118.29" cy="-102" rx="117.78" ry="18"/>
<text text-anchor="middle" x="118.29" y="-98.3" font-family="Times,serif" font-size="14.00">DOCTYPE_PURCHREQ</text>
</g>
<!-- ee9e6c69&#45;b849&#45;4380&#45;bd5e&#45;43270e78bd3f&#45;&gt;d9d75032&#45;7da3&#45;45be&#45;a20d&#45;ea6344cbc35c -->
<g id="edge9" class="edge">
<title>ee9e6c69&#45;b849&#45;4380&#45;bd5e&#45;43270e78bd3f&#45;&gt;d9d75032&#45;7da3&#45;45be&#45;a20d&#45;ea6344cbc35c</title>
<path fill="none" stroke="#17069d" d="M235.94,-102C285.37,-102 343.39,-102 395.11,-102"/>
<polygon fill="#17069d" stroke="#17069d" points="395.37,-105.5 405.37,-102 395.37,-98.5 395.37,-105.5"/>
<text text-anchor="middle" x="321.08" y="-104.6" font-family="Times,serif" font-size="8.00" fill="#17069d">DOCTYPE_PURCHREQ EC=125</text>
</g>
<!-- 535ae436&#45;6dbe&#45;4288&#45;ae9e&#45;1aa1ccabfc97 -->
<g id="node12" class="node">
<title>535ae436&#45;6dbe&#45;4288&#45;ae9e&#45;1aa1ccabfc97</title>
<ellipse fill="#11646f" stroke="black" cx="118.29" cy="-176" rx="118.08" ry="18"/>
<text text-anchor="middle" x="118.29" y="-172.3" font-family="Times,serif" font-size="14.00">DOCTYPE_PURCHORD</text>
</g>
<!-- 535ae436&#45;6dbe&#45;4288&#45;ae9e&#45;1aa1ccabfc97&#45;&gt;8decf468&#45;ba6e&#45;4061&#45;8c26&#45;212a9dfb297a -->
<g id="edge10" class="edge">
<title>535ae436&#45;6dbe&#45;4288&#45;ae9e&#45;1aa1ccabfc97&#45;&gt;8decf468&#45;ba6e&#45;4061&#45;8c26&#45;212a9dfb297a</title>
<path fill="none" stroke="#11646f" stroke-width="2.6" d="M236.77,-176C297.61,-176 371.28,-176 430.18,-176"/>
<polygon fill="#11646f" stroke="#11646f" stroke-width="2.6" points="430.25,-179.5 440.25,-176 430.25,-172.5 430.25,-179.5"/>
<text text-anchor="middle" x="321.08" y="-178.6" font-family="Times,serif" font-size="8.00" fill="#11646f">DOCTYPE_PURCHORD EC=125</text>
</g>
</g>
</svg>
